<svg width="60" height="55" viewBox="0 0 60 55" fill="none" xmlns="http://www.w3.org/2000/svg">
<path d="M59.4651 22.929C59.4651 26.0573 50.5131 28.5102 32.609 30.2876C29.9803 43.0141 28.4172 50.1594 27.9199 51.7235C27.4226 53.2877 26.7831 54.0698 26.0016 54.0698C25.0069 54.0698 23.9412 53.3943 22.8045 52.0435C21.6677 50.6215 21.0993 49.3773 21.0993 48.3109C21.0993 47.1733 21.2059 46.0002 21.419 44.7915C21.6322 43.5118 21.9519 41.5921 22.3782 39.0326C22.8755 36.402 23.3373 33.7358 23.7636 31.0341C17.6535 31.4607 12.1828 31.674 7.35158 31.674C5.64643 31.674 4.11891 30.963 2.769 29.5411C1.41909 28.1191 0.744141 26.6616 0.744141 25.1686C0.744141 23.6755 1.73881 22.929 3.72814 22.929C14.2432 22.929 21.3125 22.7868 24.9359 22.5024C25.5753 17.1701 26.2147 10.7357 26.8542 3.19939C26.9252 1.06646 27.6357 0 28.9856 0C30.3355 0 32.0051 0.995367 33.9945 2.9861C36.0549 4.97684 37.085 6.71873 37.085 8.21178C37.085 9.63373 36.2325 14.184 34.5273 21.8625C44.6161 21.0094 50.4775 20.5828 52.1116 20.5828C57.0139 20.5828 59.4651 21.3648 59.4651 22.929Z" fill="#33706B"/>
</svg>
