<svg width="37" height="17" viewBox="0 0 37 17" fill="none" xmlns="http://www.w3.org/2000/svg">
<path d="M36.9292 8.72273C36.8858 8.77727 36.828 8.81818 36.802 8.81818C36.7702 8.81818 36.7441 8.86364 36.7326 8.93182C36.7066 9.1 36.4232 9.39091 35.686 10.0045C33.4282 11.8818 32.4973 12.9136 30.5864 15.6591C29.7972 16.7909 29.6266 17 29.4965 17C29.1872 17 29.7625 15.1545 30.5488 13.6136C30.8466 13.0273 31.5028 11.9773 31.8729 11.4909C32.24 11.0091 32.7402 10.4545 33.1304 10.0909C33.5409 9.71364 33.6392 9.63182 34.0411 9.35909C34.2174 9.23636 34.3389 9.14091 34.3157 9.14091C34.2926 9.14091 34.1481 9.15909 33.9977 9.18182C33.7375 9.22273 32.7286 9.33182 32.162 9.38636C30.2857 9.56364 27.1201 9.7 23.1566 9.77727C18.3865 9.87273 10.8122 9.74091 7.03949 9.5C6.65789 9.47727 6.00742 9.43636 5.59401 9.40909C2.21159 9.19091 -3.57043e-07 8.83182 -3.71745e-07 8.49545C-3.78501e-07 8.34091 0.566628 8.16818 1.53221 8.02273C3.10489 7.79545 5.32804 7.64091 9.26553 7.49091C11.3297 7.40909 21.4799 7.40909 23.7203 7.49091C26.4581 7.58636 29.4387 7.73636 30.702 7.84091C32.4886 7.98636 34.0006 8.16818 34.5759 8.3C34.6482 8.31364 34.6135 8.28182 34.4603 8.17727C32.85 7.12727 31.4103 5.36818 30.3551 3.15909C29.8608 2.12273 29.4878 1.08636 29.3866 0.463637C29.3317 0.127274 29.3491 6.24461e-07 29.4473 6.20164e-07C29.5832 6.14225e-07 29.7971 0.263636 30.6153 1.45455C32.48 4.15455 33.6161 5.44091 35.7178 7.20455C36.5071 7.86818 36.828 8.17727 36.932 8.37273C37.0246 8.54091 37.0217 8.60454 36.9292 8.72273Z" fill="#33706B"/>
</svg>
