<svg width="27" height="75" viewBox="0 0 27 75" fill="none" xmlns="http://www.w3.org/2000/svg">
<path d="M13.8537 0.143608C13.9404 0.231506 14.0053 0.348701 14.0053 0.401443C14.0053 0.465904 14.0775 0.518646 14.1858 0.542091C14.4529 0.594826 14.915 1.16911 15.8896 2.66343C18.8711 7.24014 20.5099 9.12708 24.8703 13.0006C26.6679 14.6004 27 14.9461 27 15.2098C27 15.8368 24.069 14.6707 21.6217 13.0768C20.6904 12.4732 19.0227 11.1429 18.2503 10.3928C17.485 9.64862 16.6043 8.63483 16.0267 7.84373C15.4275 7.0116 15.2976 6.81236 14.8644 5.9978C14.6695 5.64034 14.5179 5.39422 14.5179 5.4411C14.5179 5.48798 14.5468 5.78098 14.5829 6.0857C14.6479 6.61311 14.8211 8.65826 14.9078 9.80684C15.1893 13.61 15.4059 20.0268 15.5286 28.0609C15.6802 37.73 15.4709 53.0834 15.0882 60.7308C15.0521 61.5043 14.9872 62.8228 14.9439 63.6608C14.5973 70.5171 14.027 75 13.4928 75C13.2473 75 12.973 73.8514 12.742 71.8942C12.381 68.7063 12.1356 64.1999 11.8973 56.2185C11.7674 52.0344 11.7674 31.4598 11.8973 26.9182C12.0489 21.3687 12.2872 15.327 12.4532 12.7662C12.6842 9.14465 12.973 6.07985 13.1824 4.9137C13.204 4.7672 13.1535 4.83751 12.9874 5.14809C11.3198 8.41215 8.52594 11.3305 5.01738 13.4694C3.37139 14.4714 1.7254 15.2274 0.736364 15.4325C0.202139 15.5438 0 15.5087 0 15.3094C0 15.034 0.418716 14.6004 2.31016 12.942C6.5984 9.16224 8.64145 6.85923 11.4425 2.59897C12.4965 0.999176 12.9874 0.348709 13.2979 0.137749C13.565 -0.0497742 13.666 -0.0439148 13.8537 0.143608Z" fill="white"/>
</svg>
