<svg width="351" height="102" viewBox="0 0 351 102" fill="none" xmlns="http://www.w3.org/2000/svg">
<g clip-path="url(#clip0_114_252)">
<path d="M246.908 6.1267C238.64 3.18753 214.39 2.00771 210.255 1.7637C143.796 -2.13004 73.3187 8.41955 25.0468 33.098C16.4433 37.5038 8.37117 42.585 4.12866 49.1797C-16.5362 81.6746 70.0166 95.107 104.938 98.1976C148.676 102.123 192.711 101.979 236.423 97.7685C257.359 95.7659 278.162 92.6476 298.735 88.4282C321.078 83.7868 356.196 79.5711 349.107 58.6976C346.788 51.8572 340.266 45.4312 332.27 40.1068C296.542 16.3224 240.476 15.0175 197.107 18.1157C191.906 18.4856 185.433 17.9249 185.733 21.2811C209.955 20.0099 237.09 17.6705 261.913 20.1455C286.737 22.6205 312.665 30.1755 330.959 42.2284C341.807 49.3747 349.133 63.6379 342.557 71.2512C338.797 75.6126 331.057 78.2988 323.693 80.1826C257.301 97.1567 178.379 102.46 102.552 95.4491C78.3588 93.2104 51.9503 88.4897 30.183 80.0057C17.6145 75.0967 5.17548 67.0114 5.49669 58.3408C5.65172 53.829 9.96647 47.9494 14.0497 44.5598C41.0784 22.0871 89.831 10.0729 134.484 5.59711C155.043 3.45776 175.748 2.8831 196.402 3.87856C208.277 4.48835 220.204 5.70836 232.361 6.85133C236.047 7.19219 246.939 9.34072 248.224 8.55445C250.566 7.09711 249.728 7.12847 246.908 6.1267Z" fill="#F8961E"/>
</g>
<defs>
<clipPath id="clip0_114_252">
<rect width="349" height="100" fill="white" transform="translate(0.837708 1.56982) rotate(-0.187005)"/>
</clipPath>
</defs>
</svg>
