<svg width="488" height="221" viewBox="0 0 488 221" fill="none" xmlns="http://www.w3.org/2000/svg">
<g clip-path="url(#clip0_603_9215)">
<path d="M322.309 44.2692C307.839 33.4035 233.781 75.5248 233.781 75.5248C231.716 75.809 223.252 73.0299 223.252 73.0299C223.252 73.0299 224.707 76.4024 227.014 79.7123H226.985C226.985 79.7123 227.135 79.9296 227.44 80.3099C228.606 81.9022 229.965 83.4317 231.444 84.5016C238.541 89.6461 244.97 94.055 253.634 96.4037C266.766 99.9643 281.997 100.34 294.452 94.2723C300.629 91.2634 306.267 87.1511 311.366 82.5666C320.783 74.0997 337 55.3021 322.304 44.265L322.309 44.2692Z" fill="#225452"/>
<path d="M322.309 44.2694C311.835 36.4043 270.135 56.3052 247.904 67.8939C248.067 68.387 248.242 68.876 248.439 69.3524C250.303 73.9202 253.438 77.8486 256.664 81.5763C260.915 86.4826 265.491 91.2384 271.096 94.5149C274.122 96.2826 277.353 97.5531 280.701 98.3931C285.482 97.7035 290.134 96.3746 294.452 94.2725C300.629 91.2635 306.268 87.1513 311.367 82.5668C320.783 74.0999 337 55.3022 322.305 44.2652L322.309 44.2694Z" fill="#295856"/>
<path d="M322.308 44.2694C315.554 39.1959 295.822 45.6694 276.692 54.0151C284.174 65.8754 293.858 76.4778 306.618 81.9399C307.876 82.479 309.155 82.9554 310.455 83.3859C310.76 83.1184 311.069 82.8468 311.37 82.5751C320.787 74.1083 337.004 55.3106 322.308 44.2736V44.2694Z" fill="#305C5A"/>
<path d="M227.01 65.8211C226.688 66.8324 220.62 71.3333 223.863 74.0832C227.106 76.8289 250.244 94.4021 290.791 83.9835C331.337 73.565 328.913 46.9733 320.324 42.6939C311.735 38.4144 296.671 35.0795 284.291 41.0849C271.916 47.0945 227.01 65.8169 227.01 65.8169V65.8211Z" fill="#617C7B"/>
<path d="M241.647 62.0431C241.404 62.8037 236.853 66.1805 239.285 68.2449C241.718 70.3053 259.084 83.4945 289.511 75.6754C319.939 67.8563 318.121 47.901 311.676 44.6915C305.231 41.4819 293.925 38.9744 284.638 43.4837C275.351 47.993 241.651 62.0473 241.651 62.0473L241.647 62.0431Z" fill="#7A8F8E"/>
<path d="M253.63 59.0676C253.454 59.6234 250.123 62.0933 251.904 63.602C253.684 65.1106 266.39 74.7602 288.655 69.039C310.92 63.3178 309.586 48.7159 304.872 46.3673C300.157 44.0186 291.886 42.184 285.086 45.4855C278.29 48.7828 253.63 59.0676 253.63 59.0676Z" fill="#91A1A1"/>
<path d="M289.47 81.6223C268.095 87.1178 251.018 85.6928 238.533 82.3119C249.86 86.6999 267.439 89.9847 290.791 83.9835C310.899 78.8139 320.436 69.67 323.897 61.2408C318.543 69.1017 307.994 76.8581 289.474 81.6181L289.47 81.6223Z" fill="#0D4C49"/>
<path d="M237.091 67.8312C237.091 67.8312 233.133 75.4038 242.403 74.5805C251.674 73.7572 272.651 80.6068 297.495 71.0199C322.334 61.4288 315.274 49.6604 306.038 45.264C296.801 40.8675 293.645 40.5458 292.349 40.3075C291.054 40.0652 237.091 67.8312 237.091 67.8312Z" fill="#36736E"/>
<path d="M248.083 60.99C247.628 61.2031 247.168 61.4205 246.712 61.6378C238.755 65.4073 253.283 66.3727 255.974 66.544C259.343 66.7572 262.691 67.242 266.06 67.4885C275.832 68.199 285.603 67.3088 294.803 63.7566C313.958 56.3637 308.512 47.2909 301.39 43.8974C294.268 40.5082 291.835 40.2616 290.832 40.0735C289.988 39.9231 288.22 41.1643 287.501 41.4986C278.185 45.8783 269.04 50.6551 259.87 55.3315C255.97 57.3207 252.029 59.1303 248.083 60.9858V60.99Z" fill="#55837E"/>
<path d="M264.539 58.6957C268.802 59.9829 272.906 60.9775 277.529 61.2575C283.949 61.6461 289.52 60.5094 295.639 58.75C308.236 53.8855 304.654 47.9177 299.969 45.6903C295.455 43.5422 289.395 42.7147 284.392 42.9906C282.152 43.1159 279.953 43.6216 277.784 44.1774C274.394 45.0425 270.975 46.0622 268.087 48.0348C265.525 49.7858 263.506 52.2055 261.521 54.596C260.819 55.4402 260.108 56.6939 260.815 57.5297C262.077 57.9393 263.314 58.3321 264.535 58.6999L264.539 58.6957Z" fill="#33726D"/>
<path d="M290.987 50.3751C291.597 51.0646 292.563 51.75 293.002 51.8962C295.225 52.6318 298.318 52.1554 300.437 51.2945C304.55 49.627 298.117 47.3661 296.153 47.5165C294.991 47.6043 290.594 48.0515 290.452 49.3136C290.419 49.6061 290.648 49.9906 290.987 50.3751Z" fill="#E6EFD3"/>
<path d="M245.897 71.2456C245.897 71.2456 248.606 71.6885 252.664 72.1817C253.68 72.3029 254.779 72.4241 255.941 72.5494C257.103 72.6706 258.332 72.7751 259.602 72.8838C260.873 72.9924 262.185 73.0677 263.523 73.1471C264.856 73.2265 266.214 73.2724 267.569 73.2975C268.923 73.3268 270.281 73.3393 271.614 73.31C272.948 73.2724 274.26 73.2515 275.531 73.1638C276.166 73.1303 276.789 73.0802 277.399 73.0259C278.009 72.9841 278.607 72.9297 279.184 72.8587C279.765 72.8002 280.325 72.7333 280.868 72.6539C281.411 72.5787 281.942 72.5244 282.44 72.4324C282.941 72.3489 283.422 72.2694 283.882 72.1942C284.337 72.1065 284.772 72.0229 285.177 71.9435C285.992 71.7847 286.69 71.605 287.275 71.4796C288.433 71.1787 289.098 71.0074 289.098 71.0074C289.098 71.0074 288.939 71.0742 288.646 71.1996C288.349 71.3208 287.919 71.5172 287.359 71.7387C286.791 71.9351 286.113 72.2068 285.307 72.4491C284.906 72.5703 284.479 72.6999 284.028 72.8378C283.572 72.9632 283.092 73.076 282.59 73.2014C281.587 73.4396 280.488 73.682 279.317 73.8659C278.732 73.9703 278.13 74.0581 277.516 74.1417C276.902 74.2378 276.266 74.2963 275.623 74.359C274.979 74.43 274.323 74.476 273.662 74.522C272.998 74.5805 272.325 74.6014 271.648 74.6265C270.294 74.6724 268.914 74.6766 267.539 74.6641C266.164 74.6181 264.789 74.5596 263.439 74.4635C262.089 74.3799 260.764 74.2253 259.485 74.079C258.206 73.9369 256.973 73.7447 255.807 73.5566C254.641 73.3727 253.546 73.1638 252.539 72.9548C250.52 72.5495 248.861 72.119 247.703 71.7972C246.545 71.4712 245.897 71.2497 245.897 71.2497V71.2456Z" fill="#33726D"/>
<path d="M229.484 47.8342C227.733 50.8306 226.458 54.0736 225.242 57.3166C224.21 60.0748 222.584 63.0963 222.371 66.0676C222.111 69.6909 224.398 71.3751 227.904 71.0868C241.384 69.9751 296.679 41.5195 305.774 33.692C314.869 25.8687 320.654 21.4472 316.641 19.2281C311.918 16.612 305.461 16.6412 300.194 16.0687C293.352 15.329 286.444 15.2036 279.572 15.5965C270.269 16.1272 260.38 16.683 252.438 22.0323C246.775 25.8436 241.86 30.7374 237.659 36.0741C234.738 39.7894 231.892 43.7052 229.476 47.8383L229.484 47.8342Z" fill="#144E4C"/>
<path d="M300.199 16.0687C293.357 15.329 286.448 15.2036 279.577 15.5965C273.813 15.9266 267.828 16.2651 262.219 17.7487C259.519 20.1977 257.049 22.9057 254.808 25.7517C252.167 29.1075 249.596 32.6431 247.415 36.3792C245.831 39.0873 244.681 42.0168 243.582 44.9464C242.646 47.4371 241.183 50.1661 240.991 52.8533C240.757 56.1255 242.821 57.6467 245.989 57.3876C258.169 56.3846 308.123 30.6747 316.34 23.6078C316.687 23.3111 317.026 23.0186 317.364 22.7302C318.28 21.2132 318.154 20.0681 316.645 19.2323C311.922 16.6162 305.465 16.6454 300.199 16.0729V16.0687Z" fill="#225452"/>
<path d="M300.199 16.0687C293.357 15.329 286.448 15.2036 279.577 15.5965C274.218 15.9015 268.664 16.2191 263.402 17.452C261.128 20.3857 258.93 23.4574 257.04 26.6878C255.548 29.2454 254.462 32.0078 253.425 34.7702C252.543 37.1189 251.16 39.6974 250.98 42.23C250.758 45.3183 252.71 46.7559 255.695 46.5094C265.404 45.707 300.562 28.2634 315.91 18.852C311.266 16.6162 305.193 16.6078 300.199 16.0687Z" fill="#295856"/>
<path d="M300.199 16.0687C293.357 15.329 286.448 15.2036 279.577 15.5965C275.217 15.8472 270.728 16.1105 266.373 16.8627C265.797 18.1624 265.282 19.4872 264.781 20.8162C264.02 22.843 262.829 25.0621 262.67 27.2478C262.478 29.9099 264.162 31.1511 266.737 30.938C272.446 30.4657 288.362 23.3236 302.105 16.2484C301.457 16.1941 300.817 16.1356 300.194 16.0645L300.199 16.0687Z" fill="#305C5A"/>
<path d="M177.235 125.683C166.13 111.353 84.5108 194.12 84.5108 194.12C76.833 197.94 58.936 198.541 45.6616 199.753C45.6616 199.753 26.3352 199.344 26.3268 199.344C26.3059 199.344 28.0488 203.636 28.1909 203.895C30.3058 207.681 33.5116 210.795 37.1185 213.164C52.537 223.282 75.0692 222.492 92.0341 217.042C104.51 213.035 116.435 207.355 127.565 200.455C139.92 192.799 150.845 184.291 159.447 172.476C167.175 161.861 176.47 151.731 179.25 138.475C180.165 134.104 180.081 129.356 177.235 125.683Z" fill="#225452"/>
<path d="M45.6616 199.753C45.6616 199.753 26.3352 199.344 26.3268 199.344C26.3059 199.344 28.0488 203.636 28.1909 203.895C30.3058 207.681 33.5116 210.795 37.1185 213.164C52.537 223.282 75.0692 222.492 92.0341 217.042C102.809 213.582 113.17 208.872 122.963 203.209C124.2 201.567 125.391 199.891 126.52 198.174C134.202 186.443 138.908 172.974 141.917 159.279L118.913 161.41C100.289 178.122 84.5108 194.12 84.5108 194.12C76.833 197.94 58.936 198.541 45.6616 199.753Z" fill="#295856"/>
<path d="M84.5108 194.12C76.833 197.94 58.936 198.541 45.6616 199.753C45.6616 199.753 26.3352 199.344 26.3268 199.344C26.3059 199.344 28.0488 203.636 28.1909 203.895C30.3058 207.681 33.5116 210.795 37.1185 213.164C49.2853 221.15 65.8866 222.337 80.6865 219.805C93.6474 205.98 103.377 189.109 108.552 170.888C94.7968 183.693 84.515 194.12 84.515 194.12H84.5108Z" fill="#305C5A"/>
<path d="M0.827104 127.409C0.827104 127.409 -8.61876 87.2098 36.4079 64.0784C81.4346 40.947 137.675 31.0425 148.258 61.4539L0.827104 127.409Z" fill="#144E4C"/>
<path d="M0.827387 127.409L102.337 81.9984C103.461 78.1327 104.289 74.1793 104.753 70.1715C105.062 67.4969 105.208 64.7345 104.448 62.1518C103.766 59.8366 102.395 57.793 101.041 55.7912C98.4416 51.9422 95.7959 48.0389 92.2349 45.0509C92.0176 44.8712 91.7961 44.6956 91.5745 44.5243C73.7779 47.8592 54.2174 54.9345 36.4082 64.0826C-8.62265 87.2056 0.827387 127.409 0.827387 127.409Z" fill="#225452"/>
<path d="M55.9519 151.531C55.9519 151.531 10.1896 154.197 1.88475 131.153C-6.42008 108.11 17.7087 82.2032 38.7069 68.3829C59.7051 54.5667 114.955 39.8478 138.858 52.0968C162.761 64.3458 141.424 93.6958 125.178 110.721C108.932 127.747 55.9477 151.526 55.9477 151.526L55.9519 151.531Z" fill="#617C7B"/>
<path d="M124.083 68.2867C105.555 58.7918 62.727 70.1966 46.4517 80.9118C30.1764 91.6229 11.4727 111.708 17.9093 129.569C20.4839 136.716 27.7062 140.669 35.4427 142.846C47.9814 146.374 61.4104 144.848 73.0673 139.043C86.2163 132.495 105.526 122.072 113.48 113.735C126.073 100.537 142.611 77.7859 124.083 68.2909V68.2867Z" fill="#7A8F8E"/>
<path d="M101.388 91.8026C89.3844 85.651 61.6403 93.0396 51.0994 99.9811C40.5543 106.918 28.4377 119.928 32.6089 131.5C34.2766 136.126 38.9535 138.692 43.9648 140.101C52.09 142.387 60.7835 141.396 68.3402 137.635C76.8582 133.393 89.3677 126.64 94.5211 121.24C102.68 112.69 113.392 97.9543 101.392 91.8026H101.388Z" fill="#91A1A1"/>
<path d="M78.0913 120.17C74.4508 118.302 66.0332 120.547 62.8358 122.653C59.6384 124.759 55.9604 128.704 57.2268 132.215C57.7325 133.619 59.1536 134.396 60.6708 134.822C63.1367 135.516 65.774 135.215 68.0644 134.074C70.6474 132.787 74.4425 130.739 76.0057 129.101C78.48 126.506 81.7317 122.034 78.0913 120.17Z" fill="#A4B0B0"/>
<path d="M179.033 130.685C180.132 124.124 175.459 117.964 168.872 117.032C157.173 115.377 133.007 113.893 108.711 124.199C74.8689 138.554 31.0459 164.223 26.695 176.058C22.344 187.893 21.1069 210.882 48.759 209.578C76.4112 208.275 126.428 189.615 154.218 164.461C171.045 149.232 177.712 138.563 179.033 130.685Z" fill="#617C7B"/>
<path d="M148.588 139.085C149.445 133.978 145.809 129.185 140.676 128.458C131.569 127.166 112.757 126.013 93.8442 134.037C67.5002 145.212 33.3906 165.192 30.001 174.407C26.6155 183.622 25.6501 201.513 47.1749 200.501C68.6998 199.486 107.633 184.959 129.266 165.38C142.365 153.524 147.556 145.22 148.584 139.089L148.588 139.085Z" fill="#7A8F8E"/>
<path d="M148.112 146.206C141.922 152.868 132.673 158.008 126.424 161.79C111.787 170.642 96.1932 179.493 79.7298 184.445C54.6105 192.001 41.2985 188.62 38.9204 176.986C36.5422 165.355 45.5199 157.335 69.8326 141.333C94.1452 125.332 113.509 119.456 130.641 118.21C147.773 116.965 152.885 121.52 154.31 128.504C155.702 135.311 152.772 141.187 148.116 146.202L148.112 146.206Z" fill="#36736E"/>
<path d="M122.428 149.374C123.64 151.217 91.6791 171.494 73.7152 176.898C55.7514 182.301 46.2303 179.882 44.5292 171.565C42.8281 163.245 49.2479 157.511 66.635 146.068C84.0221 134.626 97.8691 130.422 110.119 129.532C122.37 128.642 126.027 131.901 127.047 136.891C128.067 141.885 122.424 149.37 122.424 149.37L122.428 149.374Z" fill="#55837E"/>
<path d="M98.5547 152.943C99.3028 154.076 79.6337 166.554 68.5787 169.881C57.5237 173.208 51.6639 171.716 50.619 166.6C49.5741 161.481 53.5238 157.954 64.2236 150.912C74.9233 143.87 83.4455 141.283 90.9855 140.736C98.5254 140.188 100.774 142.194 101.401 145.266C102.028 148.338 98.5547 152.947 98.5547 152.947V152.943Z" fill="#33726D"/>
<path d="M71.2955 156.32C71.5254 156.671 65.4357 160.532 62.0168 161.565C58.5937 162.593 56.7798 162.133 56.458 160.549C56.1361 158.965 57.3566 157.87 60.671 155.693C63.9854 153.511 66.6227 152.713 68.9549 152.542C71.2871 152.371 71.9851 152.993 72.1816 153.946C72.378 154.899 71.2997 156.324 71.2997 156.324L71.2955 156.32Z" fill="#E6EFD3"/>
<path d="M146.607 124.993C146.607 124.993 146.737 125.148 146.938 125.47C147.138 125.791 147.422 126.276 147.673 126.945C148.2 128.265 148.685 130.334 148.455 132.825C148.359 134.066 148.112 135.407 147.652 136.757C147.456 137.447 147.159 138.116 146.888 138.813C146.57 139.486 146.261 140.188 145.868 140.857C145.132 142.224 144.238 143.548 143.255 144.831C142.758 145.467 142.227 146.085 141.709 146.712C141.157 147.31 140.601 147.911 140.05 148.513C139.465 149.077 138.875 149.646 138.29 150.21C137.684 150.745 137.078 151.28 136.48 151.811C135.256 152.839 134.014 153.804 132.781 154.686C131.574 155.605 130.328 156.382 129.17 157.143C128.008 157.899 126.863 158.543 125.827 159.157C124.773 159.751 123.791 160.261 122.926 160.72C122.069 161.193 121.279 161.531 120.648 161.84C119.373 162.438 118.638 162.764 118.638 162.764C118.638 162.764 119.29 162.288 120.443 161.489C121.016 161.084 121.731 160.624 122.525 160.052C123.323 159.492 124.217 158.861 125.2 158.171C126.161 157.465 127.206 156.7 128.309 155.889C129.392 155.058 130.545 154.197 131.695 153.256C132.873 152.354 134.006 151.317 135.193 150.319C135.766 149.796 136.347 149.27 136.923 148.743C137.479 148.191 138.039 147.64 138.595 147.088C139.134 146.52 139.674 145.951 140.213 145.387C140.718 144.794 141.233 144.213 141.713 143.615C142.645 142.399 143.586 141.212 144.321 139.959C145.082 138.722 145.738 137.476 146.227 136.243C146.733 135.015 147.088 133.807 147.297 132.67C147.502 131.533 147.602 130.464 147.573 129.515C147.54 128.566 147.435 127.739 147.285 127.062C146.996 125.708 146.603 124.989 146.603 124.989L146.607 124.993Z" fill="#33726D"/>
<path d="M156.199 158.409C125.375 186.305 70.1206 207.067 39.0161 208.851C41.7746 209.482 44.9971 209.758 48.7587 209.583C76.4109 208.279 126.428 189.619 154.218 164.465C168.734 151.326 175.684 141.584 178.171 134.095C173.816 140.815 166.815 148.802 156.199 158.409Z" fill="#0D4C49"/>
<path d="M384.827 69.0766L376.928 63.3847C377.275 66.2683 378.077 69.1644 379.089 71.8808C384.163 85.4671 394.854 91.7985 408.442 95.6391C421.478 99.3251 435.651 99.5925 448.892 96.8301C455.608 95.4301 462.626 93.3824 468.557 89.6086C475.453 85.2205 479.695 78.6426 483.319 71.4754C485.049 68.0527 486.588 64.4587 487.348 60.685C487.82 58.3321 488.849 52.4354 486.667 50.6718C485.229 49.51 481.221 49.9028 479.516 49.9237C460.553 50.1828 441.168 55.4276 422.799 59.6569C410.097 62.5823 397.42 65.6874 384.831 69.0683L384.827 69.0766Z" fill="#144E4C"/>
<path d="M476.661 54.4163L457.506 52.1094C445.774 54.0819 434.092 57.0658 422.794 59.6694C410.093 62.5948 397.416 65.6999 384.827 69.0808L376.928 63.3888C377.275 66.2724 378.077 69.1686 379.089 71.885C384.163 85.4713 394.854 91.8026 408.442 95.6433C416.517 97.9292 425.026 98.8946 433.482 98.648C437.544 96.4164 441.385 93.7752 445.017 90.8916C457.681 80.8408 467.85 67.9692 476.665 54.4163H476.661Z" fill="#225452"/>
<path d="M422.79 59.6652C410.088 62.5906 397.412 65.6957 384.823 69.0766L376.923 63.3847C377.27 66.2682 378.073 69.1644 379.084 71.8808C384.158 85.4671 394.85 91.7985 408.437 95.6391C408.462 95.6474 408.492 95.6516 408.517 95.66C416.471 92.2038 423.739 87.1764 429.682 80.8617C432.491 77.8778 435.007 74.6348 437.469 71.3584C439.834 68.2074 442.158 65.0145 444.277 61.6921C445.924 59.1136 447.445 56.4515 448.837 53.7267C440.031 55.5237 431.3 57.7011 422.786 59.6652H422.79Z" fill="#295856"/>
<path d="M387.966 45.7573C387.966 45.7573 380.585 42.8068 383.644 31.9996C389.863 10.0007 415.095 1.14938 435.408 0.104603C445.907 -0.434503 456.728 1.08252 466.304 5.56253C471.173 7.84015 475.683 10.8993 479.474 14.7232C483.524 18.8061 487.808 23.5996 486.809 29.8683C486.04 34.6993 484.489 39.0164 479.499 40.6295C473.789 42.4725 387.962 45.7573 387.962 45.7573H387.966Z" fill="#144E4C"/>
<path d="M389.445 20.3648C390.377 22.1075 391.61 23.6914 393.107 24.9869C399.443 30.4658 408.751 30.3446 417.097 29.5923C425.54 28.8317 434.029 27.7159 442.012 24.8574C449.991 22.003 457.501 17.2723 462.463 10.4018C463.156 9.44062 463.808 8.4251 464.151 7.28838C464.398 6.46509 464.473 5.61256 464.477 4.74748C455.366 0.898512 445.247 -0.401193 435.412 0.10448C419.15 0.940304 399.735 6.78271 389.449 20.3648H389.445Z" fill="#225452"/>
<path d="M435.408 0.104487C424.717 0.651951 412.663 3.36838 402.736 9.02272C403.56 10.1845 404.513 11.2585 405.574 12.1947C409.311 15.5045 414.109 17.3684 418.936 18.6472C427.158 20.8245 436.223 21.3971 443.914 17.7613C449.289 15.2203 453.543 10.8574 457.673 6.58212C458.68 5.54152 459.704 4.45077 460.657 3.30569C452.582 0.580906 443.889 -0.334321 435.408 0.104487Z" fill="#295856"/>
<path d="M406.439 52.2808C406.439 52.2808 380.609 51.8879 382.11 35.8861C383.61 19.8842 412.959 10.895 439.312 14.0251C465.664 17.1553 488.317 25.7225 484.861 36.4168C481.404 47.1112 406.443 52.2808 406.443 52.2808H406.439Z" fill="#617C7B"/>
<path d="M418.995 47.9052C418.995 47.9052 400.036 47.6169 401.135 35.8735C402.239 24.1302 423.776 17.5272 443.119 19.8257C462.462 22.1243 479.089 28.4096 476.552 36.2622C474.015 44.1106 418.995 47.9052 418.995 47.9052Z" fill="#7A8F8E"/>
<path d="M430.045 43.6049C430.045 43.6049 416.8 43.4043 417.569 35.2007C418.338 26.9971 433.389 22.3834 446.902 23.9923C460.414 25.5971 472.029 29.9894 470.257 35.4724C468.485 40.9554 430.045 43.6049 430.045 43.6049Z" fill="#91A1A1"/>
<path d="M394.945 48.599C394.945 48.599 362.169 57.4837 383.531 75.1948C404.893 92.9101 445.615 84.974 465.643 73.7781C485.672 62.5864 501.4 46.7142 470.358 41.8246C439.316 36.935 394.945 48.5948 394.945 48.5948V48.599Z" fill="#617C7B"/>
<path d="M404.191 48.7828C404.191 48.7828 378.628 55.7118 395.288 69.5238C411.944 83.3399 443.704 77.1507 459.324 68.4205C474.943 59.6903 487.21 47.316 463.002 43.5004C438.793 39.6891 404.191 48.7828 404.191 48.7828Z" fill="#7A8F8E"/>
<path d="M425.879 48.8873C425.879 48.8873 410.648 53.0163 420.575 61.2491C430.501 69.482 449.426 65.796 458.734 60.593C468.042 55.39 475.352 48.018 460.924 45.7446C446.501 43.4712 425.879 48.8915 425.879 48.8915V48.8873Z" fill="#91A1A1"/>
<path d="M467.703 69.7453C446.475 81.6098 403.317 90.0224 380.676 71.2456C379.456 70.2342 378.415 69.2521 377.512 68.2951C378.62 70.4223 380.547 72.7208 383.527 75.1948C404.888 92.9101 445.61 84.974 465.639 73.7781C475.749 68.128 484.765 61.2826 487.218 55.2646C482.905 60.2085 475.624 65.3238 467.703 69.7453Z" fill="#0D4C49"/>
<path d="M470.274 54.341C470.441 48.8998 468.619 43.0031 465.706 38.4646C461.944 32.6013 452.674 30.8628 446.12 30.3989C436.746 29.7344 427.116 30.9547 418.251 33.9093C411.818 36.0532 402.72 38.7822 398.298 44.3613C391.577 52.8366 380.409 64.8055 400.425 70.4682C420.441 76.1309 453.196 81.0707 470.27 54.341H470.274Z" fill="#33726D"/>
<path d="M462.981 49.51C463.098 45.7488 461.84 41.6783 459.825 38.5398C457.226 34.4902 450.818 33.2866 446.292 32.9648C439.814 32.5051 433.16 33.3493 427.036 35.3929C422.589 36.8765 416.303 38.7613 413.248 42.6144C408.605 48.4694 400.889 56.744 414.715 60.6557C428.545 64.5673 451.182 67.9817 462.981 49.5141V49.51Z" fill="#55837E"/>
<path d="M459.553 46.6515C459.637 43.8891 458.713 40.8968 457.234 38.5941C455.324 35.6186 450.622 34.7368 447.295 34.4986C442.538 34.1643 437.648 34.7828 433.151 36.2831C429.887 37.3738 425.268 38.7571 423.024 41.5864C419.613 45.8867 413.946 51.9631 424.102 54.8342C434.259 57.7094 450.885 60.2169 459.549 46.6515H459.553Z" fill="#33726D"/>
<path d="M453.919 41.089C453.949 40.1237 453.627 39.0747 453.109 38.2681C452.44 37.2275 450.793 36.9183 449.631 36.8347C447.968 36.7177 446.258 36.935 444.682 37.4574C443.541 37.8377 441.924 38.3225 441.138 39.3129C439.947 40.8174 437.962 42.9446 441.514 43.9476C445.067 44.9547 450.885 45.8323 453.919 41.0849V41.089Z" fill="#E6EFD3"/>
<path d="M392.605 57.1034C392.605 57.1034 392.605 57.2539 392.655 57.5214C392.709 57.7888 392.81 58.1775 393.006 58.6414C393.081 58.8796 393.236 59.1178 393.378 59.3852C393.458 59.5148 393.516 59.6611 393.612 59.7906C393.708 59.9244 393.804 60.0581 393.909 60.2002C394.009 60.3423 394.114 60.4843 394.222 60.6348C394.339 60.7769 394.477 60.9106 394.611 61.0527C394.745 61.1948 394.879 61.3411 395.017 61.4915C395.083 61.5667 395.154 61.642 395.225 61.7172C395.305 61.7841 395.388 61.8551 395.468 61.922C395.794 62.1978 396.137 62.482 396.488 62.7787C396.872 63.0378 397.265 63.3053 397.675 63.5811C397.88 63.7148 398.072 63.8694 398.297 63.9864C398.519 64.1035 398.749 64.2247 398.975 64.3459C399.434 64.5841 399.886 64.8557 400.366 65.0939C400.86 65.307 401.365 65.5285 401.875 65.75C402.385 65.9674 402.891 66.2097 403.434 66.3853C403.969 66.5775 404.508 66.7656 405.052 66.962L405.867 67.2503C406.138 67.3423 406.423 67.4091 406.703 67.4885C407.819 67.802 408.922 68.1572 410.034 68.433C411.154 68.6754 412.245 68.9554 413.311 69.202C413.578 69.2647 413.841 69.3274 414.101 69.39C414.364 69.4402 414.627 69.4903 414.886 69.5363C415.405 69.6366 415.91 69.7369 416.403 69.833C417.39 70.0211 418.322 70.2217 419.183 70.3972C422.652 70.9489 424.963 71.4462 424.963 71.4462C424.963 71.4462 422.61 71.4295 419.074 71.2121C418.196 71.1244 417.239 71.0157 416.236 70.8862C415.731 70.8235 415.216 70.7608 414.686 70.6939L413.883 70.5895C413.616 70.5393 413.344 70.485 413.072 70.4348C411.986 70.2175 410.853 70.0169 409.712 69.7703C408.575 69.5029 407.438 69.156 406.289 68.8468C406.005 68.759 405.716 68.688 405.436 68.5877L404.6 68.2784C404.044 68.0694 403.489 67.8647 402.937 67.6599C402.381 67.476 401.858 67.2044 401.336 66.9536C400.818 66.7029 400.304 66.4521 399.798 66.2056C399.309 65.9297 398.837 65.633 398.377 65.3447C398.147 65.2026 397.921 65.0563 397.696 64.9184C397.47 64.7805 397.273 64.5966 397.065 64.442C396.659 64.1202 396.254 63.8151 395.882 63.5017C395.539 63.1506 395.209 62.8121 394.891 62.4861L394.657 62.2438C394.59 62.156 394.523 62.0682 394.456 61.9805C394.327 61.8049 394.197 61.6336 394.076 61.4706C393.955 61.3035 393.83 61.1447 393.725 60.9775C393.629 60.8061 393.537 60.639 393.449 60.476C393.361 60.313 393.278 60.1584 393.194 60.0079C393.111 59.8575 393.069 59.6945 393.01 59.544C392.906 59.2432 392.785 58.9757 392.743 58.7124C392.609 58.2026 392.592 57.7888 392.584 57.5088C392.588 57.2288 392.613 57.0867 392.613 57.0867L392.605 57.1034Z" fill="#33726D"/>
</g>
<defs>
<clipPath id="clip0_603_9215">
<rect width="488" height="221" fill="white"/>
</clipPath>
</defs>
</svg>
