<svg width="78" height="251" viewBox="0 0 78 251" fill="none" xmlns="http://www.w3.org/2000/svg">
<path d="M-121.597 205.257C-118.833 201.533 -114.149 200.921 -110.774 203.974C-98.6576 214.977 -78.6903 228.556 -52.3608 230.898C-39.848 232.016 3.38302 232.34 34.7189 190.127L34.7863 190.037C36.1886 188.148 68.8336 143.222 59.2149 82.5321C54.3064 51.5535 40.5206 29.7937 29.8258 17.0212C26.6476 13.229 26.5667 7.12775 29.7504 3.20432C32.8802 -0.646458 37.9757 -0.679201 41.1539 3.11297C53.4767 17.8569 69.3496 42.9426 75.0445 78.8528C85.9662 147.797 50.8376 197.639 46.779 203.106L46.6981 203.215C10.4542 252.039 -39.2032 251.678 -53.5504 250.401C-83.778 247.721 -106.601 232.18 -120.441 219.627C-124.009 216.396 -124.719 210.266 -122.053 205.943C-121.906 205.709 -121.759 205.474 -121.597 205.257V205.257Z" fill="#64E7BB"/>
</svg>
