<svg width="66" height="273" viewBox="0 0 66 273" fill="none" xmlns="http://www.w3.org/2000/svg">
<path d="M-83.8446 255.892C-83.1343 251.309 -79.2746 248.585 -74.8663 249.713C-59.018 253.802 -35.0233 256.51 -10.6365 246.312C0.955201 241.469 39.3554 221.608 47.4078 169.657L47.4251 169.545C47.7855 167.22 55.7317 112.258 18.9376 63.0443C0.15761 37.923 -22.1805 25.0954 -37.5954 18.7789C-42.1746 16.9049 -45.0896 11.5444 -44.1012 6.58939C-43.1267 1.72375 -38.6337 -0.679914 -34.0544 1.19413C-16.2804 8.4961 9.45422 23.2938 31.2285 52.4118C73.0222 108.321 65.1698 168.791 64.1269 175.52L64.1061 175.654C54.7925 235.742 10.6889 258.565 -2.59996 264.122C-30.5933 275.838 -58.0287 272.724 -76.1246 268.067C-80.7869 266.871 -84.2723 261.779 -83.9276 256.712C-83.9069 256.436 -83.8862 256.16 -83.8446 255.892Z" fill="#85A9A6"/>
</svg>
