<svg width="553" height="230" viewBox="0 0 553 230" fill="none" xmlns="http://www.w3.org/2000/svg">
    <path d="M484.02 31.1449C483.674 31.0002 483.476 30.6151 483.579 30.2472C483.621 30.0853 487.741 14.0054 477.55 2.83094C477.273 2.51945 477.293 2.03872 477.604 1.75666C477.913 1.4746 478.391 1.49422 478.676 1.80572C489.433 13.6081 485.087 30.4704 485.043 30.6347C484.935 31.0443 484.523 31.2798 484.118 31.1792C484.084 31.1645 484.05 31.1547 484.02 31.1449V31.1449Z" fill="#497771"/>
    <path d="M480.501 3.83667C479.91 5.25188 478.286 5.92146 476.876 5.32791C475.465 4.74172 474.798 3.11803 475.385 1.70527C475.976 0.29252 477.597 -0.374614 479.012 0.214034C480.42 0.807587 481.087 2.42637 480.501 3.83912V3.83667Z" fill="#497771"/>
    <path d="M484.918 31.5202C485.266 31.6649 485.671 31.5349 485.87 31.2038C485.95 31.0591 494.474 16.8089 509.582 16.1761C510.002 16.1614 510.328 15.8082 510.311 15.3888C510.293 14.9719 509.943 14.6408 509.521 14.6604C493.566 15.3251 484.646 30.2841 484.56 30.4361C484.344 30.7991 484.467 31.2578 484.83 31.4712C484.859 31.4908 484.891 31.5055 484.918 31.5202V31.5202Z" fill="#497771"/>
    <path d="M506.794 14.7977C506.203 16.2056 506.867 17.8293 508.283 18.4228C509.693 19.0065 511.314 18.3394 511.908 16.9316C512.494 15.5139 511.827 13.8951 510.412 13.3089C509.001 12.7154 507.383 13.3874 506.794 14.8002V14.7977Z" fill="#497771"/>
    <path d="M476.739 52.464C468.623 49.0842 464.454 40.4875 467.446 33.3084C470.441 26.1269 479.479 23.0365 487.595 26.4237C495.716 29.8109 499.883 38.4002 496.888 45.5817C493.898 52.7632 484.86 55.8463 476.742 52.4665L476.739 52.464Z" fill="#497771"/>
    <path d="M486.817 28.2852C479.731 25.3272 471.87 27.9271 469.307 34.0809C466.739 40.2372 470.421 47.6517 477.514 50.6048C484.607 53.5627 492.463 50.9628 495.029 44.809C497.594 38.6528 493.913 31.2407 486.817 28.2852V28.2852Z" fill="#34706B"/>
    <path d="M471.694 34.2599C470.688 33.8429 469.982 33.1611 469.643 32.3026C469.138 31.01 469.511 29.5188 470.696 28.0938C471.743 26.8355 473.337 25.7441 475.189 25.0132C477.732 24.0174 480.34 23.8727 482.15 24.6257C483.153 25.0426 483.864 25.722 484.203 26.5829C484.71 27.873 484.335 29.3667 483.15 30.7942C482.106 32.0524 480.514 33.1414 478.657 33.865C476.106 34.8657 473.504 35.0104 471.691 34.2574L471.694 34.2599Z" fill="#497771"/>
    <path d="M481.38 26.4874C480.073 25.9429 477.934 26.1023 475.92 26.8945C474.405 27.4881 473.065 28.3907 472.244 29.3816C471.559 30.2032 471.294 31.0004 471.52 31.562C471.653 31.9128 471.974 32.1924 472.469 32.3984C473.769 32.9429 475.91 32.781 477.922 31.9912C479.44 31.3977 480.784 30.4902 481.601 29.5091C482.29 28.6826 482.552 27.8903 482.329 27.3238C482.189 26.9804 481.871 26.691 481.378 26.4874H481.38Z" fill="#34706B"/>
    <path d="M487.516 37.5588C486.726 35.7365 486.383 33.8381 486.537 32.2095C486.716 30.3626 487.516 29.0455 488.784 28.4986C489.64 28.1282 490.616 28.1576 491.622 28.5771C493.437 29.33 495.168 31.2824 496.25 33.7939C497.035 35.6212 497.383 37.5245 497.226 39.1482C497.049 40.9951 496.25 42.3097 494.979 42.8591C494.126 43.2295 493.145 43.2 492.139 42.7806C490.327 42.0277 488.6 40.0729 487.513 37.5588H487.516Z" fill="#497771"/>
    <path d="M489.581 30.3503C489.022 30.5882 488.646 31.3363 488.543 32.4008C488.418 33.6786 488.72 35.268 489.365 36.7641C490.223 38.7508 491.614 40.3819 492.917 40.9215C493.412 41.1299 493.839 41.1594 494.18 41.0147C494.736 40.7718 495.117 40.0238 495.22 38.9593C495.342 37.6814 495.043 36.0921 494.396 34.5959C493.542 32.6093 492.146 30.9831 490.846 30.4337C490.351 30.2301 489.924 30.2007 489.581 30.3503V30.3503Z" fill="#34706B"/>
    <path d="M485.72 102.872C490.04 96.7202 492.446 88.6803 492.213 81.126C492.075 76.689 491.796 71.9333 491.2 67.2633C491.367 67.2192 491.514 67.1284 491.501 67.0058C491.175 63.7756 490.528 60.3197 489.252 57.2342C489.211 57.0822 489.176 56.9178 489.132 56.7682C489.11 56.6897 489.027 56.5867 488.926 56.496C487.163 52.6232 484.33 49.4518 479.758 48.2672C475.083 47.0629 470.963 47.5829 467.291 49.7584C467.129 49.7682 466.962 49.8075 466.891 49.8614C460.566 54.5731 454.657 61.264 449.7 67.3859C444.939 73.2602 441.989 81.1162 441.702 88.6263C441.165 102.585 452.54 111.306 465.076 111.932C472.746 112.879 480.545 110.242 485.716 102.872H485.72Z" fill="#497771"/>
    <path d="M467.446 110.519C463.485 110.723 459.496 109.411 455.839 107.905C453.443 106.924 451.729 105.155 449.642 103.833C444.643 98.8444 443.056 92.5999 443.657 86.0806C444.297 79.1763 448.371 71.7446 452.604 66.3854C456.703 61.1955 461.537 55.6573 466.455 51.1051C467.894 50.1289 469.415 49.2631 470.973 48.6328C475.596 46.754 481.463 49.5599 484.843 52.5841C487.271 54.7547 488.416 57.904 489.248 61.1244C490.055 66.8711 490.408 72.9856 490.511 78.5704C490.633 85.4012 489.12 94.4737 485.453 100.35C481.497 106.691 475.007 110.129 467.448 110.519H467.446Z" fill="#618983"/>
    <path d="M469.03 91.5722C460.892 88.7737 451.908 88.3249 443.645 90.78C443.905 93.7208 444.694 96.5463 446.141 99.1658C457.164 95.9503 470.335 99.3939 479.41 106.634C481.193 105.415 482.804 103.939 484.178 102.17C480.447 97.211 474.607 93.4927 469.03 91.5747V91.5722Z" fill="#34706B"/>
    <path d="M449.397 70.9867C448.116 73.042 446.934 75.2298 445.978 77.4863C453.799 75.7866 462.953 77.1086 469.96 79.5319C476.943 81.9625 483.987 86.1934 488.848 92.0578C489.761 88.6412 490.281 85.0283 490.455 81.7C480.362 71.303 462.945 66.5129 449.397 70.9867V70.9867Z" fill="#34706B"/>
    <g style="mix-blend-mode:multiply" opacity="0.3">
    <path d="M485.72 102.872C490.04 96.7202 492.446 88.6803 492.213 81.126C492.075 76.689 491.796 71.9333 491.2 67.2633C491.367 67.2192 491.514 67.1284 491.501 67.0058C491.175 63.7756 490.528 60.3197 489.252 57.2342C489.211 57.0822 489.176 56.9178 489.132 56.7682C489.11 56.6897 489.027 56.5867 488.926 56.496C487.163 52.6232 484.33 49.4518 479.758 48.2672C475.083 47.0629 470.963 47.5829 467.291 49.7584C467.129 49.7682 466.962 49.8075 466.891 49.8614C460.566 54.5731 454.657 61.264 449.7 67.3859C444.939 73.2602 441.989 81.1162 441.702 88.6263C441.165 102.585 452.54 111.306 465.076 111.932C472.746 112.879 480.545 110.242 485.716 102.872H485.72ZM449.136 98.1845C443.563 90.4192 444.971 80.6158 449.695 72.8947C452.418 66.5545 456.855 61.7251 463.035 67.4399C470.857 74.6705 475.961 86.2864 472.297 96.8085C468.365 108.096 455.395 106.909 449.136 98.182V98.1845Z" fill="#497771"/>
    </g>
    <path d="M504.457 68.924C504.977 65.3259 502.742 60.7075 500.155 58.2449C500.098 58.1861 500.037 58.1444 499.986 58.0855C501.17 58.4215 501.921 58.3921 503.226 57.644C503.414 57.5312 503.451 57.2835 503.419 57.0848C502.804 53.3395 496.809 49.2239 491.921 48.2085C487.685 42.452 479.518 40.1097 472.761 41.4587C468.75 38.3487 460.095 37.0389 456.838 39.754C456.681 39.8791 456.548 40.0999 456.622 40.3035C457.117 41.7211 457.664 42.2313 458.783 42.7512C458.707 42.7562 458.626 42.7562 458.547 42.7611C454.978 42.9377 450.272 44.9685 448.315 48.0319C448.202 48.206 448.062 48.5323 448.288 48.6868C449.313 49.4201 450.799 49.7096 452.386 49.7807C450.171 50.7029 448.351 52.0789 448.54 54.0803C448.758 56.3784 452.577 56.3441 456.254 55.7187C454.547 57.0554 453.593 58.6815 455.084 60.2611C457.397 62.699 464.002 61.5733 466.815 61.377C468.699 61.252 471.941 59.2064 469.052 60.9159C467.772 61.6787 466.854 62.184 465.976 63.3318C465.834 63.5207 465.773 63.7831 465.957 63.972C467.961 66.0323 471.794 64.8452 474.603 63.2705C475.696 66.2972 477.825 69.6991 480.69 69.4513C480.948 69.4293 481.073 69.1938 481.087 68.9534C481.173 67.5162 480.813 66.5277 480.339 65.1199C479.275 61.9314 480.393 65.6006 481.735 66.9275C483.734 68.9142 487.997 74.0845 491.342 73.7485C493.503 73.5351 493.841 71.6735 493.425 69.5494C495.794 72.4265 498.663 74.9478 500.336 73.3487C501.783 71.958 501.308 69.7285 500.233 67.5873C501.482 68.5635 502.794 69.3213 504.047 69.4391C504.324 69.4636 504.427 69.1276 504.457 68.924V68.924Z" fill="#497771"/>
    <path d="M503.257 67.2977C502.408 68.4726 500.037 66.1891 499.362 65.7722C498.876 65.4656 498.401 65.1565 497.932 64.8303C498.658 66.1916 499.293 67.5847 499.664 68.941C500 70.1747 499.924 71.7003 498.423 71.9628C496.635 72.2841 494.516 69.1495 493.564 68.0703C492.882 67.2977 492.07 66.5104 491.303 65.6912C492.374 68.6492 492.916 71.8916 490.194 71.6733C485.607 71.2932 482.203 65.8629 479.478 62.2133C479.333 62.0588 479.189 61.9018 479.042 61.7424C478.779 61.4652 478.553 61.4603 478.384 61.578C478.529 62.5174 478.713 63.4445 478.963 64.352C479.257 65.3969 480.074 66.6061 479.831 67.7245C479.738 68.1415 479.245 68.5363 478.833 68.1807C477.545 67.0598 476.697 65.5514 475.865 64.0798C475.573 63.5696 475.078 62.851 474.82 62.1323C474.038 62.4978 473.202 62.7701 472.385 63.0276C471.203 63.3979 469.915 64.0258 468.649 63.81C468.161 63.7217 467.933 63.2361 468.193 62.8142C468.75 61.8993 469.814 61.3671 470.678 60.7834C471.377 60.3124 472.073 59.8464 472.748 59.3412C472.718 59.3166 472.674 59.3019 472.635 59.2823C469.959 59.7974 467.143 60.0108 464.512 60.1432C462.604 60.2364 458.564 60.852 457.031 59.4246C455.113 57.6415 456.911 55.6867 459.155 54.1145C458.007 54.2641 456.857 54.3818 455.716 54.4873C454.561 54.6001 451.581 55.0759 450.953 53.6362C450.065 51.625 452.842 50.0945 455.665 49.0791C455.138 49.0644 454.61 49.0546 454.088 49.0349C453.131 49.0104 451.888 48.9957 451.064 48.407C450.095 47.708 450.735 46.7809 451.493 46.2756C452.118 45.8489 452.847 45.5227 453.612 45.2602C456.094 43.9775 458.802 43.6096 461.637 43.7445C461.696 43.7347 461.755 43.7347 461.811 43.7248C460.163 41.7578 458.279 39.0451 460.57 39.2756C461.934 39.4105 463.307 39.6779 464.661 40.0188C464.885 40.0581 465.103 40.0801 465.321 40.1267C468.294 40.5437 471.75 41.434 474.072 43.5041C474.259 43.6071 474.448 43.7077 474.632 43.8107C474.352 43.0773 473.812 42.393 473.091 41.7651C480.128 41.6891 485.345 43.2809 490.474 48.0073C489.652 47.9435 488.894 48.0023 488.222 48.1765C488.869 48.3899 489.512 48.6229 490.145 48.8804C492.517 49.3759 494.832 50.5752 496.757 51.8187C498.317 52.7336 499.747 53.8079 501.047 55.0465C499.99 55.2844 498.933 55.5223 497.878 55.7602C497.559 55.6302 497.253 55.4782 496.946 55.3237C498.136 56.6457 499.19 58.2792 500.095 59.7778C500.927 60.7686 501.633 61.8527 502.153 63.0717C503.056 64.5286 503.954 66.3412 503.257 67.3051V67.2977Z" fill="#34706B"/>
    <path d="M522.276 93.3947C522.077 87.3783 518.167 81.455 513.907 77.4915C506.088 70.2192 494.033 64.9851 483.03 66.2581C482.902 66.1943 482.775 66.16 482.696 66.1649C481.051 66.3292 478.301 66.2949 477.018 67.4844C475.181 69.194 475.473 72.0244 475.834 74.2956C476.886 80.9179 481.24 87.5941 484.923 93.044C491.021 102.058 502.382 108.533 513.306 104.724C518.638 102.867 522.472 99.3597 522.278 93.3898L522.276 93.3947ZM485.573 91.9844C482.662 87.7928 480.133 83.1621 478.25 78.421C477.332 76.1032 476.685 73.8541 476.702 71.3352C476.704 70.516 476.898 69.8636 477.22 69.324C479.084 75.5906 484.784 80.7118 489.167 85.1978C489.868 85.9165 490.604 86.6008 491.327 87.2973C491.396 91.4915 493.743 95.9161 496.419 99.0458C496.481 99.1242 496.829 99.1488 496.733 99.0335C494.165 95.8205 492.632 91.9967 492.029 87.9792C493.493 89.3551 494.977 90.7041 496.5 92.0212C498.975 94.1649 501.43 96.6814 504.366 98.1873C504.476 98.2437 504.8 98.2118 504.584 98.0843C501.852 96.4999 499.502 93.9589 497.15 91.8814C496.763 91.5405 496.402 91.1873 496.017 90.8415C501.469 91.1481 506.394 93.407 510.824 96.5317C510.92 96.6004 511.359 96.6102 511.16 96.4533C508.592 94.4715 505.754 92.8429 502.708 91.7073C500.667 90.9494 497.825 90.0836 495.603 90.4589C493.393 88.4477 491.224 86.3874 489.12 84.2462C488.274 83.3779 487.455 82.517 486.655 81.6414C489.522 81.6022 492.066 82.2816 494.818 83.1179C494.972 83.1621 495.176 83.0591 494.945 82.983C492.083 82.0559 489.321 81.0307 486.275 81.2294C482.885 77.5013 479.957 73.6505 477.686 68.9561C483.557 70.1137 488.953 71.502 494.472 73.9792C495.384 74.3863 496.272 74.8303 497.145 75.2865C500.998 83.0223 507.461 90.0762 514.792 94.7217C514.873 94.7756 515.207 94.7707 515.052 94.6677C508.128 90.1694 501.734 83.1228 497.977 75.7353C503.093 78.5044 507.655 81.9701 512.32 85.5338C512.46 85.6369 513.068 85.6491 512.798 85.4259C510.554 83.5668 508.293 81.8156 505.973 80.1992C508.038 79.9123 510.073 80.4273 512.121 80.6113C512.269 80.626 512.232 80.5034 512.112 80.4886C510.758 80.2704 509.438 79.9172 508.07 79.7847C507.309 79.7111 506.358 79.6523 505.612 79.9441C501.891 77.3688 498.016 75.1001 493.746 73.1771C488.487 70.8103 483.349 69.6649 477.769 68.6053C479.057 67.3226 481.289 66.9497 483.207 66.6579C483.219 66.653 483.221 66.6481 483.236 66.6481C493.503 65.797 504.339 70.2781 511.923 76.8807C519.065 83.0983 525.999 96.7182 515.148 102.892C503.836 109.325 491.985 101.246 485.573 91.9893V91.9844Z" fill="#497771"/>
    <path opacity="0.5" d="M511.922 76.8756C504.339 70.2729 493.5 65.7918 483.235 66.6429C483.221 66.6429 483.218 66.6478 483.206 66.6527C481.286 66.9446 479.056 67.3174 477.768 68.6002C483.348 69.6597 488.487 70.8051 493.745 73.172C498.015 75.0949 501.891 77.3636 505.611 79.939C506.357 79.6471 507.306 79.706 508.069 79.7796C509.438 79.9095 510.757 80.2652 512.111 80.4835C512.231 80.4982 512.268 80.6208 512.121 80.6061C510.073 80.4222 508.037 79.9071 505.972 80.1941C508.292 81.8128 510.554 83.5616 512.798 85.4208C513.068 85.644 512.459 85.6292 512.32 85.5287C507.657 81.9625 503.093 78.4992 497.976 75.7301C501.731 83.1201 508.128 90.1643 515.052 94.6625C515.206 94.7655 514.873 94.7704 514.792 94.7165C507.461 90.0711 500.995 83.0171 497.145 75.2813C496.272 74.8251 495.384 74.3836 494.471 73.974C488.95 71.4943 483.554 70.1061 477.685 68.9509C479.956 73.6429 482.885 77.4961 486.274 81.2242C489.321 81.0255 492.08 82.0508 494.945 82.9779C495.175 83.0564 494.972 83.1569 494.817 83.1128C492.065 82.2764 489.522 81.597 486.655 81.6362C487.454 82.5119 488.273 83.3703 489.12 84.241C491.224 86.3847 493.392 88.4449 495.602 90.4537C497.824 90.0809 500.667 90.9442 502.707 91.7021C505.756 92.8402 508.594 94.4663 511.159 96.4481C511.358 96.6026 510.922 96.5953 510.823 96.5266C506.394 93.4018 501.469 91.1429 496.017 90.8363C496.399 91.1821 496.762 91.5353 497.15 91.8763C499.502 93.9562 501.851 96.4947 504.584 98.0791C504.8 98.2067 504.476 98.2386 504.365 98.1822C501.43 96.6762 498.974 94.1597 496.5 92.0161C494.977 90.699 493.493 89.35 492.028 87.974C492.632 91.9915 494.165 95.8153 496.733 99.0283C496.826 99.1436 496.48 99.1191 496.419 99.0406C493.745 95.911 491.396 91.4863 491.327 87.2922C490.603 86.5981 489.868 85.9138 489.166 85.1927C484.783 80.7091 479.083 75.5879 477.219 69.3188C476.898 69.8584 476.706 70.5108 476.702 71.33C476.684 73.8489 477.332 76.0981 478.249 78.4159C480.133 83.1569 482.664 87.7876 485.573 91.9793C491.984 101.236 503.833 109.315 515.148 102.882C525.998 96.7081 519.065 83.0882 511.922 76.8707V76.8756Z" fill="white"/>
    <path d="M538.507 57.5412C533.94 51.9392 525.891 49.1407 518.935 48.4613C506.168 47.2129 490.844 51.0072 481.266 60.2416C481.104 60.2759 480.95 60.3323 480.881 60.3961C479.429 61.7525 476.783 63.7244 476.422 65.7994C475.909 68.7672 478.254 71.2542 480.258 73.1649C486.083 78.7227 495.107 81.9185 502.597 84.435C514.986 88.5997 530.556 86.4953 538.213 74.894C541.951 69.2381 543.052 63.0965 538.507 57.5387V57.5412ZM502.448 82.9511C496.613 81.0675 490.819 78.4872 485.566 75.3281C483.005 73.7928 480.739 72.1176 478.924 69.7066C478.333 68.9241 478.041 68.1515 477.953 67.4035C484.298 72.0342 493.471 72.7675 500.925 73.8516C502.121 74.0258 503.318 74.1435 504.518 74.2784C507.642 78.2321 513.11 80.7486 517.939 81.7837C518.054 81.8082 518.407 81.585 518.231 81.5408C513.438 80.3439 509.19 77.8127 505.688 74.4133C508.086 74.6659 510.49 74.8695 512.899 75.0166C516.82 75.2595 521.002 75.8726 524.907 75.1712C525.054 75.1466 525.334 74.8744 525.037 74.9087C521.272 75.3895 517.181 74.6806 513.416 74.4084C512.798 74.3642 512.192 74.2907 511.581 74.2391C517.004 70.5503 523.357 69.1277 529.857 68.88C530.001 68.8751 530.426 68.5636 530.124 68.5587C526.227 68.5391 522.332 69.059 518.599 70.1922C516.092 70.955 512.747 72.1985 510.907 74.1803C507.324 73.8688 503.75 73.4862 500.184 72.9662C498.744 72.7577 497.334 72.5296 495.938 72.2819C498.646 70.1554 501.565 68.9487 504.802 67.7444C504.981 67.6757 505.099 67.4231 504.824 67.5212C501.413 68.723 498.035 69.7605 495.274 72.1666C489.318 71.0825 483.711 69.5324 478.124 66.7094C484.57 63.5331 490.736 60.9283 497.814 59.2654C498.982 58.9932 500.152 58.7651 501.312 58.5615C510.632 63.1382 521.944 65.1642 532.331 64.2616C532.444 64.2518 532.758 64.004 532.54 64.0187C522.651 64.7717 511.41 62.7016 502.438 58.3874C509.337 57.3033 516.22 57.2738 523.269 57.2836C523.482 57.2836 524.071 56.8569 523.651 56.8372C520.149 56.7023 516.725 56.6778 513.325 56.8176C515.086 55.0443 517.402 54.0485 519.496 52.7412C519.648 52.6431 519.526 52.5573 519.396 52.6235C517.949 53.401 516.43 54.0289 515.023 54.9021C514.245 55.3828 513.296 56.0205 512.796 56.8446C507.368 57.0923 502.006 57.7521 496.539 59.0324C489.792 60.6021 484.048 63.2535 477.953 66.3145C478.249 64.1487 480.101 62.1645 481.72 60.4893C481.732 60.4795 481.732 60.4697 481.742 60.4599C490.927 52.1575 504.54 48.5373 516.59 49.3148C527.943 50.0482 544.484 57.9974 538.627 71.7913C532.518 86.1764 515.317 87.106 502.45 82.9511H502.448Z" fill="#497771"/>
    <path opacity="0.5" d="M516.588 49.3173C504.537 48.5398 490.925 52.16 481.74 60.4624C481.73 60.4722 481.73 60.482 481.718 60.4918C480.099 62.1695 478.247 64.1513 477.95 66.317C484.045 63.256 489.789 60.6047 496.537 59.0349C502.004 57.7571 507.365 57.0973 512.793 56.8471C513.296 56.023 514.243 55.3853 515.02 54.9046C516.426 54.029 517.944 53.4035 519.393 52.626C519.521 52.5598 519.646 52.6456 519.494 52.7438C517.402 54.051 515.084 55.0468 513.323 56.8201C516.72 56.6803 520.146 56.7049 523.649 56.8398C524.068 56.8594 523.48 57.2862 523.266 57.2862C516.217 57.2763 509.337 57.3058 502.435 58.3899C511.407 62.7042 522.648 64.7742 532.537 64.0213C532.758 64.0065 532.442 64.2543 532.329 64.2641C521.942 65.1691 510.63 63.1432 501.31 58.564C500.147 58.7676 498.98 58.9957 497.812 59.2679C490.734 60.9284 484.568 63.5332 478.122 66.7119C483.707 69.5349 489.316 71.085 495.271 72.1691C498.033 69.7655 501.41 68.7255 504.822 67.5237C505.097 67.4281 504.979 67.6782 504.8 67.7469C501.562 68.9512 498.641 70.1579 495.936 72.2844C497.331 72.5321 498.742 72.7602 500.181 72.9687C503.748 73.4887 507.321 73.8713 510.905 74.1828C512.747 72.201 516.09 70.955 518.596 70.1947C522.329 69.0616 526.227 68.544 530.122 68.5612C530.423 68.5661 529.999 68.8776 529.854 68.8825C523.355 69.1302 517.002 70.5528 511.579 74.2417C512.19 74.2956 512.796 74.3692 513.414 74.4109C517.179 74.6831 521.27 75.392 525.035 74.9112C525.331 74.8769 525.052 75.1492 524.905 75.1737C521 75.8727 516.818 75.262 512.896 75.0192C510.488 74.872 508.084 74.6709 505.685 74.4158C509.188 77.8177 513.436 80.3464 518.228 81.5433C518.405 81.585 518.054 81.8107 517.937 81.7862C513.107 80.7511 507.64 78.2346 504.515 74.2809C503.316 74.1435 502.119 74.0283 500.922 73.8541C493.468 72.77 484.295 72.0367 477.95 67.406C478.038 68.1541 478.33 68.9267 478.921 69.7091C480.736 72.1176 483.003 73.7953 485.563 75.3307C490.817 78.4873 496.61 81.07 502.445 82.9536C515.312 87.1085 532.513 86.1814 538.623 71.7939C544.48 57.9999 527.939 50.0531 516.585 49.3173H516.588Z" fill="white"/>
    <path d="M425.527 79.7505C432.919 88.6611 445.995 88.9898 455.872 84.418C461.841 81.6538 469.016 78.1881 473.335 73.0693C474.821 71.3058 476.536 69.0322 475.841 66.6163C475.361 64.9362 472.989 63.5455 471.662 62.5546C471.596 62.5055 471.466 62.4737 471.328 62.4639C462.565 55.687 449.534 53.9383 439.088 56.1236C433.39 57.3181 426.981 60.3693 423.707 65.4194C420.455 70.4327 421.924 75.4141 425.527 79.7529V79.7505ZM424.906 77.2242C418.804 66.3367 431.776 58.2624 441.109 56.624C451.008 54.8899 462.604 56.6485 470.956 62.687C470.968 62.692 470.963 62.6993 470.978 62.7067C472.469 63.9453 474.183 65.4243 474.625 67.1853C469.305 65.2084 464.309 63.5357 458.582 62.8465C453.939 62.2823 449.446 62.2235 444.93 62.5105C444.442 61.8728 443.598 61.4313 442.907 61.1026C441.666 60.5091 440.353 60.1313 439.083 59.6163C438.972 59.5672 438.879 59.6506 439.012 59.7193C440.859 60.6145 442.872 61.2252 444.489 62.5374C441.666 62.7263 438.83 63.0574 435.943 63.4891C435.598 63.5381 436.125 63.8447 436.301 63.8251C442.136 63.1776 447.832 62.5767 453.642 62.8489C446.605 67.2319 437.491 69.9618 429.24 70.2389C429.054 70.2389 429.338 70.4229 429.434 70.4179C438.112 70.2242 447.29 67.5262 454.589 62.8955C455.567 62.9544 456.553 63.0353 457.547 63.158C463.556 63.8864 468.895 65.4856 474.519 67.5262C470.146 70.3738 465.648 72.1667 460.824 73.5991C458.317 71.8601 455.425 71.3058 452.492 70.6264C452.256 70.5676 452.376 70.7638 452.533 70.8006C455.317 71.5094 457.846 72.2379 460.282 73.7585C459.151 74.0847 458.005 74.406 456.831 74.7102C453.924 75.4582 451.005 76.1009 448.062 76.6871C446.36 75.2105 443.478 74.4845 441.337 74.0823C438.141 73.4814 434.872 73.4029 431.646 73.7757C431.396 73.8051 431.774 74.0234 431.896 74.0136C437.3 73.631 442.686 74.2319 447.508 76.7974C447.005 76.8906 446.51 77.0108 446.007 77.0942C442.914 77.6706 439.593 78.6296 436.431 78.5707C436.181 78.5658 436.441 78.7645 436.566 78.7694C439.86 78.9975 443.262 78.1145 446.488 77.5602C448.467 77.2144 450.439 76.8269 452.403 76.4025C449.811 79.5322 446.524 82.0192 442.666 83.4418C442.526 83.4835 442.833 83.6454 442.931 83.611C446.833 82.3135 451.128 79.7333 453.358 76.1818C454.336 75.9586 455.315 75.755 456.289 75.5024C462.357 73.9278 469.881 72.4831 474.721 68.0781C474.716 68.706 474.539 69.3756 474.12 70.0746C472.834 72.2305 471.115 73.8297 469.136 75.3356C465.072 78.4187 460.512 81.0774 455.852 83.172C445.585 87.7781 431.264 88.5704 424.901 77.2168L424.906 77.2242Z" fill="#497771"/>
    <path opacity="0.5" d="M441.106 56.6236C451.005 54.8896 462.602 56.6482 470.953 62.6867C470.965 62.6916 470.961 62.699 470.975 62.7063C472.467 63.9449 474.181 65.4239 474.622 67.185C469.303 65.2081 464.306 63.5353 458.579 62.8461C453.936 62.282 449.443 62.2232 444.928 62.5101C444.44 61.8724 443.596 61.4309 442.904 61.1023C441.663 60.5087 440.351 60.131 439.08 59.6159C438.97 59.5669 438.877 59.6503 439.009 59.7189C440.856 60.6142 442.87 61.2249 444.486 62.5371C441.663 62.726 438.828 63.0571 435.941 63.4887C435.595 63.5378 436.122 63.8444 436.299 63.8248C442.134 63.1773 447.829 62.5763 453.64 62.8486C446.603 67.2316 437.489 69.9614 429.238 70.2386C429.051 70.2386 429.336 70.4225 429.431 70.4176C438.109 70.2239 447.287 67.5259 454.586 62.8952C455.565 62.9541 456.551 63.035 457.544 63.1576C463.553 63.8861 468.893 65.4852 474.517 67.5259C470.144 70.3735 465.646 72.1664 460.821 73.5988C458.314 71.8598 455.423 71.3055 452.489 70.6261C452.254 70.5672 452.374 70.7635 452.531 70.8002C455.315 71.5091 457.844 72.2375 460.279 73.7582C459.148 74.0844 458.003 74.4057 456.828 74.7098C453.922 75.4579 451.003 76.1005 448.06 76.6867C446.358 75.2102 443.476 74.4842 441.334 74.0819C438.139 73.481 434.869 73.4026 431.644 73.7754C431.394 73.8048 431.771 74.0231 431.894 74.0133C437.297 73.6307 442.683 74.2316 447.505 76.7971C447.003 76.8903 446.507 77.0105 446.004 77.0939C442.912 77.6702 439.591 78.6293 436.429 78.5704C436.179 78.5655 436.439 78.7642 436.564 78.7691C439.858 78.9972 443.26 78.1142 446.485 77.5599C448.464 77.2141 450.436 76.8265 452.401 76.4022C449.809 79.5319 446.522 82.0189 442.664 83.4414C442.524 83.4831 442.831 83.645 442.929 83.6107C446.831 82.3132 451.126 79.733 453.355 76.1815C454.334 75.9583 455.312 75.7547 456.286 75.5021C462.354 73.9274 469.879 72.4828 474.718 68.0777C474.713 68.7056 474.537 69.3752 474.117 70.0742C472.832 72.2302 471.113 73.8293 469.133 75.3353C465.069 78.4183 460.51 81.077 455.85 83.1716C445.583 87.7778 431.261 88.57 424.899 77.2165C418.797 66.329 431.769 58.2547 441.101 56.6163L441.106 56.6236Z" fill="white"/>
    <path d="M424.933 33.6787C422.701 47.3942 432.723 59.4909 444.655 64.8304C451.869 68.0557 460.669 71.8206 468.714 71.6906C471.483 71.6416 474.895 71.3988 476.531 68.8725C477.674 67.1041 477.061 63.8592 476.911 61.8774C476.906 61.7842 476.835 61.6395 476.737 61.5046C475.952 48.2208 467.255 35.0449 457.027 27.3115C451.452 23.0929 443.635 19.6934 436.481 20.7138C429.375 21.7267 426.022 26.9853 424.931 33.6812L424.933 33.6787ZM426.734 31.1132C431.779 16.993 449.33 22.3669 458.172 29.5288C467.556 37.1223 475.111 49.0105 476.236 61.3354C476.241 61.355 476.234 61.3599 476.234 61.3746C476.29 63.7022 476.308 66.4173 475.057 68.2103C472.646 61.8308 470.225 55.9885 466.328 50.259C463.171 45.6086 459.678 41.493 455.857 37.63C456.048 36.6882 455.781 35.5747 455.538 34.6917C455.094 33.0974 454.403 31.6111 453.863 30.0512C453.816 29.9138 453.664 29.8893 453.716 30.0659C454.366 32.4524 455.396 34.7555 455.484 37.2523C453.083 34.8462 450.549 32.5407 447.883 30.267C447.562 29.9948 447.702 30.711 447.859 30.8557C453.046 35.6311 458.086 40.3108 462.428 45.7852C452.906 42.8739 443.238 36.7765 436.483 29.5189C436.331 29.3595 436.39 29.7569 436.468 29.8452C443.49 37.5491 453.184 43.7299 463.137 46.6805C463.855 47.6174 464.559 48.574 465.234 49.5698C469.31 55.5838 472.079 61.6812 474.667 68.3869C468.643 66.6749 463.47 64.0088 458.359 60.7737C457.959 57.1314 456.178 54.0852 454.486 50.882C454.346 50.6293 454.265 50.8918 454.351 51.061C455.906 54.1416 457.243 57.0137 457.787 60.4107C456.595 59.643 455.401 58.8606 454.201 58.0389C451.226 56.0032 448.342 53.8546 445.494 51.6545C445.484 48.9492 443.868 45.7754 442.544 43.5165C440.567 40.144 438.055 37.1272 435.176 34.5004C434.953 34.3017 435.051 34.8143 435.156 34.9124C439.765 39.5088 443.466 44.8581 444.96 51.2474C444.472 50.8672 443.974 50.5091 443.498 50.1241C440.542 47.7768 437.055 45.5179 434.609 42.6188C434.42 42.3907 434.44 42.7782 434.528 42.896C436.927 46.0575 440.415 48.4391 443.463 50.9212C445.335 52.4517 447.243 53.9282 449.173 55.3679C444.295 55.493 439.456 54.4752 435.124 52.1083C434.962 52.0176 435.065 52.4198 435.168 52.4836C439.424 54.9951 445.151 56.8567 450.127 56.0645C451.096 56.7733 452.058 57.5067 453.054 58.1812C459.269 62.4317 466.514 68.1122 474.318 69.0172C473.744 69.5077 473.006 69.8756 472.045 70.0522C469.072 70.5918 466.274 70.2902 463.345 69.6892C457.346 68.4384 451.344 66.4149 445.767 63.8396C433.493 58.1836 421.475 45.8343 426.734 31.1181V31.1132Z" fill="#497771"/>
    <path opacity="0.5" d="M458.172 29.5291C467.556 37.1226 475.11 49.0109 476.236 61.3357C476.241 61.3553 476.234 61.3602 476.234 61.3749C476.29 63.7025 476.307 66.4177 475.056 68.2106C472.645 61.8311 470.224 55.9888 466.327 50.2593C463.171 45.609 459.678 41.4933 455.857 37.6303C456.048 36.6885 455.781 35.575 455.538 34.692C455.094 33.0978 454.402 31.6114 453.863 30.0515C453.816 29.9142 453.664 29.8896 453.715 30.0662C454.365 32.4527 455.395 34.7558 455.484 37.2526C453.083 34.8465 450.549 32.541 447.883 30.2673C447.562 29.9951 447.701 30.7113 447.858 30.856C453.046 35.6314 458.086 40.3111 462.427 45.7856C452.906 42.8742 443.237 36.7768 436.483 29.5193C436.331 29.3598 436.39 29.7572 436.468 29.8455C443.49 37.5494 453.183 43.7302 463.136 46.6808C463.855 47.6177 464.559 48.5743 465.233 49.5701C469.31 55.5841 472.079 61.6815 474.666 68.3872C468.643 66.6752 463.47 64.0091 458.358 60.774C457.959 57.1318 456.178 54.0855 454.486 50.8823C454.346 50.6297 454.265 50.8921 454.351 51.0613C455.906 54.1419 457.242 57.014 457.787 60.411C456.595 59.6433 455.4 58.8609 454.201 58.0393C451.226 56.0035 448.342 53.8549 445.494 51.6549C445.484 48.9496 443.868 45.7758 442.543 43.5168C440.566 40.1444 438.055 37.1275 435.175 34.5007C434.952 34.302 435.05 34.8147 435.156 34.9128C439.764 39.5091 443.466 44.8585 444.959 51.2477C444.471 50.8676 443.973 50.5095 443.497 50.1244C440.542 47.7772 437.054 45.5182 434.609 42.6191C434.42 42.391 434.44 42.7786 434.528 42.8963C436.927 46.0578 440.414 48.4394 443.463 50.9215C445.335 52.452 447.243 53.9285 449.173 55.3683C444.295 55.4934 439.455 54.4755 435.124 52.1086C434.962 52.0179 435.065 52.4201 435.168 52.4839C439.424 54.9955 445.151 56.8571 450.127 56.0648C451.096 56.7737 452.057 57.507 453.053 58.1815C459.268 62.432 466.514 68.1125 474.318 69.0175C473.744 69.5081 473.006 69.876 472.044 70.0526C469.072 70.5922 466.273 70.2905 463.345 69.6896C457.345 68.4387 451.344 66.4152 445.766 63.8399C433.493 58.184 421.475 45.8346 426.733 31.1184C431.778 16.9982 449.33 22.3721 458.172 29.534V29.5291Z" fill="white"/>
    <path d="M426.808 20.1718C426.808 20.1718 422.383 20.5397 420.951 24.6651C419.514 28.7955 422.567 33.5414 422.567 33.5414C422.567 33.5414 418.685 23.8337 426.808 20.1718Z" fill="#497771"/>
    <path d="M422.819 19.0827C422.819 19.0827 418.871 19.2127 417.441 22.8182C416.006 26.4188 418.535 30.7821 418.535 30.7821C418.535 30.7821 415.459 21.9745 422.819 19.0827Z" fill="#497771"/>
    <path d="M545.952 63.6064C545.952 63.6064 549.31 66.5177 548.03 70.6897C546.752 74.8691 541.488 76.9049 541.488 76.9049C541.488 76.9049 550.345 71.3618 545.952 63.6064V63.6064Z" fill="#497771"/>
    <path d="M549.815 65.0829C549.815 65.0829 552.925 67.5209 551.954 71.2735C550.983 75.0286 546.369 77.0545 546.369 77.0545C546.369 77.0545 554.051 71.764 549.815 65.0829Z" fill="#497771"/>
    <path d="M286.962 63.6464C286.255 63.3507 285.849 62.5638 286.06 61.812C286.145 61.4812 294.565 28.6211 273.74 5.78539C273.173 5.14884 273.213 4.16644 273.85 3.59004C274.481 3.01363 275.459 3.05373 276.04 3.69028C298.024 27.8091 289.142 62.2681 289.052 62.6039C288.831 63.4409 287.989 63.9221 287.162 63.7166C287.092 63.6865 287.022 63.6665 286.962 63.6464V63.6464Z" fill="#497771"/>
    <path d="M279.769 7.84044C278.561 10.7325 275.243 12.1008 272.361 10.8879C269.479 9.68994 268.116 6.37186 269.314 3.48482C270.521 0.59778 273.835 -0.765543 276.727 0.43739C279.604 1.65035 280.967 4.95841 279.769 7.84545V7.84044Z" fill="#497771"/>
    <path d="M288.796 64.4133C289.508 64.709 290.335 64.4433 290.741 63.7667C290.907 63.471 308.324 34.35 339.199 33.0568C340.056 33.0268 340.723 32.305 340.688 31.4479C340.653 30.5958 339.936 29.9192 339.074 29.9593C306.469 31.3176 288.24 61.8871 288.065 62.1979C287.624 62.9397 287.874 63.877 288.616 64.313C288.676 64.3531 288.741 64.3832 288.796 64.4133V64.4133Z" fill="#497771"/>
    <path d="M333.501 30.2399C332.293 33.117 333.651 36.435 336.543 37.648C339.425 38.8409 342.738 37.4776 343.951 34.6006C345.149 31.7035 343.786 28.3954 340.894 27.1975C338.012 25.9846 334.703 27.3579 333.501 30.2449V30.2399Z" fill="#497771"/>
    <path d="M272.08 107.213C255.495 100.306 246.974 82.7381 253.089 68.0673C259.209 53.3915 277.679 47.0761 294.264 53.998C310.86 60.9199 319.376 78.4727 313.256 93.1485C307.146 107.824 288.676 114.125 272.085 107.218L272.08 107.213Z" fill="#497771"/>
    <path d="M292.675 57.8024C278.195 51.7576 262.131 57.0706 256.893 69.6462C251.645 82.2269 259.169 97.3788 273.664 103.414C288.159 109.458 304.214 104.145 309.456 91.5697C314.699 78.989 307.176 63.8421 292.675 57.8024V57.8024Z" fill="#34706B"/>
    <path d="M261.77 70.012C259.715 69.1599 258.271 67.7665 257.58 66.0122C256.547 63.3708 257.309 60.3234 259.73 57.4113C261.87 54.84 265.128 52.6096 268.912 51.1159C274.11 49.081 279.438 48.7852 283.137 50.324C285.187 51.1761 286.641 52.5644 287.332 54.3237C288.37 56.9602 287.603 60.0126 285.182 62.9297C283.047 65.501 279.794 67.7264 276 69.205C270.787 71.25 265.469 71.5457 261.765 70.007L261.77 70.012Z" fill="#497771"/>
    <path d="M281.563 54.1285C278.891 53.0158 274.521 53.3416 270.406 54.9605C267.308 56.1735 264.572 58.018 262.892 60.0429C261.494 61.722 260.953 63.351 261.414 64.4988C261.684 65.2155 262.341 65.7869 263.354 66.2079C266.01 67.3206 270.386 66.9898 274.496 65.3759C277.598 64.1629 280.345 62.3084 282.014 60.3035C283.422 58.6144 283.959 56.9955 283.503 55.8377C283.217 55.1359 282.565 54.5445 281.558 54.1285H281.563Z" fill="#34706B"/>
    <path d="M294.104 76.7535C292.49 73.0294 291.788 69.15 292.104 65.8219C292.47 62.0477 294.104 59.3561 296.695 58.2384C298.445 57.4815 300.439 57.5417 302.495 58.3988C306.204 59.9375 309.742 63.9272 311.953 69.0597C313.556 72.7938 314.268 76.6833 313.947 80.0014C313.587 83.7756 311.953 86.4622 309.356 87.5849C307.612 88.3417 305.607 88.2816 303.552 87.4245C299.848 85.8858 296.319 81.891 294.099 76.7535H294.104Z" fill="#497771"/>
    <path d="M298.324 62.0226C297.182 62.5088 296.415 64.0375 296.204 66.2128C295.949 68.8242 296.565 72.0721 297.883 75.1295C299.638 79.1894 302.479 82.5226 305.141 83.6252C306.153 84.0513 307.026 84.1114 307.722 83.8157C308.86 83.3195 309.637 81.7908 309.847 79.6155C310.098 77.0041 309.487 73.7562 308.163 70.6987C306.419 66.6388 303.567 63.3157 300.911 62.193C299.898 61.777 299.026 61.7168 298.324 62.0226V62.0226Z" fill="#34706B"/>
    <path d="M290.435 210.224C299.262 197.653 304.179 181.223 303.702 165.785C303.422 156.718 302.85 147 301.632 137.456C301.973 137.366 302.274 137.181 302.249 136.93C301.582 130.329 300.259 123.267 297.653 116.961C297.567 116.651 297.497 116.315 297.407 116.009C297.362 115.849 297.191 115.638 296.986 115.453C293.382 107.538 287.593 101.058 278.25 98.6367C268.697 96.1757 260.277 97.2383 252.773 101.684C252.442 101.704 252.102 101.784 251.956 101.895C239.03 111.523 226.955 125.196 216.826 137.707C207.097 149.711 201.067 165.765 200.481 181.113C199.383 209.637 222.63 227.461 248.247 228.739C263.92 230.674 279.859 225.285 290.425 210.224H290.435Z" fill="#497771"/>
    <path d="M253.089 225.852C244.994 226.268 236.844 223.586 229.371 220.509C224.474 218.504 220.971 214.89 216.705 212.189C206.49 201.994 203.247 189.233 204.475 175.91C205.784 161.801 214.109 146.614 222.76 135.662C231.135 125.056 241.014 113.739 251.064 104.436C254.006 102.441 257.114 100.672 260.296 99.3837C269.744 95.5443 281.734 101.278 288.641 107.458C293.603 111.894 295.943 118.33 297.642 124.911C299.291 136.655 300.013 149.15 300.224 160.563C300.474 174.522 297.382 193.062 289.889 205.071C281.804 218.028 268.542 225.055 253.094 225.852H253.089Z" fill="#618983"/>
    <path d="M256.327 187.133C239.696 181.414 221.336 180.496 204.45 185.514C204.981 191.523 206.595 197.297 209.553 202.65C232.078 196.079 258.993 203.117 277.538 217.913C281.182 215.422 284.475 212.404 287.282 208.79C279.659 198.656 267.724 191.057 256.327 187.138V187.133Z" fill="#34706B"/>
    <path d="M216.204 145.065C213.587 149.265 211.172 153.736 209.217 158.347C225.201 154.874 243.906 157.575 258.226 162.528C272.496 167.495 286.891 176.141 296.825 188.125C298.69 181.143 299.752 173.76 300.108 166.958C279.483 145.712 243.891 135.923 216.204 145.065V145.065Z" fill="#34706B"/>
    <g style="mix-blend-mode:multiply" opacity="0.3">
    <path d="M290.435 210.224C299.262 197.653 304.179 181.223 303.702 165.785C303.422 156.718 302.85 147 301.632 137.456C301.973 137.366 302.274 137.181 302.249 136.93C301.582 130.329 300.259 123.267 297.653 116.961C297.567 116.651 297.497 116.315 297.407 116.009C297.362 115.849 297.191 115.638 296.986 115.453C293.382 107.538 287.593 101.058 278.25 98.6367C268.697 96.1757 260.277 97.2383 252.773 101.684C252.442 101.704 252.102 101.784 251.956 101.895C239.03 111.523 226.955 125.196 216.826 137.707C207.097 149.711 201.067 165.765 200.481 181.113C199.383 209.637 222.63 227.461 248.247 228.739C263.92 230.674 279.859 225.285 290.425 210.224H290.435ZM215.673 200.645C204.285 184.777 207.162 164.743 216.816 148.964C222.379 136.008 231.446 126.139 244.077 137.817C260.061 152.593 270.491 176.331 263.003 197.834C254.969 220.9 228.464 218.474 215.673 200.64V200.645Z" fill="#497771"/>
    </g>
    <path d="M328.723 140.85C329.786 133.497 325.22 124.059 319.932 119.026C319.817 118.906 319.691 118.821 319.586 118.701C322.007 119.387 323.541 119.327 326.207 117.798C326.593 117.568 326.668 117.062 326.603 116.656C325.345 109.002 313.095 100.591 303.106 98.5164C294.45 86.7527 277.759 81.966 263.951 84.7227C255.756 78.3672 238.068 75.6907 231.411 81.2393C231.091 81.4949 230.82 81.946 230.97 82.362C231.983 85.2591 233.1 86.3016 235.386 87.3642C235.231 87.3742 235.065 87.3742 234.905 87.3842C227.612 87.7451 217.994 91.8952 213.994 98.1555C213.763 98.5114 213.478 99.178 213.939 99.4937C216.034 100.992 219.071 101.584 222.314 101.729C217.788 103.614 214.069 106.426 214.455 110.516C214.901 115.212 222.705 115.142 230.218 113.864C226.73 116.595 224.78 119.919 227.828 123.146C232.554 128.129 246.052 125.828 251.801 125.427C255.65 125.171 262.277 120.991 256.372 124.485C253.756 126.043 251.881 127.076 250.087 129.422C249.796 129.808 249.671 130.344 250.047 130.73C254.142 134.94 261.976 132.514 267.715 129.296C269.95 135.481 274.301 142.433 280.155 141.927C280.681 141.882 280.937 141.401 280.967 140.91C281.143 137.973 280.406 135.953 279.438 133.076C277.263 126.56 279.549 134.058 282.29 136.77C286.375 140.83 295.086 151.395 301.923 150.709C306.339 150.273 307.031 146.468 306.179 142.128C311.02 148.007 316.885 153.16 320.303 149.892C323.26 147.05 322.288 142.494 320.092 138.118C322.644 140.113 325.325 141.662 327.886 141.902C328.453 141.952 328.663 141.266 328.723 140.85V140.85Z" fill="#497771"/>
    <path d="M326.272 137.526C324.538 139.927 319.691 135.261 318.313 134.409C317.321 133.782 316.348 133.151 315.391 132.484C316.874 135.266 318.173 138.113 318.929 140.884C319.616 143.406 319.461 146.523 316.393 147.059C312.739 147.716 308.409 141.31 306.464 139.105C305.071 137.526 303.412 135.917 301.843 134.243C304.033 140.288 305.141 146.914 299.577 146.468C290.204 145.691 283.248 134.594 277.679 127.136C277.383 126.82 277.087 126.499 276.787 126.174C276.25 125.607 275.789 125.597 275.443 125.838C275.739 127.757 276.115 129.652 276.626 131.507C277.228 133.642 278.897 136.113 278.401 138.398C278.21 139.25 277.203 140.057 276.361 139.331C273.729 137.04 271.995 133.957 270.296 130.95C269.699 129.908 268.687 128.439 268.161 126.97C266.562 127.717 264.853 128.274 263.184 128.8C260.768 129.557 258.136 130.84 255.55 130.399C254.553 130.218 254.086 129.226 254.618 128.364C255.755 126.494 257.931 125.407 259.695 124.214C261.124 123.251 262.547 122.299 263.925 121.267C263.865 121.216 263.775 121.186 263.695 121.146C258.227 122.199 252.472 122.635 247.094 122.906C243.195 123.096 234.94 124.354 231.807 121.437C227.888 117.793 231.562 113.798 236.148 110.586C233.802 110.891 231.451 111.132 229.121 111.347C226.76 111.578 220.67 112.55 219.387 109.608C217.572 105.498 223.246 102.371 229.015 100.295C227.938 100.265 226.86 100.245 225.792 100.205C223.838 100.155 221.296 100.125 219.612 98.9221C217.633 97.4936 218.941 95.599 220.49 94.5665C221.768 93.6944 223.256 93.0277 224.82 92.4914C229.892 89.87 235.426 89.1182 241.22 89.3939C241.34 89.3738 241.461 89.3738 241.576 89.3538C238.208 85.334 234.358 79.7905 239.04 80.2616C241.827 80.5373 244.633 81.0836 247.4 81.7803C247.856 81.8605 248.302 81.9056 248.748 82.0009C254.823 82.8529 261.885 84.6724 266.632 88.9027C267.013 89.1132 267.399 89.3187 267.775 89.5292C267.203 88.0306 266.101 86.6321 264.627 85.349C279.007 85.1936 289.668 88.4466 300.149 98.1051C298.47 97.9748 296.921 98.0951 295.547 98.4509C296.871 98.887 298.184 99.3632 299.477 99.8895C304.324 100.902 309.055 103.353 312.99 105.894C316.178 107.764 319.1 109.959 321.756 112.49C319.596 112.976 317.436 113.463 315.281 113.949C314.629 113.683 314.002 113.372 313.376 113.057C315.807 115.758 317.962 119.096 319.812 122.159C321.511 124.184 322.954 126.399 324.017 128.89C325.861 131.867 327.696 135.571 326.272 137.541V137.526Z" fill="#34706B"/>
    <path d="M365.137 190.857C364.731 178.562 356.742 166.457 348.036 158.358C332.057 143.496 307.422 132.8 284.937 135.402C284.676 135.271 284.416 135.201 284.255 135.211C280.892 135.547 275.273 135.477 272.652 137.908C268.898 141.401 269.494 147.185 270.231 151.827C272.381 165.36 281.278 179.003 288.806 190.14C301.267 208.56 324.483 221.792 346.808 214.008C357.704 210.214 365.538 203.047 365.142 190.847L365.137 190.857ZM290.134 187.975C284.185 179.409 279.017 169.946 275.168 160.257C273.293 155.521 271.97 150.925 272.005 145.777C272.01 144.103 272.406 142.77 273.063 141.667C276.872 154.473 288.521 164.939 297.477 174.106C298.911 175.575 300.415 176.973 301.893 178.396C302.033 186.967 306.83 196.009 312.298 202.405C312.424 202.565 313.136 202.616 312.94 202.38C307.692 195.814 304.56 188 303.327 179.79C306.319 182.602 309.351 185.358 312.464 188.05C317.521 192.431 322.538 197.573 328.538 200.651C328.764 200.766 329.425 200.701 328.984 200.44C323.401 197.202 318.599 192.01 313.792 187.764C313 187.068 312.263 186.346 311.477 185.639C322.619 186.266 332.683 190.882 341.735 197.267C341.931 197.408 342.828 197.428 342.422 197.107C337.174 193.057 331.375 189.729 325.15 187.408C320.98 185.86 315.171 184.09 310.629 184.857C306.113 180.747 301.683 176.537 297.382 172.161C295.653 170.387 293.979 168.628 292.345 166.838C298.204 166.758 303.402 168.147 309.026 169.856C309.341 169.946 309.757 169.735 309.286 169.58C303.437 167.685 297.793 165.59 291.568 165.996C284.641 158.378 278.656 150.509 274.015 140.915C286.014 143.281 297.041 146.118 308.319 151.18C310.183 152.012 311.998 152.919 313.782 153.852C321.656 169.66 334.864 184.075 349.845 193.568C350.01 193.679 350.692 193.669 350.376 193.458C336.227 184.266 323.16 169.866 315.481 154.769C325.937 160.428 335.259 167.51 344.793 174.793C345.078 175.003 346.321 175.028 345.77 174.572C341.184 170.773 336.563 167.194 331.821 163.891C336.041 163.305 340.202 164.357 344.387 164.733C344.687 164.763 344.612 164.513 344.367 164.483C341.6 164.036 338.903 163.315 336.107 163.044C334.553 162.894 332.608 162.773 331.084 163.37C323.481 158.107 315.561 153.471 306.835 149.541C296.089 144.704 285.588 142.364 274.186 140.198C276.817 137.577 281.378 136.815 285.298 136.219C285.323 136.209 285.328 136.199 285.358 136.199C306.339 134.459 328.483 143.617 343.981 157.11C358.576 169.816 372.746 197.648 350.572 210.264C327.455 223.411 303.236 206.901 290.134 187.985V187.975Z" fill="#497771"/>
    <path opacity="0.5" d="M343.981 157.1C328.483 143.607 306.334 134.449 285.358 136.189C285.328 136.189 285.323 136.199 285.298 136.209C281.373 136.805 276.817 137.567 274.186 140.188C285.589 142.354 296.089 144.694 306.835 149.531C315.562 153.461 323.481 158.097 331.085 163.36C332.608 162.763 334.548 162.884 336.107 163.034C338.904 163.3 341.6 164.027 344.367 164.473C344.613 164.503 344.688 164.753 344.387 164.723C340.202 164.347 336.042 163.295 331.821 163.881C336.563 167.189 341.184 170.763 345.77 174.562C346.322 175.018 345.079 174.988 344.793 174.783C335.265 167.495 325.937 160.418 315.482 154.759C323.155 169.861 336.227 184.256 350.377 193.448C350.692 193.659 350.011 193.669 349.845 193.559C334.864 184.065 321.652 169.65 313.782 153.842C311.998 152.909 310.184 152.007 308.319 151.17C297.037 146.103 286.01 143.266 274.015 140.905C278.657 150.494 284.641 158.368 291.568 165.986C297.793 165.58 303.432 167.675 309.286 169.57C309.758 169.73 309.342 169.936 309.026 169.846C303.402 168.137 298.204 166.748 292.345 166.828C293.979 168.618 295.653 170.372 297.382 172.151C301.683 176.532 306.114 180.742 310.63 184.847C315.171 184.085 320.98 185.85 325.15 187.398C331.38 189.724 337.179 193.047 342.422 197.097C342.828 197.413 341.936 197.398 341.736 197.258C332.683 190.872 322.619 186.256 311.477 185.629C312.259 186.336 313.001 187.058 313.792 187.754C318.599 192.005 323.401 197.192 328.984 200.43C329.426 200.691 328.764 200.756 328.538 200.641C322.539 197.563 317.522 192.421 312.464 188.04C309.352 185.349 306.319 182.592 303.327 179.78C304.56 187.99 307.693 195.804 312.94 202.37C313.131 202.606 312.424 202.555 312.299 202.395C306.835 195.999 302.034 186.957 301.893 178.387C300.415 176.968 298.911 175.57 297.478 174.096C288.521 164.934 276.872 154.468 273.063 141.657C272.407 142.76 272.016 144.093 272.006 145.767C271.97 150.915 273.294 155.511 275.168 160.247C279.018 169.936 284.19 179.399 290.135 187.965C303.237 206.881 327.451 223.391 350.572 210.244C372.746 197.628 358.577 169.796 343.981 157.09V157.1Z" fill="white"/>
    <path d="M398.308 117.588C388.976 106.14 372.526 100.421 358.311 99.033C332.222 96.4818 300.906 104.236 281.333 123.107C281.002 123.177 280.687 123.292 280.546 123.422C277.579 126.194 272.171 130.224 271.434 134.464C270.387 140.529 275.178 145.612 279.273 149.516C291.177 160.874 309.617 167.405 324.925 172.547C350.241 181.058 382.059 176.757 397.707 153.05C405.346 141.491 407.596 128.941 398.308 117.583V117.588ZM324.619 169.515C312.695 165.665 300.856 160.393 290.12 153.937C284.887 150.799 280.256 147.376 276.547 142.449C275.339 140.85 274.742 139.271 274.562 137.742C287.528 147.205 306.274 148.704 321.506 150.919C323.952 151.275 326.398 151.516 328.849 151.792C335.235 159.871 346.407 165.014 356.276 167.129C356.512 167.179 357.233 166.723 356.872 166.633C347.079 164.187 338.397 159.014 331.24 152.067C336.142 152.584 341.054 153 345.976 153.3C353.99 153.796 362.536 155.05 370.516 153.616C370.816 153.566 371.388 153.01 370.781 153.08C363.088 154.062 354.727 152.614 347.033 152.057C345.77 151.967 344.532 151.817 343.284 151.711C354.366 144.173 367.348 141.266 380.63 140.76C380.926 140.75 381.793 140.113 381.177 140.103C373.212 140.063 365.253 141.126 357.624 143.441C352.502 145 345.665 147.541 341.906 151.591C334.583 150.955 327.28 150.173 319.993 149.11C317.05 148.684 314.168 148.218 311.316 147.712C316.85 143.366 322.814 140.9 329.431 138.439C329.796 138.299 330.037 137.782 329.476 137.983C322.504 140.439 315.602 142.559 309.958 147.476C297.788 145.261 286.33 142.093 274.913 136.324C288.085 129.833 300.685 124.51 315.151 121.112C317.537 120.555 319.927 120.089 322.298 119.673C341.345 129.026 364.461 133.166 385.688 131.322C385.918 131.302 386.56 130.795 386.114 130.825C365.904 132.364 342.933 128.134 324.599 119.317C338.698 117.102 352.762 117.042 367.168 117.062C367.604 117.062 368.807 116.19 367.949 116.15C360.792 115.874 353.795 115.824 346.848 116.11C350.447 112.486 355.178 110.451 359.459 107.779C359.769 107.579 359.519 107.403 359.253 107.539C356.296 109.128 353.193 110.411 350.316 112.195C348.728 113.177 346.788 114.481 345.765 116.165C334.673 116.671 323.717 118.019 312.544 120.636C298.756 123.843 287.017 129.262 274.562 135.517C275.168 131.091 278.952 127.036 282.261 123.613C282.286 123.593 282.286 123.573 282.306 123.553C301.076 106.586 328.894 99.1884 353.519 100.777C376.721 102.276 410.523 118.52 398.554 146.709C386.069 176.106 350.918 178.006 324.624 169.515H324.619Z" fill="#497771"/>
    <path opacity="0.5" d="M353.514 100.782C328.889 99.1935 301.071 106.592 282.301 123.558C282.28 123.578 282.28 123.598 282.255 123.618C278.947 127.046 275.163 131.096 274.557 135.522C287.012 129.267 298.751 123.849 312.539 120.641C323.711 118.029 334.668 116.681 345.76 116.17C346.788 114.486 348.722 113.183 350.311 112.2C353.183 110.411 356.286 109.133 359.248 107.544C359.509 107.409 359.764 107.584 359.454 107.784C355.178 110.456 350.442 112.491 346.843 116.115C353.785 115.829 360.787 115.879 367.944 116.155C368.801 116.195 367.598 117.067 367.162 117.067C352.757 117.047 338.698 117.107 324.594 119.323C342.928 128.139 365.899 132.369 386.109 130.831C386.56 130.801 385.913 131.307 385.683 131.327C364.456 133.176 341.339 129.036 322.293 119.678C319.917 120.094 317.531 120.561 315.146 121.117C300.68 124.51 288.08 129.833 274.908 136.329C286.32 142.098 297.783 145.266 309.953 147.481C315.597 142.569 322.499 140.444 329.471 137.988C330.032 137.793 329.791 138.304 329.425 138.444C322.809 140.905 316.84 143.371 311.311 147.717C314.163 148.223 317.045 148.689 319.987 149.115C327.275 150.178 334.578 150.96 341.901 151.596C345.665 147.546 352.497 145 357.619 143.446C365.248 141.131 373.212 140.073 381.172 140.108C381.788 140.118 380.921 140.755 380.625 140.765C367.343 141.271 354.361 144.178 343.279 151.717C344.527 151.827 345.765 151.977 347.028 152.062C354.722 152.619 363.082 154.067 370.776 153.085C371.383 153.015 370.811 153.571 370.511 153.621C362.531 155.05 353.985 153.802 345.971 153.305C341.049 153.005 336.137 152.594 331.235 152.072C338.392 159.024 347.073 164.192 356.867 166.638C357.228 166.723 356.511 167.184 356.271 167.134C346.402 165.019 335.23 159.876 328.844 151.797C326.393 151.516 323.947 151.28 321.501 150.925C306.269 148.709 287.523 147.211 274.557 137.747C274.737 139.276 275.334 140.855 276.541 142.454C280.251 147.376 284.882 150.804 290.115 153.942C300.851 160.393 312.69 165.671 324.614 169.52C350.908 178.011 386.058 176.116 398.544 146.714C410.513 118.526 376.711 102.286 353.509 100.782H353.514Z" fill="white"/>
    <path d="M167.425 162.974C182.532 181.183 209.252 181.855 229.436 172.512C241.636 166.863 256.297 159.781 265.123 149.321C268.161 145.717 271.664 141.07 270.246 136.133C269.264 132.7 264.417 129.858 261.705 127.833C261.57 127.733 261.304 127.668 261.023 127.648C243.115 113.799 216.485 110.225 195.138 114.691C183.494 117.132 170.398 123.367 163.706 133.687C157.06 143.932 160.062 154.112 167.425 162.979V162.974ZM166.157 157.811C153.687 135.562 180.196 119.062 199.268 115.714C219.497 112.17 243.195 115.764 260.262 128.104C260.287 128.114 260.277 128.129 260.307 128.144C263.354 130.675 266.858 133.698 267.76 137.296C256.888 133.256 246.678 129.838 234.975 128.43C225.487 127.277 216.304 127.157 207.077 127.743C206.08 126.44 204.355 125.538 202.942 124.866C200.406 123.653 197.724 122.881 195.128 121.829C194.902 121.728 194.712 121.899 194.982 122.039C198.757 123.869 202.872 125.117 206.175 127.798C200.406 128.184 194.612 128.861 188.712 129.743C188.005 129.843 189.083 130.47 189.444 130.43C201.368 129.106 213.006 127.878 224.88 128.435C210.5 137.392 191.875 142.97 175.014 143.537C174.633 143.537 175.214 143.912 175.41 143.902C193.143 143.506 211.899 137.993 226.815 128.53C228.815 128.65 230.83 128.816 232.86 129.066C245.14 130.555 256.051 133.823 267.544 137.993C258.608 143.812 249.415 147.476 239.556 150.403C234.434 146.85 228.524 145.717 222.53 144.328C222.048 144.208 222.294 144.609 222.615 144.684C228.304 146.133 233.471 147.621 238.448 150.729C236.138 151.396 233.797 152.052 231.396 152.674C225.457 154.202 219.492 155.516 213.478 156.714C209.999 153.696 204.11 152.213 199.734 151.391C193.203 150.163 186.522 150.002 179.931 150.764C179.42 150.824 180.191 151.27 180.442 151.25C191.484 150.468 202.491 151.696 212.345 156.939C211.317 157.13 210.305 157.375 209.277 157.546C202.957 158.724 196.17 160.683 189.71 160.563C189.198 160.553 189.73 160.959 189.985 160.969C196.717 161.435 203.669 159.631 210.26 158.498C214.305 157.791 218.334 156.999 222.349 156.132C217.051 162.528 210.335 167.61 202.451 170.517C202.165 170.602 202.792 170.933 202.992 170.863C210.966 168.212 219.743 162.939 224.299 155.681C226.299 155.225 228.299 154.809 230.289 154.293C242.689 151.075 258.066 148.123 267.955 139.121C267.945 140.404 267.584 141.772 266.727 143.201C264.101 147.606 260.587 150.874 256.543 153.952C248.237 160.252 238.92 165.685 229.396 169.966C208.415 179.379 179.149 180.998 166.147 157.796L166.157 157.811Z" fill="#497771"/>
    <path opacity="0.5" d="M199.262 115.713C219.492 112.17 243.19 115.764 260.256 128.104C260.281 128.114 260.271 128.129 260.301 128.144C263.349 130.675 266.852 133.697 267.754 137.296C256.883 133.256 246.673 129.838 234.97 128.429C225.481 127.277 216.299 127.156 207.072 127.743C206.074 126.44 204.35 125.537 202.936 124.866C200.4 123.653 197.719 122.881 195.122 121.828C194.897 121.728 194.706 121.899 194.977 122.039C198.751 123.868 202.866 125.116 206.169 127.798C200.4 128.184 194.606 128.86 188.707 129.743C188 129.843 189.078 130.469 189.439 130.429C201.363 129.106 213.001 127.878 224.875 128.434C210.495 137.391 191.869 142.97 175.008 143.536C174.627 143.536 175.209 143.912 175.404 143.902C193.138 143.506 211.893 137.993 226.81 128.53C228.809 128.65 230.824 128.815 232.854 129.066C245.134 130.555 256.046 133.823 267.539 137.993C258.602 143.812 249.41 147.476 239.551 150.403C234.428 146.849 228.519 145.717 222.524 144.328C222.043 144.208 222.289 144.609 222.609 144.684C228.298 146.133 233.466 147.621 238.443 150.729C236.132 151.395 233.792 152.052 231.391 152.674C225.451 154.202 219.487 155.515 213.472 156.713C209.994 153.696 204.104 152.212 199.729 151.39C193.198 150.162 186.516 150.002 179.925 150.764C179.414 150.824 180.186 151.27 180.437 151.25C191.478 150.468 202.485 151.696 212.339 156.939C211.312 157.129 210.299 157.375 209.272 157.545C202.951 158.723 196.165 160.683 189.704 160.563C189.193 160.553 189.724 160.959 189.98 160.969C196.711 161.435 203.663 159.631 210.254 158.498C214.299 157.791 218.329 156.999 222.344 156.132C217.046 162.528 210.329 167.61 202.445 170.517C202.16 170.602 202.786 170.933 202.987 170.863C210.961 168.211 219.737 162.939 224.293 155.681C226.293 155.225 228.293 154.809 230.283 154.293C242.683 151.075 258.061 148.122 267.95 139.121C267.94 140.404 267.579 141.772 266.722 143.2C264.096 147.606 260.582 150.874 256.537 153.952C248.232 160.252 238.914 165.685 229.391 169.966C208.41 179.379 179.143 180.998 166.142 157.796C153.671 135.547 180.181 119.047 199.252 115.698L199.262 115.713Z" fill="white"/>
    <path d="M166.212 68.8243C161.651 96.8526 182.131 121.573 206.516 132.484C221.257 139.076 239.24 146.769 255.68 146.504C261.339 146.403 268.311 145.907 271.654 140.745C273.99 137.131 272.737 130.5 272.431 126.45C272.421 126.259 272.276 125.964 272.075 125.688C270.471 98.5417 252.698 71.6161 231.797 55.8126C220.404 47.1915 204.43 40.2446 189.81 42.3297C175.289 44.3997 168.438 55.1459 166.207 68.8293L166.212 68.8243ZM169.891 63.5815C180.201 34.7262 216.069 45.7079 234.138 60.3436C253.315 75.8614 268.752 100.156 271.053 125.342C271.063 125.382 271.048 125.392 271.048 125.422C271.163 130.179 271.198 135.727 268.642 139.391C263.715 126.355 258.768 114.415 250.804 102.707C244.353 93.2037 237.215 84.7932 229.406 76.899C229.797 74.9743 229.251 72.6987 228.755 70.8943C227.848 67.6364 226.434 64.599 225.331 61.4112C225.236 61.1305 224.925 61.0804 225.031 61.4413C226.359 66.3182 228.464 71.0246 228.645 76.1271C223.738 71.2101 218.56 66.4986 213.112 61.8523C212.455 61.2959 212.741 62.7595 213.062 63.0552C223.662 72.814 233.962 82.3773 242.834 93.5646C223.377 87.6151 203.619 75.1547 189.815 60.3236C189.504 59.9978 189.624 60.8097 189.785 60.9902C204.135 76.7336 223.943 89.3644 244.283 95.3941C245.751 97.3087 247.19 99.2635 248.568 101.298C256.898 113.588 262.557 126.049 267.845 139.752C255.535 136.254 244.964 130.805 234.519 124.194C233.702 116.751 230.063 110.526 226.605 103.98C226.319 103.464 226.153 104 226.329 104.346C229.507 110.641 232.238 116.511 233.351 123.452C230.915 121.884 228.474 120.285 226.023 118.606C219.943 114.445 214.049 110.055 208.23 105.559C208.21 100.03 204.907 93.5445 202.2 88.9283C198.16 82.0365 193.028 75.8715 187.143 70.5034C186.687 70.0974 186.888 71.1449 187.103 71.3454C196.521 80.7383 204.085 91.67 207.137 104.727C206.14 103.95 205.122 103.218 204.15 102.431C198.11 97.6345 190.983 93.0183 185.986 87.0938C185.6 86.6277 185.64 87.4196 185.82 87.6602C190.722 94.1209 197.849 98.9878 204.08 104.06C207.904 107.188 211.803 110.205 215.748 113.147C205.779 113.403 195.89 111.323 187.038 106.486C186.707 106.301 186.918 107.123 187.128 107.253C195.825 112.385 207.528 116.19 217.698 114.571C219.678 116.019 221.642 117.518 223.677 118.896C236.378 127.583 251.184 139.191 267.133 141.04C265.96 142.043 264.452 142.795 262.487 143.155C256.412 144.258 250.693 143.642 244.709 142.414C232.449 139.857 220.184 135.722 208.786 130.46C183.705 118.901 159.145 93.6648 169.891 63.5915V63.5815Z" fill="#497771"/>
    <path opacity="0.5" d="M234.137 60.3439C253.314 75.8617 268.752 100.156 271.052 125.342C271.063 125.382 271.047 125.392 271.047 125.423C271.163 130.179 271.198 135.728 268.642 139.392C263.715 126.355 258.768 114.416 250.803 102.707C244.352 93.204 237.215 84.7935 229.406 76.8992C229.797 74.9745 229.251 72.699 228.754 70.8946C227.847 67.6366 226.434 64.5992 225.331 61.4115C225.236 61.1308 224.925 61.0807 225.03 61.4415C226.359 66.3184 228.464 71.0249 228.644 76.1273C223.737 71.2104 218.56 66.4989 213.111 61.8525C212.455 61.2962 212.74 62.7598 213.061 63.0555C223.662 72.8143 233.962 82.3776 242.834 93.5648C223.376 87.6153 203.618 75.155 189.814 60.3238C189.504 59.998 189.624 60.81 189.784 60.9904C204.134 76.7338 223.943 89.3646 244.282 95.3943C245.751 97.309 247.189 99.2637 248.568 101.299C256.898 113.589 262.557 126.049 267.845 139.752C255.535 136.254 244.964 130.806 234.518 124.195C233.701 116.751 230.063 110.526 226.604 103.98C226.318 103.464 226.153 104 226.328 104.346C229.506 110.641 232.238 116.511 233.351 123.453C230.915 121.884 228.474 120.285 226.023 118.606C219.943 114.446 214.049 110.055 208.229 105.559C208.209 100.031 204.906 93.5448 202.2 88.9285C198.16 82.0367 193.027 75.8717 187.143 70.5036C186.687 70.0976 186.887 71.1452 187.103 71.3457C196.521 80.7386 204.084 91.6702 207.137 104.727C206.139 103.95 205.122 103.218 204.149 102.431C198.11 97.6348 190.982 93.0185 185.985 87.0941C185.599 86.6279 185.639 87.4199 185.82 87.6604C190.722 94.1212 197.849 98.9881 204.079 104.06C207.904 107.188 211.803 110.205 215.748 113.148C205.778 113.403 195.889 111.323 187.038 106.486C186.707 106.301 186.917 107.123 187.128 107.253C195.824 112.386 207.528 116.19 217.697 114.571C219.677 116.02 221.642 117.518 223.677 118.897C236.378 127.583 251.184 139.191 267.133 141.041C265.96 142.043 264.451 142.795 262.487 143.156C256.412 144.258 250.693 143.642 244.708 142.414C232.448 139.858 220.183 135.723 208.786 130.46C183.705 118.902 159.145 93.6651 169.891 63.5918C180.201 34.7364 216.068 45.7182 234.137 60.3539V60.3439Z" fill="white"/>
    <path d="M170.042 41.2217C170.042 41.2217 161 41.9735 158.073 50.4041C155.136 58.8446 161.376 68.5433 161.376 68.5433C161.376 68.5433 153.442 48.7049 170.042 41.2217Z" fill="#497771"/>
    <path d="M161.892 38.9964C161.892 38.9964 153.823 39.2621 150.9 46.63C147.968 53.988 153.136 62.9047 153.136 62.9047C153.136 62.9047 146.851 44.9058 161.892 38.9964Z" fill="#497771"/>
    <path d="M413.521 129.983C413.521 129.983 420.382 135.933 417.766 144.458C415.155 152.999 404.398 157.159 404.398 157.159C404.398 157.159 422.498 145.832 413.521 129.983V129.983Z" fill="#497771"/>
    <path d="M421.415 133.001C421.415 133.001 427.771 137.983 425.786 145.652C423.801 153.325 414.373 157.465 414.373 157.465C414.373 157.465 430.071 146.654 421.415 133.001Z" fill="#497771"/>
    <path d="M56.8594 160.422C56.566 160.3 56.3974 159.973 56.4848 159.661C56.5202 159.524 60.0159 145.882 51.3702 136.402C51.1351 136.137 51.1517 135.73 51.416 135.49C51.6782 135.251 52.0839 135.268 52.3253 135.532C61.4517 145.545 57.7645 159.85 57.727 159.99C57.6355 160.337 57.2859 160.537 56.9426 160.452C56.9135 160.439 56.8843 160.431 56.8594 160.422V160.422Z" fill="#497771"/>
    <path d="M53.8735 137.255C53.372 138.456 51.9946 139.024 50.7981 138.52C49.6016 138.023 49.0356 136.645 49.533 135.447C50.0344 134.248 51.4098 133.682 52.6105 134.182C53.8048 134.685 54.3708 136.058 53.8735 137.257V137.255Z" fill="#497771"/>
    <path d="M57.6208 160.741C57.9163 160.864 58.2596 160.753 58.4282 160.473C58.4969 160.35 65.7276 148.26 78.5454 147.723C78.9012 147.711 79.178 147.411 79.1634 147.056C79.1488 146.702 78.8513 146.421 78.4934 146.438C64.9578 147.001 57.3899 159.692 57.317 159.821C57.1339 160.129 57.238 160.518 57.5459 160.699C57.5709 160.716 57.598 160.728 57.6208 160.741V160.741Z" fill="#497771"/>
    <path d="M76.1792 146.554C75.6777 147.748 76.2416 149.126 77.4422 149.629C78.6387 150.125 80.0141 149.559 80.5176 148.364C81.0149 147.162 80.449 145.788 79.2483 145.291C78.0519 144.787 76.6785 145.358 76.1792 146.556V146.554Z" fill="#497771"/>
    <path d="M50.6811 178.509C43.7957 175.642 40.2583 168.348 42.7969 162.258C45.3376 156.165 53.0053 153.544 59.8907 156.417C66.7802 159.291 70.3155 166.578 67.7749 172.67C65.2384 178.763 57.5706 181.378 50.6831 178.511L50.6811 178.509Z" fill="#497771"/>
    <path d="M59.2314 157.996C53.2199 155.487 46.551 157.693 44.3765 162.913C42.1979 168.136 45.3212 174.426 51.3389 176.932C57.3566 179.441 64.0214 177.235 66.1979 172.015C68.3744 166.792 65.2511 160.504 59.2314 157.996V157.996Z" fill="#34706B"/>
    <path d="M46.4005 163.065C45.5474 162.711 44.9481 162.133 44.661 161.405C44.2323 160.308 44.5486 159.043 45.5536 157.834C46.4421 156.767 47.7946 155.841 49.3657 155.22C51.5234 154.376 53.7353 154.253 55.271 154.892C56.122 155.245 56.7255 155.822 57.0126 156.552C57.4433 157.647 57.125 158.914 56.1199 160.125C55.2335 161.192 53.8831 162.116 52.3079 162.73C50.1439 163.579 47.9361 163.702 46.3984 163.063L46.4005 163.065Z" fill="#497771"/>
    <path d="M54.6172 156.471C53.5081 156.009 51.6936 156.145 49.9853 156.817C48.6994 157.32 47.5633 158.086 46.8662 158.927C46.2856 159.624 46.0609 160.3 46.2523 160.776C46.3647 161.074 46.6373 161.311 47.0576 161.486C48.1604 161.948 49.977 161.811 51.6832 161.141C52.9713 160.637 54.1115 159.867 54.8044 159.035C55.3892 158.334 55.6118 157.661 55.4224 157.181C55.3038 156.889 55.0333 156.644 54.6151 156.471H54.6172Z" fill="#34706B"/>
    <path d="M59.8238 165.864C59.1538 164.318 58.8625 162.707 58.9936 161.326C59.1455 159.759 59.8238 158.641 60.8996 158.177C61.6258 157.863 62.4539 157.888 63.3071 158.244C64.8469 158.883 66.3159 160.539 67.2335 162.67C67.8994 164.22 68.1949 165.835 68.0617 167.212C67.9119 168.779 67.2335 169.894 66.1557 170.361C65.4316 170.675 64.5992 170.65 63.7461 170.294C62.2084 169.655 60.7435 167.997 59.8217 165.864H59.8238Z" fill="#497771"/>
    <path d="M61.5756 159.748C61.1012 159.95 60.7828 160.585 60.6954 161.488C60.5893 162.572 60.8452 163.92 61.3925 165.189C62.1208 166.875 63.3006 168.259 64.4055 168.716C64.8258 168.893 65.1879 168.918 65.4771 168.795C65.9495 168.589 66.272 167.955 66.3594 167.052C66.4634 165.968 66.2096 164.619 65.6602 163.35C64.9361 161.665 63.7521 160.285 62.6493 159.819C62.229 159.646 61.8669 159.621 61.5756 159.748V159.748Z" fill="#34706B"/>
    <path d="M58.3011 221.273C61.9654 216.055 64.0067 209.234 63.809 202.825C63.6925 199.061 63.4552 195.026 62.9496 191.064C63.0911 191.027 63.2159 190.95 63.2055 190.846C62.9288 188.105 62.3795 185.174 61.2974 182.556C61.2621 182.427 61.2329 182.288 61.1955 182.161C61.1768 182.094 61.106 182.007 61.0207 181.93C59.5246 178.644 57.1213 175.954 53.2427 174.949C49.2766 173.927 45.7809 174.368 42.6659 176.214C42.5286 176.222 42.3871 176.255 42.3268 176.301C36.9604 180.298 31.9477 185.975 27.7424 191.168C23.7036 196.152 21.2004 202.817 20.9569 209.188C20.5012 221.03 30.152 228.429 40.787 228.96C47.2936 229.763 53.9106 227.526 58.2969 221.273H58.3011Z" fill="#497771"/>
    <path d="M42.7969 227.762C39.4364 227.934 36.053 226.821 32.9505 225.543C30.9176 224.711 29.4631 223.211 27.6923 222.089C23.4516 217.857 22.1054 212.559 22.6152 207.028C23.1583 201.171 26.6145 194.866 30.2059 190.32C33.683 185.917 37.7842 181.218 41.9562 177.356C43.1777 176.528 44.4678 175.794 45.7891 175.259C49.7114 173.665 54.6887 176.045 57.556 178.611C59.616 180.452 60.5877 183.124 61.2931 185.856C61.9777 190.732 62.2773 195.919 62.3647 200.657C62.4688 206.452 61.1849 214.149 58.0741 219.135C54.7178 224.513 49.212 227.431 42.799 227.762H42.7969Z" fill="#618983"/>
    <path d="M44.1408 211.687C37.2367 209.313 29.6147 208.932 22.6045 211.015C22.8251 213.51 23.4951 215.907 24.7227 218.13C34.0739 215.402 45.2478 218.323 52.9468 224.466C54.4595 223.431 55.8266 222.179 56.9918 220.679C53.8269 216.471 48.8725 213.317 44.1408 211.689V211.687Z" fill="#34706B"/>
    <path d="M27.4846 194.223C26.3984 195.967 25.3955 197.823 24.584 199.737C31.2197 198.295 38.9852 199.417 44.9301 201.473C50.8541 203.535 56.8302 207.124 60.9543 212.099C61.7284 209.201 62.1695 206.136 62.3173 203.312C53.7548 194.492 38.979 190.428 27.4846 194.223V194.223Z" fill="#34706B"/>
    <g style="mix-blend-mode:multiply" opacity="0.3">
    <path d="M58.3011 221.273C61.9654 216.055 64.0067 209.234 63.809 202.825C63.6925 199.061 63.4552 195.026 62.9496 191.064C63.0911 191.027 63.2159 190.95 63.2055 190.846C62.9288 188.105 62.3795 185.174 61.2974 182.556C61.2621 182.427 61.2329 182.288 61.1955 182.161C61.1768 182.094 61.106 182.007 61.0207 181.93C59.5246 178.644 57.1213 175.954 53.2427 174.949C49.2766 173.927 45.7809 174.368 42.6659 176.214C42.5286 176.222 42.3871 176.255 42.3268 176.301C36.9604 180.298 31.9477 185.975 27.7424 191.168C23.7036 196.152 21.2004 202.817 20.9569 209.188C20.5012 221.03 30.152 228.429 40.787 228.96C47.2936 229.763 53.9106 227.526 58.2969 221.273H58.3011ZM27.2638 217.297C22.5363 210.709 23.7306 202.392 27.7383 195.842C30.0479 190.463 33.8121 186.366 39.0557 191.214C45.6914 197.348 50.0216 207.203 46.9129 216.13C43.5773 225.706 32.574 224.698 27.2638 217.295V217.297Z" fill="#497771"/>
    </g>
    <path d="M74.1961 192.473C74.6372 189.421 72.7416 185.503 70.5464 183.413C70.4985 183.363 70.4465 183.328 70.4028 183.278C71.4078 183.563 72.0446 183.538 73.1516 182.904C73.3118 182.808 73.343 182.598 73.3159 182.429C72.7937 179.252 67.7082 175.76 63.5611 174.899C59.9676 170.015 53.0385 168.028 47.3059 169.172C43.9038 166.534 36.5606 165.423 33.7973 167.726C33.6642 167.832 33.5518 168.02 33.6142 168.192C34.0346 169.395 34.4986 169.828 35.4474 170.269C35.3829 170.273 35.3142 170.273 35.2477 170.277C32.2201 170.427 28.227 172.15 26.5666 174.749C26.4708 174.897 26.3522 175.173 26.5437 175.305C27.4134 175.927 28.6744 176.172 30.0207 176.233C28.1417 177.015 26.5978 178.182 26.758 179.88C26.9432 181.83 30.183 181.801 33.3021 181.27C31.8539 182.404 31.0444 183.784 32.3096 185.124C34.2718 187.192 39.8754 186.237 42.262 186.071C43.8601 185.964 46.6109 184.229 44.1597 185.679C43.0736 186.327 42.2953 186.755 41.5504 187.729C41.4297 187.889 41.3777 188.112 41.5338 188.272C43.2338 190.02 46.4861 189.013 48.8686 187.677C49.7966 190.245 51.6028 193.131 54.0331 192.921C54.2516 192.902 54.3577 192.702 54.3702 192.498C54.4431 191.279 54.1372 190.44 53.7356 189.246C52.8325 186.541 53.7814 189.654 54.9196 190.779C56.6154 192.465 60.2319 196.851 63.0701 196.566C64.9033 196.385 65.1904 194.806 64.8367 193.004C66.8467 195.445 69.2813 197.584 70.7004 196.227C71.928 195.047 71.5244 193.156 70.613 191.339C71.6721 192.167 72.7853 192.81 73.8486 192.91C74.0838 192.931 74.1711 192.646 74.1961 192.473V192.473Z" fill="#497771"/>
    <path d="M73.1789 191.093C72.4589 192.09 70.4468 190.153 69.8746 189.799C69.4626 189.539 69.0589 189.277 68.6614 189C69.2774 190.155 69.8163 191.337 70.1305 192.488C70.4156 193.534 70.3511 194.828 69.0776 195.051C67.5607 195.324 65.7629 192.664 64.9555 191.749C64.3771 191.093 63.6883 190.425 63.037 189.73C63.9463 192.24 64.4062 194.991 62.0965 194.806C58.2054 194.483 55.3173 189.876 53.0055 186.78C52.8827 186.649 52.76 186.516 52.6351 186.38C52.4125 186.145 52.221 186.141 52.0774 186.241C52.2002 187.038 52.3563 187.824 52.5685 188.594C52.8182 189.481 53.5111 190.507 53.3051 191.455C53.226 191.809 52.8078 192.144 52.4582 191.843C51.3658 190.892 50.6459 189.612 49.9405 188.363C49.6928 187.931 49.2725 187.321 49.054 186.711C48.3903 187.021 47.6807 187.252 46.9878 187.471C45.9849 187.785 44.8924 188.318 43.8187 188.135C43.4047 188.06 43.2111 187.648 43.4317 187.29C43.9041 186.514 44.8071 186.062 45.5396 185.567C46.1326 185.167 46.7235 184.772 47.2958 184.343C47.2708 184.322 47.2333 184.31 47.2 184.293C44.9299 184.73 42.5411 184.911 40.3084 185.024C38.6896 185.103 35.2625 185.625 33.962 184.414C32.3348 182.901 33.86 181.243 35.764 179.909C34.7901 180.036 33.8142 180.136 32.8467 180.225C31.8666 180.321 29.3384 180.725 28.8058 179.503C28.0525 177.797 30.408 176.499 32.803 175.637C32.3556 175.625 31.9082 175.616 31.465 175.6C30.6535 175.579 29.5985 175.566 28.8994 175.067C28.0775 174.474 28.6206 173.688 29.2635 173.259C29.7941 172.897 30.4121 172.62 31.0613 172.397C33.1671 171.309 35.4643 170.997 37.8697 171.111C37.9197 171.103 37.9696 171.103 38.0175 171.095C36.6192 169.426 35.0211 167.125 36.9646 167.32C38.1215 167.435 39.2868 167.662 40.4354 167.951C40.6247 167.984 40.8099 168.003 40.9951 168.042C43.517 168.396 46.4489 169.151 48.4194 170.908C48.5775 170.995 48.7378 171.08 48.8938 171.168C48.6566 170.545 48.1988 169.965 47.5871 169.432C53.5569 169.368 57.9828 170.718 62.3337 174.728C61.6367 174.674 60.9937 174.724 60.4236 174.871C60.9729 175.053 61.5181 175.25 62.0549 175.469C64.067 175.889 66.0313 176.907 67.6647 177.961C68.9881 178.738 70.2012 179.649 71.3041 180.7C70.4072 180.902 69.5104 181.103 68.6157 181.305C68.3452 181.195 68.0851 181.066 67.825 180.935C68.8341 182.056 69.7289 183.442 70.4967 184.714C71.2021 185.554 71.8014 186.474 72.2425 187.508C73.0082 188.744 73.7698 190.282 73.1789 191.1V191.093Z" fill="#34706B"/>
    <path d="M89.3132 213.233C89.1446 208.129 85.8278 203.104 82.2135 199.741C75.5799 193.572 65.3527 189.131 56.0183 190.211C55.9101 190.157 55.8019 190.128 55.7353 190.132C54.339 190.272 52.0065 190.243 50.9182 191.252C49.3597 192.702 49.6073 195.103 49.9132 197.03C50.8059 202.648 54.4993 208.312 57.6246 212.936C62.7975 220.583 72.4358 226.076 81.7037 222.845C86.2274 221.269 89.4796 218.294 89.3153 213.229L89.3132 213.233ZM58.1761 212.037C55.7061 208.481 53.5608 204.552 51.9628 200.53C51.1846 198.564 50.6352 196.656 50.6498 194.519C50.6519 193.824 50.8163 193.27 51.0888 192.812C52.6702 198.129 57.506 202.473 61.2244 206.279C61.8195 206.889 62.4438 207.469 63.0576 208.06C63.1159 211.619 65.1072 215.372 67.3774 218.027C67.4294 218.094 67.7249 218.115 67.6437 218.017C65.4651 215.291 64.1646 212.047 63.6527 208.639C64.895 209.806 66.1539 210.951 67.446 212.068C69.5456 213.887 71.6284 216.022 74.1192 217.299C74.2128 217.347 74.4875 217.32 74.3044 217.212C71.9863 215.868 69.9929 213.712 67.9974 211.949C67.6687 211.66 67.3628 211.361 67.0361 211.067C71.6617 211.327 75.84 213.244 79.5979 215.895C79.6791 215.953 80.0515 215.961 79.883 215.828C77.7044 214.147 75.2969 212.765 72.7125 211.802C70.9813 211.159 68.5697 210.424 66.6845 210.743C64.8097 209.036 62.9702 207.288 61.1849 205.472C60.467 204.735 59.772 204.005 59.0937 203.262C61.5261 203.229 63.6839 203.805 66.0186 204.515C66.1497 204.552 66.3224 204.465 66.1268 204.4C63.6985 203.614 61.3555 202.744 58.7712 202.913C55.8955 199.75 53.411 196.483 51.4842 192.5C56.4656 193.482 61.0434 194.66 65.7252 196.762C66.4993 197.107 67.2525 197.484 67.9933 197.871C71.2622 204.434 76.7451 210.418 82.9647 214.359C83.0333 214.405 83.3163 214.401 83.1852 214.313C77.3111 210.497 71.8865 204.519 68.6987 198.252C73.0392 200.601 76.9095 203.541 80.8672 206.564C80.9858 206.652 81.5018 206.662 81.273 206.473C79.369 204.896 77.4505 203.41 75.4821 202.039C77.2341 201.795 78.9612 202.232 80.6987 202.388C80.8235 202.401 80.7923 202.297 80.6903 202.284C79.5417 202.099 78.4223 201.799 77.2612 201.687C76.6161 201.625 75.8088 201.575 75.1762 201.822C72.0196 199.637 68.732 197.713 65.1093 196.081C60.648 194.073 56.2888 193.102 51.5549 192.203C52.6474 191.114 54.5409 190.798 56.1681 190.55C56.1785 190.546 56.1806 190.542 56.193 190.542C64.9033 189.82 74.0963 193.622 80.5301 199.223C86.5894 204.498 92.4718 216.053 83.2664 221.29C73.6697 226.748 63.6153 219.894 58.1761 212.041V212.037Z" fill="#497771"/>
    <path opacity="0.5" d="M80.53 199.219C74.0962 193.617 64.9011 189.816 56.193 190.538C56.1805 190.538 56.1784 190.542 56.168 190.546C54.5387 190.794 52.6473 191.11 51.5548 192.198C56.2887 193.097 60.648 194.069 65.1092 196.077C68.7319 197.708 72.0195 199.633 75.1761 201.818C75.8087 201.57 76.614 201.62 77.2611 201.683C78.4222 201.793 79.5416 202.095 80.6902 202.28C80.7922 202.292 80.8234 202.396 80.6986 202.384C78.9611 202.228 77.234 201.791 75.482 202.034C77.4504 203.408 79.3689 204.891 81.2729 206.468C81.5018 206.658 80.9857 206.645 80.8671 206.56C76.9115 203.535 73.0391 200.596 68.6986 198.247C71.8843 204.517 77.311 210.493 83.1851 214.309C83.3162 214.396 83.0332 214.4 82.9646 214.355C76.745 210.414 71.26 204.429 67.9932 197.866C67.2524 197.479 66.4992 197.105 65.7251 196.757C61.0412 194.654 56.4635 193.476 51.4841 192.496C53.4109 196.476 55.8954 199.745 58.7711 202.908C61.3554 202.74 63.6963 203.609 66.1267 204.396C66.3223 204.463 66.1496 204.548 66.0185 204.51C63.6838 203.801 61.5261 203.224 59.0936 203.258C59.7719 204.001 60.4669 204.729 61.1848 205.468C62.9701 207.286 64.8096 209.034 66.6844 210.738C68.5696 210.422 70.9812 211.154 72.7124 211.797C75.2989 212.763 77.7064 214.142 79.8829 215.824C80.0514 215.955 79.6811 215.949 79.5978 215.89C75.8399 213.239 71.6616 211.323 67.036 211.063C67.3606 211.356 67.6686 211.656 67.9974 211.945C69.9928 213.71 71.9862 215.863 74.3043 217.207C74.4874 217.316 74.2127 217.343 74.1191 217.295C71.6283 216.017 69.5455 213.882 67.4459 212.064C66.1538 210.946 64.8949 209.802 63.6526 208.635C64.1645 212.043 65.465 215.287 67.6436 218.013C67.7227 218.111 67.4293 218.09 67.3773 218.023C65.1092 215.368 63.1158 211.614 63.0575 208.056C62.4437 207.467 61.8194 206.887 61.2243 206.275C57.5059 202.471 52.6702 198.127 51.0887 192.808C50.8162 193.266 50.6539 193.819 50.6497 194.514C50.6351 196.651 51.1845 198.559 51.9627 200.526C53.5607 204.548 55.7081 208.476 58.176 212.033C63.6152 219.885 73.6675 226.74 83.2663 221.282C92.4718 216.044 86.5893 204.49 80.53 199.215V199.219Z" fill="white"/>
    <path d="M103.084 182.816C99.2091 178.064 92.3799 175.689 86.4787 175.113C75.6482 174.054 62.6473 177.273 54.5218 185.107C54.3845 185.136 54.2534 185.184 54.1951 185.238C52.9633 186.389 50.7181 188.062 50.4122 189.822C49.9773 192.34 51.9666 194.45 53.6666 196.071C58.6085 200.786 66.2638 203.497 72.6185 205.632C83.1287 209.165 96.3376 207.38 102.834 197.538C106.005 192.739 106.939 187.529 103.084 182.814V182.816ZM72.4916 204.373C67.5414 202.775 62.6265 200.586 58.1694 197.906C55.9971 196.604 54.0744 195.182 52.5346 193.137C52.0331 192.473 51.7855 191.818 51.7106 191.183C57.0937 195.112 64.8759 195.734 71.1994 196.653C72.2148 196.801 73.2303 196.901 74.2478 197.016C76.8987 200.37 81.5368 202.505 85.6339 203.383C85.7317 203.404 86.0314 203.214 85.8816 203.177C81.8157 202.161 78.2117 200.014 75.2403 197.13C77.2754 197.344 79.3145 197.517 81.3579 197.642C84.6851 197.848 88.2329 198.368 91.5455 197.773C91.6703 197.752 91.9076 197.521 91.6558 197.55C88.4618 197.958 84.991 197.357 81.7969 197.126C81.2726 197.088 80.7586 197.026 80.2405 196.982C84.8412 193.853 90.2304 192.646 95.7446 192.436C95.8673 192.432 96.2273 192.167 95.9714 192.163C92.665 192.146 89.3607 192.588 86.1937 193.549C84.0671 194.196 81.2289 195.251 79.6683 196.932C76.6282 196.668 73.5965 196.343 70.571 195.902C69.3496 195.725 68.1531 195.532 66.9691 195.322C69.2664 193.518 71.7425 192.494 74.4892 191.472C74.6411 191.414 74.7409 191.2 74.5079 191.283C71.6135 192.303 68.7482 193.183 66.4052 195.224C61.3531 194.304 56.5963 192.989 51.8563 190.594C57.3246 187.9 62.5558 185.69 68.561 184.279C69.5514 184.048 70.544 183.854 71.5282 183.682C79.4352 187.565 89.0319 189.283 97.8441 188.518C97.9398 188.509 98.2061 188.299 98.021 188.312C89.6312 188.95 80.0948 187.194 72.4833 183.534C78.3366 182.614 84.1753 182.589 90.1555 182.598C90.3366 182.598 90.8359 182.236 90.4801 182.219C87.5087 182.104 84.6039 182.084 81.72 182.202C83.214 180.698 85.1782 179.853 86.9553 178.744C87.0843 178.661 86.9802 178.588 86.8699 178.644C85.6423 179.304 84.3543 179.836 83.1599 180.577C82.5003 180.985 81.695 181.526 81.2705 182.225C76.6657 182.435 72.117 182.995 67.4789 184.081C61.7546 185.413 56.8814 187.662 51.7106 190.259C51.9624 188.422 53.5334 186.738 54.9067 185.317C54.9171 185.309 54.9171 185.301 54.9255 185.292C62.7181 178.249 74.2665 175.178 84.4895 175.837C94.1215 176.459 108.154 183.203 103.186 194.906C98.0022 207.109 83.4096 207.898 72.4937 204.373H72.4916Z" fill="#497771"/>
    <path opacity="0.5" d="M84.4879 175.839C74.2649 175.18 62.7164 178.251 54.9238 185.294C54.9155 185.303 54.9155 185.311 54.9051 185.319C53.5318 186.743 51.9608 188.424 51.709 190.261C56.8798 187.664 61.753 185.415 67.4773 184.083C72.1154 182.999 76.6641 182.44 81.2689 182.227C81.6954 181.528 82.4986 180.987 83.1582 180.579C84.3505 179.836 85.6386 179.306 86.8683 178.646C86.9765 178.59 87.0826 178.663 86.9536 178.746C85.1787 179.855 83.2123 180.7 81.7183 182.204C84.6002 182.086 87.5071 182.107 90.4785 182.221C90.8343 182.238 90.3349 182.6 90.1539 182.6C84.1737 182.591 78.337 182.616 72.4816 183.536C80.0932 187.196 89.6295 188.952 98.0193 188.314C98.2066 188.301 97.9382 188.511 97.8425 188.52C89.0303 189.287 79.4336 187.569 71.5266 183.684C70.5403 183.857 69.5498 184.05 68.5593 184.281C62.5541 185.69 57.323 187.9 51.8546 190.596C56.5926 192.991 61.3514 194.306 66.4036 195.226C68.7466 193.187 71.6119 192.305 74.5063 191.285C74.7393 191.204 74.6394 191.416 74.4875 191.474C71.7409 192.496 69.2626 193.52 66.9675 195.324C68.1515 195.534 69.3479 195.728 70.5694 195.904C73.5949 196.346 76.6266 196.67 79.6667 196.934C81.2293 195.253 84.0655 194.196 86.1921 193.551C89.359 192.59 92.6654 192.151 95.9697 192.165C96.2257 192.169 95.8657 192.434 95.7429 192.438C90.2288 192.648 84.8395 193.855 80.2389 196.984C80.757 197.03 81.271 197.093 81.7953 197.128C84.9893 197.359 88.4601 197.96 91.6542 197.552C91.9059 197.523 91.6687 197.754 91.5439 197.775C88.2312 198.368 84.6835 197.85 81.3563 197.644C79.3129 197.519 77.2737 197.349 75.2387 197.132C78.2101 200.018 81.814 202.163 85.8799 203.179C86.0297 203.214 85.7322 203.406 85.6323 203.385C81.5352 202.507 76.8971 200.372 74.2462 197.018C73.2286 196.901 72.2132 196.803 71.1978 196.656C64.8742 195.736 57.092 195.114 51.709 191.185C51.7839 191.82 52.0315 192.475 52.533 193.139C54.0728 195.182 55.9954 196.606 58.1678 197.908C62.6249 200.586 67.5397 202.777 72.49 204.375C83.4059 207.9 97.9985 207.114 103.182 194.908C108.151 183.205 94.1178 176.463 84.4858 175.839H84.4879Z" fill="white"/>
    <path d="M7.23406 201.658C13.5056 209.217 24.5984 209.496 32.9777 205.618C38.0424 203.273 44.1288 200.332 47.7931 195.99C49.054 194.494 50.5085 192.565 49.9196 190.515C49.5118 189.09 47.4997 187.91 46.374 187.069C46.3178 187.028 46.2075 187.001 46.091 186.992C38.6563 181.243 27.601 179.76 18.7388 181.614C13.9051 182.627 8.46797 185.215 5.6901 189.5C2.93096 193.753 4.17736 197.979 7.23406 201.66V201.658ZM6.70761 199.515C1.53058 190.278 12.5359 183.428 20.4534 182.038C28.8515 180.567 38.6896 182.059 45.7747 187.182C45.7851 187.186 45.7809 187.192 45.7934 187.198C47.0585 188.249 48.513 189.504 48.8876 190.998C44.3743 189.321 40.1357 187.902 35.277 187.317C31.3381 186.838 27.526 186.788 23.6953 187.032C23.2812 186.491 22.5654 186.116 21.9786 185.838C20.9257 185.334 19.8125 185.014 18.7347 184.577C18.641 184.535 18.5619 184.606 18.6743 184.664C20.2412 185.423 21.9495 185.942 23.3207 187.055C20.9257 187.215 18.5203 187.496 16.0712 187.862C15.7778 187.904 16.2252 188.164 16.375 188.147C21.3253 187.598 26.1569 187.088 31.0863 187.319C25.1165 191.037 17.3842 193.353 10.3844 193.589C10.2263 193.589 10.4676 193.745 10.5488 193.74C17.9107 193.576 25.697 191.287 31.8895 187.359C32.7197 187.409 33.5562 187.477 34.3989 187.581C39.4969 188.199 44.0268 189.556 48.7981 191.287C45.088 193.703 41.2718 195.224 37.1789 196.439C35.0523 194.964 32.599 194.494 30.1104 193.917C29.9106 193.867 30.0126 194.034 30.1458 194.065C32.5075 194.666 34.6528 195.284 36.719 196.574C35.7598 196.851 34.788 197.124 33.7913 197.382C31.3256 198.016 28.8494 198.562 26.3525 199.059C24.9084 197.806 22.4635 197.19 20.6469 196.849C17.9356 196.339 15.1619 196.273 12.4257 196.589C12.2134 196.614 12.5339 196.799 12.6379 196.791C17.2219 196.466 21.7914 196.976 25.8822 199.153C25.4556 199.232 25.0353 199.334 24.6088 199.404C21.9849 199.893 19.1675 200.707 16.4853 200.657C16.2731 200.653 16.4936 200.821 16.5997 200.826C19.3943 201.019 22.2803 200.27 25.0166 199.8C26.6958 199.506 28.3688 199.178 30.0355 198.818C27.8361 201.473 25.0478 203.583 21.7747 204.79C21.6561 204.825 21.9162 204.962 21.9994 204.933C25.31 203.832 28.9535 201.643 30.8449 198.63C31.6752 198.441 32.5054 198.268 33.3315 198.054C38.4794 196.718 44.8633 195.492 48.9687 191.755C48.9646 192.288 48.8147 192.856 48.4589 193.449C47.3686 195.278 45.9099 196.635 44.2307 197.912C40.7828 200.528 36.9146 202.784 32.9611 204.561C24.2509 208.468 12.1011 209.14 6.70345 199.508L6.70761 199.515Z" fill="#497771"/>
    <path opacity="0.5" d="M20.4512 182.038C28.8494 180.567 38.6874 182.059 45.7725 187.182C45.7829 187.186 45.7788 187.192 45.7913 187.198C47.0564 188.249 48.5109 189.504 48.8854 190.998C44.3722 189.321 40.1336 187.902 35.2749 187.317C31.3359 186.838 27.5239 186.789 23.6931 187.032C23.2791 186.491 22.5633 186.116 21.9765 185.838C20.9236 185.334 19.8104 185.014 18.7325 184.577C18.6389 184.535 18.5598 184.606 18.6722 184.664C20.239 185.424 21.9473 185.942 23.3186 187.055C20.9236 187.215 18.5182 187.496 16.0691 187.862C15.7757 187.904 16.2231 188.164 16.3729 188.147C21.3231 187.598 26.1547 187.088 31.0841 187.319C25.1143 191.038 17.3821 193.353 10.3822 193.589C10.2241 193.589 10.4655 193.745 10.5466 193.74C17.9085 193.576 25.6949 191.287 31.8873 187.359C32.7176 187.409 33.5541 187.477 34.3968 187.581C39.4947 188.199 44.0247 189.556 48.7959 191.287C45.0859 193.703 41.2697 195.224 37.1767 196.439C35.0502 194.964 32.5969 194.494 30.1082 193.917C29.9085 193.867 30.0105 194.034 30.1436 194.065C32.5053 194.666 34.6506 195.284 36.7169 196.575C35.7576 196.851 34.7859 197.124 33.7892 197.382C31.3234 198.017 28.8473 198.562 26.3503 199.059C24.9062 197.806 22.4613 197.19 20.6448 196.849C17.9335 196.339 15.1598 196.273 12.4235 196.589C12.2113 196.614 12.5317 196.799 12.6357 196.791C17.2198 196.466 21.7892 196.976 25.8801 199.153C25.4535 199.232 25.0332 199.334 24.6066 199.404C21.9827 199.893 19.1653 200.707 16.4832 200.657C16.2709 200.653 16.4915 200.821 16.5976 200.826C19.3921 201.019 22.2782 200.27 25.0144 199.8C26.6937 199.506 28.3666 199.178 30.0333 198.818C27.8339 201.473 25.0457 203.583 21.7726 204.79C21.6539 204.825 21.914 204.962 21.9973 204.933C25.3078 203.832 28.9513 201.643 30.8428 198.63C31.673 198.441 32.5033 198.268 33.3293 198.054C38.4772 196.718 44.8611 195.493 48.9666 191.755C48.9624 192.288 48.8126 192.856 48.4568 193.449C47.3664 195.278 45.9078 196.635 44.2286 197.912C40.7807 200.528 36.9125 202.784 32.9589 204.561C24.2487 208.468 12.0989 209.14 6.7013 199.508C1.52426 190.272 12.5296 183.422 20.4471 182.032L20.4512 182.038Z" fill="white"/>
    <path d="M6.73056 162.572C4.83703 174.208 13.3392 184.47 23.4623 189C29.5819 191.736 37.0479 194.93 43.8729 194.82C46.2221 194.779 49.1165 194.573 50.5044 192.429C51.4741 190.929 50.9539 188.176 50.8269 186.495C50.8228 186.416 50.7624 186.293 50.6792 186.179C50.0133 174.909 42.6348 163.731 33.9579 157.17C29.2282 153.591 22.5967 150.707 16.527 151.573C10.4989 152.432 7.65444 156.893 6.72848 162.574L6.73056 162.572ZM8.25787 160.395C12.5381 148.416 27.4283 152.975 34.9296 159.051C42.8907 165.493 49.2996 175.579 50.2547 186.035C50.2589 186.052 50.2526 186.056 50.2526 186.068C50.3005 188.043 50.3151 190.346 49.2538 191.867C47.2084 186.455 45.1547 181.499 41.8483 176.638C39.1703 172.693 36.2072 169.201 32.9653 165.924C33.1276 165.125 32.9008 164.18 32.6948 163.431C32.3182 162.079 31.7314 160.818 31.2736 159.494C31.2341 159.378 31.1051 159.357 31.1488 159.507C31.7002 161.531 32.5741 163.485 32.649 165.604C30.6119 163.562 28.4625 161.606 26.2006 159.677C25.928 159.447 26.0467 160.054 26.1798 160.177C30.5807 164.228 34.8568 168.198 38.5398 172.843C30.4621 170.373 22.2596 165.2 16.5291 159.043C16.4001 158.908 16.45 159.245 16.5166 159.32C22.4739 165.855 30.6972 171.099 39.1411 173.602C39.7508 174.397 40.348 175.209 40.9202 176.053C44.3785 181.156 46.7277 186.328 48.923 192.017C43.8125 190.565 39.4241 188.303 35.0877 185.559C34.7486 182.469 33.2379 179.884 31.8022 177.167C31.6835 176.952 31.6149 177.175 31.6877 177.319C33.0069 179.932 34.141 182.369 34.6029 185.251C33.5916 184.599 32.5783 183.935 31.5608 183.238C29.0368 181.511 26.5897 179.689 24.1739 177.822C24.1656 175.527 22.7944 172.834 21.6707 170.918C19.9936 168.057 17.8629 165.497 15.42 163.269C15.2306 163.1 15.3139 163.535 15.4033 163.619C19.3132 167.518 22.4531 172.056 23.7203 177.477C23.3062 177.154 22.8838 176.85 22.4802 176.524C19.9728 174.532 17.0139 172.616 14.9393 170.156C14.7791 169.963 14.7958 170.292 14.8707 170.392C16.9057 173.074 19.8646 175.094 22.451 177.2C24.0387 178.498 25.6575 179.751 27.2951 180.972C23.1564 181.079 19.051 180.215 15.3763 178.207C15.239 178.13 15.3264 178.471 15.4137 178.525C19.0239 180.656 23.8826 182.235 28.1046 181.563C28.9265 182.165 29.7422 182.787 30.587 183.359C35.8597 186.965 42.0064 191.784 48.6275 192.552C48.1406 192.968 47.5143 193.28 46.6986 193.43C44.1767 193.888 41.8025 193.632 39.318 193.122C34.2284 192.061 29.1366 190.344 24.4049 188.16C13.9926 183.361 3.79663 172.884 8.25787 160.4V160.395Z" fill="#497771"/>
    <path opacity="0.5" d="M34.9294 159.051C42.8906 165.493 49.2995 175.579 50.2546 186.035C50.2587 186.052 50.2525 186.056 50.2525 186.068C50.3003 188.043 50.3149 190.346 49.2537 191.868C47.2083 186.455 45.1545 181.499 41.8481 176.638C39.1701 172.693 36.2071 169.201 32.9652 165.924C33.1275 165.125 32.9007 164.18 32.6947 163.431C32.318 162.079 31.7313 160.818 31.2735 159.494C31.2339 159.378 31.1049 159.357 31.1486 159.507C31.7 161.532 32.574 163.485 32.6489 165.604C30.6118 163.562 28.4623 161.606 26.2005 159.678C25.9279 159.447 26.0465 160.054 26.1797 160.177C30.5806 164.228 34.8566 168.198 38.5396 172.843C30.462 170.373 22.2594 165.2 16.5289 159.043C16.3999 158.908 16.4498 159.245 16.5164 159.32C22.4738 165.855 30.6971 171.099 39.141 173.602C39.7507 174.397 40.3479 175.209 40.9201 176.053C44.3784 181.156 46.7276 186.328 48.9228 192.017C43.8124 190.565 39.424 188.303 35.0876 185.559C34.7484 182.469 33.2378 179.884 31.802 177.167C31.6834 176.952 31.6147 177.175 31.6876 177.319C33.0068 179.932 34.1408 182.369 34.6028 185.251C33.5915 184.599 32.5781 183.936 31.5606 183.238C29.0366 181.511 26.5896 179.689 24.1738 177.822C24.1655 175.527 22.7942 172.834 21.6706 170.918C19.9934 168.057 17.8627 165.498 15.4198 163.269C15.2305 163.1 15.3137 163.535 15.4032 163.619C19.313 167.518 22.453 172.056 23.7202 177.477C23.3061 177.154 22.8837 176.85 22.48 176.524C19.9726 174.532 17.0137 172.616 14.9392 170.156C14.779 169.963 14.7956 170.292 14.8705 170.392C16.9055 173.074 19.8644 175.094 22.4509 177.2C24.0385 178.498 25.6574 179.751 27.295 180.972C23.1563 181.079 19.0508 180.215 15.3761 178.207C15.2388 178.13 15.3262 178.471 15.4136 178.525C19.0238 180.656 23.8825 182.236 28.1044 181.563C28.9263 182.165 29.742 182.787 30.5868 183.359C35.8596 186.965 42.0063 191.784 48.6274 192.552C48.1405 192.968 47.5141 193.28 46.6985 193.43C44.1765 193.888 41.8023 193.632 39.3179 193.122C34.2282 192.061 29.1365 190.344 24.4047 188.16C13.9924 183.361 3.79648 172.884 8.25772 160.4C12.5379 148.42 27.4282 152.979 34.9294 159.055V159.051Z" fill="white"/>
    <path d="M8.32066 151.113C8.32066 151.113 4.5669 151.425 3.35171 154.925C2.13236 158.429 4.72296 162.455 4.72296 162.455C4.72296 162.455 1.42904 154.219 8.32066 151.113Z" fill="#497771"/>
    <path d="M4.93701 150.189C4.93701 150.189 1.58691 150.3 0.373806 153.358C-0.843463 156.413 1.30184 160.115 1.30184 160.115C1.30184 160.115 -1.30748 152.643 4.93701 150.189Z" fill="#497771"/>
    <path d="M109.399 187.962C109.399 187.962 112.248 190.432 111.162 193.971C110.078 197.517 105.612 199.244 105.612 199.244C105.612 199.244 113.126 194.541 109.399 187.962V187.962Z" fill="#497771"/>
    <path d="M112.676 189.215C112.676 189.215 115.315 191.283 114.491 194.467C113.667 197.652 109.753 199.371 109.753 199.371C109.753 199.371 116.27 194.883 112.676 189.215Z" fill="#497771"/>
    </svg>