<svg width="31" height="37" viewBox="0 0 31 37" fill="none" xmlns="http://www.w3.org/2000/svg">
                    <path d="M2.51064 0.890929C2.4504 0.341939 1.95652 -0.0542723 1.40753 0.00596607C0.85854 0.0662045 0.462329 0.560082 0.522568 1.10907L2.51064 0.890929ZM30.3825 28.986C30.7514 28.5749 30.7171 27.9427 30.306 27.5738L23.6071 21.5634C23.1961 21.1946 22.5638 21.2289 22.195 21.6399C21.8262 22.051 21.8604 22.6832 22.2715 23.0521L28.2261 28.3946L22.8835 34.3492C22.5147 34.7603 22.5489 35.3925 22.96 35.7614C23.3711 36.1302 24.0033 36.0959 24.3722 35.6849L30.3825 28.986ZM1.5166 1C0.522568 1.10907 0.52259 1.10928 0.522619 1.10954C0.522638 1.10971 0.522673 1.11003 0.52271 1.11037C0.522784 1.11104 0.522884 1.11194 0.523011 1.11309C0.523265 1.11538 0.523625 1.11861 0.524092 1.12278C0.525027 1.13111 0.52639 1.14318 0.528189 1.15889C0.531788 1.19031 0.537133 1.23629 0.544284 1.29606C0.558585 1.4156 0.580114 1.59035 0.609355 1.81418C0.667829 2.26177 0.757193 2.90601 0.881336 3.69781C1.12945 5.28032 1.51734 7.45769 2.07667 9.83559C3.18097 14.5303 5.00111 20.2277 7.87629 23.5595L9.39046 22.2529C6.86596 19.3274 5.12771 14.0718 4.02354 9.37764C3.47865 7.06115 3.09978 4.93522 2.8572 3.38802C2.73599 2.61496 2.64902 1.98774 2.5925 1.55509C2.56425 1.3388 2.54361 1.17123 2.53012 1.05849C2.52338 1.00211 2.51842 0.959457 2.51519 0.931274C2.51358 0.917183 2.5124 0.906712 2.51164 0.899955C2.51126 0.896577 2.51099 0.894128 2.51082 0.89262C2.51074 0.891865 2.51068 0.891346 2.51065 0.891064C2.51063 0.890923 2.51063 0.890889 2.51062 0.890818C2.51063 0.890844 2.51064 0.890929 1.5166 1ZM7.87629 23.5595C9.38245 25.3049 11.5482 26.5015 13.8544 27.3324C16.1703 28.1668 18.7059 28.6602 21.0369 28.951C23.3722 29.2423 25.5306 29.3336 27.1036 29.3524C27.891 29.3618 28.5341 29.3531 28.982 29.3419C29.2061 29.3364 29.3815 29.3302 29.502 29.3253C29.5622 29.3229 29.6087 29.3208 29.6407 29.3193C29.6567 29.3185 29.669 29.3179 29.6777 29.3174C29.682 29.3172 29.6854 29.317 29.6878 29.3169C29.689 29.3169 29.69 29.3168 29.6908 29.3168C29.6912 29.3167 29.6915 29.3167 29.6917 29.3167C29.6921 29.3167 29.6923 29.3167 29.6382 28.3181C29.5841 27.3196 29.5843 27.3196 29.5844 27.3196C29.5843 27.3196 29.5843 27.3196 29.5842 27.3196C29.584 27.3196 29.5836 27.3196 29.5829 27.3197C29.5816 27.3197 29.5793 27.3199 29.5761 27.32C29.5697 27.3204 29.5596 27.3209 29.5459 27.3215C29.5185 27.3228 29.4767 27.3247 29.4213 27.3269C29.3106 27.3314 29.1454 27.3372 28.9322 27.3426C28.5057 27.3532 27.8874 27.3616 27.1275 27.3525C25.6058 27.3343 23.5254 27.2459 21.2845 26.9664C19.0392 26.6863 16.6611 26.2178 14.5323 25.4508C12.3939 24.6804 10.5841 23.6362 9.39046 22.2529L7.87629 23.5595Z" fill="white"/>
                    </svg>