<svg width="107" height="35" viewBox="0 0 107 35" fill="none" xmlns="http://www.w3.org/2000/svg">
<g clip-path="url(#clip0_214_467)">
<path d="M49.155 22.072L43.7818 2.72393C43.6814 2.33415 43.4939 1.96657 43.2305 1.64329C42.9671 1.32 42.6333 1.04769 42.2492 0.842748C41.865 0.637802 41.4385 0.504451 40.9953 0.450714C40.5521 0.396977 40.1013 0.423976 39.67 0.530065C39.2387 0.636155 38.8358 0.819152 38.4857 1.06805C38.1356 1.31695 37.8453 1.62661 37.6325 1.9784C37.4196 2.3302 37.2886 2.71686 37.2472 3.11513C37.2057 3.51339 37.2548 3.91504 37.3914 4.29591L42.7647 23.6538C42.8704 24.0393 43.0615 24.4019 43.3268 24.7201C43.592 25.0384 43.926 25.3057 44.3089 25.5064C44.6918 25.7071 45.1159 25.8371 45.556 25.8886C45.9961 25.94 46.4432 25.912 46.871 25.8061C47.2987 25.7002 47.6984 25.5186 48.0462 25.2721C48.3941 25.0256 48.683 24.7192 48.896 24.371C49.109 24.0228 49.2417 23.6399 49.2862 23.245C49.3307 22.8501 49.2861 22.4512 49.155 22.072Z" fill="#F8961E"/>
<path d="M32.0624 28.9926C23.2632 24.3036 13.9122 20.4973 4.17918 17.6428C3.75327 17.5206 3.30409 17.4767 2.85872 17.5137C2.41335 17.5508 1.981 17.668 1.58759 17.8583C1.19419 18.0487 0.847855 18.3082 0.569513 18.6213C0.291171 18.9344 0.0865624 19.2946 -0.0320757 19.6803C-0.150714 20.0659 -0.180906 20.4691 -0.120813 20.8654C-0.0607193 21.2618 0.0884214 21.6432 0.317608 21.9867C0.546795 22.3302 0.851281 22.6287 1.2128 22.8642C1.57433 23.0997 1.98537 23.2674 2.42124 23.3572C11.5929 26.0689 20.4024 29.6762 28.6903 34.1139C32.372 36.0912 35.7109 30.9501 32.0071 28.9926H32.0624Z" fill="#F8961E"/>
<path d="M103.683 24.7117C99.4598 24.9391 95.2475 25.206 91.0794 25.7992C87.1182 26.4043 83.204 27.2331 79.36 28.2807C78.929 28.3752 78.5235 28.5462 78.1676 28.7833C77.8118 29.0205 77.5127 29.3192 77.2883 29.6616C77.0639 30.004 76.9186 30.3832 76.861 30.7767C76.8035 31.1703 76.8348 31.5702 76.9532 31.9527C77.0716 32.3352 77.2747 32.6926 77.5503 33.0036C77.826 33.3147 78.1687 33.5731 78.5581 33.7635C78.9475 33.954 79.3757 34.0727 79.8173 34.1124C80.2589 34.1522 80.7049 34.1124 81.129 33.9952C84.886 32.9823 88.7071 32.1701 92.572 31.5631L93.8213 31.3851C94.363 31.3159 93.3459 31.4444 93.8876 31.3851L94.5399 31.3159C95.4244 31.217 96.32 31.1379 97.2155 31.0687C99.4267 30.8908 101.56 30.7722 103.727 30.6535C104.601 30.6359 105.433 30.3178 106.051 29.7653C106.669 29.2128 107.025 28.4686 107.044 27.6875C107.044 26.9009 106.695 26.1465 106.073 25.5903C105.451 25.034 104.607 24.7216 103.727 24.7216L103.683 24.7117Z" fill="#F8961E"/>
<path d="M68.3039 24.7116C70.7906 17.717 75.2091 11.3958 81.151 6.33244C81.7369 5.77019 82.0558 5.02653 82.0407 4.25814C82.0255 3.48975 81.6775 2.75662 81.0698 2.2132C80.4621 1.66979 79.6422 1.3585 78.7829 1.34494C77.9236 1.33139 77.092 1.61661 76.4633 2.14052C69.721 7.93853 64.7176 15.1597 61.9135 23.1397C61.6794 23.8974 61.7912 24.7073 62.2245 25.3914C62.6578 26.0755 63.3771 26.5777 64.2243 26.7878C65.0724 26.9784 65.9701 26.8688 66.7302 26.482C67.4902 26.0952 68.054 25.461 68.3039 24.7116Z" fill="#F8961E"/>
</g>
<defs>
<clipPath id="clip0_214_467">
<rect width="107" height="34" fill="white" transform="translate(0 0.548828)"/>
</clipPath>
</defs>
</svg>
