<svg width="80" height="57" viewBox="0 0 80 57" fill="none" xmlns="http://www.w3.org/2000/svg">
<g clip-path="url(#clip0_508_3190)">
<path d="M64.4456 41.5175C63.7944 40.4906 63.113 39.4809 62.5126 38.4275C62.3538 38.1498 62.3395 37.705 62.438 37.3913C63.2766 34.6884 64.155 31.998 65.0238 29.3044C65.1032 29.0594 65.1921 28.8175 65.1715 28.4446C64.9412 28.599 64.7013 28.7426 64.4806 28.9096C61.3007 31.3223 58.1923 33.8301 54.9172 36.1101C53.4368 37.1416 51.6738 37.833 49.9615 38.4775C48.2572 39.1189 46.7436 38.4104 45.8017 37.0168C44.6994 35.3844 43.7241 33.635 42.9506 31.831C41.2876 27.9514 40.09 23.9126 39.1624 19.8005C39.1036 19.5399 38.9686 19.2965 38.6923 19.0593C38.535 19.7521 38.3444 20.4388 38.2269 21.1379C37.4359 25.8087 36.3288 30.4015 34.5435 34.8086C33.9479 36.2771 33.1998 37.6878 31.972 38.7927C31.0539 39.6183 29.9659 39.7603 28.8017 39.7057C26.821 39.612 25.3057 38.4822 23.7015 37.5302C20.2913 35.5046 17.5483 32.7174 14.7083 30.0363C14.5066 29.8459 14.2985 29.6587 13.9316 29.5588C14.1826 30.2673 14.4637 30.9664 14.6813 31.6843C15.3373 33.8441 15.9726 36.0102 16.608 38.1763C16.9749 39.4263 16.6651 40.6326 16.3268 41.8312C16.2696 42.0356 16.087 42.2057 16.0568 42.2494C15.5565 42.02 15.1101 41.8967 14.7718 41.6376C14.4875 41.4192 14.1667 41.054 14.1428 40.7325C13.8315 36.6469 12.2829 32.914 10.7041 29.2077C9.58431 26.5797 8.23422 24.0469 7.01119 21.4594C6.76977 20.9491 6.48863 20.8149 5.90253 20.882C4.02194 21.0974 2.38436 20.5824 1.20898 19.0358C0.0415512 17.4971 -0.392066 15.8242 0.408458 13.9843C1.30269 11.9305 4.37296 10.5135 6.70306 11.119C8.42958 11.5669 9.92739 12.4003 10.9836 13.8828C11.2664 14.2808 11.3188 14.6085 11.1186 15.097C10.8899 15.6556 10.9963 16.3517 10.7502 16.8979C10.415 17.6438 9.93374 18.3445 9.41912 18.9906C9.09033 19.4026 9.04109 19.6585 9.41277 20.0455C12.3274 23.0949 15.188 26.1958 18.1518 29.1983C19.7703 30.8369 21.4778 32.4115 23.2965 33.827C24.6513 34.8804 26.2142 35.695 27.7502 36.4924C29.1098 37.1978 29.9723 37.0137 30.6695 35.6872C31.6083 33.9003 32.52 32.0432 33.0378 30.1112C34.0734 26.2504 34.9009 22.3302 35.6839 18.4101C36.1763 15.9443 36.4162 13.4303 36.7942 10.9411C36.9006 10.242 36.6608 9.87059 35.9953 9.56627C33.8828 8.60028 32.5946 6.24693 33.0838 4.11831C33.5111 2.26591 34.7754 1.03773 36.5655 0.360443C38.4 -0.334012 40.0344 0.0311621 41.7689 0.962825C43.0141 1.63231 43.7321 2.4048 43.9592 3.70476C44.2213 5.21071 43.7781 6.56997 42.8331 7.71543C42.247 8.42705 41.4989 9.0466 40.719 9.55379C40.1583 9.91896 39.9804 10.2155 40.1376 10.8647C40.9763 14.326 41.6863 17.8186 42.5964 21.2612C43.7162 25.5044 44.909 29.7367 46.9215 33.685C47.2264 34.2842 47.641 34.8351 48.046 35.3782C48.4065 35.862 48.8608 36.0196 49.5025 35.7964C52.0089 34.9241 54.1293 33.4165 56.2323 31.8887C60.7924 28.5756 65.0063 24.8615 69.0899 21.0037C69.6046 20.5168 69.9381 20.5371 70.4019 20.985C70.7974 21.3673 71.2739 21.6717 71.6376 22.0774C71.7822 22.2397 71.8394 22.6611 71.7266 22.8312C69.9095 25.584 68.3434 28.468 67.1188 31.5173C66.08 34.1032 65.2604 36.7593 65.0031 39.5543C64.9428 40.205 64.7601 40.8449 64.633 41.4894L64.4472 41.5144L64.4456 41.5175ZM5.55151 13.4459C5.40856 13.4599 5.0893 13.4693 4.77799 13.5255C3.58673 13.7377 2.63214 14.7193 2.57496 15.7696C2.4606 17.92 4.66045 19.1576 6.78883 18.1401C7.88478 17.6173 8.91403 16.0739 8.73454 15.2234C8.54236 14.3104 7.08902 13.4521 5.55151 13.4459ZM38.4365 7.77786C40.4394 7.90582 41.4496 5.78188 41.5131 4.28841C41.5449 3.56274 39.7533 2.37515 38.724 2.39699C37.1134 2.42977 35.5902 3.77498 35.6125 5.14361C35.6331 6.45917 37.061 7.79034 38.4365 7.77786Z" fill="#DF7E07"/>
<path d="M37.9234 48.1999C37.1896 48.4137 36.4653 48.7523 35.7188 48.8179C32.3483 49.1128 28.927 49.0785 25.6106 49.6496C22.3306 50.2146 18.9983 50.8388 15.963 52.3526C15.8502 52.4087 15.7438 52.479 15.4404 52.6537C15.8041 52.8535 16.0281 53.0345 16.2854 53.1079C19.1651 53.9225 22.1512 54.1316 25.0975 54.0567C31.3111 53.8991 37.5279 53.587 43.7256 53.1172C47.4868 52.8332 51.2385 52.2527 54.952 51.5863C57.6697 51.0978 60.3317 50.2895 62.9985 49.5513C64.2422 49.2064 64.2946 48.7976 63.3194 47.9455C62.2091 46.9779 60.8845 46.3943 59.4692 46.0057C56.3482 45.1474 53.1524 44.6776 49.9297 44.5356C45.8349 44.3562 41.7243 44.158 37.6343 44.325C33.6778 44.4873 29.7307 45.021 25.8012 45.55C23.2948 45.8871 20.7868 46.3677 18.3566 47.0497C15.3165 47.9018 12.3559 49.027 9.36025 50.0289C8.46601 50.3269 7.56542 50.6125 6.66165 50.8809C6.53935 50.9168 6.28681 50.8684 6.25504 50.792C6.18039 50.6172 6.1105 50.3378 6.20103 50.2146C7.06827 49.0114 7.82908 47.5803 9.33801 47.1356C13.6631 45.8606 17.9849 44.5013 22.3974 43.5977C30.4741 41.9435 38.6604 41.118 46.9309 41.6548C49.7518 41.8374 52.5965 41.9778 55.3713 42.4601C58.5337 43.0094 61.7168 43.6633 64.5456 45.3144C65.5224 45.884 66.2864 46.6487 66.7375 47.702C67.3744 49.1908 67.0488 50.5844 65.5764 51.3116C63.8896 52.145 62.1329 52.9565 60.3111 53.3825C56.6404 54.2408 52.9285 55.0227 49.1879 55.4846C44.4149 56.073 39.6007 56.3726 34.7975 56.6831C31.4986 56.8969 28.1837 57.0514 24.8799 56.9828C22.005 56.9219 19.1317 56.5614 16.2679 56.2337C14.9687 56.0854 13.7695 55.5845 12.9499 54.4593C11.9699 53.1141 12.1716 51.6222 13.5185 50.6172C15.2625 49.3141 17.3274 48.7117 19.389 48.1577C23.6617 47.0076 28.0137 46.3069 32.4531 46.2195C33.511 46.1992 34.5736 46.1914 35.6251 46.2726C36.3525 46.3287 37.1102 46.452 37.2452 47.4305C37.2722 47.6224 37.6518 47.766 37.8678 47.933L37.9234 48.2014V48.1999Z" fill="#DF7E07"/>
<path d="M79.9985 17.1679C79.9206 19.9926 78.0162 21.9245 75.3827 21.8496C72.2203 21.7607 69.7886 19.5197 69.8712 16.77C69.9585 13.8611 72.3919 11.6279 75.3923 11.7012C77.7843 11.7605 80.0715 14.4744 79.9969 17.1679H79.9985ZM75.1349 19.5743C76.6709 19.5509 77.6032 18.6161 77.5794 17.1227C77.5556 15.5652 76.2643 14.2059 74.8475 14.2465C73.472 14.2855 72.4284 15.4294 72.4761 16.848C72.5205 18.1916 73.8881 19.593 75.1334 19.5728L75.1349 19.5743Z" fill="#DF7E07"/>
</g>
<defs>
<clipPath id="clip0_508_3190">
<rect width="80" height="57" fill="white"/>
<svg width="117" height="116" viewBox="0 0 117 116" fill="none" xmlns="http://www.w3.org/2000/svg">
<g clip-path="url(#clip0_90_136)">
<path d="M80.4074 99.4808C81.8909 96.2777 83.54 93.1542 85.3481 90.1228C85.8226 89.3288 86.3094 88.5416 86.8084 87.7614L86.6059 88.0795C88.8003 84.6675 91.1951 81.3888 93.7777 78.2604C96.2473 75.2515 98.8597 72.3551 101.491 69.4932C103.029 67.8187 104.575 66.1526 106.111 64.4761C106.347 64.1893 106.461 63.821 106.428 63.4507C106.395 63.0803 106.217 62.7377 105.933 62.4966C105.646 62.2623 105.279 62.1483 104.909 62.1786C104.54 62.209 104.197 62.3813 103.953 62.6594C102.077 64.7071 100.184 66.7393 98.3113 68.7891C96.4974 70.7742 94.7032 72.778 92.965 74.8291C91.2074 76.9055 89.5071 79.0326 87.8983 81.2266C86.1361 83.6373 84.4833 86.1218 82.9398 88.6801C81.2896 91.4161 79.7822 94.2376 78.3966 97.1246C78.2037 97.5169 78.0191 97.9084 77.8427 98.2993C77.5317 98.9651 77.8276 99.878 78.5306 100.167C78.87 100.317 79.2541 100.329 79.602 100.202C79.95 100.075 80.2347 99.8172 80.3964 99.4839L80.4074 99.4808Z" fill="#F8961E"/>
<path d="M79.175 99.4229C76.9752 96.8124 74.6933 94.2719 72.3292 91.8014C70.2353 89.6124 68.0819 87.4814 65.884 85.3981C63.8321 83.4529 61.7416 81.546 59.6378 79.6548C57.6221 77.8445 55.595 76.0474 53.5824 74.2335C51.5868 72.4339 49.6066 70.6161 47.6709 68.7506C47.4326 68.5225 47.195 68.2929 46.9579 68.0617C46.4301 67.5461 45.4229 67.656 44.9772 68.2245C44.7448 68.5122 44.6323 68.8787 44.6631 69.2477C44.694 69.6167 44.8657 69.9599 45.1428 70.2061C46.8589 71.8773 48.6088 73.5085 50.3772 75.1179C52.1456 76.7273 53.955 78.34 55.7502 79.945C57.5988 81.5951 59.4446 83.2512 61.2684 84.9283C63.1975 86.7029 65.1029 88.5031 66.9688 90.345C68.9629 92.3106 70.9074 94.326 72.8023 96.3909C73.0461 96.6584 73.2896 96.9256 73.5326 97.1924L73.28 96.914C74.4938 98.258 75.686 99.6234 76.8568 101.01C77.0798 101.314 77.4073 101.525 77.7762 101.603C78.1376 101.664 78.5084 101.584 78.8123 101.38C79.3735 100.964 79.6814 100.033 79.1774 99.4249L79.175 99.4229Z" fill="#F8961E"/>
<path d="M102.107 60.5076C98.9253 59.8823 95.7738 59.1221 92.6523 58.2269C91.7572 57.9692 90.8691 57.7035 89.9877 57.4296L90.3357 57.5388C82.8125 55.1791 75.5527 52.047 68.6725 48.1925C66.74 47.1123 64.841 45.9736 62.9755 44.7765L63.2931 44.9807C62.6021 44.5346 61.9132 44.0828 61.2264 43.6251C60.9376 43.3935 60.575 43.2737 60.2054 43.2878C59.8341 43.3191 59.4907 43.4961 59.2502 43.7802C59.0098 44.0643 58.8919 44.4323 58.9223 44.8036C58.9663 45.1511 59.116 45.5611 59.4163 45.7611C61.9585 47.4673 64.5629 49.0753 67.2294 50.5852C69.7989 52.0324 72.4208 53.3797 75.0954 54.627C77.77 55.8744 80.4871 57.0147 83.2468 58.048C86.11 59.1218 89.0111 60.0817 91.9501 60.9279C94.7937 61.7504 97.6666 62.4609 100.569 63.0594C100.923 63.1342 101.279 63.2065 101.628 63.2727C102.347 63.4101 103.16 62.8736 103.256 62.1318C103.311 61.7655 103.223 61.3916 103.008 61.0888C102.794 60.7859 102.471 60.5776 102.107 60.5076V60.5076Z" fill="#F8961E"/>
<path d="M41.8524 70.6685C40.9152 71.9582 39.9196 73.1985 38.9191 74.4348C37.5689 76.0915 36.1921 77.7279 34.8057 79.3561C33.8976 80.4289 32.9838 81.4969 32.0644 82.5601C31.8278 82.8464 31.711 83.2131 31.7384 83.5839C31.7614 83.861 31.8662 84.1253 32.0394 84.3431C32.2126 84.561 32.4465 84.7227 32.7115 84.8078C32.9764 84.8929 33.2605 84.8976 33.5278 84.8212C33.7951 84.7448 34.0335 84.5908 34.213 84.3787C35.7756 82.5622 37.3344 80.7403 38.8739 78.9043C40.0993 77.4418 41.3233 75.9636 42.5046 74.4596C43.0156 73.809 43.5194 73.1522 44.0041 72.4835C44.2361 72.1942 44.3526 71.829 44.3312 71.4584C44.3159 71.2744 44.2645 71.0951 44.1799 70.9308C44.0953 70.7666 43.9791 70.6206 43.838 70.5011C43.697 70.3817 43.5337 70.2913 43.3578 70.2349C43.1818 70.1786 42.9965 70.1575 42.8125 70.1729C42.6281 70.1871 42.4485 70.2379 42.2842 70.3223C42.1199 70.4068 41.9741 70.5232 41.8555 70.6648L41.8524 70.6685Z" fill="#F8961E"/>
<path d="M31.6993 82.6363C31.7496 79.4766 31.7414 76.3179 31.6745 73.1603C31.6075 70.0026 31.4864 66.8581 31.311 63.7267C31.1301 60.5837 30.8924 57.4446 30.5977 54.3095C30.3031 51.1743 29.9501 48.0349 29.5388 44.8913C29.1291 41.7671 28.663 38.6528 28.1406 35.5484C28.0751 35.1639 28.0093 34.7797 27.9431 34.396C27.9024 34.027 27.7264 33.6859 27.4492 33.4384C27.1629 33.2003 26.7954 33.0827 26.4244 33.1105C26.0531 33.141 25.7093 33.3174 25.4685 33.6012C25.2516 33.8821 25.078 34.2622 25.1414 34.6262C25.6789 37.7392 26.1603 40.8616 26.5857 43.9936C27.0111 47.1255 27.3733 50.2498 27.6725 53.3665C27.9813 56.4998 28.2329 59.6381 28.4273 62.7815C28.6218 65.9249 28.7597 69.0808 28.8411 72.2493C28.9199 75.3962 28.942 78.5443 28.9073 81.6937L28.8915 82.8615C28.8862 83.2006 29.1374 83.6091 29.3854 83.819C29.6705 84.0603 30.0396 84.1787 30.4114 84.1482C30.7833 84.1176 31.1275 83.9406 31.3684 83.6561L31.5708 83.3379C31.6721 83.1174 31.7147 82.8743 31.6944 82.6322L31.6993 82.6363Z" fill="#F8961E"/>
<path d="M25.3473 32.7112C28.5547 32.5959 31.7558 32.378 34.9504 32.0574C38.2185 31.7324 41.4741 31.3086 44.7172 30.7862C48.0466 30.2506 51.3572 29.6122 54.649 28.8712C57.7932 28.1664 60.9108 27.3599 64.0018 26.4517C67.0005 25.5696 69.9657 24.584 72.8931 23.4853C73.2347 23.3578 73.5786 23.2261 73.9248 23.09C74.6094 22.8237 75.0711 22.0168 74.7813 21.2965C74.502 20.6081 73.7173 20.1543 72.9856 20.4369C70.3996 21.4421 67.7843 22.3529 65.1396 23.1695C62.4016 24.0223 59.6398 24.7898 56.8543 25.4719C55.2516 25.8678 53.6432 26.2368 52.0292 26.5787L52.3808 26.5035C48.8541 27.2525 45.3034 27.8835 41.729 28.3963C38.1829 28.9068 34.6236 29.2964 31.0512 29.5652C29.0745 29.7224 27.094 29.8381 25.1096 29.9124C24.7388 29.9454 24.3961 30.1231 24.1558 30.407C23.9155 30.6909 23.7969 31.0581 23.8256 31.4293C23.8635 31.7981 24.0429 32.1381 24.3261 32.3778C24.6093 32.6175 24.9743 32.7383 25.3443 32.7148L25.3473 32.7112Z" fill="#F8961E"/>
<path d="M71.4854 21.8542C70.0637 23.5338 68.8662 25.3948 67.7039 27.2586C66.465 29.245 65.2952 31.2731 64.0967 33.2832C63.4366 34.391 62.7705 35.4936 62.0687 36.589L62.2724 36.2719C61.3414 37.7734 60.3109 39.2109 59.1877 40.5745C58.9522 40.862 58.8352 41.2285 58.8606 41.5996C58.8847 41.8764 58.9901 42.1401 59.1637 42.3574C59.3372 42.5748 59.5711 42.7361 59.8359 42.821C60.1006 42.906 60.3845 42.9108 60.6517 42.8348C60.9189 42.7589 61.1575 42.6056 61.3374 42.3942C62.7591 40.7146 63.9554 38.8525 65.1189 36.9898C66.3578 35.0034 67.5276 32.9753 68.7261 30.9651C69.3862 29.8574 70.0575 28.7487 70.7529 27.6584L70.5504 27.9765C71.4817 26.4751 72.5118 25.0374 73.6339 23.6728C73.8708 23.3865 73.9883 23.0199 73.9622 22.6488C73.9389 22.3716 73.8338 22.1073 73.6603 21.8895C73.4869 21.6716 73.2528 21.51 72.9877 21.4249C72.7226 21.3399 72.4384 21.3353 72.171 21.4117C71.9036 21.4881 71.665 21.6421 71.4854 21.8542V21.8542Z" fill="#F8961E"/>
</g>
<defs>
<clipPath id="clip0_90_136">
<rect width="77.2274" height="87.6109" fill="white" transform="translate(0 58.9459) rotate(-49.7539)"/>
</clipPath>
</defs>
</svg>
