<svg width="117" height="116" viewBox="0 0 117 116" fill="none" xmlns="http://www.w3.org/2000/svg">
<g clip-path="url(#clip0_672_3355)">
<path d="M80.4074 99.481C81.8909 96.2779 83.54 93.1544 85.348 90.123C85.8225 89.329 86.3093 88.5418 86.8083 87.7616L86.6058 88.0797C88.8002 84.6677 91.195 81.3889 93.7776 78.2606C96.2473 75.2517 98.8597 72.3553 101.491 69.4934C103.029 67.8189 104.575 66.1528 106.111 64.4762C106.347 64.1895 106.461 63.8212 106.428 63.4509C106.394 63.0805 106.217 62.7378 105.933 62.4968C105.646 62.2624 105.279 62.1485 104.909 62.1788C104.54 62.2092 104.197 62.3815 103.953 62.6596C102.077 64.7073 100.184 66.7395 98.3112 68.7893C96.4974 70.7744 94.7032 72.7782 92.9649 74.8293C91.2073 76.9057 89.5071 79.0328 87.8983 81.2268C86.1361 83.6375 84.4832 86.122 82.9397 88.6803C81.2896 91.4163 79.7821 94.2377 78.3965 97.1248C78.2037 97.5171 78.019 97.9086 77.8426 98.2995C77.5316 98.9653 77.8275 99.8782 78.5305 100.167C78.87 100.317 79.254 100.329 79.602 100.202C79.9499 100.075 80.2347 99.8174 80.3963 99.4841L80.4074 99.481Z" fill="#F8961E"/>
<path d="M79.1749 99.4235C76.9751 96.813 74.6932 94.2726 72.3291 91.8021C70.2352 89.6131 68.0818 87.4821 65.8839 85.3988C63.832 83.4536 61.7415 81.5467 59.6377 79.6555C57.6219 77.8451 55.5949 76.0481 53.5823 74.2341C51.5867 72.4345 49.6064 70.6167 47.6708 68.7513C47.4325 68.5232 47.1948 68.2935 46.9578 68.0624C46.4299 67.5468 45.4228 67.6567 44.9771 68.2251C44.7446 68.5129 44.6322 68.8793 44.663 69.2483C44.6938 69.6173 44.8656 69.9606 45.1427 70.2067C46.8587 71.878 48.6087 73.5092 50.3771 75.1186C52.1455 76.7279 53.9549 78.3407 55.75 79.9456C57.5987 81.5958 59.4445 83.2519 61.2683 84.929C63.1974 86.7035 65.1027 88.5038 66.9687 90.3456C68.9628 92.3113 70.9073 94.3266 72.8022 96.3916C73.046 96.6591 73.2895 96.9263 73.5325 97.1931L73.2798 96.9146C74.4936 98.2587 75.6859 99.6241 76.8566 101.011C77.0797 101.315 77.4072 101.526 77.7761 101.604C78.1375 101.665 78.5083 101.585 78.8121 101.381C79.3734 100.964 79.6813 100.033 79.1773 99.4256L79.1749 99.4235Z" fill="#F8961E"/>
<path d="M102.107 60.5077C98.9253 59.8824 95.7738 59.1222 92.6522 58.227C91.7572 57.9693 90.869 57.7036 89.9877 57.4298L90.3357 57.5389C82.8125 55.1792 75.5526 52.0471 68.6724 48.1927C66.74 47.1124 64.841 45.9737 62.9755 44.7766L63.2931 44.9808C62.602 44.5348 61.9131 44.0829 61.2264 43.6252C60.9375 43.3936 60.575 43.2738 60.2053 43.2879C59.8341 43.3192 59.4907 43.4963 59.2502 43.7804C59.0098 44.0644 58.8918 44.4324 58.9223 44.8037C58.9662 45.1513 59.1159 45.5612 59.4162 45.7613C61.9585 47.4674 64.5629 49.0754 67.2294 50.5854C69.7988 52.0325 72.4208 53.3798 75.0954 54.6271C77.7699 55.8745 80.4871 57.0148 83.2468 58.0481C86.11 59.1219 89.0111 60.0819 91.9501 60.9281C94.7937 61.7505 97.6666 62.461 100.569 63.0595C100.923 63.1343 101.279 63.2067 101.628 63.2728C102.347 63.4103 103.16 62.8737 103.255 62.1319C103.311 61.7656 103.223 61.3918 103.008 61.0889C102.794 60.786 102.471 60.5777 102.107 60.5077Z" fill="#F8961E"/>
<path d="M41.8526 70.6685C40.9154 71.9583 39.9198 73.1986 38.9193 74.4348C37.5691 76.0916 36.1924 77.728 34.8059 79.3561C33.8978 80.4289 32.9841 81.4969 32.0646 82.5601C31.828 82.8464 31.7112 83.2132 31.7386 83.584C31.7616 83.8611 31.8664 84.1253 32.0396 84.3432C32.2128 84.5611 32.4467 84.7228 32.7117 84.8079C32.9766 84.893 33.2607 84.8977 33.528 84.8213C33.7953 84.7449 34.0338 84.5909 34.2132 84.3788C35.7758 82.5622 37.3346 80.7404 38.8741 78.9043C40.0995 77.4419 41.3236 75.9637 42.5048 74.4597C43.0158 73.8091 43.5196 73.1523 44.0043 72.4835C44.2363 72.1942 44.3528 71.8291 44.3314 71.4585C44.3161 71.2744 44.2647 71.0952 44.1801 70.9309C44.0955 70.7666 43.9793 70.6206 43.8382 70.5012C43.6972 70.3818 43.534 70.2913 43.358 70.235C43.182 70.1787 42.9967 70.1576 42.8127 70.173C42.6283 70.1871 42.4487 70.2379 42.2844 70.3224C42.1201 70.4069 41.9744 70.5233 41.8557 70.6649L41.8526 70.6685Z" fill="#F8961E"/>
<path d="M31.6992 82.637C31.7496 79.4773 31.7413 76.3186 31.6744 73.1609C31.6075 70.0033 31.4863 66.8588 31.3109 63.7274C31.1301 60.5844 30.8923 57.4453 30.5976 54.3102C30.303 51.175 29.95 48.0356 29.5387 44.892C29.129 41.7678 28.663 38.6535 28.1405 35.5491C28.075 35.1645 28.0092 34.7804 27.943 34.3967C27.9023 34.0276 27.7263 33.6865 27.4491 33.4391C27.1628 33.201 26.7953 33.0834 26.4243 33.1112C26.053 33.1416 25.7093 33.3181 25.4684 33.6019C25.2515 33.8828 25.0779 34.2629 25.1413 34.6269C25.6788 37.7399 26.1602 40.8623 26.5856 43.9942C27.011 47.1262 27.3733 50.2505 27.6724 53.3672C27.9812 56.5005 28.2328 59.6388 28.4273 62.7822C28.6217 65.9255 28.7596 69.0815 28.841 72.25C28.9198 75.3968 28.9419 78.545 28.9072 81.6944L28.8914 82.8621C28.8861 83.2013 29.1373 83.6098 29.3853 83.8197C29.6704 84.061 30.0395 84.1794 30.4113 84.1488C30.7832 84.1183 31.1274 83.9413 31.3683 83.6567L31.5708 83.3386C31.672 83.118 31.7146 82.875 31.6943 82.6329L31.6992 82.637Z" fill="#F8961E"/>
<path d="M25.3472 32.7117C28.5546 32.5964 31.7556 32.3785 34.9503 32.0579C38.2183 31.7329 41.4739 31.3091 44.7171 30.7866C48.0465 30.251 51.3571 29.6127 54.6488 28.8717C57.7931 28.1669 60.9107 27.3604 64.0017 26.4522C67.0004 25.5701 69.9655 24.5845 72.8929 23.4858C73.2346 23.3583 73.5785 23.2266 73.9246 23.0905C74.6092 22.8242 75.071 22.0173 74.7811 21.297C74.5018 20.6086 73.7172 20.1548 72.9854 20.4373C70.3995 21.4425 67.7842 22.3534 65.1395 23.17C62.4014 24.0228 59.6397 24.7903 56.8541 25.4724C55.2514 25.8683 53.643 26.2373 52.029 26.5792L52.3807 26.504C48.8539 27.253 45.3033 27.884 41.7288 28.3968C38.1827 28.9073 34.6235 29.2969 31.051 29.5657C29.0744 29.7229 27.0938 29.8386 25.1094 29.9128C24.7386 29.9459 24.396 30.1236 24.1557 30.4075C23.9154 30.6914 23.7967 31.0586 23.8254 31.4298C23.8633 31.7986 24.0428 32.1386 24.326 32.3783C24.6092 32.618 24.9741 32.7388 25.3441 32.7153L25.3472 32.7117Z" fill="#F8961E"/>
<path d="M71.4856 21.8549C70.0639 23.5345 68.8664 25.3955 67.7041 27.2593C66.4653 29.2457 65.2954 31.2738 64.0969 33.284C63.4368 34.3917 62.7707 35.4943 62.0689 36.5897L62.2726 36.2726C61.3416 37.7742 60.3111 39.2116 59.1879 40.5753C58.9524 40.8627 58.8354 41.2292 58.8608 41.6003C58.8849 41.8772 58.9903 42.1408 59.1639 42.3582C59.3374 42.5755 59.5713 42.7368 59.8361 42.8218C60.1009 42.9067 60.3847 42.9115 60.6519 42.8356C60.9191 42.7596 61.1577 42.6063 61.3377 42.3949C62.7593 40.7153 63.9556 38.8533 65.1191 36.9905C66.358 35.0042 67.5279 32.976 68.7264 30.9659C69.3864 29.8581 70.0577 28.7495 70.7531 27.6591L70.5506 27.9772C71.4819 26.4759 72.512 25.0381 73.6341 23.6736C73.871 23.3872 73.9885 23.0206 73.9624 22.6495C73.9391 22.3723 73.834 22.1081 73.6606 21.8902C73.4871 21.6724 73.253 21.5107 72.9879 21.4257C72.7228 21.3406 72.4386 21.336 72.1712 21.4124C71.9038 21.4888 71.6652 21.6428 71.4856 21.8549Z" fill="#F8961E"/>
</g>
<defs>
<clipPath id="clip0_672_3355">
<rect width="77.2274" height="87.6109" fill="white" transform="translate(0 58.9463) rotate(-49.7539)"/>
</clipPath>
</defs>
</svg>
