<svg width="44" height="42" viewBox="0 0 44 42" fill="none" xmlns="http://www.w3.org/2000/svg">
<g clip-path="url(#clip0_756_3551)">
<path d="M44 15.2847C43.8857 14.5562 43.8072 13.8208 43.6588 13.101C42.671 8.52408 40.378 4.8193 36.4932 2.19948C35.4254 1.49279 34.2599 0.951019 33.035 0.591941C32.6938 0.488117 32.4054 0.522724 32.2434 0.887837C32.0932 1.23392 32.2229 1.56269 32.6085 1.73919C33.8168 2.27069 34.9509 2.96129 35.9814 3.79317C39.1547 6.41991 41.2379 9.73016 42.0244 13.8295C42.5976 16.8248 42.195 19.6678 40.5827 22.2807C39.0199 24.8019 36.7321 26.188 33.8573 26.6154C32.5991 26.7954 31.3219 26.7919 30.0647 26.605C29.9316 25.6983 29.8378 24.8036 29.6689 23.9263C29.0052 20.5036 27.4749 17.5031 25.2911 14.8331C24.3101 13.6339 23.2659 12.4867 21.9915 11.6076C20.2649 10.4137 18.3865 10.0226 16.4296 10.9587C14.6997 11.7841 14.0121 13.3121 13.9985 15.1792C13.9797 17.5342 14.8754 19.5675 16.2778 21.3792C18.7943 24.6271 22.1484 26.6275 25.9616 27.9132C26.5962 28.1277 27.2462 28.2921 27.9167 28.4859C27.7206 30.0011 27.2349 31.4629 26.487 32.7894C23.8596 37.3923 19.8606 39.493 14.6792 39.1313C11.1937 38.8873 8.32742 37.24 6.03615 34.57C5.92184 34.4385 5.81947 34.2983 5.69493 34.1737C5.62507 34.0955 5.54049 34.0323 5.44616 33.9877C5.35183 33.9432 5.24966 33.9182 5.14568 33.9144C5.0417 33.9105 4.938 33.9278 4.8407 33.9652C4.7434 34.0026 4.65447 34.0594 4.57915 34.1322C4.23793 34.4298 4.17651 34.8244 4.47167 35.2085C6.68958 38.1277 9.41932 40.3132 13.0209 41.2061C15.6244 41.8515 18.1716 41.5625 20.63 40.5312C23.8426 39.1832 26.4307 37.0704 28.2204 34.0024C29.0553 32.5927 29.6057 31.0287 29.8395 29.4013C29.8651 29.2161 29.906 29.0345 29.9316 28.8822C30.9553 28.8822 31.9533 28.9289 32.9463 28.8822C36.0616 28.7091 38.8425 27.7194 40.9359 25.2483C42.543 23.3449 43.4643 21.1248 43.8362 18.659C43.8931 18.291 43.95 17.9224 44.0068 17.5533L44 15.2847ZM27.985 26.2364C27.9031 26.2191 27.8502 26.2139 27.799 26.1983C23.6583 25.0009 20.1335 22.8362 17.3799 19.4325C15.8905 17.5931 15.5954 15.636 16.6565 13.4903C17.2588 12.2704 18.1272 11.8966 19.3317 12.478C20.1151 12.8292 20.8461 13.2899 21.5035 13.8468C24.2094 16.2849 26.0349 19.3477 27.2616 22.786C27.66 23.8964 27.9035 25.0577 27.985 26.2364V26.2364Z" fill="#F8961E"/>
<path d="M1.88993 32.9484C3.44758 32.9484 4.84487 32.9346 6.24216 32.9484C6.68403 32.9484 7.1225 33.0592 7.56267 33.1076C8.05402 33.1613 8.43107 32.9034 8.4959 32.483C8.5505 32.1109 8.32529 31.8531 7.83565 31.7285C5.62797 31.1679 3.37593 31.019 1.11195 31C0.373214 31 -0.00895325 31.4343 -0.000422812 32.1784C0.0224519 34.1535 0.220017 36.1225 0.589887 38.0617C0.68884 38.5964 0.852622 39.1 1.33374 39.4305C1.99399 39.8735 2.6679 39.5793 2.73103 38.7799C2.74137 38.3331 2.70073 37.8865 2.6099 37.4492C2.38299 35.9818 2.14072 34.5144 1.88993 32.9484Z" fill="#F8961E"/>
</g>
<defs>
<clipPath id="clip0_756_3551">
<rect width="44" height="41" fill="white" transform="matrix(-1 0 0 1 44 0.548828)"/>
</clipPath>
</defs>
</svg>
