<svg width="80" height="57" viewBox="0 0 80 57" fill="none" xmlns="http://www.w3.org/2000/svg">
<g clip-path="url(#clip0_508_3190)">
<path d="M64.4456 41.5175C63.7944 40.4906 63.113 39.4809 62.5126 38.4275C62.3538 38.1498 62.3395 37.705 62.438 37.3913C63.2766 34.6884 64.155 31.998 65.0238 29.3044C65.1032 29.0594 65.1921 28.8175 65.1715 28.4446C64.9412 28.599 64.7013 28.7426 64.4806 28.9096C61.3007 31.3223 58.1923 33.8301 54.9172 36.1101C53.4368 37.1416 51.6738 37.833 49.9615 38.4775C48.2572 39.1189 46.7436 38.4104 45.8017 37.0168C44.6994 35.3844 43.7241 33.635 42.9506 31.831C41.2876 27.9514 40.09 23.9126 39.1624 19.8005C39.1036 19.5399 38.9686 19.2965 38.6923 19.0593C38.535 19.7521 38.3444 20.4388 38.2269 21.1379C37.4359 25.8087 36.3288 30.4015 34.5435 34.8086C33.9479 36.2771 33.1998 37.6878 31.972 38.7927C31.0539 39.6183 29.9659 39.7603 28.8017 39.7057C26.821 39.612 25.3057 38.4822 23.7015 37.5302C20.2913 35.5046 17.5483 32.7174 14.7083 30.0363C14.5066 29.8459 14.2985 29.6587 13.9316 29.5588C14.1826 30.2673 14.4637 30.9664 14.6813 31.6843C15.3373 33.8441 15.9726 36.0102 16.608 38.1763C16.9749 39.4263 16.6651 40.6326 16.3268 41.8312C16.2696 42.0356 16.087 42.2057 16.0568 42.2494C15.5565 42.02 15.1101 41.8967 14.7718 41.6376C14.4875 41.4192 14.1667 41.054 14.1428 40.7325C13.8315 36.6469 12.2829 32.914 10.7041 29.2077C9.58431 26.5797 8.23422 24.0469 7.01119 21.4594C6.76977 20.9491 6.48863 20.8149 5.90253 20.882C4.02194 21.0974 2.38436 20.5824 1.20898 19.0358C0.0415512 17.4971 -0.392066 15.8242 0.408458 13.9843C1.30269 11.9305 4.37296 10.5135 6.70306 11.119C8.42958 11.5669 9.92739 12.4003 10.9836 13.8828C11.2664 14.2808 11.3188 14.6085 11.1186 15.097C10.8899 15.6556 10.9963 16.3517 10.7502 16.8979C10.415 17.6438 9.93374 18.3445 9.41912 18.9906C9.09033 19.4026 9.04109 19.6585 9.41277 20.0455C12.3274 23.0949 15.188 26.1958 18.1518 29.1983C19.7703 30.8369 21.4778 32.4115 23.2965 33.827C24.6513 34.8804 26.2142 35.695 27.7502 36.4924C29.1098 37.1978 29.9723 37.0137 30.6695 35.6872C31.6083 33.9003 32.52 32.0432 33.0378 30.1112C34.0734 26.2504 34.9009 22.3302 35.6839 18.4101C36.1763 15.9443 36.4162 13.4303 36.7942 10.9411C36.9006 10.242 36.6608 9.87059 35.9953 9.56627C33.8828 8.60028 32.5946 6.24693 33.0838 4.11831C33.5111 2.26591 34.7754 1.03773 36.5655 0.360443C38.4 -0.334012 40.0344 0.0311621 41.7689 0.962825C43.0141 1.63231 43.7321 2.4048 43.9592 3.70476C44.2213 5.21071 43.7781 6.56997 42.8331 7.71543C42.247 8.42705 41.4989 9.0466 40.719 9.55379C40.1583 9.91896 39.9804 10.2155 40.1376 10.8647C40.9763 14.326 41.6863 17.8186 42.5964 21.2612C43.7162 25.5044 44.909 29.7367 46.9215 33.685C47.2264 34.2842 47.641 34.8351 48.046 35.3782C48.4065 35.862 48.8608 36.0196 49.5025 35.7964C52.0089 34.9241 54.1293 33.4165 56.2323 31.8887C60.7924 28.5756 65.0063 24.8615 69.0899 21.0037C69.6046 20.5168 69.9381 20.5371 70.4019 20.985C70.7974 21.3673 71.2739 21.6717 71.6376 22.0774C71.7822 22.2397 71.8394 22.6611 71.7266 22.8312C69.9095 25.584 68.3434 28.468 67.1188 31.5173C66.08 34.1032 65.2604 36.7593 65.0031 39.5543C64.9428 40.205 64.7601 40.8449 64.633 41.4894L64.4472 41.5144L64.4456 41.5175ZM5.55151 13.4459C5.40856 13.4599 5.0893 13.4693 4.77799 13.5255C3.58673 13.7377 2.63214 14.7193 2.57496 15.7696C2.4606 17.92 4.66045 19.1576 6.78883 18.1401C7.88478 17.6173 8.91403 16.0739 8.73454 15.2234C8.54236 14.3104 7.08902 13.4521 5.55151 13.4459ZM38.4365 7.77786C40.4394 7.90582 41.4496 5.78188 41.5131 4.28841C41.5449 3.56274 39.7533 2.37515 38.724 2.39699C37.1134 2.42977 35.5902 3.77498 35.6125 5.14361C35.6331 6.45917 37.061 7.79034 38.4365 7.77786Z" fill="#DF7E07"/>
<path d="M37.9234 48.1999C37.1896 48.4137 36.4653 48.7523 35.7188 48.8179C32.3483 49.1128 28.927 49.0785 25.6106 49.6496C22.3306 50.2146 18.9983 50.8388 15.963 52.3526C15.8502 52.4087 15.7438 52.479 15.4404 52.6537C15.8041 52.8535 16.0281 53.0345 16.2854 53.1079C19.1651 53.9225 22.1512 54.1316 25.0975 54.0567C31.3111 53.8991 37.5279 53.587 43.7256 53.1172C47.4868 52.8332 51.2385 52.2527 54.952 51.5863C57.6697 51.0978 60.3317 50.2895 62.9985 49.5513C64.2422 49.2064 64.2946 48.7976 63.3194 47.9455C62.2091 46.9779 60.8845 46.3943 59.4692 46.0057C56.3482 45.1474 53.1524 44.6776 49.9297 44.5356C45.8349 44.3562 41.7243 44.158 37.6343 44.325C33.6778 44.4873 29.7307 45.021 25.8012 45.55C23.2948 45.8871 20.7868 46.3677 18.3566 47.0497C15.3165 47.9018 12.3559 49.027 9.36025 50.0289C8.46601 50.3269 7.56542 50.6125 6.66165 50.8809C6.53935 50.9168 6.28681 50.8684 6.25504 50.792C6.18039 50.6172 6.1105 50.3378 6.20103 50.2146C7.06827 49.0114 7.82908 47.5803 9.33801 47.1356C13.6631 45.8606 17.9849 44.5013 22.3974 43.5977C30.4741 41.9435 38.6604 41.118 46.9309 41.6548C49.7518 41.8374 52.5965 41.9778 55.3713 42.4601C58.5337 43.0094 61.7168 43.6633 64.5456 45.3144C65.5224 45.884 66.2864 46.6487 66.7375 47.702C67.3744 49.1908 67.0488 50.5844 65.5764 51.3116C63.8896 52.145 62.1329 52.9565 60.3111 53.3825C56.6404 54.2408 52.9285 55.0227 49.1879 55.4846C44.4149 56.073 39.6007 56.3726 34.7975 56.6831C31.4986 56.8969 28.1837 57.0514 24.8799 56.9828C22.005 56.9219 19.1317 56.5614 16.2679 56.2337C14.9687 56.0854 13.7695 55.5845 12.9499 54.4593C11.9699 53.1141 12.1716 51.6222 13.5185 50.6172C15.2625 49.3141 17.3274 48.7117 19.389 48.1577C23.6617 47.0076 28.0137 46.3069 32.4531 46.2195C33.511 46.1992 34.5736 46.1914 35.6251 46.2726C36.3525 46.3287 37.1102 46.452 37.2452 47.4305C37.2722 47.6224 37.6518 47.766 37.8678 47.933L37.9234 48.2014V48.1999Z" fill="#DF7E07"/>
<path d="M79.9985 17.1679C79.9206 19.9926 78.0162 21.9245 75.3827 21.8496C72.2203 21.7607 69.7886 19.5197 69.8712 16.77C69.9585 13.8611 72.3919 11.6279 75.3923 11.7012C77.7843 11.7605 80.0715 14.4744 79.9969 17.1679H79.9985ZM75.1349 19.5743C76.6709 19.5509 77.6032 18.6161 77.5794 17.1227C77.5556 15.5652 76.2643 14.2059 74.8475 14.2465C73.472 14.2855 72.4284 15.4294 72.4761 16.848C72.5205 18.1916 73.8881 19.593 75.1334 19.5728L75.1349 19.5743Z" fill="#DF7E07"/>
</g>
<defs>
<clipPath id="clip0_508_3190">
<rect width="80" height="57" fill="white"/>
</clipPath>
</defs>
</svg>
