<svg width="44" height="41" viewBox="0 0 44 41" fill="none" xmlns="http://www.w3.org/2000/svg">
<g clip-path="url(#clip0_152_8)">
<path d="M44 14.7359C43.8857 14.0074 43.8072 13.272 43.6588 12.5521C42.671 7.97525 40.378 4.27047 36.4932 1.65065C35.4254 0.94396 34.2599 0.402191 33.035 0.0431128C32.6938 -0.0607109 32.4054 -0.0261045 32.2434 0.339009C32.0932 0.685088 32.2229 1.01387 32.6085 1.19037C33.8168 1.72187 34.9509 2.41246 35.9814 3.24434C39.1547 5.87109 41.2378 9.18133 42.0244 13.2806C42.5976 16.276 42.195 19.119 40.5827 21.7319C39.0199 24.2531 36.7321 25.6391 33.8573 26.0665C32.5991 26.2465 31.3219 26.243 30.0647 26.0562C29.9316 25.1494 29.8378 24.2548 29.6689 23.3775C29.0052 19.9548 27.4748 16.9543 25.2911 14.2843C24.3101 13.0851 23.2659 11.9379 21.9915 11.0588C20.2649 9.86484 18.3865 9.47377 16.4296 10.4099C14.6997 11.2353 14.0121 12.7633 13.9985 14.6303C13.9797 16.9854 14.8754 19.0186 16.2778 20.8304C18.7943 24.0783 22.1484 26.0787 25.9615 27.3643C26.5962 27.5789 27.2462 27.7433 27.9167 27.9371C27.7206 29.4522 27.2349 30.914 26.487 32.2406C23.8596 36.8434 19.8606 38.9441 14.6792 38.5825C11.1936 38.3385 8.32742 36.6912 6.03614 34.0212C5.92183 33.8897 5.81947 33.7495 5.69492 33.6249C5.62506 33.5467 5.54049 33.4834 5.44615 33.4389C5.35182 33.3944 5.24966 33.3694 5.14567 33.3655C5.04169 33.3617 4.93799 33.379 4.84069 33.4164C4.74339 33.4538 4.65446 33.5106 4.57914 33.5834C4.23793 33.881 4.17651 34.2755 4.47166 34.6597C6.68958 37.5789 9.41931 39.7644 13.0209 40.6572C15.6244 41.3027 18.1715 41.0137 20.63 39.9824C23.8426 38.6344 26.4307 36.5216 28.2204 33.4536C29.0553 32.0438 29.6057 30.4798 29.8395 28.8525C29.8651 28.6673 29.906 28.4856 29.9316 28.3334C30.9553 28.3334 31.9533 28.3801 32.9463 28.3334C36.0616 28.1603 38.8425 27.1705 40.9359 24.6995C42.543 22.7961 43.4643 20.576 43.8362 18.1102C43.8931 17.7422 43.95 17.3736 44.0068 17.0044L44 14.7359ZM27.985 25.6876C27.9031 25.6703 27.8502 25.6651 27.799 25.6495C23.6583 24.4521 20.1335 22.2874 17.3799 18.8837C15.8905 17.0443 15.5954 15.0872 16.6565 12.9415C17.2588 11.7216 18.1272 11.3478 19.3317 11.9292C20.1151 12.2804 20.8461 12.7411 21.5035 13.2979C24.2094 15.7361 26.0349 18.7989 27.2616 22.2372C27.66 23.3475 27.9034 24.5089 27.985 25.6876Z" fill="#1D1D1D"/>
<path d="M1.89034 32.3996C3.448 32.3996 4.84528 32.3858 6.24257 32.3996C6.68445 32.3996 7.12291 32.5103 7.56308 32.5588C8.05443 32.6124 8.43148 32.3546 8.49631 31.9341C8.55091 31.5621 8.32571 31.3043 7.83606 31.1797C5.62838 30.619 3.37634 30.4702 1.11236 30.4512C0.373626 30.4512 -0.00854111 30.8855 -1.04904e-05 31.6296C0.0228634 33.6046 0.220428 35.5737 0.590299 37.5129C0.689252 38.0476 0.853034 38.5512 1.33415 38.8817C1.99441 39.3246 2.66831 39.0305 2.73144 38.231C2.74179 37.7842 2.70115 37.3377 2.61031 36.9004C2.3834 35.433 2.14113 33.9656 1.89034 32.3996Z" fill="#1D1D1D"/>
</g>
<defs>
<clipPath id="clip0_152_8">
<rect width="44" height="41" fill="white" transform="matrix(-1 0 0 1 44 0)"/>
</clipPath>
</defs>
</svg>
