<svg width="98" height="98" viewBox="0 0 98 98" fill="none" xmlns="http://www.w3.org/2000/svg">
<path d="M28.5525 18.3729C29.4773 17.6148 30.3661 16.8096 31.3231 16.0989C37.4611 11.6279 44.2434 9.62561 51.7882 10.6598C53.8477 10.9604 55.8477 11.5663 57.7229 12.4577C58.2493 12.7014 58.5621 13.0554 58.365 13.6728C58.174 14.2543 57.6618 14.5119 57.003 14.3082C54.962 13.6434 52.8395 13.2517 50.6903 13.1431C44.0021 12.8874 37.9004 14.6393 32.5221 18.7501C28.5941 21.7553 26.0155 25.6327 25.1544 30.541C24.3322 35.2847 25.6154 39.4392 28.6457 43.0687C29.9797 44.6487 31.5346 46.0271 33.2632 47.1619C34.4031 46.2084 35.4824 45.227 36.6341 44.3479C41.1331 40.9232 46.2293 38.9478 51.7624 38.0798C54.2477 37.6902 56.7537 37.4318 59.25 37.7474C62.6352 38.1712 65.3385 39.7313 66.7051 42.983C67.9157 45.8549 67.1021 48.4488 65.1042 50.7237C62.5859 53.5948 59.3043 55.0864 55.6463 55.7613C49.0855 56.9687 42.8534 55.759 36.8351 53.1874C35.8328 52.76 34.8659 52.2553 33.8425 51.7641C32.4459 53.8105 31.4585 56.1057 30.9356 58.5212C29.1603 66.9372 31.7507 73.8094 38.4339 78.9808C42.9304 82.4587 48.189 83.5675 53.8526 82.8159C54.1334 82.7805 54.4089 82.7216 54.6946 82.7057C54.8638 82.6866 55.0348 82.7016 55.1974 82.7498C55.3601 82.798 55.5111 82.8784 55.6415 82.9863C55.772 83.0942 55.8793 83.2274 55.9571 83.378C56.0349 83.5286 56.0816 83.6936 56.0946 83.8633C56.1878 84.5929 55.8368 85.137 55.0638 85.2825C49.2204 86.4151 43.547 86.1055 38.2094 83.2875C34.3509 81.2503 31.5691 78.143 29.696 74.2332C27.2486 69.1236 26.3849 63.7643 27.5215 58.113C28.0286 55.5027 29.0476 53.0136 30.5196 50.7906C30.6883 50.5388 30.8346 50.2745 30.9678 50.0625C29.7245 48.9543 28.4619 47.9304 27.3064 46.7989C23.7094 43.217 21.3999 39.0083 21.5235 33.751C21.6254 29.707 22.9018 26.0223 25.1107 22.6348C25.4386 22.1277 25.7673 21.62 26.0965 21.1116L28.5525 18.3729ZM36.1868 48.9672C36.3049 49.0349 36.3747 49.0859 36.4537 49.1224C42.7747 52.1555 49.3913 53.3509 56.4081 52.2117C60.2017 51.5975 62.6718 49.548 63.6981 45.8018C64.2829 43.6731 63.6315 42.2806 61.5413 41.6804C60.2109 41.2575 58.8259 41.0238 57.4266 40.9861C51.5096 41.0082 45.9878 42.7395 40.7882 45.5736C39.1063 46.4864 37.5575 47.6286 36.1868 48.9672V48.9672Z" fill="#F8961E"/>
<path d="M60.6371 85.3414C58.7453 83.6551 57.0632 82.1257 55.3512 80.6298C54.8145 80.1514 54.1625 79.8108 53.5757 79.393C52.921 78.926 52.7413 78.2057 53.1162 77.6265C53.4513 77.1171 54.003 77.0488 54.7321 77.428C58.0184 79.1393 60.9141 81.3972 63.6843 83.825C64.5815 84.6247 64.5771 85.5642 63.7639 86.4557C61.605 88.8217 59.2406 90.9913 56.699 92.9384C56.0019 93.4785 55.2597 93.9108 54.3187 93.79C53.0389 93.6115 52.5378 92.5258 53.3237 91.4898C53.7932 90.9377 54.3243 90.4412 54.9065 90.0101C56.7654 88.4795 58.6429 86.9655 60.6371 85.3414Z" fill="#F8961E"/>
</svg>
