<svg width="192" height="83" viewBox="0 0 192 83" fill="none" xmlns="http://www.w3.org/2000/svg">
<path d="M26.2944 2.49869C29.2226 2.59608 31.1862 4.56908 30.7618 7.09857C29.2168 16.1944 29.0673 29.739 37.0609 42.6617C40.8574 48.8046 55.8356 68.9056 89.0314 70.0097L89.1028 70.0121C90.5883 70.0615 125.671 70.9103 154.24 47.2072C168.823 35.1087 175.444 21.8282 178.419 12.8289C179.301 10.1556 182.483 8.1826 185.664 8.41066C188.787 8.63683 190.59 10.9836 189.708 13.6568C186.266 24.0347 178.626 39.3357 161.723 53.3626C129.266 80.2872 90.7262 79.8491 86.4268 79.7061L86.3411 79.7033C47.9461 78.4263 30.7357 55.3406 26.3802 48.2986C17.1986 33.4654 17.38 17.9774 19.1368 7.59241C19.587 4.91703 22.5642 2.64365 25.7735 2.50581C25.9483 2.4994 26.123 2.49299 26.2944 2.49869Z" fill="#5DB1AA"/>
<path d="M43.6675 0.149594C45.9692 0.226146 47.5126 1.77699 47.1791 3.76525C45.9646 10.9148 45.8471 21.5614 52.1304 31.719C55.1145 36.5475 66.8879 52.3476 92.9808 53.2154L93.0369 53.2173C94.2046 53.2561 121.781 53.9234 144.237 35.2919C155.7 25.7821 160.904 15.3432 163.242 8.26947C163.935 6.16821 166.437 4.61733 168.937 4.7966C171.392 4.97437 172.809 6.819 172.116 8.92025C169.411 17.0776 163.405 29.1047 150.119 40.1303C124.607 61.2939 94.313 60.9496 90.9335 60.8372L90.8662 60.8349C60.6864 59.8312 47.1585 41.685 43.735 36.1498C36.5179 24.4904 36.6605 12.3164 38.0414 4.15342C38.3953 2.05049 40.7354 0.263538 43.2581 0.155192C43.3954 0.150149 43.5328 0.145113 43.6675 0.149594Z" fill="#F28D00"/>
</svg>
