<svg width="98" height="371" viewBox="0 0 98 371" fill="none" xmlns="http://www.w3.org/2000/svg">
<path d="M67.743 129.829C68.8854 126.809 68.389 119.085 69.7257 115.317C71.0625 111.55 71.7576 106.801 79.7277 107.802C80.8843 107.913 81.9878 108.342 82.9161 109.041C87.1486 112.328 85.6672 121.226 83.2877 129.212C80.4557 138.768 82.8307 141.356 81.8084 146.991C80.7862 152.625 72.4067 161.801 66.5219 160.736C64.6748 160.452 63.0098 159.463 61.8762 157.977C59.0205 154.248 59.5468 147.82 60.6848 143.926C62.2461 138.603 66.6006 132.848 67.743 129.829Z" fill="#F8961E"/>
<path d="M65.6226 128.562C66.765 125.542 66.2615 117.816 67.5983 114.048C68.9351 110.28 69.6284 105.539 77.6003 106.533C78.7591 106.645 79.8647 107.075 80.7957 107.774C85.0194 111.066 83.5398 119.957 81.1673 127.945C78.3282 137.499 80.7033 140.087 79.688 145.723C78.6727 151.36 70.2793 160.532 64.3945 159.467C62.5474 159.183 60.8824 158.194 59.7488 156.708C56.9001 152.981 57.4194 146.551 58.5574 142.657C60.1259 137.306 64.4942 131.584 65.6226 128.562Z" fill="#FDDCB5"/>
<path d="M66.368 129.113C67.5103 126.094 67.0139 118.37 68.3507 114.602C69.6874 110.834 70.3686 106.082 78.3246 107.08C79.4813 107.191 80.5848 107.619 81.5131 108.318C85.7438 111.612 84.2642 120.504 81.8917 128.491C79.0526 138.045 81.4277 140.634 80.4054 146.268C79.3831 151.903 71.0338 161.049 65.1469 160.021C63.2998 159.736 61.6347 158.747 60.5011 157.261C57.6455 153.533 58.1718 147.105 59.3098 143.211C60.871 137.888 65.2326 132.134 66.368 129.113Z" fill="#FABA6B"/>
<path d="M70.2117 154.435L70.0858 154.403C69.0625 154.19 67.9972 154.329 67.0631 154.798C66.438 155.143 65.7044 155.235 65.0133 155.056C64.3222 154.876 63.7261 154.439 63.3479 153.833C62.7765 152.994 61.9449 152.366 60.9814 152.046C60.9259 152.602 60.9056 153.16 60.9207 153.718C60.996 153.917 61.082 154.104 61.1698 154.283C61.4135 154.503 61.6328 154.747 61.8242 155.013C62.4659 155.951 63.425 156.624 64.5245 156.91C65.624 157.195 66.7896 157.073 67.8062 156.567C68.3913 156.254 69.0701 156.165 69.7161 156.316C69.9151 156.373 70.1076 156.45 70.2908 156.547C70.8235 156.192 71.5412 156.506 72.0677 156.06C72.0677 156.06 71.9346 155.279 71.9555 155.284C71.4713 154.912 70.9147 154.646 70.3216 154.501L70.2117 154.435Z" fill="#F8961E"/>
<path d="M72.0388 142.393C72.1303 142.357 71.8567 141.599 71.9267 141.617C70.4391 141.018 68.7756 141.029 67.296 141.647C67.3415 142.047 67.4012 142.421 67.4012 142.421C67.4012 142.421 71.2574 142.728 72.0388 142.393Z" fill="#F8961E"/>
<path d="M76.2636 146.141C75.7445 145.338 75.1666 144.574 74.5345 143.855C74.1321 143.607 73.6938 143.423 73.2351 143.309L72.9832 143.243C71.9599 143.031 70.8947 143.17 69.9605 143.639C69.3354 143.984 68.6018 144.076 67.9107 143.897C67.2196 143.717 66.6236 143.28 66.2453 142.674L65.9332 142.294C65.4181 142.678 64.9498 143.12 64.5379 143.612C64.6003 143.688 64.5701 144.323 64.6431 144.387C65.163 145.059 65.8917 145.331 67.4379 145.732C68.5352 146.031 69.7046 145.908 70.7161 145.388C71.0018 145.217 71.3187 145.104 71.6484 145.057C71.9781 145.009 72.3139 145.028 72.6363 145.112C72.9587 145.195 73.2612 145.342 73.5261 145.544C73.7911 145.746 74.0132 145.999 74.1794 146.287C74.3475 146.503 74.5278 146.729 74.7519 146.959C75.2156 147.445 76.1663 148.76 77.2018 149.029C77.1845 148.769 77.1493 148.51 77.0966 148.255C76.9393 147.509 76.6578 146.794 76.2636 146.141Z" fill="#F8961E"/>
<path d="M74.4001 148.256C73.8267 147.645 73.086 147.216 72.2705 147.024L72.0186 146.958C70.994 146.747 69.928 146.889 68.9941 147.361C68.3683 147.702 67.6358 147.793 66.9457 147.613C66.2555 147.434 65.6596 146.999 65.2789 146.396C64.8444 145.759 64.2627 145.237 63.5833 144.873C63.2237 145.407 62.8995 145.964 62.6127 146.54C62.6748 146.794 62.7101 147.053 62.7179 147.314C62.7179 147.314 63.4609 147.156 63.7694 147.55C64.4081 148.491 65.3673 149.167 66.468 149.453C67.5687 149.739 68.7358 149.615 69.7515 149.103C70.0372 148.932 70.3541 148.819 70.6838 148.772C71.0135 148.724 71.3493 148.743 71.6717 148.827C71.9941 148.91 72.2966 149.057 72.5616 149.259C72.8265 149.461 73.0486 149.714 73.2148 150.002C73.383 150.218 73.5633 150.444 73.7873 150.674C74.2017 151.116 74.7086 151.462 75.272 151.687C75.6819 151.143 76.1687 151.397 76.5209 150.846L76.4157 150.072C75.8246 149.867 75.3178 149.473 74.9741 148.95C74.7948 148.709 74.6032 148.478 74.4001 148.256Z" fill="#F8961E"/>
<path d="M73.4372 151.964C72.8625 151.355 72.1212 150.929 71.3058 150.739L71.054 150.673C70.0307 150.46 68.9654 150.6 68.0313 151.069C67.4054 151.41 66.673 151.501 65.9828 151.321C65.2927 151.142 64.6967 150.707 64.3161 150.104C63.7288 149.232 62.8603 148.587 61.8553 148.278C61.6333 148.878 61.4492 149.491 61.3039 150.114C61.3595 150.368 61.3947 150.627 61.4091 150.888C61.4091 150.888 62.4201 150.762 62.8084 151.251C63.4502 152.188 64.4093 152.862 65.5088 153.147C66.6083 153.433 67.7739 153.311 68.7905 152.804C69.0754 152.63 69.3924 152.515 69.7227 152.466C70.053 152.417 70.3899 152.435 70.7131 152.519C71.0363 152.602 71.3393 152.751 71.604 152.954C71.8687 153.158 72.0897 153.413 72.2538 153.703C72.4238 153.912 72.6022 154.145 72.8282 154.368L72.8631 154.377C73.3212 153.936 73.9644 154.162 74.3877 153.682C74.3986 153.64 74.2546 152.901 74.2756 152.906L74.0276 152.596C73.8414 152.376 73.6443 152.165 73.4372 151.964Z" fill="#F8961E"/>
<path d="M63.5447 140.793C62.9365 140.622 62.2984 140.587 61.6749 140.688C61.365 141.409 61.096 142.147 60.8695 142.899L60.8495 142.976C60.8985 142.989 60.9617 143.752 60.9617 143.752C60.9617 143.752 62.0374 142.485 62.6539 142.556C63.184 142.241 63.7502 141.992 64.3402 141.813C64.3242 141.552 64.2866 141.293 64.228 141.038C64.0071 140.938 63.7786 140.856 63.5447 140.793Z" fill="#F8961E"/>
<path d="M66.6559 136.432C67.2945 137.373 68.2537 138.05 69.3544 138.335C70.4551 138.621 71.6222 138.497 72.638 137.985C72.9231 137.812 73.2401 137.698 73.5702 137.649C73.9003 137.601 74.2368 137.619 74.5597 137.703C74.8827 137.787 75.1855 137.934 75.4503 138.137C75.7151 138.34 75.9364 138.595 76.1013 138.885C76.2712 139.093 76.4515 139.319 76.6756 139.549C77.2517 140.161 77.9945 140.59 78.8122 140.783C78.7975 140.466 78.7758 140.147 78.756 139.82C78.7362 139.494 78.798 139.831 78.7859 139.417C78.7859 139.417 78.6807 138.643 78.6738 138.641C78.3556 138.402 78.0777 138.113 77.8505 137.785C77.671 137.552 77.4799 137.328 77.278 137.114C76.7046 136.503 75.9639 136.074 75.1484 135.881L74.8965 135.816C73.8718 135.605 72.8058 135.747 71.872 136.218C71.2461 136.56 70.5137 136.65 69.8235 136.471C69.1334 136.292 68.5374 135.857 68.1568 135.254C67.6975 134.664 67.2101 133.693 65.9792 133.516C65.7952 133.514 65.6114 133.529 65.43 133.56C65.4119 133.63 65.3955 133.693 65.3214 133.748C65.0649 134.189 64.7942 134.657 64.5147 135.13C64.6546 135.166 64.4589 135.862 64.6268 135.905C65.5449 136.166 66.2139 135.862 66.6559 136.432Z" fill="#F8961E"/>
<path d="M65.6012 140.035C66.102 139.717 67.4689 139.974 67.4689 139.974L67.3637 139.2L67.2008 138.994C66.5675 138.05 65.6065 137.375 64.5039 137.099C64.18 137.014 63.8488 136.96 63.5147 136.939C63.1421 137.626 62.7816 138.324 62.437 139.019C62.5513 138.981 62.5562 139.797 62.5562 139.797C62.5562 139.797 63.5099 138.827 64.0207 138.96C64.6642 139.106 65.2288 139.49 65.6012 140.035Z" fill="#F8961E"/>
<path d="M76.331 140.819C75.7563 140.21 75.015 139.784 74.1996 139.593L73.9478 139.528C73.3231 139.388 72.6753 139.388 72.0507 139.528C72.1051 139.783 72.1403 140.042 72.1559 140.302C72.6766 140.192 73.2192 140.259 73.6971 140.493C74.5034 141.156 75.2186 141.921 75.8242 142.771C76.0996 143.149 76.3695 143.547 76.5764 143.93C76.97 144.168 77.3967 144.347 77.8427 144.46L78.0876 144.524C78.3045 144.58 78.7807 143.494 78.9787 143.508C78.8944 143.258 78.8564 142.995 78.8665 142.732C78.7241 142.718 78.5826 142.697 78.4428 142.667C77.8012 142.472 77.2522 142.051 76.8983 141.481C76.7204 141.251 76.531 141.03 76.331 140.819Z" fill="#F8961E"/>
<path d="M79.7425 108.494C79.4491 108.347 79.141 108.232 78.8234 108.15C78.5646 108.089 78.3029 108.041 78.0392 108.007C77.2235 107.854 76.3902 107.819 75.5646 107.902C75.7335 108.028 75.6768 108.678 75.6768 108.678L79.8495 109.261C79.8495 109.261 79.8172 108.954 79.7425 108.494Z" fill="#F8961E"/>
<path d="M76.11 112.33C77.2088 112.627 78.379 112.502 79.3901 111.979C79.9751 111.666 80.6539 111.577 81.2999 111.728C81.6077 111.808 81.933 112.483 82.1299 112.616C82.1261 112.458 82.0216 111.796 82.0255 111.752C81.9056 111.278 81.7346 110.818 81.5155 110.38C81.4836 110.306 81.4474 110.235 81.407 110.165C81.3259 110.017 81.2394 109.89 81.1529 109.763C80.2853 109.688 79.4137 109.851 78.6327 110.237C78.0076 110.582 77.274 110.674 76.5828 110.495C75.8917 110.315 75.2957 109.878 74.9175 109.272C74.6345 108.889 74.3095 108.539 73.9486 108.229C73.2605 108.447 72.6424 108.843 72.1569 109.377C72.2758 109.408 72.2621 110.151 72.2621 110.151C72.2621 110.151 73.1378 110.057 73.4305 110.454C74.0621 111.388 75.0163 112.056 76.11 112.33Z" fill="#F8961E"/>
<path d="M72.4452 114.134C73.0869 115.072 74.0461 115.745 75.1456 116.031C76.245 116.316 77.4107 116.194 78.4273 115.688C79.0095 115.358 79.6932 115.256 80.3462 115.402C80.8783 115.546 81.3453 115.868 81.6704 116.313C81.8427 115.806 81.9775 115.287 82.0737 114.76L81.9685 113.986C81.6389 113.819 81.292 113.689 80.9341 113.598L80.6822 113.532C79.6574 113.324 78.5926 113.466 77.6577 113.934C77.0318 114.276 76.2994 114.366 75.6093 114.187C74.9191 114.008 74.3232 113.573 73.9425 112.97C73.3117 112.023 72.3497 111.347 71.2456 111.075L71.0637 111.027C70.8051 111.623 70.5772 112.232 70.381 112.852C70.4999 112.883 70.4862 113.626 70.4862 113.626C70.4862 113.626 72.0051 113.557 72.4452 114.134Z" fill="#F8961E"/>
<path d="M69.8663 116.646C70.5393 116.825 71.1176 117.256 71.4807 117.85C72.1224 118.787 73.0816 119.461 74.181 119.746C75.2805 120.031 76.4461 119.91 77.4628 119.403C78.0461 119.077 78.7286 118.975 79.3817 119.117C79.7484 119.218 80.0865 119.403 80.3691 119.657C80.7332 119.147 81.1442 119.261 81.3831 118.628C81.3831 118.628 81.2709 117.852 81.2779 117.854C80.8794 117.615 80.4481 117.435 79.9976 117.32L79.7457 117.255C78.7224 117.042 77.6571 117.181 76.723 117.65C76.0979 117.995 75.3643 118.087 74.6732 117.908C73.9821 117.729 73.386 117.291 73.0078 116.685C72.3745 115.742 71.4135 115.066 70.3109 114.79C70.146 114.736 69.9777 114.692 69.8072 114.659C69.7872 114.736 69.7672 114.813 69.7454 114.897C69.7323 115.443 69.7731 115.989 69.8674 116.527C69.8477 116.574 69.8754 116.611 69.8663 116.646Z" fill="#F8961E"/>
<path d="M68.8018 125.205C69.1521 125.437 69.2479 124.925 69.5287 125.281C70.1695 126.218 71.1275 126.891 72.2258 127.176C73.3241 127.461 74.4884 127.339 75.5038 126.833C76.0889 126.504 76.7747 126.403 77.4297 126.548C77.8968 126.675 78.3147 126.94 78.6291 127.308L79.8396 127.219L80.1379 127.192C80.2088 126.919 80.5462 127.029 80.5462 127.029C80.5462 127.029 80.3969 126.281 80.406 126.246L80.163 125.974C79.5874 125.366 78.8465 124.94 78.0316 124.748L77.7797 124.683C76.753 124.469 75.6843 124.61 74.7482 125.083C74.1236 125.424 73.3924 125.515 72.7034 125.336C72.0145 125.157 71.4196 124.722 71.04 124.12C70.4985 123.322 69.7231 122.711 68.8204 122.371C68.778 122.995 68.7165 123.98 68.6673 124.572C68.6706 124.588 68.8042 125.138 68.8018 125.205Z" fill="#F8961E"/>
<path d="M70.3044 155.229L70.1785 155.196C69.1518 154.983 68.083 155.124 67.1469 155.597C66.5224 155.938 65.7911 156.028 65.1022 155.85C64.4132 155.671 63.8184 155.236 63.4388 154.634C62.869 153.792 62.0379 153.162 61.0741 152.84C61.0135 153.395 60.9932 153.954 61.0133 154.512C61.0957 154.713 61.1817 154.899 61.2695 155.079C61.516 155.295 61.7357 155.54 61.9238 155.809C62.5646 156.745 63.5226 157.418 64.6209 157.703C65.7191 157.989 66.8835 157.867 67.8989 157.36C68.484 157.032 69.1698 156.93 69.8248 157.076C70.0224 157.131 70.2125 157.211 70.3907 157.313C70.9482 156.941 71.4808 156.532 71.985 156.091L72.0698 156.023C71.5826 155.652 71.0239 155.385 70.4288 155.239L70.3044 155.229Z" fill="#FDDCB5"/>
<path d="M71.7713 142.503L72.0388 142.393C70.5484 141.797 68.8841 141.807 67.4011 142.421C67.7448 142.611 68.1111 142.756 68.4913 142.853C69.59 143.151 70.7602 143.025 71.7713 142.503Z" fill="#FDDCB5"/>
<path d="M76.3615 146.943C75.8472 146.136 75.269 145.372 74.6325 144.657C74.2322 144.41 73.7962 144.226 73.34 144.112L73.0881 144.047C72.0613 143.837 70.9937 143.978 70.0566 144.447C69.432 144.789 68.7008 144.879 68.0118 144.7C67.3229 144.522 66.728 144.087 66.3484 143.485L66.0381 143.098C65.52 143.479 65.0492 143.921 64.6358 144.414L64.8317 144.667C65.4724 145.603 66.4304 146.276 67.5287 146.561C68.627 146.846 69.7914 146.724 70.8068 146.218C71.0938 146.039 71.4141 145.921 71.7483 145.87C72.0825 145.819 72.4235 145.837 72.7507 145.922C73.0779 146.007 73.3844 146.157 73.6516 146.364C73.9188 146.571 74.1411 146.831 74.3051 147.126C74.468 147.333 74.6483 147.559 74.8794 147.791C75.4555 148.402 76.1983 148.831 77.0159 149.025L77.2468 149.085C77.0778 148.325 76.7783 147.601 76.3615 146.943Z" fill="#FDDCB5"/>
<path d="M74.5067 149.053C73.9293 148.444 73.1858 148.017 72.3683 147.826L72.1235 147.762C71.0981 147.547 70.0302 147.686 69.0938 148.156C68.4704 148.503 67.7374 148.596 67.0469 148.417C66.3565 148.238 65.7616 147.799 65.3856 147.193C64.9435 146.56 64.3607 146.038 63.6829 145.668C63.3263 146.204 63.0022 146.761 62.7123 147.335C63.1831 147.576 63.5816 147.937 63.867 148.382C64.5078 149.319 65.4657 149.992 66.564 150.277C67.6623 150.562 68.8267 150.44 69.8421 149.933C70.1292 149.755 70.4495 149.637 70.7837 149.586C71.1179 149.535 71.4589 149.552 71.7861 149.637C72.1133 149.722 72.4198 149.873 72.687 150.08C72.9542 150.287 73.1765 150.546 73.3404 150.842C73.5187 151.074 73.7105 151.296 73.9147 151.506C74.3291 151.949 74.836 152.295 75.3993 152.519C75.8075 151.983 76.1894 151.432 76.5695 150.888C75.9734 150.689 75.4627 150.293 75.1209 149.766C74.9294 149.517 74.7243 149.279 74.5067 149.053Z" fill="#FDDCB5"/>
<path d="M73.5494 152.74C72.9733 152.129 72.2305 151.7 71.4128 151.506L71.1679 151.443C70.1426 151.227 69.0747 151.366 68.1383 151.836C67.5149 152.183 66.7819 152.276 66.0914 152.097C65.401 151.918 64.806 151.479 64.4301 150.873C63.8359 150.005 62.9655 149.363 61.9604 149.052C61.7384 149.652 61.5542 150.265 61.4091 150.888C62.0308 151.079 62.5658 151.482 62.9206 152.027C63.5613 152.964 64.5193 153.637 65.6176 153.922C66.7159 154.207 67.8803 154.085 68.8957 153.579C69.1836 153.403 69.5038 153.287 69.8373 153.238C70.1709 153.189 70.5109 153.207 70.8373 153.292C71.1636 153.376 71.4696 153.526 71.737 153.731C72.0044 153.936 72.2279 154.193 72.394 154.487C72.5715 154.722 72.7627 154.946 72.9665 155.158C73.4194 154.708 73.8671 154.249 74.2923 153.762L74.3862 153.66L74.1331 153.34C73.9377 153.23 73.7504 153.002 73.5494 152.74Z" fill="#FDDCB5"/>
<path d="M63.6496 141.597C63.0417 141.429 62.4052 141.391 61.7817 141.485C61.4739 142.207 61.2073 142.946 60.9832 143.698C60.973 143.722 60.9663 143.748 60.9632 143.775L61.1216 143.711C61.6215 143.446 62.1882 143.334 62.7515 143.387C62.9906 143.128 63.2314 142.862 63.4984 142.611C63.7655 142.359 64.0765 142.081 64.3521 141.854C64.1252 141.75 63.8903 141.664 63.6496 141.597Z" fill="#FDDCB5"/>
<path d="M66.7608 137.236C67.4015 138.173 68.3595 138.846 69.4578 139.131C70.5561 139.416 71.7205 139.294 72.7359 138.788C73.0229 138.609 73.3433 138.491 73.6775 138.44C74.0116 138.389 74.3527 138.406 74.6799 138.491C75.0071 138.576 75.3136 138.727 75.5808 138.934C75.848 139.141 76.0703 139.4 76.2342 139.696C76.4102 139.93 76.602 140.152 76.8085 140.36C77.3846 140.972 78.1275 141.401 78.9451 141.595C78.9304 141.277 78.9088 140.958 78.8819 140.63L78.8131 139.514L78.8331 139.437C78.5127 139.197 78.2325 138.907 78.0028 138.579C77.8399 138.373 77.6544 138.138 77.4303 137.908C76.8528 137.299 76.1094 136.872 75.2919 136.681L75.047 136.617C74.0217 136.402 72.9537 136.541 72.0174 137.01C71.3939 137.357 70.661 137.451 69.9705 137.271C69.2801 137.092 68.6851 136.654 68.3092 136.048C67.8499 135.458 67.3555 134.486 66.1227 134.315C65.9418 134.312 65.761 134.325 65.5824 134.354L65.4649 134.547L64.667 135.924C64.8205 135.955 64.9723 135.994 65.1218 136.042C65.8015 136.214 66.3885 136.642 66.7608 137.236Z" fill="#FDDCB5"/>
<path d="M65.706 140.839C66.2576 140.476 66.8506 140.181 67.4725 139.96L67.3166 139.756C66.9008 139.154 66.3517 138.656 65.7121 138.301C65.0724 137.945 64.3595 137.743 63.6287 137.708C63.2651 138.36 62.8904 139.084 62.5509 139.788C63.0567 139.587 63.6157 139.564 64.1365 139.722C64.7839 139.878 65.3461 140.278 65.706 140.839Z" fill="#FDDCB5"/>
<path d="M76.4359 141.623C75.8598 141.011 75.1169 140.582 74.2993 140.389L74.0544 140.325C73.427 140.182 72.7752 140.184 72.1486 140.33L72.3025 140.37C72.841 140.614 73.3447 140.928 73.8001 141.304C74.6072 141.966 75.3225 142.732 75.9273 143.582C76.1956 143.958 76.4743 144.351 76.6724 144.739C77.0684 144.978 77.4975 145.157 77.9457 145.271L78.1906 145.335C78.3977 145.376 78.607 145.406 78.8175 145.423C78.9092 144.791 78.9624 144.153 78.9768 143.515C78.832 143.501 78.6882 143.479 78.5461 143.448C77.9069 143.263 77.3554 142.855 76.9926 142.298C76.8186 142.063 76.6328 141.838 76.4359 141.623Z" fill="#FDDCB5"/>
<path d="M79.8423 109.289C79.5503 109.145 79.244 109.033 78.9283 108.954C78.6835 108.891 78.4246 108.824 78.139 108.802C77.3247 108.652 76.4931 108.62 75.6695 108.706C76.1256 109.027 76.637 109.261 77.1781 109.396C78.0547 109.646 78.9886 109.609 79.8423 109.289Z" fill="#FDDCB5"/>
<path d="M76.2153 113.104C77.3129 113.399 78.481 113.277 79.4935 112.76C80.0797 112.435 80.7642 112.334 81.4194 112.476C81.6782 112.548 81.9235 112.663 82.1457 112.814C82.1436 112.649 82.1411 112.544 82.1362 112.505C82.018 112.03 81.85 111.568 81.6349 111.128L81.5194 110.911C81.4435 110.772 81.3586 110.638 81.2654 110.509C80.3966 110.436 79.5242 110.602 78.7433 110.99C78.1187 111.331 77.3875 111.422 76.6985 111.243C76.0096 111.064 75.4147 110.629 75.0351 110.027C74.7529 109.639 74.426 109.286 74.0611 108.975C73.3741 109.195 72.7564 109.591 72.2694 110.123C72.795 110.346 73.2413 110.722 73.55 111.202C74.1744 112.142 75.1233 112.819 76.2153 113.104Z" fill="#FDDCB5"/>
<path d="M72.5519 114.931C73.1927 115.868 74.1507 116.541 75.249 116.826C76.3473 117.111 77.5117 116.989 78.527 116.483C79.1143 116.16 79.7976 116.059 80.4529 116.198C80.9831 116.347 81.4488 116.668 81.7772 117.11C81.9256 116.359 82.028 115.6 82.0835 114.837L82.1017 114.767C81.775 114.593 81.4282 114.461 81.0691 114.372L80.8242 114.308C79.7989 114.093 78.7309 114.232 77.7945 114.702C77.1711 115.048 76.4381 115.142 75.7477 114.963C75.0572 114.783 74.4623 114.345 74.0863 113.739C73.453 112.795 72.492 112.12 71.3894 111.844L71.2005 111.795C70.95 112.357 70.7393 112.967 70.5178 113.619C70.6479 113.645 70.7764 113.678 70.9026 113.719C71.589 113.893 72.1806 114.328 72.5519 114.931Z" fill="#FDDCB5"/>
<path d="M69.9694 117.457C70.6382 117.629 71.2178 118.046 71.5929 118.625C72.2305 119.566 73.1886 120.241 74.2881 120.527C75.3876 120.812 76.5535 120.688 77.568 120.177C78.1558 119.865 78.8367 119.776 79.4848 119.928C79.8502 120.025 80.1865 120.21 80.4652 120.466C80.8364 119.923 81.1309 119.33 81.3402 118.707C81.35 118.682 81.3567 118.656 81.3602 118.63C80.9648 118.384 80.5335 118.201 80.0817 118.089L79.8369 118.025C78.8103 117.808 77.7404 117.949 76.8054 118.425C76.1808 118.767 75.4496 118.857 74.7606 118.678C74.0716 118.499 73.4768 118.065 73.0972 117.463C72.4681 116.514 71.5066 115.835 70.4021 115.56C70.2202 115.513 70.0592 115.471 69.8983 115.43C69.8765 115.514 69.8565 115.591 69.8347 115.675C69.8274 116.221 69.8705 116.767 69.9637 117.306C69.9558 117.356 69.9577 117.408 69.9694 117.457Z" fill="#FDDCB5"/>
<path d="M68.8017 125.205C69.1335 125.448 69.4223 125.745 69.6564 126.084C70.2971 127.02 71.2551 127.693 72.3534 127.978C73.4517 128.263 74.6161 128.141 75.6315 127.635C76.2176 127.31 76.9022 127.209 77.5573 127.351C78.0261 127.476 78.4445 127.744 78.7549 128.117L79.9673 128.021L80.2637 128.001C80.3364 127.721 80.4036 127.463 80.4726 127.197L80.5181 127.022C80.4424 126.926 80.3612 126.835 80.2751 126.75C79.7009 126.139 78.9606 125.711 78.1455 125.517L77.8936 125.452C76.8683 125.236 75.8003 125.375 74.8639 125.845C74.2405 126.192 73.5076 126.285 72.8171 126.106C72.1266 125.927 71.5317 125.488 71.1557 124.882C70.6069 124.091 69.8265 123.489 68.9219 123.16C68.9051 123.857 68.8602 124.548 68.8017 125.205Z" fill="#FDDCB5"/>
<path d="M29.2586 25.8004C28.3719 22.6676 29.39 14.9585 28.3758 11.0556C27.3615 7.15269 27.0189 2.32517 19.2871 2.61799C18.1651 2.62628 17.0721 2.95833 16.1284 3.57753C11.8364 6.49762 12.6372 15.5622 14.3586 23.792C16.4186 33.6361 13.9474 36.0232 14.5355 41.7704C15.1236 47.5177 22.543 57.4764 28.2747 56.9334C30.0676 56.8112 31.7347 55.9678 32.927 54.5798C35.9333 51.0921 35.8776 44.5927 35.0563 40.582C33.8997 35.0971 30.1453 28.9333 29.2586 25.8004Z" fill="#FDDCB5"/>
<path d="M31.9196 26.1943C31.0328 23.0614 32.051 15.3524 31.0299 11.4507C30.0087 7.54896 29.6537 2.73102 21.9344 3.01426C20.8147 3.02238 19.7239 3.35403 18.7825 3.97258C14.4905 6.89267 15.2845 15.9585 17.0127 24.1871C19.0728 34.0312 16.6015 36.4182 17.1896 42.1655C17.7777 47.9128 25.1697 57.8762 30.9319 57.3057C32.7248 57.1835 34.3919 56.3401 35.5843 54.9521C38.5906 51.4644 38.5348 44.965 37.7136 40.9543C36.5893 35.4933 32.8063 29.3272 31.9196 26.1943Z" fill="#F8961E"/>
<path d="M30.6064 26.1574C29.7197 23.0245 30.7447 15.3142 29.7236 11.4125C28.7024 7.51081 28.3667 2.68211 20.635 2.97493C19.513 2.9836 18.4201 3.3156 17.4762 3.93445C13.1855 6.86173 13.9851 15.9191 15.7064 24.1489C17.7665 33.9931 15.302 36.3789 15.8833 42.1274C16.4646 47.8758 23.8908 57.8333 29.6225 57.2904C31.4181 57.1696 33.0879 56.3257 34.2817 54.9355C37.2812 51.449 37.2323 44.9485 36.4042 40.9389C35.283 35.4552 31.4726 29.2938 30.6064 26.1574Z" fill="#FABA6B"/>
<path d="M24.4252 51.3566L24.5485 51.3351C25.5472 51.2127 26.5614 51.4478 27.4266 52.0019C28.0033 52.4042 28.7021 52.5625 29.379 52.4441C30.056 52.3258 30.6596 51.9398 31.0656 51.3657C31.6737 50.5744 32.517 50.0184 33.4657 49.7835C33.4812 50.3467 33.4593 50.9097 33.4001 51.4685C33.3137 51.6613 33.218 51.841 33.121 52.0134C32.8705 52.2134 32.6403 52.4397 32.434 52.6889C31.7525 53.5717 30.7844 54.1616 29.7086 54.3497C28.6329 54.5378 27.5221 54.3113 26.5815 53.7121C26.041 53.346 25.3947 53.1957 24.7631 53.2895C24.5678 53.3292 24.3773 53.3898 24.1944 53.4704C23.865 53.2262 23.5605 52.9468 23.286 52.637L22.6738 52.0035C23.1653 51.6736 23.719 51.4557 24.2993 51.3638L24.4252 51.3566Z" fill="#F8961E"/>
<path d="M24.1702 38.9901C24.0847 38.9458 23.743 38.3243 23.6745 38.3363C25.1464 37.8688 26.7445 38.0282 28.1238 38.7802C28.3985 39.1395 28.6195 39.4341 28.6195 39.4341C28.6195 39.4341 24.8979 39.3961 24.1702 38.9901Z" fill="#F8961E"/>
<path d="M19.1884 42.4899C19.7437 41.7295 20.3528 41.0142 21.0107 40.3497C21.4149 40.1367 21.8492 39.9908 22.2981 39.9172L22.5449 39.8741C23.5435 39.7518 24.5577 39.9868 25.4229 40.5409C25.9996 40.9432 26.6984 41.1015 27.3753 40.9831C28.0523 40.8648 28.6559 40.4788 29.0619 39.9047C29.1621 39.7909 29.2679 39.6688 29.3886 39.5514C29.8569 39.9821 30.2761 40.468 30.6375 40.9992C30.5722 41.0699 30.5569 41.7094 30.4822 41.7669C29.9353 42.3957 29.2158 42.6029 27.7013 42.8677C26.6255 43.0695 25.5099 42.8419 24.574 42.2296C24.3114 42.0322 24.0146 41.8907 23.701 41.8136C23.3874 41.7365 23.0633 41.7252 22.7475 41.7804C22.4317 41.8356 22.1306 41.9562 21.8618 42.1351C21.593 42.3141 21.3618 42.5478 21.1817 42.8227C21.005 43.0239 19.6649 44.5689 19.4427 44.7929C18.9629 45.2396 19.1123 45.1246 18.1186 45.2984C18.1504 45.0382 18.2024 44.7815 18.2739 44.5307C18.4674 43.8002 18.7765 43.1105 19.1884 42.4899Z" fill="#F8961E"/>
<path d="M20.8317 44.7797C21.4252 44.2167 22.1675 43.8525 22.9652 43.7328L23.2119 43.6897C24.2117 43.5692 25.2265 43.8068 26.0912 44.3637C26.6689 44.7625 27.3667 44.9187 28.0427 44.8005C28.7187 44.6823 29.3221 44.2987 29.7302 43.7275C30.1925 43.1272 30.7883 42.6547 31.4669 42.3501C31.5852 42.6024 31.7544 42.8256 31.9626 43.0039L32.1279 44.8782C32.1279 44.8782 31.4178 44.6543 31.0936 45.022C30.4148 45.9087 29.4465 46.5016 28.3695 46.6898C27.2925 46.8781 26.1805 46.649 25.2411 46.0452C24.9784 45.8477 24.6817 45.7063 24.3681 45.6292C24.0545 45.552 23.7303 45.5408 23.4145 45.596C23.0988 45.6512 22.7977 45.7718 22.5288 45.9507C22.26 46.1297 22.0288 46.3634 21.8488 46.6383C21.6721 46.8395 21.4829 47.0503 21.2514 47.2611C20.8334 47.7148 20.4955 48.2424 20.2528 48.8204C19.898 48.2456 19.7709 48.2456 19.4654 47.6696L18.7619 46.393C19.3444 46.2407 19.8593 45.8903 20.2262 45.3965C20.4178 45.1802 20.6199 44.9743 20.8317 44.7797Z" fill="#F8961E"/>
<path d="M21.4975 48.588C22.0922 48.0274 22.8349 47.6658 23.6323 47.5483L23.879 47.5052C24.8776 47.3829 25.8918 47.6179 26.757 48.172C27.3347 48.5708 28.0325 48.727 28.7085 48.6088C29.3845 48.4907 29.9879 48.107 30.396 47.5358C31.0216 46.7127 31.9018 46.1432 32.8895 45.9224C33.2148 46.3691 33.3921 46.5751 33.3921 46.5751L33.1356 48.5823C33.1356 48.5823 32.1725 48.3656 31.765 48.8219C31.0835 49.7047 30.1154 50.2946 29.0396 50.4827C27.9639 50.6708 26.8531 50.4443 25.9125 49.8451C25.6508 49.6447 25.3541 49.5009 25.04 49.4221C24.7259 49.3433 24.4009 49.3312 24.0843 49.3866C23.7677 49.4419 23.4661 49.5636 23.1973 49.7443C22.9286 49.9249 22.6983 50.1609 22.5202 50.4382C22.3422 50.6322 22.1543 50.8502 21.9215 51.0538C21.6285 50.7762 21.3639 50.4676 21.132 50.1329C21.1244 50.0898 20.65 49.4767 20.6363 49.4791L20.8964 49.1893C21.0869 48.9784 21.2876 48.7777 21.4975 48.588Z" fill="#F8961E"/>
<path d="M31.7829 38.259C32.3795 38.1421 32.9954 38.1633 33.5876 38.3211C33.8367 39.0996 34.1313 38.9666 34.1401 39.0169C34.1489 39.0672 33.1445 40.1092 32.5195 40.1296C32.3066 39.841 31.5946 39.1213 31.5946 39.1213L31.0989 38.4674C31.0989 38.4674 31.5293 38.3033 31.7829 38.259Z" fill="#F8961E"/>
<path d="M29.0974 33.6041C28.4186 34.4908 27.4503 35.0836 26.3733 35.2719C25.2963 35.4602 24.1843 35.2311 23.2449 34.6273C22.9829 34.4279 22.6862 34.2848 22.3723 34.2066C22.0583 34.1284 21.7336 34.1166 21.4173 34.1719C21.101 34.2272 20.7995 34.3485 20.5307 34.5286C20.262 34.7087 20.0314 34.9439 19.8526 35.2204C19.6746 35.4144 17.6062 37.5607 17.6062 37.5607L17.1311 36.9032L17.2594 35.9403L17.4173 34.7427C17.7399 34.5304 18.0273 34.2652 18.2686 33.957C18.4575 33.7389 18.6569 33.531 18.866 33.3342C19.4595 32.7713 20.2018 32.4071 20.9995 32.2874L21.2462 32.2442C22.246 32.1238 23.2609 32.3613 24.1255 32.9182C24.7033 33.317 25.4011 33.4732 26.077 33.3551C26.753 33.2369 27.3564 32.8532 27.7645 32.282C28.2474 31.7311 28.7838 30.8005 29.9796 30.7322C30.1566 30.7471 30.3322 30.7784 30.5044 30.8255C30.517 30.8974 30.9708 31.4327 31.0001 31.4794C31.217 31.9524 31.0351 31.962 31.2707 32.4614C31.1336 32.4854 31.273 33.2015 31.1085 33.2303C30.2046 33.4327 29.5691 33.0699 29.0974 33.6041Z" fill="#F8961E"/>
<path d="M29.866 37.313C29.5245 37.0848 29.1279 36.9661 28.7257 36.9718L28.2301 36.318L28.4011 36.1251C29.0761 35.2343 30.0472 34.6424 31.1264 34.4639C31.4414 34.4079 31.7613 34.3842 32.0816 34.3931C32.3986 35.1152 32.5842 35.0458 32.5842 35.0458L32.7188 36.4218C32.3025 36.3289 31.8764 36.3011 31.4543 36.3393C30.8221 36.4378 30.2537 36.7862 29.866 37.313Z" fill="#F8961E"/>
<path d="M19.4963 37.1413C20.091 36.5807 20.8337 36.2191 21.6311 36.1016L21.8778 36.0585C22.488 35.9739 23.1108 36.0319 23.7014 36.2284C23.8505 36.4606 24.0186 36.679 24.2039 36.881C24.2039 36.881 22.5485 36.7039 22.0511 37.0501C21.2297 37.6426 20.4885 38.3474 19.8468 39.146C19.5556 39.5006 19.2683 39.8766 19.0426 40.2419C18.6475 40.4461 18.2248 40.5874 17.7881 40.6612L17.6647 40.6828C17.5699 40.9192 17.4921 41.163 17.4321 41.4121C17.4321 41.4121 17.0796 40.6888 16.8895 40.6924C16.9607 40.3319 16.8859 39.4193 16.92 38.8062C17.0578 38.8057 17.1953 38.7965 17.3318 38.7786C17.9622 38.6407 18.5194 38.2669 18.8995 37.727C19.089 37.5215 19.2882 37.3261 19.4963 37.1413Z" fill="#F8961E"/>
<path d="M18.4808 4.38811C18.7778 4.28205 19.0809 4.19444 19.3884 4.12575C19.6414 4.08731 19.8964 4.06252 20.1523 4.05145C20.946 4.01541 21.7424 4.05463 22.5316 4.16863L23.0342 4.82129L18.9752 5.03477L18.4808 4.38811Z" fill="#F8961E"/>
<path d="M21.7039 8.56388C20.6268 8.76389 19.5107 8.53369 18.5754 7.91863C17.9885 7.59173 16.664 8.29721 16.4667 8.42058C16.3564 8.07778 16.2179 7.7452 16.0527 7.4266C16.2013 6.96105 16.3979 6.51451 16.6392 6.09482C16.675 6.02367 16.7148 5.95488 16.7585 5.88882C16.8468 5.7475 16.9389 5.62772 17.0309 5.50795C17.8702 5.50967 18.6967 5.75193 19.4205 6.20837C19.9972 6.61067 20.696 6.76892 21.3729 6.65057C22.0498 6.53222 22.6534 6.14627 23.0595 5.57216C23.3569 5.21176 23.694 4.88941 24.0639 4.61161C24.7101 4.89185 25.2766 5.34465 25.7059 5.92406C25.5825 5.94562 26.2016 6.57791 26.2016 6.57791C26.2016 6.57791 24.7153 6.51934 24.3992 6.89302C23.7363 7.78454 22.7753 8.38028 21.7039 8.56388Z" fill="#F8961E"/>
<path d="M25.0938 10.7038C24.4123 11.5866 23.4442 12.1765 22.3684 12.3646C21.2926 12.5527 20.1819 12.3262 19.2412 11.7271C18.7046 11.3443 18.0545 11.181 17.4166 11.2685C16.7656 11.3823 16.9022 12.3656 16.5793 12.7404C16.3125 12.2243 16.0086 11.9812 16.0058 11.2782C16.0058 11.2782 15.9357 9.70577 15.9375 9.67583C16.266 9.53793 16.6086 9.43831 16.9591 9.37874L17.2058 9.33561C18.2055 9.2186 19.2192 9.45591 20.0851 10.0096C20.6628 10.4084 21.3606 10.5646 22.0366 10.4465C22.7126 10.3283 23.316 9.94459 23.7241 9.37342C24.3968 8.47991 25.3689 7.88729 26.4494 7.71213L26.6276 7.68098C26.8278 8.2606 27.1301 8.33363 27.1301 8.33363L27.0008 10.3408C27.0008 10.3408 25.5642 10.1625 25.0938 10.7038Z" fill="#F8961E"/>
<path d="M27.4039 13.4544C26.7429 13.5747 26.155 13.9557 25.7609 14.5192C25.0793 15.402 24.1113 15.9919 23.0355 16.18C21.9597 16.3681 20.849 16.1416 19.9083 15.5424C19.3704 15.1629 18.7215 14.9998 18.0837 15.0839C17.6451 15.1606 17.7877 16.0169 17.5344 16.2241C17.2105 15.804 16.9579 15.3295 16.7878 14.8217C16.7878 14.8217 16.3699 13.6433 16.358 13.6158C16.7578 13.4109 17.1851 13.2689 17.6262 13.1941L17.8729 13.151C18.8715 13.0287 19.8858 13.2637 20.7509 13.8178C21.3277 14.2201 22.0264 14.3784 22.7034 14.26C23.3803 14.1417 23.9839 13.7557 24.3899 13.1816C25.0649 12.2908 26.036 11.6988 27.1152 11.5203C27.2776 11.4805 27.4424 11.4516 27.6086 11.4341C27.6225 11.5131 28.093 12.0232 28.1043 12.0879C28.0752 12.6484 27.5513 12.7622 27.423 13.2808C27.4269 13.3838 27.4113 13.4161 27.4039 13.4544Z" fill="#F8961E"/>
<path d="M27.8278 22.1407C27.4747 22.3431 27.4186 21.8197 27.1236 22.1527C26.4421 23.0355 25.474 23.6254 24.3983 23.8135C23.3225 24.0015 22.2117 23.7751 21.2711 23.1759C20.7312 22.795 20.0795 22.6323 19.4396 22.7186C18.9818 22.8041 18.5614 23.0325 18.2335 23.3737L17.2644 23.8098C17.2142 23.5223 16.4032 22.9236 16.4032 22.9236C16.4032 22.9236 16.5992 22.1859 16.5929 22.1499L16.8455 21.8984C17.4414 21.3397 18.1835 20.9782 18.9803 20.8587L19.227 20.8156C20.2289 20.6931 21.2464 20.9303 22.1131 21.4884C22.6896 21.8869 23.3862 22.0431 24.0611 21.9251C24.7359 21.8072 25.3382 21.4239 25.7453 20.8534C26.3217 20.1006 27.1099 19.5567 28.0015 19.2964C28.1693 19.5053 28.3234 19.7258 28.4629 19.9562C28.4629 19.9562 27.8233 22.0748 27.8278 22.1407Z" fill="#F8961E"/>
<path d="M24.9247 52.0319L25.0481 52.0104C26.048 51.8864 27.0639 52.1242 27.9274 52.6844C28.5051 53.0832 29.2029 53.2394 29.8789 53.1212C30.5548 53.003 31.1582 52.6193 31.5664 52.0482C32.1731 51.2544 33.0161 50.6959 33.9652 50.4588C33.9812 51.0214 33.9615 51.5839 33.9065 52.1426C33.8201 52.3354 33.7244 52.5151 33.6274 52.6875C33.374 52.8811 33.1455 53.1076 32.9472 53.3618C32.2657 54.2446 31.2976 54.8345 30.2219 55.0226C29.1461 55.2107 28.0353 54.9842 27.0947 54.385C26.5547 54.0042 25.9031 53.8415 25.2632 53.9277C25.0692 53.9651 24.8809 54.0279 24.7026 54.1146C24.1928 53.6913 23.7094 53.2341 23.2556 52.7458L23.1789 52.6704C23.6704 52.3405 24.2241 52.1227 24.8044 52.0307L24.9247 52.0319Z" fill="#FDDCB5"/>
<path d="M24.4195 39.1242L24.1701 38.99C25.6424 38.5249 27.2396 38.6843 28.6195 39.434C27.9534 39.7423 27.2229 39.8751 26.4912 39.8211C25.7595 39.7672 25.0485 39.5279 24.4195 39.1242Z" fill="#FDDCB5"/>
<path d="M19.6892 43.1723C20.2439 42.409 20.8555 41.693 21.5183 41.0309C21.9227 40.8184 22.3569 40.6726 22.8057 40.5984L23.0525 40.5553C24.0523 40.4348 25.0671 40.6724 25.9318 41.2293C26.5095 41.6281 27.2073 41.7843 27.8833 41.6662C28.5592 41.548 29.1626 41.1643 29.5708 40.5931L29.8962 40.2326C30.3634 40.6662 30.7846 41.1513 31.152 41.6792L30.946 41.9152C30.2645 42.798 29.2964 43.3879 28.2207 43.5759C27.1449 43.764 26.0341 43.5376 25.0935 42.9384C24.8301 42.7335 24.5304 42.5861 24.2127 42.5051C23.895 42.4241 23.566 42.4112 23.2455 42.4673C22.925 42.5233 22.6198 42.6471 22.3485 42.831C22.0771 43.015 21.8452 43.2553 21.6669 43.5375C21.4958 43.7303 21.2998 43.9423 21.0683 44.1531C20.4717 44.7155 19.7275 45.0799 18.928 45.2011L18.7224 45.2371C18.9335 44.4963 19.2602 43.7988 19.6892 43.1723Z" fill="#FDDCB5"/>
<path d="M21.3312 45.455C21.9264 44.8952 22.6688 44.5336 23.466 44.4153L23.7127 44.3722C24.7114 44.2463 25.7268 44.4816 26.5907 45.039C27.1674 45.4413 27.8662 45.5996 28.5431 45.4812C29.2201 45.3629 29.8237 44.9769 30.2297 44.4028C30.6975 43.8085 31.2918 43.3372 31.9664 43.0254C32.274 43.5946 32.5489 44.1821 32.7896 44.7846C32.3193 44.9824 31.9106 45.3096 31.6062 45.732C30.9247 46.6148 29.9566 47.2047 28.8809 47.3928C27.8051 47.5809 26.6943 47.3544 25.7537 46.7552C25.4903 46.5504 25.1906 46.4029 24.8729 46.3219C24.5552 46.241 24.2262 46.2281 23.9057 46.2841C23.5852 46.3401 23.28 46.4639 23.0086 46.6479C22.7373 46.8319 22.5054 47.0722 22.3271 47.3543C22.1379 47.5702 21.9381 47.7757 21.7285 47.9699C21.2992 48.3773 20.7877 48.6791 20.2304 48.8539C19.8757 48.279 19.5471 47.6922 19.2197 47.1126C19.8047 46.9661 20.3212 46.6146 20.684 46.1161C20.888 45.8835 21.1041 45.6628 21.3312 45.455Z" fill="#FDDCB5"/>
<path d="M21.9933 49.2416C22.5873 48.6794 23.3293 48.3153 24.1268 48.1947L24.3735 48.1516C25.3722 48.0258 26.3876 48.261 27.2516 48.8185C27.8283 49.2208 28.527 49.379 29.204 49.2607C29.8809 49.1423 30.4845 48.7564 30.8906 48.1823C31.5225 47.3637 32.4042 46.7972 33.3922 46.5749C33.5603 47.1977 33.6943 47.8294 33.7936 48.467C33.1816 48.6008 32.6384 48.9582 32.2608 49.4755C31.5793 50.3583 30.6112 50.9482 29.5354 51.1363C28.4597 51.3244 27.3489 51.0979 26.4082 50.4988C26.1438 50.2969 25.8441 50.152 25.5269 50.0727C25.2097 49.9934 24.8815 49.9813 24.5619 50.0372C24.2423 50.0931 23.9377 50.2158 23.6662 50.398C23.3947 50.5802 23.162 50.8182 22.9817 51.0978C22.7931 51.3162 22.5937 51.524 22.3843 51.7206L22.3501 51.7266C21.9393 51.2356 21.5479 50.7339 21.1733 50.2069L21.0903 50.0956L21.3491 49.7986C21.5858 49.6979 21.7749 49.4871 21.9933 49.2416Z" fill="#FDDCB5"/>
<path d="M32.2904 38.9403C32.8888 38.8259 33.5055 38.8442 34.1007 38.994C34.346 39.746 34.5506 40.5113 34.7134 41.2862L34.7272 41.3652L34.5794 41.2874C34.1165 40.9786 33.5802 40.8152 33.0352 40.8169C32.8235 40.5355 32.6038 40.248 32.3716 39.9702C32.1394 39.6924 31.8529 39.387 31.6039 39.1343C31.8271 39.0505 32.0567 38.9856 32.2904 38.9403Z" fill="#FDDCB5"/>
<path d="M29.605 34.2853C28.9235 35.1681 27.9554 35.758 26.8797 35.9461C25.8039 36.1342 24.6931 35.9077 23.7525 35.3086C23.489 35.1037 23.1894 34.9562 22.8717 34.8753C22.554 34.7943 22.2249 34.7814 21.9044 34.8374C21.584 34.8935 21.2788 35.0172 21.0074 35.2012C20.7361 35.3852 20.5042 35.6255 20.3259 35.9076C20.1388 36.1257 19.9389 36.3313 19.7273 36.5232C19.1307 37.0857 18.3865 37.4501 17.5869 37.5713C17.6233 37.2539 17.6665 36.9354 17.7084 36.6096C17.7503 36.2839 17.802 35.8527 17.8595 35.4946L17.8457 35.4156C18.1683 35.2033 18.4557 34.9381 18.6971 34.6299C18.875 34.4359 19.0629 34.2179 19.2945 34.0071C19.8896 33.4473 20.6321 33.0857 21.4292 32.9674L21.6759 32.9243C22.6747 32.7985 23.69 33.0337 24.554 33.5911C25.1307 33.9934 25.8295 34.1517 26.5064 34.0333C27.1833 33.915 27.787 33.529 28.193 32.9549C28.6758 32.404 29.2191 31.4722 30.4161 31.411C30.5901 31.4257 30.7629 31.4549 30.9329 31.4984C30.9454 31.5703 30.9922 31.6361 31.0254 31.7044C31.2478 32.1691 31.4754 32.6624 31.7029 33.1558C31.5531 33.1737 31.4044 33.1997 31.2574 33.2337C30.5946 33.3476 30.0031 33.7241 29.605 34.2853Z" fill="#FDDCB5"/>
<path d="M30.3666 37.9955C29.8608 37.5858 29.3097 37.2419 28.7257 36.9717L28.8968 36.7788C29.5717 35.888 30.5428 35.2961 31.6221 35.1176C31.9394 35.0597 32.2624 35.038 32.5854 35.0528C32.8892 35.7402 33.1918 36.5019 33.4758 37.2372C33.0036 36.9905 32.4679 36.9171 31.9562 37.0289C31.3241 37.1238 30.7549 37.4699 30.3666 37.9955Z" fill="#FDDCB5"/>
<path d="M19.9971 37.824C20.591 37.2618 21.3331 36.8977 22.1306 36.7771L22.3773 36.734C22.9905 36.6476 23.6167 36.7077 24.209 36.9099L24.0514 36.9374C23.5193 37.1342 23.0155 37.404 22.5531 37.74C21.731 38.3317 20.9897 39.0365 20.3488 39.8359C20.0615 40.1852 19.793 40.5511 19.5446 40.9318C19.1498 41.1365 18.7269 41.2778 18.2901 41.3511L18.0503 41.393C17.846 41.4163 17.6405 41.4275 17.4346 41.4266C17.3929 40.7833 17.3886 40.1386 17.422 39.4961C17.5598 39.4952 17.6973 39.486 17.8339 39.4685C18.4617 39.3418 19.0208 38.981 19.4078 38.4528C19.5938 38.2328 19.7905 38.0229 19.9971 37.824Z" fill="#FDDCB5"/>
<path d="M18.9802 5.06365C19.2734 4.94559 19.578 4.86007 19.8891 4.80848C20.1289 4.76655 20.3825 4.72222 20.6586 4.7258C21.4519 4.64832 22.2536 4.69019 23.0392 4.85015C22.5777 5.1304 22.0699 5.31957 21.5407 5.40836C20.6781 5.57765 19.782 5.45701 18.9802 5.06365Z" fill="#FDDCB5"/>
<path d="M22.2065 9.21647C21.1307 9.41614 20.0159 9.18868 19.0792 8.57839C18.538 8.20063 17.8875 8.03819 17.2478 8.12105C16.9936 8.16983 16.7497 8.26252 16.5259 8.39535C16.5394 8.23008 16.5492 8.12471 16.5566 8.08638C16.7036 7.61968 16.8974 7.17127 17.1349 6.74861L17.2612 6.54141C17.344 6.40834 17.4349 6.28111 17.5336 6.16054C18.3721 6.16287 19.1973 6.40824 19.9175 6.86935C20.4952 7.26816 21.193 7.42436 21.869 7.30618C22.545 7.188 23.1484 6.80431 23.5565 6.23314C23.855 5.86916 24.194 5.54393 24.5666 5.26419C25.2121 5.54564 25.7783 5.99822 26.2085 6.57664C25.6897 6.75315 25.2366 7.09051 24.9087 7.54441C24.2411 8.43417 23.2789 9.02959 22.2065 9.21647Z" fill="#FDDCB5"/>
<path d="M25.6001 11.3779C24.9185 12.2607 23.9505 12.8506 22.8747 13.0387C21.7989 13.2267 20.6881 13.0003 19.7475 12.4011C19.2051 12.0264 18.5556 11.8642 17.916 11.9438C17.396 12.0457 16.9258 12.3259 16.5792 12.7403C16.4891 11.9735 16.4439 11.2024 16.4439 10.4313L16.4314 10.3594C16.7579 10.2153 17.1004 10.1131 17.4517 10.0552L17.6984 10.012C18.6971 9.88621 19.7125 10.1215 20.5764 10.6789C21.1532 11.0812 21.8519 11.2394 22.5288 11.1211C23.2058 11.0027 23.8094 10.6168 24.2154 10.0427C24.8903 9.15186 25.8614 8.55989 26.9407 8.38137L27.1052 8.35261C27.2998 8.94062 27.4664 9.57057 27.6337 10.2448C27.5069 10.259 27.381 10.281 27.2568 10.3107C26.5901 10.4274 25.9965 10.8097 25.6001 11.3779Z" fill="#FDDCB5"/>
<path d="M27.9058 14.1444C27.2505 14.2555 26.6636 14.6227 26.2634 15.1721C25.5845 16.0588 24.6162 16.6516 23.5392 16.8399C22.4623 17.0282 21.3502 16.7991 20.4108 16.1953C19.8671 15.8309 19.2192 15.6813 18.5856 15.7739C18.2251 15.839 17.8864 15.9948 17.5985 16.2278C17.2821 15.6484 17.0428 15.0274 16.8875 14.3824C16.8798 14.3567 16.8751 14.3301 16.8736 14.3033C17.2686 14.0923 17.6938 13.948 18.1337 13.8757L18.3804 13.8325C19.3804 13.7056 20.3973 13.9436 21.2597 14.5066C21.8374 14.9054 22.5352 15.0616 23.2112 14.9434C23.8872 14.8252 24.4906 14.4416 24.8987 13.8704C25.5699 12.9744 26.5417 12.3792 27.6227 12.2019C27.8009 12.1707 27.9585 12.1432 28.1162 12.1156C28.1312 12.2019 28.145 12.2809 28.1601 12.3671C28.1345 12.9164 28.057 13.4607 27.9287 13.9923C27.9287 13.9923 27.912 14.0989 27.9058 14.1444Z" fill="#FDDCB5"/>
<path d="M28.4857 22.0256C28.1488 22.239 27.8501 22.5116 27.6026 22.8317C26.921 23.7145 25.953 24.3044 24.8772 24.4925C23.8014 24.6805 22.6906 24.4541 21.75 23.8549C21.2088 23.4771 20.5583 23.3147 19.9185 23.3976C19.4574 23.4834 19.0347 23.715 18.7068 24.0611L17.5549 23.8552L17.2713 23.8086C17.2211 23.5211 17.1746 23.2553 17.1268 22.9822C17.12 22.9218 17.1095 22.8618 17.0954 22.8026L17.3549 22.5498C17.9489 21.9876 18.691 21.6235 19.4884 21.503L19.7352 21.4599C20.7339 21.334 21.7493 21.5693 22.6132 22.1267C23.1899 22.529 23.8887 22.6872 24.5656 22.5689C25.2426 22.4505 25.8462 22.0646 26.2522 21.4905C26.8271 20.7404 27.6135 20.1992 28.5028 19.9418C28.4739 20.6652 28.4755 21.361 28.4857 22.0256Z" fill="#FDDCB5"/>
<path d="M74.0927 336.829C75.2351 333.81 74.7387 326.086 76.0755 322.318C77.4122 318.55 78.1074 313.801 86.0774 314.803C87.2341 314.914 88.3375 315.343 89.2659 316.041C93.4983 319.328 92.017 328.227 89.6374 336.212C86.8054 345.768 89.1804 348.357 88.1582 353.991C87.1359 359.626 78.7565 368.802 72.8716 367.737C71.0245 367.452 69.3595 366.463 68.2259 364.977C65.3703 361.249 65.8965 354.821 67.0346 350.927C68.5958 345.604 72.9503 339.849 74.0927 336.829Z" fill="#F8961E"/>
<path d="M71.9723 335.562C73.1147 332.543 72.6113 324.817 73.948 321.049C75.2848 317.281 75.9781 312.539 83.95 313.534C85.1088 313.646 86.2144 314.075 87.1455 314.774C91.3691 318.066 89.8896 326.958 87.517 334.945C84.678 344.499 87.053 347.088 86.0377 352.724C85.0225 358.36 76.629 367.533 70.7442 366.468C68.8971 366.183 67.2321 365.194 66.0985 363.708C63.2499 359.981 63.7691 353.552 64.9072 349.657C66.4756 344.307 70.8439 338.585 71.9723 335.562Z" fill="#FDDCB5"/>
<path d="M72.7177 336.114C73.8601 333.095 73.3637 325.37 74.7004 321.603C76.0372 317.835 76.7183 313.082 84.6744 314.08C85.831 314.191 86.9345 314.62 87.8629 315.319C92.0935 318.613 90.6139 327.504 88.2414 335.492C85.4024 345.046 87.7774 347.634 86.7551 353.269C85.7329 358.903 77.3835 368.05 71.4966 367.022C69.6495 366.737 67.9845 365.748 66.8509 364.262C63.9952 360.533 64.5215 354.105 65.6595 350.211C67.2208 344.888 71.5823 339.135 72.7177 336.114Z" fill="#FABA6B"/>
<path d="M76.5614 361.436L76.4355 361.403C75.4122 361.19 74.347 361.33 73.4128 361.798C72.7877 362.144 72.0541 362.236 71.363 362.056C70.6719 361.877 70.0759 361.439 69.6976 360.834C69.1262 359.995 68.2947 359.367 67.3311 359.047C67.2756 359.602 67.2554 360.161 67.2704 360.719C67.3457 360.918 67.4317 361.104 67.5195 361.284C67.7632 361.503 67.9826 361.748 68.1739 362.014C68.8156 362.951 69.7747 363.625 70.8742 363.91C71.9737 364.196 73.1393 364.074 74.156 363.567C74.741 363.254 75.4198 363.165 76.0658 363.316C76.2648 363.373 76.4574 363.451 76.6405 363.548C77.1732 363.193 77.891 363.506 78.4175 363.06C78.4175 363.06 78.2843 362.279 78.3053 362.284C77.821 361.913 77.2645 361.646 76.6713 361.502L76.5614 361.436Z" fill="#F8961E"/>
<path d="M78.3886 349.394C78.4801 349.358 78.2064 348.599 78.2764 348.618C76.7889 348.019 75.1254 348.029 73.6458 348.648C73.6912 349.048 73.751 349.422 73.751 349.422C73.751 349.422 77.6071 349.728 78.3886 349.394Z" fill="#F8961E"/>
<path d="M82.6134 353.142C82.0943 352.338 81.5163 351.574 80.8843 350.856C80.4818 350.608 80.0435 350.424 79.5848 350.309L79.3329 350.244C78.3096 350.031 77.2444 350.17 76.3102 350.639C75.6852 350.984 74.9516 351.077 74.2604 350.897C73.5693 350.718 72.9733 350.28 72.5951 349.675L72.2829 349.295C71.7678 349.678 71.2995 350.12 70.8876 350.613C70.9501 350.689 70.9198 351.323 70.9928 351.387C71.5127 352.06 72.2414 352.331 73.7876 352.732C74.885 353.031 76.0544 352.909 77.0658 352.389C77.3515 352.217 77.6684 352.105 77.9981 352.057C78.3278 352.01 78.6636 352.028 78.986 352.112C79.3084 352.196 79.6109 352.343 79.8759 352.545C80.1408 352.747 80.3629 352.999 80.5291 353.288C80.6973 353.503 80.8776 353.729 81.1017 353.959C81.5654 354.446 82.516 355.76 83.5515 356.029C83.5342 355.769 83.4991 355.51 83.4463 355.255C83.2891 354.509 83.0075 353.795 82.6134 353.142Z" fill="#F8961E"/>
<path d="M80.7498 355.257C80.1764 354.646 79.4357 354.217 78.6202 354.024L78.3684 353.959C77.3437 353.748 76.2777 353.889 75.3438 354.361C74.718 354.703 73.9855 354.793 73.2954 354.614C72.6053 354.435 72.0093 353.999 71.6287 353.396C71.1942 352.76 70.6125 352.237 69.933 351.873C69.5734 352.407 69.2492 352.964 68.9624 353.541C69.0246 353.794 69.0598 354.054 69.0676 354.315C69.0676 354.315 69.8106 354.157 70.1192 354.55C70.7578 355.491 71.717 356.168 72.8177 356.454C73.9184 356.739 75.0855 356.615 76.1013 356.104C76.3869 355.932 76.7039 355.82 77.0335 355.772C77.3632 355.725 77.6991 355.743 78.0215 355.827C78.3439 355.911 78.6463 356.058 78.9113 356.26C79.1762 356.462 79.3983 356.714 79.5646 357.003C79.7327 357.218 79.913 357.444 80.1371 357.674C80.5514 358.117 81.0583 358.463 81.6217 358.687C82.0316 358.144 82.5185 358.397 82.8706 357.846L82.7654 357.072C82.1743 356.868 81.6675 356.474 81.3239 355.951C81.1445 355.71 80.9529 355.478 80.7498 355.257Z" fill="#F8961E"/>
<path d="M79.787 358.965C79.2122 358.356 78.4709 357.93 77.6556 357.739L77.4037 357.674C76.3804 357.461 75.3152 357.6 74.381 358.069C73.7552 358.411 73.0227 358.501 72.3326 358.322C71.6425 358.143 71.0465 357.707 70.6658 357.105C70.0786 356.232 69.21 355.588 68.205 355.278C67.9831 355.878 67.7989 356.491 67.6536 357.114C67.7092 357.369 67.7444 357.628 67.7588 357.888C67.7588 357.888 68.7699 357.762 69.1582 358.252C69.7999 359.189 70.759 359.862 71.8585 360.148C72.958 360.433 74.1236 360.311 75.1403 359.805C75.4251 359.63 75.7421 359.515 76.0725 359.466C76.4028 359.417 76.7396 359.435 77.0628 359.519C77.386 359.603 77.689 359.751 77.9538 359.955C78.2185 360.158 78.4395 360.413 78.6036 360.704C78.7735 360.912 78.952 361.145 79.1779 361.368L79.2129 361.377C79.671 360.936 80.3141 361.163 80.7375 360.683C80.7484 360.641 80.6043 359.901 80.6253 359.907L80.3774 359.596C80.1911 359.376 79.994 359.165 79.787 358.965Z" fill="#F8961E"/>
<path d="M69.8944 347.793C69.2862 347.623 68.6481 347.587 68.0247 347.689C67.7147 348.41 67.4458 349.148 67.2192 349.899L67.1992 349.976C67.2482 349.989 67.3114 350.752 67.3114 350.752C67.3114 350.752 68.3871 349.486 69.0036 349.556C69.5337 349.241 70.0999 348.992 70.69 348.814C70.6739 348.553 70.6363 348.293 70.5778 348.038C70.3569 347.938 70.1284 347.857 69.8944 347.793Z" fill="#F8961E"/>
<path d="M73.0056 343.433C73.6442 344.374 74.6034 345.05 75.7041 345.336C76.8049 345.622 77.972 345.497 78.9877 344.986C79.2728 344.813 79.5898 344.698 79.9199 344.65C80.25 344.601 80.5865 344.619 80.9095 344.703C81.2324 344.787 81.5352 344.935 81.8 345.138C82.0648 345.341 82.2862 345.595 82.451 345.885C82.6209 346.094 82.8012 346.32 83.0253 346.55C83.6014 347.161 84.3443 347.59 85.1619 347.784C85.1472 347.466 85.1256 347.147 85.1057 346.821C85.0859 346.495 85.1477 346.832 85.1357 346.418C85.1357 346.418 85.0305 345.644 85.0235 345.642C84.7053 345.402 84.4274 345.113 84.2002 344.786C84.0207 344.553 83.8297 344.328 83.6277 344.114C83.0543 343.503 82.3136 343.075 81.4981 342.882L81.2462 342.817C80.2216 342.605 79.1556 342.747 78.2217 343.219C77.5959 343.56 76.8634 343.651 76.1733 343.471C75.4831 343.292 74.8872 342.857 74.5065 342.254C74.0472 341.664 73.5599 340.694 72.3289 340.516C72.1449 340.515 71.9611 340.53 71.7798 340.56C71.7616 340.63 71.7452 340.693 71.6711 340.749C71.4146 341.19 71.1439 341.657 70.8644 342.13C71.0043 342.166 70.8087 342.862 70.9766 342.906C71.8947 343.167 72.5637 342.862 73.0056 343.433Z" fill="#F8961E"/>
<path d="M71.9509 347.035C72.4517 346.717 73.8187 346.975 73.8187 346.975L73.7135 346.201L73.5505 345.994C72.9172 345.05 71.9562 344.375 70.8536 344.099C70.5297 344.014 70.1985 343.961 69.8645 343.939C69.4918 344.627 69.1314 345.325 68.7867 346.019C68.901 345.982 68.9059 346.797 68.9059 346.797C68.9059 346.797 69.8597 345.828 70.3704 345.96C71.014 346.106 71.5785 346.49 71.9509 347.035Z" fill="#F8961E"/>
<path d="M82.6808 347.819C82.106 347.21 81.3647 346.784 80.5494 346.594L80.2975 346.528C79.6729 346.389 79.025 346.389 78.4005 346.529C78.4549 346.784 78.49 347.043 78.5057 347.303C79.0263 347.192 79.569 347.26 80.0468 347.494C80.8531 348.156 81.5683 348.922 82.1739 349.771C82.4493 350.149 82.7192 350.548 82.9261 350.93C83.3197 351.169 83.7464 351.347 84.1924 351.461L84.4373 351.524C84.6542 351.58 85.1304 350.494 85.3284 350.508C85.2442 350.259 85.2061 349.996 85.2162 349.732C85.0738 349.719 84.9324 349.697 84.7925 349.667C84.1509 349.473 83.6019 349.051 83.2481 348.482C83.0701 348.252 82.8808 348.031 82.6808 347.819Z" fill="#F8961E"/>
<path d="M86.0922 315.494C85.7988 315.348 85.4907 315.233 85.1731 315.151C84.9144 315.09 84.6526 315.042 84.3889 315.007C83.5732 314.855 82.74 314.82 81.9143 314.902C82.0832 315.028 82.0265 315.678 82.0265 315.678L86.1992 316.261C86.1992 316.261 86.167 315.954 86.0922 315.494Z" fill="#F8961E"/>
<path d="M82.4598 319.33C83.5585 319.628 84.7287 319.502 85.7398 318.98C86.3248 318.667 87.0037 318.578 87.6496 318.729C87.9575 318.809 88.2827 319.483 88.4796 319.616C88.4758 319.459 88.3713 318.797 88.3752 318.753C88.2553 318.278 88.0843 317.818 87.8652 317.381C87.8333 317.307 87.7971 317.235 87.7567 317.166C87.6756 317.018 87.5891 316.891 87.5026 316.764C86.635 316.688 85.7634 316.852 84.9824 317.237C84.3573 317.582 83.6237 317.675 82.9326 317.495C82.2415 317.316 81.6454 316.878 81.2672 316.273C80.9842 315.89 80.6592 315.54 80.2983 315.229C79.6103 315.447 78.9921 315.843 78.5066 316.377C78.6256 316.408 78.6118 317.151 78.6118 317.151C78.6118 317.151 79.4875 317.058 79.7802 317.455C80.4118 318.389 81.366 319.057 82.4598 319.33Z" fill="#F8961E"/>
<path d="M78.7949 321.135C79.4367 322.072 80.3958 322.746 81.4953 323.031C82.5948 323.317 83.7604 323.195 84.777 322.688C85.3593 322.359 86.043 322.257 86.6959 322.402C87.228 322.547 87.695 322.868 88.0202 323.314C88.1925 322.806 88.3273 322.287 88.4234 321.76L88.3182 320.986C87.9886 320.819 87.6418 320.689 87.2838 320.598L87.0319 320.533C86.0072 320.325 84.9423 320.466 84.0074 320.935C83.3816 321.276 82.6491 321.367 81.959 321.188C81.2689 321.008 80.6729 320.573 80.2922 319.97C79.6614 319.024 78.6994 318.348 77.5953 318.075L77.4134 318.028C77.1548 318.624 76.9269 319.233 76.7307 319.852C76.8496 319.883 76.8359 320.626 76.8359 320.626C76.8359 320.626 78.3548 320.558 78.7949 321.135Z" fill="#F8961E"/>
<path d="M76.216 323.647C76.889 323.825 77.4673 324.256 77.8304 324.85C78.4722 325.788 79.4313 326.461 80.5308 326.747C81.6302 327.032 82.7959 326.91 83.8125 326.403C84.3959 326.077 85.0783 325.975 85.7314 326.117C86.0981 326.218 86.4362 326.403 86.7189 326.658C87.0829 326.147 87.4939 326.261 87.7328 325.629C87.7328 325.629 87.6206 324.853 87.6276 324.855C87.2292 324.615 86.7978 324.435 86.3473 324.321L86.0954 324.255C85.0721 324.042 84.0069 324.182 83.0727 324.65C82.4476 324.996 81.714 325.088 81.0229 324.908C80.3318 324.729 79.7358 324.291 79.3575 323.686C78.7242 322.742 77.7632 322.067 76.6606 321.791C76.4957 321.736 76.3274 321.693 76.1569 321.66C76.1369 321.737 76.1169 321.814 76.0951 321.898C76.082 322.444 76.1229 322.99 76.2171 323.528C76.1974 323.575 76.2251 323.612 76.216 323.647Z" fill="#F8961E"/>
<path d="M75.1515 332.205C75.5018 332.438 75.5976 331.925 75.8784 332.282C76.5192 333.218 77.4772 333.891 78.5755 334.176C79.6738 334.462 80.8382 334.34 81.8535 333.833C82.4386 333.504 83.1244 333.403 83.7795 333.549C84.2465 333.676 84.6645 333.94 84.9788 334.308L86.1894 334.219L86.4877 334.192C86.5585 333.919 86.8959 334.029 86.8959 334.029C86.8959 334.029 86.7466 333.281 86.7557 333.246L86.5127 332.974C85.9372 332.366 85.1962 331.94 84.3813 331.749L84.1295 331.683C83.1028 331.47 82.034 331.611 81.0979 332.083C80.4734 332.425 79.7421 332.515 79.0532 332.337C78.3642 332.158 77.7694 331.723 77.3898 331.121C76.8483 330.323 76.0729 329.712 75.1702 329.372C75.1277 329.996 75.0662 330.98 75.017 331.573C75.0204 331.588 75.1539 332.138 75.1515 332.205Z" fill="#F8961E"/>
<path d="M76.6541 362.229L76.5282 362.197C75.5015 361.983 74.4328 362.124 73.4967 362.597C72.8721 362.938 72.1409 363.029 71.4519 362.85C70.7629 362.671 70.1681 362.236 69.7885 361.634C69.2187 360.793 68.3877 360.162 67.4238 359.84C67.3632 360.396 67.3429 360.954 67.3631 361.512C67.4454 361.713 67.5314 361.9 67.6192 362.079C67.8657 362.296 68.0854 362.541 68.2736 362.809C68.9143 363.746 69.8723 364.419 70.9706 364.704C72.0689 364.989 73.2333 364.867 74.2486 364.361C74.8337 364.032 75.5195 363.931 76.1745 364.077C76.3722 364.132 76.5622 364.211 76.7405 364.313C77.2979 363.941 77.8305 363.533 78.3347 363.091L78.4195 363.024C77.9323 362.652 77.3737 362.385 76.7785 362.239L76.6541 362.229Z" fill="#FDDCB5"/>
<path d="M78.121 349.503L78.3885 349.393C76.8981 348.797 75.2339 348.808 73.7509 349.422C74.0946 349.611 74.4608 349.756 74.841 349.854C75.9397 350.151 77.1099 350.026 78.121 349.503Z" fill="#FDDCB5"/>
<path d="M82.7113 353.944C82.1969 353.137 81.6187 352.372 80.9822 351.658C80.5819 351.411 80.146 351.227 79.6897 351.113L79.4378 351.048C78.411 350.838 77.3434 350.979 76.4063 351.448C75.7818 351.789 75.0505 351.88 74.3615 351.701C73.6726 351.522 73.0777 351.087 72.6981 350.485L72.3878 350.098C71.8697 350.48 71.399 350.922 70.9855 351.415L71.1814 351.667C71.8221 352.604 72.7801 353.277 73.8784 353.562C74.9767 353.847 76.1411 353.725 77.1565 353.218C77.4435 353.04 77.7639 352.922 78.098 352.871C78.4322 352.82 78.7733 352.837 79.1005 352.922C79.4277 353.007 79.7342 353.158 80.0014 353.365C80.2686 353.572 80.4909 353.831 80.6548 354.127C80.8177 354.333 80.998 354.559 81.2291 354.791C81.8052 355.403 82.548 355.832 83.3657 356.026L83.5966 356.085C83.4275 355.326 83.128 354.601 82.7113 353.944Z" fill="#FDDCB5"/>
<path d="M80.8565 356.054C80.279 355.445 79.5355 355.018 78.7181 354.827L78.4732 354.763C77.4479 354.548 76.3799 354.686 75.4435 355.156C74.8201 355.503 74.0871 355.597 73.3967 355.417C72.7062 355.238 72.1113 354.8 71.7353 354.194C71.2933 353.56 70.7105 353.038 70.0327 352.669C69.6761 353.204 69.3519 353.761 69.0621 354.336C69.5328 354.576 69.9313 354.938 70.2167 355.383C70.8575 356.319 71.8155 356.992 72.9138 357.277C74.0121 357.562 75.1765 357.44 76.1919 356.934C76.4789 356.755 76.7992 356.637 77.1334 356.586C77.4676 356.535 77.8086 356.553 78.1358 356.638C78.463 356.723 78.7695 356.873 79.0367 357.08C79.3039 357.287 79.5262 357.547 79.6902 357.842C79.8685 358.075 80.0602 358.297 80.2645 358.507C80.6788 358.949 81.1857 359.295 81.7491 359.519C82.1572 358.983 82.5391 358.433 82.9192 357.889C82.3232 357.689 81.8124 357.294 81.4707 356.766C81.2791 356.518 81.0741 356.28 80.8565 356.054Z" fill="#FDDCB5"/>
<path d="M79.8991 359.741C79.3231 359.129 78.5802 358.7 77.7626 358.507L77.5177 358.443C76.4924 358.228 75.4244 358.367 74.488 358.836C73.8646 359.183 73.1316 359.277 72.4412 359.097C71.7507 358.918 71.1558 358.48 70.7798 357.874C70.1856 357.005 69.3153 356.363 68.3102 356.052C68.0881 356.652 67.904 357.265 67.7588 357.888C68.3806 358.079 68.9155 358.483 69.2703 359.028C69.9111 359.964 70.8691 360.637 71.9674 360.922C73.0656 361.207 74.23 361.086 75.2454 360.579C75.5333 360.404 75.8535 360.288 76.1871 360.238C76.5206 360.189 76.8606 360.207 77.187 360.292C77.5133 360.377 77.8193 360.526 78.0867 360.732C78.3541 360.937 78.5776 361.194 78.7437 361.487C78.9212 361.722 79.1124 361.946 79.3162 362.159C79.7691 361.709 80.2168 361.25 80.642 360.763L80.7359 360.66L80.4828 360.341C80.2874 360.23 80.1002 360.002 79.8991 359.741Z" fill="#FDDCB5"/>
<path d="M69.9994 348.597C69.3914 348.429 68.755 348.391 68.1314 348.486C67.8236 349.207 67.557 349.946 67.3329 350.698C67.3228 350.723 67.316 350.749 67.3129 350.775L67.4713 350.712C67.9713 350.447 68.538 350.334 69.1013 350.388C69.3403 350.129 69.5811 349.863 69.8482 349.611C70.1152 349.359 70.4263 349.081 70.7018 348.854C70.4749 348.75 70.24 348.664 69.9994 348.597Z" fill="#FDDCB5"/>
<path d="M73.1105 344.237C73.7513 345.173 74.7093 345.846 75.8076 346.131C76.9058 346.417 78.0702 346.295 79.0856 345.788C79.3727 345.61 79.693 345.491 80.0272 345.44C80.3614 345.389 80.7024 345.407 81.0296 345.492C81.3568 345.577 81.6633 345.727 81.9305 345.935C82.1977 346.142 82.42 346.401 82.5839 346.696C82.7599 346.931 82.9518 347.153 83.1582 347.361C83.7343 347.973 84.4772 348.402 85.2948 348.595C85.2801 348.278 85.2585 347.958 85.2317 347.63L85.1629 346.515L85.1828 346.438C84.8625 346.197 84.5822 345.908 84.3525 345.58C84.1896 345.373 84.0041 345.138 83.78 344.908C83.2026 344.299 82.4591 343.872 81.6417 343.681L81.3968 343.618C80.3714 343.402 79.3035 343.541 78.3671 344.011C77.7437 344.358 77.0107 344.451 76.3203 344.272C75.6298 344.093 75.0349 343.654 74.6589 343.048C74.1996 342.458 73.7052 341.486 72.4725 341.315C72.2916 341.313 72.1108 341.326 71.9321 341.354L71.8146 341.548L71.0167 342.924C71.1703 342.956 71.3221 342.995 71.4715 343.042C72.1512 343.215 72.7383 343.643 73.1105 344.237Z" fill="#FDDCB5"/>
<path d="M72.0558 347.839C72.6073 347.477 73.2004 347.182 73.8222 346.961L73.6663 346.756C73.2505 346.154 72.7014 345.656 72.0618 345.301C71.4222 344.946 70.7092 344.743 69.9784 344.708C69.6149 345.361 69.2401 346.085 68.9006 346.788C69.4065 346.588 69.9654 346.564 70.4862 346.722C71.1336 346.879 71.6958 347.279 72.0558 347.839Z" fill="#FDDCB5"/>
<path d="M82.7856 348.623C82.2095 348.012 81.4667 347.583 80.649 347.389L80.4042 347.325C79.7767 347.182 79.1249 347.184 78.4983 347.331L78.6523 347.371C79.1908 347.614 79.6944 347.928 80.1498 348.305C80.9569 348.966 81.6722 349.732 82.277 350.582C82.5453 350.958 82.8241 351.352 83.0222 351.739C83.4182 351.978 83.8472 352.158 84.2955 352.271L84.5404 352.335C84.7474 352.377 84.9567 352.406 85.1672 352.423C85.259 351.791 85.3122 351.154 85.3265 350.515C85.1817 350.502 85.0379 350.479 84.8958 350.448C84.2566 350.264 83.7051 349.856 83.3423 349.298C83.1683 349.064 82.9825 348.839 82.7856 348.623Z" fill="#FDDCB5"/>
<path d="M86.192 316.289C85.9001 316.146 85.5937 316.034 85.2781 315.955C85.0332 315.891 84.7743 315.824 84.4887 315.802C83.6744 315.652 82.8428 315.62 82.0193 315.706C82.4754 316.027 82.9868 316.261 83.5278 316.397C84.4045 316.647 85.3383 316.609 86.192 316.289Z" fill="#FDDCB5"/>
<path d="M82.565 320.104C83.6626 320.4 84.8307 320.277 85.8432 319.761C86.4294 319.435 87.1139 319.334 87.7691 319.477C88.028 319.549 88.2733 319.663 88.4954 319.814C88.4934 319.65 88.4908 319.544 88.4859 319.506C88.3677 319.03 88.1997 318.569 87.9847 318.128L87.8692 317.912C87.7932 317.772 87.7083 317.638 87.6151 317.51C86.7463 317.436 85.8739 317.602 85.0931 317.99C84.4685 318.332 83.7372 318.422 83.0483 318.243C82.3593 318.064 81.7645 317.629 81.3849 317.027C81.1026 316.64 80.7757 316.287 80.4108 315.975C79.7238 316.195 79.1062 316.591 78.6191 317.123C79.1447 317.346 79.591 317.722 79.8997 318.203C80.5242 319.143 81.473 319.82 82.565 320.104Z" fill="#FDDCB5"/>
<path d="M78.9017 321.932C79.5424 322.868 80.5004 323.541 81.5987 323.826C82.697 324.111 83.8614 323.99 84.8768 323.483C85.464 323.161 86.1474 323.06 86.8027 323.199C87.3328 323.348 87.7986 323.668 88.1269 324.11C88.2754 323.36 88.3777 322.601 88.4332 321.837L88.4514 321.767C88.1247 321.594 87.7779 321.461 87.4188 321.372L87.1739 321.309C86.1486 321.094 85.0806 321.232 84.1442 321.702C83.5208 322.049 82.7879 322.142 82.0974 321.963C81.407 321.784 80.812 321.346 80.4361 320.739C79.8027 319.795 78.8417 319.12 77.7391 318.844L77.5502 318.795C77.2997 319.357 77.089 319.967 76.8675 320.619C76.9976 320.645 77.1261 320.678 77.2523 320.719C77.9388 320.894 78.5303 321.329 78.9017 321.932Z" fill="#FDDCB5"/>
<path d="M76.3191 324.458C76.9879 324.629 77.5675 325.046 77.9426 325.626C78.5803 326.566 79.5383 327.242 80.6378 327.527C81.7374 327.813 82.9032 327.688 83.9177 327.177C84.5056 326.865 85.1864 326.777 85.8345 326.928C86.1999 327.026 86.5363 327.211 86.815 327.466C87.1861 326.923 87.4806 326.331 87.69 325.707C87.6998 325.682 87.7065 325.656 87.71 325.63C87.3145 325.384 86.8832 325.202 86.4315 325.089L86.1866 325.025C85.16 324.809 84.0901 324.95 83.1551 325.426C82.5305 325.767 81.7993 325.858 81.1103 325.679C80.4214 325.5 79.8265 325.065 79.4469 324.463C78.8178 323.515 77.8563 322.836 76.7518 322.561C76.5699 322.514 76.409 322.472 76.2481 322.43C76.2263 322.514 76.2063 322.591 76.1845 322.675C76.1771 323.222 76.2203 323.768 76.3135 324.307C76.3055 324.357 76.3075 324.408 76.3191 324.458Z" fill="#FDDCB5"/>
<path d="M75.1514 332.205C75.4832 332.449 75.7721 332.746 76.0061 333.084C76.6468 334.021 77.6048 334.694 78.7031 334.979C79.8014 335.264 80.9658 335.142 81.9812 334.635C82.5674 334.31 83.2519 334.209 83.9071 334.351C84.3758 334.477 84.7942 334.745 85.1046 335.118L86.317 335.022L86.6135 335.002C86.6861 334.722 86.7533 334.463 86.8224 334.197L86.8678 334.022C86.7921 333.927 86.711 333.836 86.6248 333.75C86.0507 333.14 85.3103 332.711 84.4952 332.517L84.2433 332.452C83.218 332.237 82.1501 332.376 81.2137 332.845C80.5903 333.192 79.8573 333.286 79.1668 333.106C78.4764 332.927 77.8814 332.489 77.5055 331.883C76.9566 331.092 76.1762 330.49 75.2716 330.16C75.2548 330.858 75.21 331.548 75.1514 332.205Z" fill="#FDDCB5"/>
<path d="M21.2586 232.363C20.3719 229.23 21.39 221.521 20.3758 217.618C19.3615 213.715 19.0189 208.888 11.2871 209.18C10.1651 209.189 9.07211 209.521 8.12843 210.14C3.8364 213.06 4.63723 222.125 6.35856 230.355C8.41863 240.199 5.94735 242.586 6.53546 248.333C7.12357 254.08 14.543 264.039 20.2747 263.496C22.0676 263.374 23.7347 262.53 24.927 261.142C27.9333 257.655 27.8776 251.155 27.0563 247.145C25.8997 241.66 22.1453 235.496 21.2586 232.363Z" fill="#FDDCB5"/>
<path d="M23.9196 232.757C23.0328 229.624 24.051 221.915 23.0299 218.013C22.0087 214.111 21.6537 209.293 13.9344 209.577C12.8147 209.585 11.7239 209.916 10.7825 210.535C6.49052 213.455 7.28451 222.521 9.01269 230.749C11.0728 240.593 8.60149 242.98 9.1896 248.728C9.7777 254.475 17.1697 264.439 22.9319 263.868C24.7248 263.746 26.3919 262.902 27.5843 261.514C30.5906 258.027 30.5348 251.527 29.7136 247.517C28.5893 242.056 24.8063 235.889 23.9196 232.757Z" fill="#F8961E"/>
<path d="M22.6064 232.719C21.7197 229.587 22.7447 221.876 21.7236 217.975C20.7024 214.073 20.3667 209.244 12.635 209.537C11.513 209.546 10.4201 209.878 9.47625 210.496C5.18548 213.424 5.98507 222.481 7.7064 230.711C9.76647 240.555 7.30205 242.941 7.8833 248.689C8.46456 254.438 15.8908 264.395 21.6225 263.852C23.4181 263.732 25.0879 262.888 26.2817 261.498C29.2812 258.011 29.2323 251.51 28.4042 247.501C27.283 242.017 23.4726 235.856 22.6064 232.719Z" fill="#FABA6B"/>
<path d="M16.4252 257.919L16.5485 257.897C17.5472 257.775 18.5614 258.01 19.4266 258.564C20.0033 258.966 20.7021 259.125 21.379 259.006C22.056 258.888 22.6596 258.502 23.0656 257.928C23.6737 257.137 24.517 256.581 25.4657 256.346C25.4812 256.909 25.4593 257.472 25.4001 258.031C25.3137 258.224 25.218 258.403 25.121 258.576C24.8705 258.776 24.6403 259.002 24.434 259.251C23.7525 260.134 22.7844 260.724 21.7086 260.912C20.6329 261.1 19.5221 260.874 18.5815 260.274C18.041 259.908 17.3947 259.758 16.7631 259.852C16.5678 259.891 16.3773 259.952 16.1944 260.033C15.865 259.788 15.5605 259.509 15.286 259.199L14.6738 258.566C15.1653 258.236 15.719 258.018 16.2993 257.926L16.4252 257.919Z" fill="#F8961E"/>
<path d="M16.1702 245.552C16.0847 245.508 15.743 244.886 15.6745 244.898C17.1464 244.431 18.7445 244.59 20.1238 245.342C20.3985 245.702 20.6195 245.996 20.6195 245.996C20.6195 245.996 16.8979 245.958 16.1702 245.552Z" fill="#F8961E"/>
<path d="M11.1884 249.052C11.7437 248.292 12.3528 247.576 13.0107 246.912C13.4149 246.699 13.8492 246.553 14.2981 246.479L14.5449 246.436C15.5435 246.314 16.5577 246.549 17.4229 247.103C17.9996 247.505 18.6984 247.664 19.3753 247.545C20.0523 247.427 20.6559 247.041 21.0619 246.467C21.1621 246.353 21.2679 246.231 21.3886 246.114C21.8569 246.544 22.2761 247.03 22.6375 247.561C22.5722 247.632 22.5569 248.272 22.4822 248.329C21.9353 248.958 21.2158 249.165 19.7013 249.43C18.6255 249.632 17.5099 249.404 16.574 248.792C16.3114 248.594 16.0146 248.453 15.701 248.376C15.3874 248.299 15.0633 248.287 14.7475 248.343C14.4317 248.398 14.1306 248.518 13.8618 248.697C13.593 248.876 13.3618 249.11 13.1817 249.385C13.005 249.586 11.6649 251.131 11.4427 251.355C10.9629 251.802 11.1123 251.687 10.1186 251.861C10.1504 251.6 10.2024 251.344 10.2739 251.093C10.4674 250.362 10.7765 249.673 11.1884 249.052Z" fill="#F8961E"/>
<path d="M12.8317 251.342C13.4252 250.779 14.1675 250.415 14.9652 250.295L15.2119 250.252C16.2117 250.131 17.2265 250.369 18.0912 250.926C18.6689 251.325 19.3667 251.481 20.0427 251.363C20.7187 251.245 21.3221 250.861 21.7302 250.29C22.1925 249.689 22.7883 249.217 23.4669 248.912C23.5852 249.165 23.7544 249.388 23.9626 249.566L24.1279 251.44C24.1279 251.44 23.4178 251.217 23.0936 251.584C22.4148 252.471 21.4465 253.064 20.3695 253.252C19.2925 253.44 18.1805 253.211 17.2411 252.607C16.9784 252.41 16.6817 252.269 16.3681 252.191C16.0545 252.114 15.7303 252.103 15.4145 252.158C15.0988 252.213 14.7977 252.334 14.5288 252.513C14.26 252.692 14.0288 252.926 13.8488 253.201C13.6721 253.402 13.4829 253.613 13.2514 253.823C12.8334 254.277 12.4955 254.805 12.2528 255.383C11.898 254.808 11.7709 254.808 11.4654 254.232L10.7619 252.955C11.3444 252.803 11.8593 252.453 12.2262 251.959C12.4178 251.742 12.6199 251.537 12.8317 251.342Z" fill="#F8961E"/>
<path d="M13.4975 255.15C14.0922 254.589 14.8349 254.228 15.6323 254.11L15.879 254.067C16.8776 253.945 17.8918 254.18 18.757 254.734C19.3347 255.133 20.0325 255.289 20.7085 255.171C21.3845 255.053 21.9879 254.669 22.396 254.098C23.0216 253.275 23.9018 252.705 24.8895 252.484C25.2148 252.931 25.3921 253.137 25.3921 253.137L25.1356 255.144C25.1356 255.144 24.1725 254.928 23.765 255.384C23.0835 256.267 22.1154 256.857 21.0396 257.045C19.9639 257.233 18.8531 257.006 17.9125 256.407C17.6508 256.207 17.3541 256.063 17.04 255.984C16.7259 255.905 16.4009 255.893 16.0843 255.949C15.7677 256.004 15.4661 256.126 15.1973 256.306C14.9286 256.487 14.6983 256.723 14.5202 257C14.3422 257.194 14.1543 257.412 13.9215 257.616C13.6285 257.338 13.3639 257.03 13.132 256.695C13.1244 256.652 12.65 256.039 12.6363 256.041L12.8964 255.751C13.0869 255.54 13.2876 255.34 13.4975 255.15Z" fill="#F8961E"/>
<path d="M23.7829 244.821C24.3795 244.704 24.9954 244.726 25.5876 244.883C25.8367 245.662 26.1313 245.529 26.1401 245.579C26.1489 245.629 25.1445 246.671 24.5195 246.692C24.3066 246.403 23.5946 245.684 23.5946 245.684L23.0989 245.03C23.0989 245.03 23.5293 244.866 23.7829 244.821Z" fill="#F8961E"/>
<path d="M21.0974 240.166C20.4186 241.053 19.4503 241.646 18.3733 241.834C17.2963 242.022 16.1843 241.793 15.2449 241.189C14.9829 240.99 14.6862 240.847 14.3723 240.769C14.0583 240.69 13.7336 240.679 13.4173 240.734C13.101 240.789 12.7995 240.91 12.5307 241.091C12.262 241.271 12.0314 241.506 11.8526 241.782C11.6746 241.976 9.60624 244.123 9.60624 244.123L9.1311 243.465L9.25939 242.502L9.41725 241.305C9.73989 241.092 10.0273 240.827 10.2686 240.519C10.4575 240.301 10.6569 240.093 10.866 239.896C11.4595 239.333 12.2018 238.969 12.9995 238.849L13.2462 238.806C14.246 238.686 15.2609 238.923 16.1255 239.48C16.7033 239.879 17.4011 240.035 18.077 239.917C18.753 239.799 19.3564 239.415 19.7645 238.844C20.2474 238.293 20.7838 237.363 21.9796 237.294C22.1566 237.309 22.3322 237.34 22.5044 237.388C22.517 237.459 22.9708 237.995 23.0001 238.041C23.217 238.514 23.0351 238.524 23.2707 239.023C23.1336 239.047 23.273 239.764 23.1085 239.792C22.2046 239.995 21.5691 239.632 21.0974 240.166Z" fill="#F8961E"/>
<path d="M21.866 243.875C21.5245 243.647 21.1279 243.528 20.7257 243.534L20.2301 242.88L20.4011 242.687C21.0761 241.796 22.0472 241.204 23.1264 241.026C23.4414 240.97 23.7613 240.946 24.0816 240.955C24.3986 241.677 24.5842 241.608 24.5842 241.608L24.7188 242.984C24.3025 242.891 23.8764 242.863 23.4543 242.901C22.8221 243 22.2537 243.348 21.866 243.875Z" fill="#F8961E"/>
<path d="M11.4963 243.704C12.091 243.143 12.8337 242.782 13.6311 242.664L13.8778 242.621C14.488 242.536 15.1108 242.594 15.7014 242.791C15.8505 243.023 16.0186 243.242 16.2039 243.444C16.2039 243.444 14.5485 243.266 14.0511 243.613C13.2297 244.205 12.4885 244.91 11.8468 245.709C11.5556 246.063 11.2683 246.439 11.0426 246.804C10.6475 247.009 10.2248 247.15 9.7881 247.224L9.66475 247.245C9.56988 247.482 9.4921 247.725 9.43206 247.975C9.43206 247.975 9.0796 247.251 8.88954 247.255C8.96071 246.894 8.88592 245.982 8.91997 245.369C9.0578 245.368 9.19534 245.359 9.33184 245.341C9.96224 245.203 10.5194 244.829 10.8995 244.289C11.089 244.084 11.2882 243.889 11.4963 243.704Z" fill="#F8961E"/>
<path d="M10.4808 210.951C10.7778 210.845 11.0809 210.757 11.3884 210.688C11.6414 210.65 11.8964 210.625 12.1523 210.614C12.946 210.578 13.7424 210.617 14.5316 210.731L15.0342 211.384L10.9752 211.597L10.4808 210.951Z" fill="#F8961E"/>
<path d="M13.7039 215.126C12.6268 215.326 11.5107 215.096 10.5754 214.481C9.9885 214.154 8.66403 214.86 8.46666 214.983C8.35636 214.64 8.21785 214.308 8.05273 213.989C8.20127 213.524 8.39789 213.077 8.63916 212.657C8.67496 212.586 8.71482 212.517 8.75852 212.451C8.84681 212.31 8.93888 212.19 9.03094 212.07C9.87021 212.072 10.6967 212.314 11.4205 212.771C11.9972 213.173 12.696 213.331 13.3729 213.213C14.0498 213.095 14.6534 212.709 15.0595 212.135C15.3569 211.774 15.694 211.452 16.0639 211.174C16.7101 211.454 17.2766 211.907 17.7059 212.487C17.5825 212.508 18.2016 213.14 18.2016 213.14C18.2016 213.14 16.7153 213.082 16.3992 213.456C15.7363 214.347 14.7753 214.943 13.7039 215.126Z" fill="#F8961E"/>
<path d="M17.0938 217.266C16.4123 218.149 15.4442 218.739 14.3684 218.927C13.2926 219.115 12.1819 218.888 11.2412 218.289C10.7046 217.907 10.0545 217.743 9.41662 217.831C8.76557 217.945 8.90216 218.928 8.57926 219.303C8.31246 218.787 8.00864 218.543 8.00579 217.84C8.00579 217.84 7.93569 216.268 7.93752 216.238C8.26605 216.1 8.60863 216.001 8.9591 215.941L9.2058 215.898C10.2055 215.781 11.2192 216.018 12.0851 216.572C12.6628 216.971 13.3606 217.127 14.0366 217.009C14.7126 216.891 15.316 216.507 15.7241 215.936C16.3968 215.042 17.3689 214.45 18.4494 214.274L18.6276 214.243C18.8278 214.823 19.1301 214.896 19.1301 214.896L19.0008 216.903C19.0008 216.903 17.5642 216.725 17.0938 217.266Z" fill="#F8961E"/>
<path d="M19.4039 220.017C18.7429 220.137 18.155 220.518 17.7609 221.082C17.0793 221.965 16.1113 222.554 15.0355 222.743C13.9597 222.931 12.849 222.704 11.9083 222.105C11.3704 221.725 10.7215 221.562 10.0837 221.646C9.6451 221.723 9.78774 222.579 9.5344 222.787C9.21047 222.367 8.95786 221.892 8.7878 221.384C8.7878 221.384 8.3699 220.206 8.35802 220.178C8.7578 219.973 9.18505 219.831 9.62619 219.757L9.87289 219.713C10.8715 219.591 11.8858 219.826 12.7509 220.38C13.3277 220.783 14.0264 220.941 14.7034 220.823C15.3803 220.704 15.9839 220.318 16.3899 219.744C17.0649 218.853 18.036 218.261 19.1152 218.083C19.2776 218.043 19.4424 218.014 19.6086 217.997C19.6225 218.076 20.093 218.586 20.1043 218.65C20.0752 219.211 19.5513 219.325 19.423 219.843C19.4269 219.946 19.4113 219.979 19.4039 220.017Z" fill="#F8961E"/>
<path d="M19.8278 228.703C19.4747 228.905 19.4186 228.382 19.1236 228.715C18.4421 229.598 17.474 230.188 16.3983 230.376C15.3225 230.564 14.2117 230.337 13.2711 229.738C12.7312 229.357 12.0795 229.195 11.4396 229.281C10.9818 229.366 10.5614 229.595 10.2335 229.936L9.26443 230.372C9.21418 230.085 8.40324 229.486 8.40324 229.486C8.40324 229.486 8.59915 228.748 8.59287 228.712L8.84551 228.461C9.44137 227.902 10.1835 227.54 10.9803 227.421L11.227 227.378C12.2289 227.255 13.2464 227.493 14.1131 228.051C14.6896 228.449 15.3862 228.605 16.0611 228.487C16.7359 228.369 17.3382 227.986 17.7453 227.416C18.3217 226.663 19.1099 226.119 20.0015 225.859C20.1693 226.068 20.3234 226.288 20.4629 226.518C20.4629 226.518 19.8233 228.637 19.8278 228.703Z" fill="#F8961E"/>
<path d="M16.9247 258.594L17.0481 258.573C18.048 258.449 19.0639 258.686 19.9274 259.247C20.5051 259.645 21.2029 259.802 21.8789 259.683C22.5548 259.565 23.1582 259.182 23.5664 258.61C24.1731 257.817 25.0161 257.258 25.9652 257.021C25.9812 257.584 25.9615 258.146 25.9065 258.705C25.8201 258.898 25.7244 259.077 25.6274 259.25C25.374 259.443 25.1455 259.67 24.9472 259.924C24.2657 260.807 23.2976 261.397 22.2219 261.585C21.1461 261.773 20.0353 261.546 19.0947 260.947C18.5547 260.566 17.9031 260.404 17.2632 260.49C17.0692 260.527 16.8809 260.59 16.7026 260.677C16.1928 260.254 15.7094 259.796 15.2556 259.308L15.1789 259.233C15.6704 258.903 16.2241 258.685 16.8044 258.593L16.9247 258.594Z" fill="#FDDCB5"/>
<path d="M16.4195 245.686L16.1701 245.552C17.6424 245.087 19.2396 245.247 20.6195 245.996C19.9534 246.305 19.2229 246.437 18.4912 246.383C17.7595 246.329 17.0485 246.09 16.4195 245.686Z" fill="#FDDCB5"/>
<path d="M11.6892 249.735C12.2439 248.971 12.8555 248.255 13.5183 247.593C13.9227 247.381 14.3569 247.235 14.8057 247.161L15.0525 247.118C16.0523 246.997 17.0671 247.235 17.9318 247.792C18.5095 248.191 19.2073 248.347 19.8833 248.229C20.5592 248.11 21.1626 247.727 21.5708 247.156L21.8962 246.795C22.3634 247.229 22.7846 247.714 23.152 248.242L22.946 248.478C22.2645 249.36 21.2964 249.95 20.2207 250.138C19.1449 250.327 18.0341 250.1 17.0935 249.501C16.8301 249.296 16.5304 249.149 16.2127 249.068C15.895 248.987 15.566 248.974 15.2455 249.03C14.925 249.086 14.6198 249.21 14.3485 249.394C14.0771 249.578 13.8452 249.818 13.6669 250.1C13.4958 250.293 13.2998 250.505 13.0683 250.716C12.4717 251.278 11.7275 251.642 10.928 251.764L10.7224 251.8C10.9335 251.059 11.2602 250.361 11.6892 249.735Z" fill="#FDDCB5"/>
<path d="M13.3312 252.017C13.9264 251.457 14.6688 251.096 15.466 250.977L15.7127 250.934C16.7114 250.808 17.7268 251.044 18.5907 251.601C19.1674 252.003 19.8662 252.162 20.5431 252.043C21.2201 251.925 21.8237 251.539 22.2297 250.965C22.6975 250.371 23.2918 249.899 23.9664 249.587C24.274 250.157 24.5489 250.744 24.7896 251.347C24.3193 251.544 23.9106 251.872 23.6062 252.294C22.9247 253.177 21.9566 253.767 20.8809 253.955C19.8051 254.143 18.6943 253.916 17.7537 253.317C17.4903 253.112 17.1906 252.965 16.8729 252.884C16.5552 252.803 16.2262 252.79 15.9057 252.846C15.5852 252.902 15.28 253.026 15.0086 253.21C14.7373 253.394 14.5054 253.634 14.3271 253.916C14.1379 254.132 13.9381 254.338 13.7285 254.532C13.2992 254.939 12.7877 255.241 12.2304 255.416C11.8757 254.841 11.5471 254.254 11.2197 253.675C11.8047 253.528 12.3212 253.177 12.684 252.678C12.888 252.446 13.1041 252.225 13.3312 252.017Z" fill="#FDDCB5"/>
<path d="M13.9933 255.804C14.5873 255.242 15.3293 254.878 16.1268 254.757L16.3735 254.714C17.3722 254.588 18.3876 254.823 19.2516 255.381C19.8283 255.783 20.527 255.941 21.204 255.823C21.8809 255.705 22.4845 255.319 22.8906 254.745C23.5225 253.926 24.4042 253.359 25.3922 253.137C25.5603 253.76 25.6943 254.392 25.7936 255.029C25.1816 255.163 24.6384 255.52 24.2608 256.038C23.5793 256.921 22.6112 257.51 21.5354 257.699C20.4597 257.887 19.3489 257.66 18.4082 257.061C18.1438 256.859 17.8441 256.714 17.5269 256.635C17.2097 256.556 16.8815 256.544 16.5619 256.599C16.2423 256.655 15.9377 256.778 15.6662 256.96C15.3947 257.142 15.162 257.38 14.9817 257.66C14.7931 257.878 14.5937 258.086 14.3843 258.283L14.3501 258.289C13.9393 257.798 13.5479 257.296 13.1733 256.769L13.0903 256.658L13.3491 256.361C13.5858 256.26 13.7749 256.049 13.9933 255.804Z" fill="#FDDCB5"/>
<path d="M24.2904 245.503C24.8888 245.388 25.5055 245.407 26.1007 245.557C26.346 246.309 26.5506 247.074 26.7134 247.849L26.7272 247.928L26.5794 247.85C26.1165 247.541 25.5802 247.378 25.0352 247.379C24.8235 247.098 24.6038 246.811 24.3716 246.533C24.1394 246.255 23.8529 245.95 23.6039 245.697C23.8271 245.613 24.0567 245.548 24.2904 245.503Z" fill="#FDDCB5"/>
<path d="M21.605 240.848C20.9235 241.73 19.9554 242.32 18.8797 242.508C17.8039 242.696 16.6931 242.47 15.7525 241.871C15.489 241.666 15.1894 241.519 14.8717 241.438C14.554 241.357 14.2249 241.344 13.9044 241.4C13.584 241.456 13.2788 241.579 13.0074 241.763C12.7361 241.947 12.5042 242.188 12.3259 242.47C12.1388 242.688 11.9389 242.894 11.7273 243.085C11.1307 243.648 10.3865 244.012 9.58695 244.134C9.62327 243.816 9.66645 243.498 9.70838 243.172C9.7503 242.846 9.80204 242.415 9.8595 242.057L9.84569 241.978C10.1683 241.766 10.4557 241.5 10.6971 241.192C10.875 240.998 11.0629 240.78 11.2945 240.569C11.8896 240.01 12.6321 239.648 13.4292 239.53L13.6759 239.487C14.6747 239.361 15.69 239.596 16.554 240.153C17.1307 240.556 17.8295 240.714 18.5064 240.596C19.1833 240.477 19.787 240.091 20.193 239.517C20.6758 238.966 21.2191 238.034 22.4161 237.973C22.5901 237.988 22.7629 238.017 22.9329 238.061C22.9454 238.133 22.9922 238.198 23.0254 238.267C23.2478 238.731 23.4754 239.225 23.7029 239.718C23.5531 239.736 23.4044 239.762 23.2574 239.796C22.5946 239.91 22.0031 240.286 21.605 240.848Z" fill="#FDDCB5"/>
<path d="M22.3666 244.558C21.8608 244.148 21.3097 243.804 20.7257 243.534L20.8968 243.341C21.5717 242.45 22.5428 241.858 23.6221 241.68C23.9394 241.622 24.2624 241.6 24.5854 241.615C24.8892 242.302 25.1918 243.064 25.4758 243.799C25.0036 243.553 24.4679 243.479 23.9562 243.591C23.3241 243.686 22.7549 244.032 22.3666 244.558Z" fill="#FDDCB5"/>
<path d="M11.9971 244.386C12.591 243.824 13.3331 243.46 14.1306 243.339L14.3773 243.296C14.9905 243.21 15.6167 243.27 16.209 243.472L16.0514 243.499C15.5193 243.696 15.0155 243.966 14.5531 244.302C13.731 244.894 12.9897 245.599 12.3488 246.398C12.0615 246.747 11.793 247.113 11.5446 247.494C11.1498 247.698 10.7269 247.84 10.2901 247.913L10.0503 247.955C9.846 247.978 9.64046 247.989 9.43462 247.989C9.39286 247.345 9.38863 246.701 9.42197 246.058C9.55979 246.057 9.69733 246.048 9.83386 246.03C10.4617 245.904 11.0208 245.543 11.4078 245.015C11.5938 244.795 11.7905 244.585 11.9971 244.386Z" fill="#FDDCB5"/>
<path d="M10.9802 211.626C11.2734 211.508 11.578 211.422 11.8891 211.371C12.1289 211.329 12.3825 211.284 12.6586 211.288C13.4519 211.211 14.2536 211.252 15.0392 211.412C14.5777 211.693 14.0699 211.882 13.5407 211.971C12.6781 212.14 11.782 212.019 10.9802 211.626Z" fill="#FDDCB5"/>
<path d="M14.2065 215.779C13.1307 215.979 12.0159 215.751 11.0792 215.141C10.538 214.763 9.8875 214.601 9.24777 214.684C8.99364 214.732 8.7497 214.825 8.5259 214.958C8.53938 214.793 8.54921 214.687 8.55663 214.649C8.70356 214.182 8.89739 213.734 9.13494 213.311L9.26116 213.104C9.34395 212.971 9.43493 212.844 9.53356 212.723C10.3721 212.725 11.1973 212.971 11.9175 213.432C12.4952 213.831 13.193 213.987 13.869 213.869C14.545 213.75 15.1484 213.367 15.5565 212.796C15.855 212.432 16.194 212.106 16.5666 211.827C17.2121 212.108 17.7783 212.561 18.2085 213.139C17.6897 213.316 17.2366 213.653 16.9087 214.107C16.2411 214.997 15.2789 215.592 14.2065 215.779Z" fill="#FDDCB5"/>
<path d="M17.6001 217.94C16.9185 218.823 15.9505 219.413 14.8747 219.601C13.7989 219.789 12.6881 219.563 11.7475 218.964C11.2051 218.589 10.5556 218.427 9.91604 218.506C9.39599 218.608 8.9258 218.888 8.57922 219.303C8.48905 218.536 8.44387 217.765 8.44392 216.994L8.43136 216.922C8.75786 216.778 9.10044 216.676 9.45167 216.618L9.69837 216.575C10.6971 216.449 11.7125 216.684 12.5764 217.241C13.1532 217.644 13.8519 217.802 14.5288 217.684C15.2058 217.565 15.8094 217.179 16.2154 216.605C16.8903 215.714 17.8614 215.122 18.9407 214.944L19.1052 214.915C19.2998 215.503 19.4664 216.133 19.6337 216.807C19.5069 216.822 19.381 216.844 19.2568 216.873C18.5901 216.99 17.9965 217.372 17.6001 217.94Z" fill="#FDDCB5"/>
<path d="M19.9058 220.706C19.2505 220.817 18.6636 221.185 18.2634 221.734C17.5845 222.621 16.6162 223.214 15.5392 223.402C14.4623 223.59 13.3502 223.361 12.4108 222.757C11.8671 222.393 11.2192 222.243 10.5856 222.336C10.2251 222.401 9.88638 222.557 9.59854 222.79C9.28205 222.21 9.04278 221.589 8.88746 220.944C8.87979 220.919 8.87515 220.892 8.87364 220.865C9.26859 220.654 9.69378 220.51 10.1337 220.438L10.3804 220.395C11.3804 220.268 12.3973 220.506 13.2597 221.069C13.8374 221.467 14.5352 221.624 15.2112 221.505C15.8872 221.387 16.4906 221.004 16.8987 220.432C17.5699 219.536 18.5417 218.941 19.6227 218.764C19.8009 218.733 19.9585 218.705 20.1162 218.678C20.1312 218.764 20.145 218.843 20.1601 218.929C20.1345 219.478 20.057 220.023 19.9287 220.554C19.9287 220.554 19.912 220.661 19.9058 220.706Z" fill="#FDDCB5"/>
<path d="M20.4857 228.588C20.1488 228.801 19.8501 229.074 19.6026 229.394C18.921 230.277 17.953 230.867 16.8772 231.055C15.8014 231.243 14.6906 231.016 13.75 230.417C13.2088 230.039 12.5583 229.877 11.9185 229.96C11.4574 230.046 11.0347 230.277 10.7068 230.623L9.55492 230.417L9.27131 230.371C9.22106 230.083 9.17458 229.818 9.12684 229.544C9.11995 229.484 9.10946 229.424 9.09543 229.365L9.35493 229.112C9.9489 228.55 10.691 228.186 11.4884 228.065L11.7352 228.022C12.7339 227.896 13.7493 228.132 14.6132 228.689C15.1899 229.091 15.8887 229.249 16.5656 229.131C17.2426 229.013 17.8462 228.627 18.2522 228.053C18.8271 227.303 19.6135 226.761 20.5028 226.504C20.4739 227.227 20.4755 227.923 20.4857 228.588Z" fill="#FDDCB5"/>
</svg>
