<svg width="217" height="208" viewBox="0 0 217 208" fill="none" xmlns="http://www.w3.org/2000/svg">
<path d="M191.588 59.8642C190.43 57.0625 189.408 54.1986 188.121 51.4644C179.76 34.1223 167.003 21.525 148.905 14.7995C143.943 13.0045 138.748 11.9629 133.491 11.7089C132.022 11.623 130.899 12.0393 130.6 13.6551C130.331 15.1832 131.167 16.3723 132.883 16.706C138.24 17.6652 143.452 19.332 148.384 21.6633C163.636 29.1026 175.172 40.3253 182.266 55.9525C187.444 67.3725 188.562 79.1249 184.608 91.124C180.763 102.709 172.92 110.455 161.802 114.936C156.929 116.869 151.803 118.087 146.581 118.552C145.176 115.056 143.94 111.571 142.419 108.227C136.468 95.1857 127.446 84.6679 116.122 76.1015C111.035 72.2542 105.745 68.6754 99.7886 66.3908C91.7166 63.2833 83.8074 63.5316 76.8591 69.1607C70.7144 74.1284 69.4256 80.8989 71.1655 88.3751C73.3538 97.8069 78.9003 105.07 86.266 110.96C99.4802 121.515 114.855 126.276 131.383 127.738C134.135 127.984 136.9 128.014 139.775 128.142C140.444 134.388 139.902 140.699 138.177 146.723C132.064 167.655 118.045 179.908 96.9177 183.46C82.7045 185.846 69.626 182.025 57.8705 173.562C57.2857 173.147 56.7404 172.685 56.1212 172.308C55.7659 172.062 55.3659 171.891 54.9447 171.804C54.5236 171.717 54.0899 171.716 53.6691 171.801C53.2484 171.885 52.8491 172.054 52.4949 172.298C52.1406 172.541 51.8385 172.854 51.6065 173.218C50.5241 174.736 50.657 176.373 52.2099 177.623C63.9107 187.153 76.959 193.256 92.2612 193.352C103.323 193.421 113.261 189.81 122.129 183.316C133.717 174.83 142.066 163.889 146.295 149.9C148.289 143.459 148.992 136.677 148.366 129.947C148.291 129.182 148.28 128.416 148.236 127.783C152.342 126.796 156.389 126.02 160.327 124.876C172.654 121.18 182.856 114.541 188.876 102.646C193.492 93.4873 195.053 83.7247 194.175 73.5097C194.049 71.9839 193.923 70.4558 193.796 68.9254L191.588 59.8642ZM137.886 119.085C137.541 119.094 137.324 119.125 137.104 119.112C119.347 118.319 103.13 113.065 88.815 102.115C81.0737 96.1993 78.0089 88.6612 80.2024 79.0611C81.4452 73.604 84.5686 71.2725 89.9581 72.4349C93.4375 73.0832 96.8122 74.2198 99.9839 75.8115C113.179 82.9477 123.444 93.4298 131.669 105.99C134.334 110.044 136.427 114.452 137.886 119.085V119.085Z" fill="#F28D00"/>
<path d="M39.6853 171.08C45.9323 169.578 51.5228 168.175 57.1399 166.882C58.9121 166.456 60.777 166.476 62.5888 166.245C64.611 165.986 65.8753 164.592 65.7312 162.848C65.5925 161.309 64.4415 160.495 62.3581 160.469C52.9653 160.358 43.7904 161.934 34.6924 164.042C31.7297 164.754 30.6145 166.859 31.3639 169.825C33.354 177.697 36.0389 185.377 39.3863 192.772C40.297 194.814 41.4379 196.669 43.6851 197.526C46.7588 198.66 49.1788 196.834 48.6635 193.578C48.2756 191.782 47.6834 190.036 46.8988 188.376C44.5783 182.729 42.1963 177.097 39.6853 171.08Z" fill="#F28D00"/>
</svg>
