<svg width="538" height="220" viewBox="0 0 538 220" fill="none" xmlns="http://www.w3.org/2000/svg">
<path d="M292.955 100.496C289.593 99.6117 281.405 106.774 279.464 103.872C277.738 101.292 286.955 96.9266 286.75 93.8245C285.868 80.4738 275.999 72.3572 262.447 71.2078C258.333 70.859 251.056 82.4682 248.148 79.5204C245.407 76.7421 256.765 69.8666 256.035 66.0224C255.514 63.2816 252.157 60.8494 249.413 61.0134C247.121 61.1496 244.631 68.481 242.668 67.2843C240.623 66.0377 245.994 60.256 245.172 57.9961C242.502 50.6592 232.072 42.3772 225.67 46.1409C223.066 47.6711 228.191 57.7529 225.22 58.2685C221.483 58.9162 223.079 47.079 220.726 43.6962C215.876 36.7165 203.211 30.0203 197.563 35.6213C188.608 44.5023 199.643 64.4936 210.394 72.1015C214.872 75.2703 221.152 70.6908 221.639 73.4983C222.04 75.804 214.025 75.4913 213.334 77.7261C212.798 79.4578 213.844 80.7698 215.497 81.512C218.59 82.9004 227.638 75.583 228.774 78.7935C229.848 81.8247 218.295 81.6774 217.449 84.7795C215.169 93.1421 220.034 97.937 228.343 100.68C232.846 102.168 244.143 92.0135 246.722 96.0135C249.116 99.7257 235.731 105.496 235.835 109.921C236.133 122.648 250.909 133.685 263.203 136.223C268.226 137.259 280.674 126.257 283.007 130.851C284.904 134.587 269.936 137.226 270.053 141.419C270.093 142.84 272.138 143.561 273.51 143.869C276.708 144.589 284.983 138.795 286.448 141.744C287.465 143.792 279.858 145.798 279.889 148.086C280.51 194.709 312.37 170.326 335.408 170.917C335.408 170.917 342.053 113.407 292.954 100.493L292.955 100.496Z" fill="url(#paint0_linear_291_771)"/>
<path d="M308.941 158.743C308.941 158.743 256.677 89.252 211.549 48.4828C240.56 82.0707 308.941 158.743 308.941 158.743Z" fill="url(#paint1_linear_291_771)"/>
<path d="M336.57 74.1946C337.048 70.0834 349.239 73.155 352.702 70.9215C356.966 68.1724 360.508 63.8848 361.45 59.5444C361.726 58.2671 359.133 55.4291 360.055 54.5062C360.915 53.6446 363.556 56.1601 364.727 55.8349C368.412 54.8078 372.909 52.0463 372.429 49.0623C368.075 21.9231 295.414 61.9182 293.745 125.387C313.726 126.415 353.928 105.339 346.945 79.0061C346.208 76.2307 336.238 77.0493 336.57 74.1959V74.1946Z" fill="url(#paint2_linear_291_771)"/>
<path d="M346.011 47.4112C346.011 47.4112 304.222 63.1621 289.749 134.478C310.611 66.1739 346.011 47.4112 346.011 47.4112Z" fill="url(#paint3_linear_291_771)"/>
<path d="M369.552 120.859C368.864 119.891 367.411 119.217 364.865 118.715C359.306 117.618 370.991 112.24 372.775 106.102C373.993 101.909 375.25 97.1837 373.811 91.9135C369.263 98.6319 363.772 97.1865 365.868 93.4478C367.868 89.8802 371.087 86.5821 373.811 82.3237C373.05 78.8894 371.983 75.3662 370.576 71.754C363.817 74.278 356.808 77.4245 349.851 81.0464C347.485 85.5967 342.745 93.5312 341.674 93.0823C340.829 92.7265 340.847 89.3826 340.655 86.1346C298.16 111.06 314.646 128.203 318.835 156.022C318.835 156.022 353.462 155.327 369.552 120.859Z" fill="#36746D"/>
<path d="M180.964 89.2242C180.964 89.2242 161.451 54.6397 166.338 33.9591C185.134 54.2964 180.964 89.2242 180.964 89.2242Z" fill="url(#paint4_linear_291_771)"/>
<path d="M183.2 94.2053C183.2 94.2053 145.107 104.817 126.359 95.0073C150.546 81.6246 183.2 94.2053 183.2 94.2053Z" fill="url(#paint5_linear_291_771)"/>
<path d="M188.825 102.476C188.825 102.476 150.731 113.083 131.986 103.277C156.172 89.8913 188.825 102.476 188.825 102.476Z" fill="url(#paint6_linear_291_771)"/>
<path d="M192.847 108.236C192.847 108.236 162.927 134.224 141.813 133.432C157.981 110.922 192.847 108.236 192.847 108.236Z" fill="url(#paint7_linear_291_771)"/>
<path d="M198.371 113.568C198.371 113.568 180.607 149.092 160.799 156.484C167.177 129.464 198.371 113.568 198.371 113.568Z" fill="url(#paint8_linear_291_771)"/>
<path d="M183.218 95.9176C183.218 95.9176 204.64 62.4978 200.926 41.5739C181.016 60.8092 183.218 95.9176 183.218 95.9176Z" fill="url(#paint9_linear_291_771)"/>
<path d="M193.792 106.34C193.792 106.34 227.372 85.3605 232.915 64.8466C206.738 73.6595 193.792 106.34 193.792 106.34Z" fill="url(#paint10_linear_291_771)"/>
<path d="M181.388 91.7995C181.388 91.7995 151.917 69.5623 129.317 68.1433C139.023 83.4606 181.388 91.7995 181.388 91.7995Z" fill="url(#paint11_linear_291_771)"/>
<path d="M189.283 99.7897C189.283 99.7897 217.807 72.26 218.999 51.0345C195.209 65.1176 189.283 99.7897 189.283 99.7897Z" fill="url(#paint12_linear_291_771)"/>
<path d="M200.206 109.707C200.206 109.707 231.115 103.822 241.036 90.1915C219.077 89.1797 200.206 109.707 200.206 109.707Z" fill="url(#paint13_linear_291_771)"/>
<path d="M247.022 193.447C247.022 193.447 200.115 102.358 154.063 57.8238C184.096 91.0546 247.022 193.447 247.022 193.447Z" fill="url(#paint14_linear_291_771)"/>
<path d="M202.154 120.536C202.154 120.536 209.866 139.462 198.632 154.916C196.533 147.354 202.154 120.536 202.154 120.536Z" fill="url(#paint15_linear_291_771)"/>
<path d="M201.485 115.447C201.485 115.447 229.748 106.033 240.232 111.334C227.865 117.527 201.485 115.447 201.485 115.447Z" fill="url(#paint16_linear_291_771)"/>
<path d="M205.758 122.644C205.758 122.644 221.633 123.86 225.934 131.025C221.415 132.15 205.758 122.644 205.758 122.644Z" fill="url(#paint17_linear_291_771)"/>
<path d="M182.769 91.5674C182.769 91.5674 138.936 62.9717 131.69 43.0027C158.511 49.5571 182.769 91.5674 182.769 91.5674Z" fill="url(#paint18_linear_291_771)"/>
<path d="M100.094 142.88C96.172 85.5467 70.6249 58.7105 44.5791 46.6871C90.4611 79.8456 102.844 183.09 100.094 142.88Z" fill="#34706B"/>
<path d="M94.2048 108.305C94.097 160.269 94.278 76.2182 115.052 13.9692C103.188 36.9653 94.289 67.7208 94.2048 108.305Z" fill="#34706B"/>
<path d="M119.891 46.3174C101.459 58.1226 97.8115 79.4356 94.7295 105.381C108.052 53.3624 156.252 23.0309 119.891 46.3174Z" fill="url(#paint19_linear_291_771)"/>
<path d="M77.5596 11.0714C91.7028 57.6959 95.8596 136.801 95.8596 136.801C102.625 73.9069 90.9513 34.8263 77.5596 11.0714Z" fill="url(#paint20_linear_291_771)"/>
<path d="M65.7651 27.3574C83.4145 61.782 100.862 117.606 98.7444 197.01C98.2996 213.69 114.697 96.1205 65.7651 27.3574Z" fill="#34706B"/>
<path d="M101.42 129.636C96.6858 151.006 94.586 173.432 98.6116 193.564C99.026 195.635 97.4898 164.952 101.42 129.636Z" fill="#34706B"/>
<path d="M112.255 73.5984C97.914 93.3297 91.1283 125.028 87.9399 153.679C101.354 93.1254 135.922 41.0375 112.255 73.5984Z" fill="#34706B"/>
<path d="M86.9507 136.331C101.379 175.053 107.725 219.999 107.725 219.999C107.21 184.127 98.378 156.841 86.9507 136.331Z" fill="#34706B"/>
<path d="M48.4527 78.4808C17.0525 68.0682 62.0821 80.6781 91.2928 133.108C81.1806 105.97 57.4031 81.4481 48.4527 78.4808Z" fill="url(#paint21_linear_291_771)"/>
<path d="M391.714 37.6768C408.475 46.7677 415.313 71.6248 417.296 99.5311C402.118 33.178 351.992 16.1303 391.714 37.6768Z" fill="url(#paint22_linear_291_771)"/>
<path d="M413.624 102.557C401.656 49.4264 417.581 18.058 437.973 0C405.296 42.6844 422.017 139.818 413.624 102.557Z" fill="url(#paint23_linear_291_771)"/>
<path d="M408.834 90.8947C418.922 109 426.902 128.784 428.7 148.167C428.885 150.161 421.968 121.881 408.834 90.8947Z" fill="#34706B"/>
<path d="M387.423 65.7945C405.084 80.667 416.124 101.794 426.778 126.933C398.198 75.6316 362.755 45.0207 387.423 65.7945Z" fill="#34706B"/>
<path d="M395.057 57.2025C410.641 93.1323 418.882 135.359 418.882 135.359C416.61 101.428 406.893 76.043 395.057 57.2025Z" fill="#34706B"/>
<path d="M437.908 42.0951C465.833 27.7785 426.128 47.8268 413.81 103.439C415.639 76.0278 421.901 50.3034 437.908 42.0951Z" fill="#34706B"/>
<path d="M263.68 161.865H352.939C326.009 143.347 287.903 118.558 257.308 104.154L251.173 117.791L251.805 101.641C250.654 101.134 249.517 100.643 248.394 100.169L245.591 107.127L245.574 99.0089C233.425 94.1292 223.12 91.5747 216.144 92.6685L215.926 101.925L212.619 93.6608C211.117 94.3182 209.865 95.2452 208.893 96.4683C203.263 103.549 209.372 114.618 221.438 127.09L226.502 126.259L223.373 129.053C230.262 135.91 238.823 143.143 248.13 150.335L255.472 147.203C255.472 147.203 253.634 149.533 251.157 152.652C255.236 155.75 259.436 158.831 263.681 161.864L263.68 161.865Z" fill="url(#paint24_linear_291_771)"/>
<path d="M313.323 170.862C313.323 170.862 268.242 136.847 220.772 152.652C173.301 168.457 272.341 157.462 313.323 170.862Z" fill="url(#paint25_linear_291_771)"/>
<path d="M303.15 166.763C303.15 166.763 316.468 122.989 384.431 124.707C452.393 126.425 323.3 136.323 303.15 166.763Z" fill="url(#paint26_linear_291_771)"/>
<path d="M303.15 155.564C303.15 155.564 280.61 98.25 218.795 119.553C156.981 140.855 267.974 123.2 303.15 155.564Z" fill="url(#paint27_linear_291_771)"/>
<path d="M291.752 158.72C291.752 158.72 279.015 109.587 335.074 105.463C391.133 101.34 296.192 116.458 291.752 158.72Z" fill="url(#paint28_linear_291_771)"/>
<path d="M299.915 106.675C299.915 106.675 303.254 65.4431 287.721 60.3994C276.501 56.7553 288.558 81.5929 299.915 106.675Z" fill="url(#paint29_linear_291_771)"/>
<path d="M301.26 173.898C301.26 173.898 286.234 129.232 258.229 117.093C230.225 104.953 308.546 83.6499 301.26 173.898Z" fill="url(#paint30_linear_291_771)"/>
<path d="M303.614 158.878C303.614 158.878 296.451 126.596 241.658 135.186C186.864 143.777 274.025 133.952 303.614 158.878Z" fill="url(#paint31_linear_291_771)"/>
<path d="M296.232 154.394C296.232 154.394 319.559 93.5121 285.179 75.1886C250.799 56.8637 304.175 91.1564 296.232 154.394Z" fill="url(#paint32_linear_291_771)"/>
<path d="M300.414 145.424C300.414 145.424 302.58 93.558 270.366 88.196C238.152 82.8354 296.884 106.803 300.414 145.424Z" fill="url(#paint33_linear_291_771)"/>
<path d="M300.951 104.36C300.951 104.36 304.131 50.6512 295.023 47.6742C285.915 44.6958 294.332 67.7781 300.951 104.36Z" fill="url(#paint34_linear_291_771)"/>
<path d="M299.448 166.763C299.448 166.763 303.834 142.916 368.722 151.162C433.61 159.408 326.822 152.127 299.448 166.763Z" fill="url(#paint35_linear_291_771)"/>
<path d="M301.495 80.7715C301.495 80.7715 297.383 46.8083 305.428 38.5555C313.472 30.3027 303.563 56.4204 301.495 80.7715Z" fill="url(#paint36_linear_291_771)"/>
<path d="M300.133 116.964C300.133 116.964 292.083 65.6544 310.754 53.9715C329.424 42.29 302.262 62.9039 300.133 116.964Z" fill="url(#paint37_linear_291_771)"/>
<path d="M299.944 118.547C299.944 118.547 299.466 75.0941 315.956 69.3138C332.445 63.5321 306.598 89.8652 299.944 118.547Z" fill="url(#paint38_linear_291_771)"/>
<path d="M288.645 161.414C288.645 161.414 291.872 126.983 344.295 117.835C396.718 108.689 303.16 132.02 288.645 161.414Z" fill="url(#paint39_linear_291_771)"/>
<path d="M296.631 182.613C296.631 182.613 289.265 129.6 315.221 122.436C341.177 115.27 306.728 150.774 296.631 182.613Z" fill="url(#paint40_linear_291_771)"/>
<path d="M293.588 163.548C293.588 163.548 334.114 154.045 340.717 173.456C347.321 192.868 307.021 166.297 293.588 163.548Z" fill="url(#paint41_linear_291_771)"/>
<path d="M297.516 162.05C297.516 162.05 285.141 94.7046 319.977 83.939C354.812 73.1748 301.467 94.706 297.516 162.05Z" fill="url(#paint42_linear_291_771)"/>
<path d="M233.948 160.343C232.147 163.248 243.863 136.402 267.52 141.19C291.177 145.978 240.062 150.485 233.948 160.343Z" fill="url(#paint43_linear_291_771)"/>
<path d="M238.439 168.821C238.439 168.821 246.27 138.612 211.803 136.077C177.336 133.542 235.709 142.837 238.439 168.821Z" fill="url(#paint44_linear_291_771)"/>
<path d="M240.432 150.434C240.432 150.434 241.488 125.275 225.81 121.588C210.132 117.901 234.105 132.144 240.432 150.434Z" fill="url(#paint45_linear_291_771)"/>
<path d="M239.696 172.739C239.696 172.739 230.958 133.542 252.096 122.276C273.233 111.009 239.136 127.391 239.696 172.739Z" fill="url(#paint46_linear_291_771)"/>
<path d="M239.204 154.72C239.204 154.72 244.658 133.297 258.453 135.094C272.248 136.893 245.363 139.404 239.204 154.72Z" fill="url(#paint47_linear_291_771)"/>
<path d="M242.74 173.789C242.74 173.789 249.429 139.667 228.011 133.049C174.894 121.038 240.31 132.384 242.74 173.789Z" fill="url(#paint48_linear_291_771)"/>
<path d="M239.977 155.151C239.977 155.151 244.925 123.603 233.447 116.422C221.968 109.239 238.668 121.915 239.977 155.151Z" fill="url(#paint49_linear_291_771)"/>
<path d="M240.364 149.091C240.364 149.091 239.934 113.981 245.533 112.15C251.133 110.318 244.432 126.598 240.364 149.091Z" fill="url(#paint50_linear_291_771)"/>
<path d="M240.685 139.568C240.685 139.568 242.651 121.784 239.081 118.122C235.512 114.46 239.768 128.764 240.685 139.568Z" fill="url(#paint51_linear_291_771)"/>
<path d="M239.733 173.723C239.733 173.723 227.372 147.286 240.997 137.836C254.623 128.388 239.185 153.182 239.733 173.723Z" fill="url(#paint52_linear_291_771)"/>
<path d="M239.091 162.577C237.773 166.561 237.681 147.297 250.876 146.629C260.175 146.159 242.491 152.296 239.091 162.577Z" fill="url(#paint53_linear_291_771)"/>
<path d="M233.923 147.9C231.501 144.526 218.803 145.158 218.864 140.997C218.915 137.529 230.076 138.745 231.576 135.624C232.579 133.538 231.354 130.279 229.42 129.04C222.007 124.294 196.076 140.288 194.367 131.618C192.751 123.424 222.772 128.883 225.908 121.147C227.774 116.542 222.651 109.862 217.853 108.654C210.468 106.796 193.762 127.391 189.895 120.793C186.212 114.508 212.344 110.225 212.846 102.946C212.904 102.112 211.892 101.33 211.074 101.181C209.608 100.914 206.618 104.649 205.601 103.554C204.641 102.52 208.438 99.9081 208.17 98.5183C207.245 93.7345 201.03 88.9382 196.225 90.0362C189.68 91.5316 186.741 115.555 180.905 112.219C175.103 108.903 194.198 94.0778 191.933 87.7624C190.951 85.0217 186.766 83.9668 183.844 84.3809C182.126 84.6242 179.79 89.0633 178.179 88.4156C176.749 87.8402 177.859 82.6423 175.427 81.9585C170.707 80.6312 164.57 76.8675 161.142 80.142C153.512 87.4302 170.701 121.229 160.253 122.473C149.598 123.741 158.263 86.745 149.368 80.709C148.33 80.0044 146.444 80.3032 145.665 81.2816C144.171 83.1551 148.345 90.1668 146.066 90.8839C143.672 91.6372 143.025 83.2941 140.696 82.356C138.084 81.3039 133.748 82.2628 132.662 84.8577C131.747 87.0439 138.536 92.3641 136.484 93.533C134.372 94.7352 133.228 86.2364 130.902 85.5428C127.183 84.4338 121.407 86.9229 120.494 90.7047C120.236 91.7734 120.526 92.9826 121.185 94.2779C119.981 93.5677 118.63 93.066 117.103 92.845C113.994 92.3947 109.875 95.4273 109.6 98.5808C109.23 102.841 123.058 108.533 120.352 111.831C117.51 115.295 109.042 102.621 104.631 103.31C100.13 104.014 95.2522 109.494 96.03 114.07C97.0854 120.27 117.98 123.261 115.993 129.225C113.797 135.82 94.4745 126.005 88.3409 129.213C86.9069 129.963 85.723 132.601 86.7757 133.859C90.1119 137.843 107.231 131.283 107.322 136.491C107.413 141.661 90.9242 136.454 87.0299 139.83C83.9271 142.519 83.3525 152.685 89.0855 155.098C93.7078 157.043 107.087 146.039 108.667 150.822C110.234 155.564 93.7423 150.936 90.5857 159.115C89.7706 161.229 91.5196 164.514 93.8556 165.575C96.6931 166.862 104.839 160.364 106.087 163.233C107.242 165.889 97.7485 164.265 96.8119 170.117C96.805 170.162 96.8492 170.211 96.8906 170.229C113.442 176.9 132.542 151.922 147.592 149.758C158.452 148.198 186.501 169.737 190.409 159.425C192.119 154.909 171.858 154.527 173.618 150.031C179.294 135.52 221.054 173.855 233.81 164.995C238.565 161.693 237.193 152.466 233.922 147.904L233.923 147.9ZM136.397 116.222C132.564 119.002 131.489 109.944 127.767 102.276C133.485 108.019 139.898 113.683 136.397 116.222Z" fill="url(#paint54_linear_291_771)"/>
<path d="M56.3534 149.899C44.5324 142.644 32.4779 132.696 23.562 119.293C59.604 122.593 90.2956 144.415 99.6065 151.667C89.9309 143.628 58.9367 116.034 52.2132 87.2384C69.4551 93.9805 89.6131 117.182 98.1228 127.466C92.8029 114.911 79.3338 84.9994 75.0402 61.1986C96.4886 76.2435 109.051 101.638 116.174 122.573C114.554 111.043 113.71 97.348 114.975 82.5575C124.439 93.6233 128.499 106.791 130.014 118.405C131.318 105.189 134.096 88.2711 139.796 69.1526C149.459 90.4461 148.666 108.934 145.359 122.238C153.683 105.1 160.038 88.3781 176.307 75.4165C179.961 95.6663 166.811 114.696 153.187 131.443C162.176 123.673 178.201 115.242 189.045 114.945C183.149 130.254 173.151 138.962 163.098 147.314C176.625 146.337 185.832 142.581 207.572 158.291C179.538 161.012 143.1 166.456 140.782 170.111H76.5695C58.5237 165.676 36.0987 158.988 16 149.575C31.754 147.528 45.1872 148.073 56.3534 149.9V149.899Z" fill="url(#paint55_linear_291_771)"/>
<path d="M101.911 180.275C96.3755 163.903 86.914 140.704 62.1309 144.187C80.4267 154.462 104.411 187.669 101.911 180.275Z" fill="#1B6038"/>
<path d="M105.981 190.701C84.1221 146.067 69.9457 128.892 37.7856 94.1681C75.2684 125.006 102.429 168.728 105.981 190.701Z" fill="#34706B"/>
<path d="M117.65 165.858C117.65 165.858 87.9775 157.172 73.645 123.468C103.567 138.234 118.391 161.73 117.65 165.858Z" fill="#1B6038"/>
<path d="M94.7949 167.744C94.7949 167.744 93.2104 159.808 87.0464 159.263C85.3693 164.944 92.9203 178.917 94.7949 167.744Z" fill="url(#paint56_linear_291_771)"/>
<path d="M399.435 134.444C399.435 134.444 372.102 91.7734 332.609 93.5885C347.115 98.685 368.117 111.841 399.435 134.444Z" fill="#1B6038"/>
<path d="M399.083 139.628C399.083 139.628 336.544 80.8702 314.787 124.069C323.464 130.131 358.379 110.233 399.083 139.628Z" fill="#93C3A1"/>
<path d="M486.928 140.378C463.522 138.889 451.876 137.482 441.604 140.403C446.065 137.909 487.203 116.311 486.526 98.9727C475.057 96.6378 449.399 105.401 442.434 128.565C437.83 122.774 456.249 94.7449 479.791 70.8287C466.82 67.6293 431.506 120.756 427.296 125.032C428.672 122.871 461.418 65.5488 454.729 45.9744C419.353 62.8372 416.183 107.663 410.028 119.646C410.428 107.686 405.813 57.9659 396.041 49.2864C372.729 72.566 388.033 119.634 388.961 136.151C386.86 125.787 354.938 78.1795 331.631 72.9135C341.518 81.5874 364.786 97.7566 382.054 145.358C378.997 141.891 321.27 106.269 307.801 111.655C368.412 130.591 357.808 163.511 404.127 163.511C414.935 163.511 475.373 167.711 486.928 140.378Z" fill="url(#paint57_linear_291_771)"/>
<path d="M457.492 157.386C457.492 157.386 470.448 126.136 526.261 106.793C502.367 109.731 465.039 136.173 457.492 157.386Z" fill="#34706B"/>
<path d="M364.909 82.4227C364.909 82.4227 403.128 100.679 409.611 164.578C392.444 132.347 378.374 93.2619 364.909 82.4227Z" fill="#1B6038"/>
<path d="M523.219 134.153C508.296 129.575 479.301 138.352 464.192 148.891C478.524 134.761 497.806 136.441 507.03 122.419C496.714 121.645 474.15 133.4 460.969 143.621C503.679 110.265 506.442 103.779 509.895 88.1432C503.334 88.4906 494.604 94.0736 490.721 97.1076C487.211 99.8511 475.931 109.669 472.453 112.436C475.898 107.861 486.729 95.936 489.784 91.255C498.32 78.1795 499.555 64.4591 497.842 61.4738C496.937 61.6128 485.436 76.4436 483.082 79.6041C476.129 88.9354 452.318 134.091 452.179 134.067C452.973 126.223 465.261 106.029 466.151 104.458C471.613 94.8296 474.541 72.1087 471.487 65.2333C458.83 71.8169 454.383 123.391 447.284 129.585C449.476 119.737 454.591 84.8048 453.9 74.7147C453.613 70.5341 453.492 66.833 451.336 63.0373C445.559 67.4959 445.223 77.5277 443.811 83.4094C442.113 90.4739 441.653 121.795 441.253 128.846C438.378 118.742 440.065 82.4477 431.833 74.2991C427.295 84.5269 428.463 90.9673 428.963 99.1965C429.2 103.078 432.232 116.164 432.704 120.029C431.892 119.66 424.025 92.8366 415.08 86.9215C416.67 94.4516 419.108 104.55 422.667 118.346C411.416 100.609 403.245 94.9269 398.75 91.1105C397.447 94.0138 402.491 113.612 407.207 120.804C408.518 122.805 411.034 127.22 413.415 130.689C412.846 129.941 401.665 118.539 399.045 115.952C395.661 112.612 391.207 108.906 385.643 108.639C384.785 108.597 383.798 108.615 382.787 108.718C387.021 124.829 399.775 130.312 429.459 149.168C403.979 135.991 387.557 126.104 376.245 123.763C377.933 142.609 417.29 154.602 435.826 155.985C451.759 159.494 486.266 163.383 489.225 162.984C503.331 160.933 507.747 166.63 517.344 164.774C512.95 157.557 494.525 147.971 489.279 147.79C495.608 146.78 512.678 142.893 523.215 134.155L523.219 134.153Z" fill="url(#paint58_linear_291_771)"/>
<path d="M442.133 165.443C438.722 148.494 435.286 123.656 458.441 114.111C447.775 132.258 443.673 173.098 442.133 165.443Z" fill="url(#paint59_linear_291_771)"/>
<path d="M454.61 169.231C454.61 169.231 436.654 123.681 407.898 120.111C426.778 142.812 449.394 170.887 454.61 169.231Z" fill="url(#paint60_linear_291_771)"/>
<path d="M442.32 160.763C442.32 160.763 437.916 134.588 470.294 124.686C459.894 141.907 463.732 168.755 442.32 160.763Z" fill="url(#paint61_linear_291_771)"/>
<path d="M471.506 108.355C471.506 108.355 449.012 143.236 448.302 176.882C447.918 159.006 451.528 130.28 471.506 108.355Z" fill="#34706B"/>
<path d="M422.514 164.688C422.514 164.688 415.802 150.146 398.554 150.728C407.543 160.39 416.509 158.775 422.514 164.688Z" fill="#448272"/>
<path d="M417.847 168.515C417.847 168.515 416.383 151.859 426.811 140.634C427.556 159.515 417.847 168.515 417.847 168.515Z" fill="#448272"/>
<path d="M498.527 166.588C501.509 162.467 512.012 150.949 512.012 150.949C505.067 152.75 497.165 163.294 497.165 163.294C500.81 158.201 506.746 146.31 506.746 146.31C499.684 151.684 495.021 162.464 494.699 163.205C500.516 149.91 502.345 125.154 502.345 125.154C495.634 135.423 491.213 165.866 490.922 168.902C494.08 168.972 496.303 168.974 496.303 168.974C501.512 168.858 508.43 164.218 508.43 164.218C504.474 163.093 498.528 166.588 498.528 166.588H498.527Z" fill="url(#paint62_linear_291_771)"/>
<path d="M483.365 166.608C482.564 163.636 481.806 115.664 481.806 115.664C475.698 133.952 477.417 155.777 477.417 155.777C474.715 138.127 470.916 136.331 470.916 136.331C468.186 141.3 473.572 160.319 474.503 164.979C470.891 147.994 459.691 142.874 459.691 142.874C460.663 154.52 472.207 166.211 472.207 166.211C469.777 164.157 461.082 166.211 461.082 166.211C464.515 168.514 478.746 169.292 487.86 169.556L485.968 166.554C487.604 164.326 489.042 161.116 489.858 156.83C484.914 160.682 483.362 166.608 483.362 166.608H483.365Z" fill="url(#paint63_linear_291_771)"/>
<path d="M490.836 132.94C490.836 132.94 480.754 150.243 480.609 169.031C482.209 171.139 483.809 168.799 483.809 168.799C483.809 168.799 491.113 139.337 490.838 132.94H490.836Z" fill="url(#paint64_linear_291_771)"/>
<path d="M339.097 162.628C339.097 162.628 428.913 150.118 492.8 167.854H227.382C227.382 167.854 287.135 163.816 339.097 162.628Z" fill="#2A6549"/>
<path d="M526.214 172.757C523.789 170.379 499.991 164.843 474.31 164.843C445.527 164.843 407.535 164.494 373.002 164.843C335.944 165.219 302.871 166.49 289.445 172.757H526.214Z" fill="url(#paint65_linear_291_771)"/>
<path d="M369.754 163.028C370.297 158.796 386.677 164.244 386.677 164.244C387.885 157.121 383.912 153.406 382.774 151.26L379.123 151.74L381.663 149.304C379.791 146.22 377.357 140.851 373.511 141.529C370.108 142.129 365.217 152.356 362.606 150.076C359.824 147.647 372.524 139.85 369.933 137.212C368.062 135.305 362.722 144.085 360.625 142.431C358.531 140.78 364.444 134.58 363.435 132.103C362.693 130.28 360.147 129.039 358.144 129.321C352.509 130.111 345.697 147.529 340.969 144.345C336.805 141.54 349.676 129.706 347.365 125.232C347.115 124.748 346.307 124.594 345.795 124.784C342.354 126.07 340.982 138.427 337.583 137.033C334.401 135.729 341.981 126.287 340.047 123.429C337.854 120.187 331.656 119.759 328.174 121.907C326.099 123.187 326.69 131.264 324.286 130.884C322.032 130.53 323.793 119.944 316.833 121.934C310.915 123.627 321.801 145.887 315.696 146.67C309.56 147.457 313.642 126.17 308.387 122.886C306.518 121.718 303.279 122.44 302.006 124.173C300.067 126.813 305.937 136.33 302.813 137.282C299.658 138.245 299.259 127.002 296.181 125.816C292.448 124.374 286.505 126.619 285.403 130.246C284.921 131.831 289.764 134.852 288.61 136.035C286.368 138.332 275.401 129.189 275.962 134.072C276.195 136.104 276.696 137.879 277.395 139.439C275.907 138.712 274.46 138.323 273.089 138.444C268.176 138.879 276.001 145.769 274.571 147.583C273.333 149.154 269.19 143.937 267.253 144.407C265.236 144.896 263.132 147.48 263.704 149.418C265.046 153.961 282.104 153.119 280.682 157.637C279.192 162.376 265.511 151.976 261.186 154.379C258.531 155.854 255.823 162.782 258.822 163.131C301.288 168.066 386.585 170.339 386.585 170.339C386.784 168.877 386.887 168.857 386.887 167.359C386.887 166.989 386.88 166.621 386.867 166.254C386.867 166.254 369.197 167.371 369.755 163.028H369.754ZM300.538 153.936C297.742 155.94 293.863 153.095 289.636 149.318C297.065 151.789 304.048 151.42 300.538 153.936Z" fill="url(#paint66_linear_291_771)"/>
<path d="M363.048 170.382C363.048 170.382 369.733 166.333 374.604 153.183C374.604 153.183 362.703 157.12 363.048 170.382Z" fill="url(#paint67_linear_291_771)"/>
<path d="M366.251 169.045C366.251 169.045 366.851 152.132 362.306 145.714C362.306 145.714 357.293 153.401 360.435 169.713L366.251 169.045Z" fill="url(#paint68_linear_291_771)"/>
<path d="M359.534 167.652C359.267 166.678 358.137 154.817 354.523 150.553C354.523 150.553 350.843 164.28 359.534 167.652Z" fill="url(#paint69_linear_291_771)"/>
<path d="M357.284 165.412C357.284 165.412 353.84 157.028 336.859 153.819C339.543 157.616 356.246 165.495 357.284 165.412Z" fill="url(#paint70_linear_291_771)"/>
<path d="M111.869 138.332C111.869 138.332 106.136 159.801 113.581 170.323C118.725 154.657 111.869 138.332 111.869 138.332Z" fill="#0F4124"/>
<path d="M82.9683 125.822C82.9683 125.822 84.7448 124.376 116.207 169.776C110.093 126.852 82.9683 125.822 82.9683 125.822Z" fill="#0F4124"/>
<path d="M164.423 113.263C171.483 138.689 155.686 139.104 157.358 163.476C157.642 167.624 147.653 158.93 164.423 113.263Z" fill="url(#paint71_linear_291_771)"/>
<path d="M150.847 158.949C150.847 158.949 162.23 129.945 181.388 125.849C176.476 138.644 165.461 153.679 150.847 158.949Z" fill="url(#paint72_linear_291_771)"/>
<path d="M169.644 157.085C169.644 157.085 167.851 132.765 153.6 125.72C155.052 136.541 164.022 148.906 169.644 157.085Z" fill="url(#paint73_linear_291_771)"/>
<path d="M159.562 164.382C159.562 164.382 157.731 138.047 142.844 120.354C142.844 138.841 147.348 126.424 159.562 164.382Z" fill="url(#paint74_linear_291_771)"/>
<path d="M97.7966 164.725C97.7966 164.725 88.8586 153.933 82.7319 154.342C82.7319 154.342 84.7848 167.464 93.6467 171.325L97.7966 164.725Z" fill="#34706B"/>
<path d="M99.5911 170.829C99.5911 170.829 90.1821 163.562 93.3594 146.122C93.3594 146.122 103.469 158.118 99.5911 170.829Z" fill="#34706B"/>
<path d="M102.618 141.404C102.618 141.404 95.2217 156.479 99.8882 171.424C99.8882 171.424 111.542 161.581 102.618 141.404Z" fill="#34706B"/>
<path d="M166.298 162.565C166.298 162.565 156.895 133.661 104.845 122.241C94.4797 119.966 91.2858 124.159 94.9839 124.787C100.15 125.664 94.4852 129.43 105.124 129.65C108.168 129.713 105.526 136.819 113.209 136.345C117.746 136.066 116.135 144.153 121.861 143.313C129.448 142.2 126.203 151.153 133.681 149.875C142.369 148.389 139.475 157.889 142.845 156.436C152.937 152.087 147.763 162.586 155.535 157.736C160.44 164.526 166.3 162.567 166.3 162.567L166.298 162.565Z" fill="url(#paint75_linear_291_771)"/>
<path d="M150.355 163.266C150.355 163.266 164.247 155.487 187.756 159.576C175.868 147.678 157.613 152.539 150.355 163.266Z" fill="url(#paint76_linear_291_771)"/>
<path d="M147.113 165.512C147.113 165.512 132.192 122.012 106.284 112.144C121.53 112.204 139.84 135.982 147.113 165.512Z" fill="#1B6038"/>
<path d="M147.509 164.382C147.509 164.382 125.507 137.774 117.18 134.184C127.239 132.893 136.628 149.764 147.509 164.382Z" fill="#1B6038"/>
<path d="M134.218 167.071C134.218 167.071 150.894 136.813 198.011 136.813C210.097 136.813 209.808 140.678 205.585 140.396C199.146 139.967 202.067 146.131 197.037 145.295C185.195 143.327 193.738 152.115 181.635 151.187C175.293 150.7 176.761 158.418 166.772 157.476C161.865 157.013 161.165 164.076 154.266 163.109C142.291 161.43 140.484 167.273 134.217 167.071H134.218Z" fill="url(#paint77_linear_291_771)"/>
<path d="M192.595 144.814C192.595 144.814 190.916 156.602 196.356 162.545C196.356 162.545 198.042 155.9 192.595 144.814Z" fill="url(#paint78_linear_291_771)"/>
<path d="M187.756 150.987C187.756 150.987 190.359 156.935 194.394 160.567C194.394 160.567 195.705 155.658 187.756 150.987Z" fill="url(#paint79_linear_291_771)"/>
<path d="M204.176 146.395C204.176 146.395 204.367 156.007 197.889 158.514C191.413 161.021 197.258 150.275 204.176 146.395Z" fill="url(#paint80_linear_291_771)"/>
<path d="M443.716 172.757C414.474 163.317 298.993 156.249 221.35 156.249C143.708 156.249 20.2465 164.761 0 172.757H443.716Z" fill="url(#paint81_linear_291_771)"/>
<path d="M538 172.757C508.758 169.181 393.277 166.503 315.634 166.503C237.991 166.503 114.53 169.729 94.2837 172.757H538Z" fill="url(#paint82_linear_291_771)"/>
<path d="M430.202 172.757H458.463C460.893 171.508 464.855 169.485 467.614 168.164C467.614 168.164 462.431 167.234 455.399 170.745C456.514 168.164 461.07 161.966 462.767 160.407C462.767 160.407 455.884 162.158 452.118 168.164C452.189 164.458 452.006 158.827 449.793 155.181C449.793 155.181 447.623 160.643 447.794 167.441C445.391 163.962 441.031 159.394 434.05 157.782C434.05 157.782 438.192 165.651 442.912 170.91C440.261 170.323 434.335 170.497 430.203 172.757H430.202Z" fill="#4E8877"/>
<path d="M113.527 150.302C107.91 152.959 109.76 154.824 112.892 154.019C118.563 152.564 117.945 160.161 125.978 156.709C129.716 155.102 131.371 161.274 134.959 159.897C139.927 157.99 141.297 162.226 144.979 159.897C150.227 156.577 150.967 161.116 164.091 157.208C160.84 147.74 124.215 145.243 113.527 150.3V150.302Z" fill="url(#paint83_linear_291_771)"/>
<path d="M220.98 172.757C224.519 168.658 226.518 164.15 226.518 164.15C221.558 167.041 218.04 170.492 216.04 172.757H220.98Z" fill="#36746D"/>
<path d="M206.414 172.757H211.796C207.059 165.544 197.516 164.66 197.516 164.66C199.247 168.726 203.936 171.517 206.414 172.757Z" fill="#36746D"/>
<path d="M215.654 172.757C217.673 168.285 216.697 162.501 216.697 162.501C211.607 167.704 211.706 171.398 211.988 172.757H215.654Z" fill="#36746D"/>
<defs>
<linearGradient id="paint0_linear_291_771" x1="250.889" y1="68.4393" x2="273.016" y2="112.658" gradientUnits="userSpaceOnUse">
<stop stop-color="#4E8877"/>
<stop offset="1" stop-color="#36746D"/>
</linearGradient>
<linearGradient id="paint1_linear_291_771" x1="256.897" y1="29.2253" x2="259.927" y2="95.7047" gradientUnits="userSpaceOnUse">
<stop stop-color="#4E8877"/>
<stop offset="1" stop-color="#36746D"/>
</linearGradient>
<linearGradient id="paint2_linear_291_771" x1="356.434" y1="72.0292" x2="320.857" y2="86.5186" gradientUnits="userSpaceOnUse">
<stop stop-color="#4E8877"/>
<stop offset="1" stop-color="#36746D"/>
</linearGradient>
<linearGradient id="paint3_linear_291_771" x1="319.277" y1="105.624" x2="314.556" y2="56.6326" gradientUnits="userSpaceOnUse">
<stop stop-color="#34706B"/>
<stop offset="1" stop-color="#36746D"/>
</linearGradient>
<linearGradient id="paint4_linear_291_771" x1="232.419" y1="160.814" x2="168.933" y2="53.8078" gradientUnits="userSpaceOnUse">
<stop stop-color="#4E8877"/>
<stop offset="1" stop-color="#36746D"/>
</linearGradient>
<linearGradient id="paint5_linear_291_771" x1="206.35" y1="182.582" x2="142.869" y2="75.5836" gradientUnits="userSpaceOnUse">
<stop stop-color="#4E8877"/>
<stop offset="1" stop-color="#36746D"/>
</linearGradient>
<linearGradient id="paint6_linear_291_771" x1="47.1956" y1="84.2815" x2="76.1371" y2="88.9908" gradientUnits="userSpaceOnUse">
<stop stop-color="#4E8877"/>
<stop offset="1" stop-color="#36746D"/>
</linearGradient>
<linearGradient id="paint7_linear_291_771" x1="44.5408" y1="100.612" x2="73.4816" y2="105.322" gradientUnits="userSpaceOnUse">
<stop stop-color="#4E8877"/>
<stop offset="1" stop-color="#36746D"/>
</linearGradient>
<linearGradient id="paint8_linear_291_771" x1="42.6161" y1="112.468" x2="71.5577" y2="117.177" gradientUnits="userSpaceOnUse">
<stop stop-color="#4E8877"/>
<stop offset="1" stop-color="#36746D"/>
</linearGradient>
<linearGradient id="paint9_linear_291_771" x1="206.595" y1="30.8973" x2="186.356" y2="79.6857" gradientUnits="userSpaceOnUse">
<stop stop-color="#4E8877"/>
<stop offset="1" stop-color="#36746D"/>
</linearGradient>
<linearGradient id="paint10_linear_291_771" x1="231.627" y1="41.2807" x2="211.388" y2="90.0705" gradientUnits="userSpaceOnUse">
<stop stop-color="#4E8877"/>
<stop offset="1" stop-color="#36746D"/>
</linearGradient>
<linearGradient id="paint11_linear_291_771" x1="197.5" y1="102.84" x2="152.718" y2="79.6673" gradientUnits="userSpaceOnUse">
<stop stop-color="#4E8877"/>
<stop offset="1" stop-color="#36746D"/>
</linearGradient>
<linearGradient id="paint12_linear_291_771" x1="220.086" y1="36.4928" x2="199.847" y2="85.2825" gradientUnits="userSpaceOnUse">
<stop stop-color="#4E8877"/>
<stop offset="1" stop-color="#36746D"/>
</linearGradient>
<linearGradient id="paint13_linear_291_771" x1="225.756" y1="65.1445" x2="221.983" y2="93.9489" gradientUnits="userSpaceOnUse">
<stop stop-color="#4E8877"/>
<stop offset="1" stop-color="#36746D"/>
</linearGradient>
<linearGradient id="paint14_linear_291_771" x1="222.207" y1="161.73" x2="150.832" y2="41.4275" gradientUnits="userSpaceOnUse">
<stop stop-color="#4E8877"/>
<stop offset="1" stop-color="#36746D"/>
</linearGradient>
<linearGradient id="paint15_linear_291_771" x1="42.7148" y1="111.757" x2="71.6583" y2="116.465" gradientUnits="userSpaceOnUse">
<stop stop-color="#4E8877"/>
<stop offset="1" stop-color="#36746D"/>
</linearGradient>
<linearGradient id="paint16_linear_291_771" x1="244.463" y1="153.653" x2="180.984" y2="46.6581" gradientUnits="userSpaceOnUse">
<stop stop-color="#4E8877"/>
<stop offset="1" stop-color="#36746D"/>
</linearGradient>
<linearGradient id="paint17_linear_291_771" x1="234.9" y1="159.332" x2="171.414" y2="52.3273" gradientUnits="userSpaceOnUse">
<stop stop-color="#4E8877"/>
<stop offset="1" stop-color="#36746D"/>
</linearGradient>
<linearGradient id="paint18_linear_291_771" x1="236.25" y1="202.512" x2="157.04" y2="69.004" gradientUnits="userSpaceOnUse">
<stop stop-color="#4E8877"/>
<stop offset="1" stop-color="#36746D"/>
</linearGradient>
<linearGradient id="paint19_linear_291_771" x1="106.867" y1="100.679" x2="118.448" y2="45.6758" gradientUnits="userSpaceOnUse">
<stop stop-color="#34706B"/>
<stop offset="1" stop-color="#34706B"/>
</linearGradient>
<linearGradient id="paint20_linear_291_771" x1="78.9124" y1="99.2955" x2="92.2176" y2="52.4204" gradientUnits="userSpaceOnUse">
<stop stop-color="#34706B"/>
<stop offset="1" stop-color="#34706B"/>
</linearGradient>
<linearGradient id="paint21_linear_291_771" x1="7.98144" y1="73.6695" x2="62.3547" y2="101.484" gradientUnits="userSpaceOnUse">
<stop stop-color="#34706B"/>
<stop offset="1" stop-color="#34706B"/>
</linearGradient>
<linearGradient id="paint22_linear_291_771" x1="399.833" y1="152.735" x2="395.905" y2="30.8821" gradientUnits="userSpaceOnUse">
<stop stop-color="#34706B"/>
<stop offset="1" stop-color="#34706B"/>
</linearGradient>
<linearGradient id="paint23_linear_291_771" x1="409.503" y1="55.4499" x2="437.973" y2="55.4499" gradientUnits="userSpaceOnUse">
<stop stop-color="#34706B"/>
<stop offset="1" stop-color="#34706B"/>
</linearGradient>
<linearGradient id="paint24_linear_291_771" x1="206.778" y1="127.142" x2="352.939" y2="127.142" gradientUnits="userSpaceOnUse">
<stop stop-color="#36756D"/>
<stop offset="1" stop-color="#5A8E86"/>
</linearGradient>
<linearGradient id="paint25_linear_291_771" x1="226.905" y1="145.19" x2="251.021" y2="159.109" gradientUnits="userSpaceOnUse">
<stop stop-color="#317065"/>
<stop offset="1" stop-color="#1B6038"/>
</linearGradient>
<linearGradient id="paint26_linear_291_771" x1="357.565" y1="117.036" x2="355.799" y2="130.102" gradientUnits="userSpaceOnUse">
<stop stop-color="#317065"/>
<stop offset="1" stop-color="#1B6038"/>
</linearGradient>
<linearGradient id="paint27_linear_291_771" x1="235.832" y1="116.661" x2="247.37" y2="134.348" gradientUnits="userSpaceOnUse">
<stop stop-color="#317065"/>
<stop offset="1" stop-color="#1B6038"/>
</linearGradient>
<linearGradient id="paint28_linear_291_771" x1="335.94" y1="94.1778" x2="318.131" y2="126.663" gradientUnits="userSpaceOnUse">
<stop stop-color="#317065"/>
<stop offset="1" stop-color="#1B6038"/>
</linearGradient>
<linearGradient id="paint29_linear_291_771" x1="289.423" y1="66.908" x2="292.413" y2="76.1537" gradientUnits="userSpaceOnUse">
<stop stop-color="#8FC19E"/>
<stop offset="1" stop-color="#538882"/>
</linearGradient>
<linearGradient id="paint30_linear_291_771" x1="263.9" y1="101.49" x2="278.384" y2="128.726" gradientUnits="userSpaceOnUse">
<stop stop-color="#317065"/>
<stop offset="1" stop-color="#1B6038"/>
</linearGradient>
<linearGradient id="paint31_linear_291_771" x1="257.384" y1="131.741" x2="264.437" y2="150.244" gradientUnits="userSpaceOnUse">
<stop stop-color="#317065"/>
<stop offset="1" stop-color="#1B6038"/>
</linearGradient>
<linearGradient id="paint32_linear_291_771" x1="282.517" y1="107.63" x2="267.532" y2="95.4564" gradientUnits="userSpaceOnUse">
<stop stop-color="#36756D"/>
<stop offset="1" stop-color="#5A8E86"/>
</linearGradient>
<linearGradient id="paint33_linear_291_771" x1="276.515" y1="100.086" x2="303.148" y2="132.643" gradientUnits="userSpaceOnUse">
<stop stop-color="#317065"/>
<stop offset="1" stop-color="#1B6038"/>
</linearGradient>
<linearGradient id="paint34_linear_291_771" x1="295.834" y1="58.5343" x2="297.582" y2="78.5113" gradientUnits="userSpaceOnUse">
<stop stop-color="#8FC19E"/>
<stop offset="1" stop-color="#538882"/>
</linearGradient>
<linearGradient id="paint35_linear_291_771" x1="363.439" y1="132.065" x2="350.145" y2="151.497" gradientUnits="userSpaceOnUse">
<stop stop-color="#317065"/>
<stop offset="1" stop-color="#1B6038"/>
</linearGradient>
<linearGradient id="paint36_linear_291_771" x1="306.491" y1="34.6835" x2="290.403" y2="136.475" gradientUnits="userSpaceOnUse">
<stop stop-color="#8FC19E"/>
<stop offset="1" stop-color="#538882"/>
</linearGradient>
<linearGradient id="paint37_linear_291_771" x1="304.63" y1="84.4977" x2="316.947" y2="61.6275" gradientUnits="userSpaceOnUse">
<stop stop-color="#36756D"/>
<stop offset="1" stop-color="#5A8E86"/>
</linearGradient>
<linearGradient id="paint38_linear_291_771" x1="316.126" y1="82.7493" x2="305.057" y2="95.8659" gradientUnits="userSpaceOnUse">
<stop stop-color="#8FC19E"/>
<stop offset="1" stop-color="#538882"/>
</linearGradient>
<linearGradient id="paint39_linear_291_771" x1="336.824" y1="110.335" x2="332.713" y2="119.092" gradientUnits="userSpaceOnUse">
<stop stop-color="#317065"/>
<stop offset="1" stop-color="#1B6038"/>
</linearGradient>
<linearGradient id="paint40_linear_291_771" x1="329.979" y1="107.49" x2="312.571" y2="135.875" gradientUnits="userSpaceOnUse">
<stop stop-color="#317065"/>
<stop offset="1" stop-color="#1B6038"/>
</linearGradient>
<linearGradient id="paint41_linear_291_771" x1="342.019" y1="155.774" x2="322.564" y2="167.956" gradientUnits="userSpaceOnUse">
<stop stop-color="#317065"/>
<stop offset="1" stop-color="#1B6038"/>
</linearGradient>
<linearGradient id="paint42_linear_291_771" x1="311.799" y1="113.698" x2="309.236" y2="128.055" gradientUnits="userSpaceOnUse">
<stop stop-color="#317065"/>
<stop offset="1" stop-color="#1B6038"/>
</linearGradient>
<linearGradient id="paint43_linear_291_771" x1="267.468" y1="130.8" x2="248.659" y2="159.535" gradientUnits="userSpaceOnUse">
<stop stop-color="#34706B"/>
<stop offset="1" stop-color="#2D6E5D"/>
</linearGradient>
<linearGradient id="paint44_linear_291_771" x1="217.611" y1="141.086" x2="236.419" y2="169.821" gradientUnits="userSpaceOnUse">
<stop stop-color="#317065"/>
<stop offset="1" stop-color="#538882"/>
</linearGradient>
<linearGradient id="paint45_linear_291_771" x1="243.871" y1="115.355" x2="225.062" y2="144.09" gradientUnits="userSpaceOnUse">
<stop stop-color="#34706B"/>
<stop offset="1" stop-color="#437D75"/>
</linearGradient>
<linearGradient id="paint46_linear_291_771" x1="258.739" y1="125.086" x2="239.931" y2="153.821" gradientUnits="userSpaceOnUse">
<stop stop-color="#34706B"/>
<stop offset="1" stop-color="#437D75"/>
</linearGradient>
<linearGradient id="paint47_linear_291_771" x1="261.636" y1="126.982" x2="242.828" y2="155.717" gradientUnits="userSpaceOnUse">
<stop stop-color="#34706B"/>
<stop offset="1" stop-color="#437D75"/>
</linearGradient>
<linearGradient id="paint48_linear_291_771" x1="246.906" y1="117.341" x2="228.098" y2="146.076" gradientUnits="userSpaceOnUse">
<stop stop-color="#34706B"/>
<stop offset="1" stop-color="#2D6E5D"/>
</linearGradient>
<linearGradient id="paint49_linear_291_771" x1="246.316" y1="116.956" x2="227.508" y2="145.691" gradientUnits="userSpaceOnUse">
<stop stop-color="#34706B"/>
<stop offset="1" stop-color="#5A8E86"/>
</linearGradient>
<linearGradient id="paint50_linear_291_771" x1="249.962" y1="119.342" x2="231.153" y2="148.077" gradientUnits="userSpaceOnUse">
<stop stop-color="#34706B"/>
<stop offset="1" stop-color="#5A8E86"/>
</linearGradient>
<linearGradient id="paint51_linear_291_771" x1="246.683" y1="117.196" x2="227.875" y2="145.931" gradientUnits="userSpaceOnUse">
<stop stop-color="#34706B"/>
<stop offset="1" stop-color="#5A8E86"/>
</linearGradient>
<linearGradient id="paint52_linear_291_771" x1="259.344" y1="125.482" x2="240.536" y2="154.217" gradientUnits="userSpaceOnUse">
<stop stop-color="#34706B"/>
<stop offset="1" stop-color="#2D6E5D"/>
</linearGradient>
<linearGradient id="paint53_linear_291_771" x1="262.065" y1="127.263" x2="243.256" y2="155.998" gradientUnits="userSpaceOnUse">
<stop stop-color="#34706B"/>
<stop offset="1" stop-color="#2D6E5D"/>
</linearGradient>
<linearGradient id="paint54_linear_291_771" x1="169.972" y1="70.926" x2="163.361" y2="128.881" gradientUnits="userSpaceOnUse">
<stop stop-color="#317065"/>
<stop offset="1" stop-color="#1B6038"/>
</linearGradient>
<linearGradient id="paint55_linear_291_771" x1="112.019" y1="155.175" x2="102.584" y2="105.509" gradientUnits="userSpaceOnUse">
<stop stop-color="#36756D"/>
<stop offset="1" stop-color="#5A8E86"/>
</linearGradient>
<linearGradient id="paint56_linear_291_771" x1="83.7375" y1="152.886" x2="92.257" y2="168.141" gradientUnits="userSpaceOnUse">
<stop stop-color="#448272"/>
<stop offset="1" stop-color="#1B6038"/>
</linearGradient>
<linearGradient id="paint57_linear_291_771" x1="426.036" y1="65.5752" x2="407.9" y2="103.363" gradientUnits="userSpaceOnUse">
<stop stop-color="#317065"/>
<stop offset="1" stop-color="#1B6038"/>
</linearGradient>
<linearGradient id="paint58_linear_291_771" x1="449.155" y1="132.664" x2="453.581" y2="111.132" gradientUnits="userSpaceOnUse">
<stop stop-color="#2D6E5D"/>
<stop offset="1" stop-color="#538882"/>
</linearGradient>
<linearGradient id="paint59_linear_291_771" x1="453.853" y1="110.777" x2="445.588" y2="137.734" gradientUnits="userSpaceOnUse">
<stop stop-color="#448272"/>
<stop offset="1" stop-color="#1B6038"/>
</linearGradient>
<linearGradient id="paint60_linear_291_771" x1="402.338" y1="118.747" x2="438.182" y2="147.553" gradientUnits="userSpaceOnUse">
<stop stop-color="#448272"/>
<stop offset="1" stop-color="#1B6038"/>
</linearGradient>
<linearGradient id="paint61_linear_291_771" x1="473.226" y1="106.315" x2="447.478" y2="157.449" gradientUnits="userSpaceOnUse">
<stop stop-color="#448272"/>
<stop offset="1" stop-color="#1B6038"/>
</linearGradient>
<linearGradient id="paint62_linear_291_771" x1="515.111" y1="128.276" x2="495.758" y2="160.51" gradientUnits="userSpaceOnUse">
<stop stop-color="#174A1F"/>
<stop offset="1" stop-color="#0F4124"/>
</linearGradient>
<linearGradient id="paint63_linear_291_771" x1="488.8" y1="130.888" x2="475.907" y2="152.362" gradientUnits="userSpaceOnUse">
<stop stop-color="#174A1F"/>
<stop offset="1" stop-color="#0F4124"/>
</linearGradient>
<linearGradient id="paint64_linear_291_771" x1="496.45" y1="135.482" x2="483.558" y2="156.955" gradientUnits="userSpaceOnUse">
<stop stop-color="#174A1F"/>
<stop offset="1" stop-color="#0F4124"/>
</linearGradient>
<linearGradient id="paint65_linear_291_771" x1="407.829" y1="171.428" x2="407.829" y2="183.263" gradientUnits="userSpaceOnUse">
<stop stop-color="#1B6038"/>
<stop offset="1" stop-color="#326E66"/>
</linearGradient>
<linearGradient id="paint66_linear_291_771" x1="295.722" y1="78.6823" x2="317.137" y2="144.16" gradientUnits="userSpaceOnUse">
<stop stop-color="#34706B"/>
<stop offset="1" stop-color="#0F4124"/>
</linearGradient>
<linearGradient id="paint67_linear_291_771" x1="368.905" y1="154.602" x2="368.761" y2="169.2" gradientUnits="userSpaceOnUse">
<stop stop-color="#448272"/>
<stop offset="1" stop-color="#326E66"/>
</linearGradient>
<linearGradient id="paint68_linear_291_771" x1="365.26" y1="150.335" x2="361.417" y2="168.915" gradientUnits="userSpaceOnUse">
<stop stop-color="#448272"/>
<stop offset="1" stop-color="#326E66"/>
</linearGradient>
<linearGradient id="paint69_linear_291_771" x1="358.713" y1="150.805" x2="354.87" y2="169.384" gradientUnits="userSpaceOnUse">
<stop stop-color="#448272"/>
<stop offset="1" stop-color="#326E66"/>
</linearGradient>
<linearGradient id="paint70_linear_291_771" x1="348.608" y1="152.093" x2="345.986" y2="164.769" gradientUnits="userSpaceOnUse">
<stop stop-color="#448272"/>
<stop offset="1" stop-color="#326E66"/>
</linearGradient>
<linearGradient id="paint71_linear_291_771" x1="158.926" y1="144.293" x2="165.326" y2="125.322" gradientUnits="userSpaceOnUse">
<stop stop-color="#34706B"/>
<stop offset="1" stop-color="#36746D"/>
</linearGradient>
<linearGradient id="paint72_linear_291_771" x1="166.551" y1="134.972" x2="166.997" y2="127.45" gradientUnits="userSpaceOnUse">
<stop stop-color="#34706B"/>
<stop offset="1" stop-color="#36746D"/>
</linearGradient>
<linearGradient id="paint73_linear_291_771" x1="159.877" y1="148.506" x2="164.652" y2="129.294" gradientUnits="userSpaceOnUse">
<stop stop-color="#34706B"/>
<stop offset="1" stop-color="#36746D"/>
</linearGradient>
<linearGradient id="paint74_linear_291_771" x1="150.716" y1="139.605" x2="144.26" y2="123.591" gradientUnits="userSpaceOnUse">
<stop stop-color="#34706B"/>
<stop offset="1" stop-color="#36746D"/>
</linearGradient>
<linearGradient id="paint75_linear_291_771" x1="128.63" y1="136.919" x2="132.242" y2="154.515" gradientUnits="userSpaceOnUse">
<stop stop-color="#34706B"/>
<stop offset="1" stop-color="#36746D"/>
</linearGradient>
<linearGradient id="paint76_linear_291_771" x1="166.791" y1="165.522" x2="179.266" y2="143.202" gradientUnits="userSpaceOnUse">
<stop stop-color="#34706B"/>
<stop offset="1" stop-color="#36746D"/>
</linearGradient>
<linearGradient id="paint77_linear_291_771" x1="187.144" y1="133.879" x2="153.871" y2="173.291" gradientUnits="userSpaceOnUse">
<stop stop-color="#34706B"/>
<stop offset="1" stop-color="#36746D"/>
</linearGradient>
<linearGradient id="paint78_linear_291_771" x1="194.476" y1="146.885" x2="194.476" y2="168.546" gradientUnits="userSpaceOnUse">
<stop stop-color="#34706B"/>
<stop offset="1" stop-color="#36746D"/>
</linearGradient>
<linearGradient id="paint79_linear_291_771" x1="191.116" y1="145.773" x2="191.116" y2="167.434" gradientUnits="userSpaceOnUse">
<stop stop-color="#34706B"/>
<stop offset="1" stop-color="#36746D"/>
</linearGradient>
<linearGradient id="paint80_linear_291_771" x1="199.63" y1="143.483" x2="199.63" y2="162.581" gradientUnits="userSpaceOnUse">
<stop stop-color="#34706B"/>
<stop offset="1" stop-color="#36746D"/>
</linearGradient>
<linearGradient id="paint81_linear_291_771" x1="221.791" y1="170.857" x2="222.023" y2="177.343" gradientUnits="userSpaceOnUse">
<stop stop-color="#1B6038"/>
<stop offset="1" stop-color="#0F4124"/>
</linearGradient>
<linearGradient id="paint82_linear_291_771" x1="94.2837" y1="169.63" x2="538" y2="169.63" gradientUnits="userSpaceOnUse">
<stop stop-color="#1B6038"/>
<stop offset="1" stop-color="#0F4124"/>
</linearGradient>
<linearGradient id="paint83_linear_291_771" x1="127.482" y1="132.435" x2="136.904" y2="154.806" gradientUnits="userSpaceOnUse">
<stop stop-color="#34706B"/>
<stop offset="1" stop-color="#36746D"/>
</linearGradient>
</defs>
</svg>
