<svg width="101" height="101" viewBox="0 0 101 101" fill="none" xmlns="http://www.w3.org/2000/svg">
<path d="M70.6929 20.6811C69.768 19.923 68.8791 19.1177 67.9221 18.4069C61.7837 13.9357 55.001 11.9333 47.4557 12.9676C45.3962 13.2681 43.396 13.8741 41.5207 14.7655C40.9943 15.0092 40.6814 15.3633 40.8785 15.9807C41.0696 16.5622 41.5818 16.8199 42.2406 16.6161C44.2818 15.9513 46.4044 15.5596 48.5537 15.451C55.2424 15.1953 61.3444 16.9473 66.723 21.0583C70.6513 24.0637 73.23 27.9413 74.0911 32.8499C74.9134 37.5939 73.6301 41.7487 70.5996 45.3784C69.2656 46.9585 67.7106 48.3369 65.9819 49.4718C64.8419 48.5183 63.7626 47.5368 62.6108 46.6577C58.1114 43.2327 53.015 41.2572 47.4816 40.3892C44.9961 39.9996 42.49 39.7412 39.9935 40.0568C36.6081 40.4806 33.9046 42.0408 32.5379 45.2927C31.3273 48.1648 32.1409 50.7588 34.139 53.0338C36.6574 55.9051 39.9392 57.3968 43.5975 58.0717C50.1586 59.2792 56.391 58.0694 62.4098 55.4976C63.4121 55.0703 64.379 54.5656 65.4025 54.0743C66.7992 56.1208 67.7866 58.4162 68.3096 60.8318C70.085 69.2484 67.4945 76.1209 60.8109 81.2926C56.3141 84.7708 51.0552 85.8796 45.3912 85.128C45.1104 85.0926 44.8349 85.0337 44.5492 85.0177C44.3799 84.9987 44.2089 85.0137 44.0463 85.0619C43.8837 85.1101 43.7327 85.1905 43.6022 85.2984C43.4717 85.4063 43.3644 85.5395 43.2866 85.6901C43.2088 85.8407 43.162 86.0057 43.1491 86.1754C43.0558 86.9051 43.4069 87.4492 44.1799 87.5947C50.0237 88.7274 55.6975 88.4178 61.0354 85.5996C64.894 83.5623 67.6761 80.4548 69.5493 76.5447C71.9968 71.4349 72.8606 66.0752 71.7239 60.4236C71.2168 57.8131 70.1977 55.3239 68.7257 53.1008C68.557 52.8489 68.4106 52.5847 68.2774 52.3726C69.5207 51.2644 70.7834 50.2404 71.939 49.1089C75.5362 45.5267 77.8459 41.3177 77.7222 36.0601C77.6204 32.0159 76.3438 28.3309 74.1349 24.9432C73.8069 24.4362 73.4782 23.9284 73.149 23.42L70.6929 20.6811ZM63.0581 51.2772C62.94 51.3449 62.8701 51.3959 62.7912 51.4325C56.4698 54.4657 49.8528 55.6612 42.8356 54.5219C39.0417 53.9077 36.5715 51.858 35.5451 48.1117C34.9603 45.9828 35.6117 44.5902 37.7021 43.99C39.0326 43.5671 40.4176 43.3333 41.817 43.2957C47.7343 43.3178 53.2565 45.0491 58.4564 47.8834C60.1384 48.7963 61.6873 49.9386 63.0581 51.2772Z" fill="#F8961E"/>
<path d="M38.6062 87.6535C40.4981 85.9671 42.1803 84.4376 43.8924 82.9416C44.4291 82.4632 45.0812 82.1226 45.6681 81.7047C46.3227 81.2377 46.5025 80.5174 46.1275 79.9382C45.7924 79.4287 45.2407 79.3604 44.5115 79.7397C41.2251 81.451 38.3292 83.709 35.5588 86.137C34.6615 86.9368 34.666 87.8763 35.4792 88.7678C37.6382 91.134 40.0028 93.3038 42.5445 95.2509C43.2417 95.7911 43.984 96.2234 44.925 96.1026C46.2049 95.924 46.706 94.8383 45.9201 93.8022C45.4505 93.2501 44.9193 92.7536 44.3371 92.3225C42.4781 90.7918 40.6005 89.2777 38.6062 87.6535Z" fill="#F8961E"/>
</svg>
