<svg width="67" height="189" viewBox="0 0 67 189" fill="none" xmlns="http://www.w3.org/2000/svg">
<path d="M-15.9825 142.442C-15.9733 140.304 -14.4235 138.865 -12.3665 139.167C-4.96929 140.267 5.99474 140.336 16.2618 134.462C21.1423 131.672 37.052 120.679 37.1556 96.4453L37.1558 96.3931C37.1605 95.3087 37.0127 69.6988 17.152 48.9172C7.01482 38.309 -3.88942 33.5163 -11.2426 31.3725C-13.4268 30.7367 -15.0991 28.4196 -14.9902 26.0975C-14.8815 23.8171 -13.0254 22.4941 -10.8412 23.1299C-2.36138 25.6105 10.2022 31.1409 21.955 43.4365C44.515 67.046 45.0775 95.1784 45.0641 98.3171L45.0638 98.3797C44.944 126.409 26.6722 139.041 21.0774 142.241C9.29256 148.988 -3.24479 148.902 -11.6903 147.651C-13.8659 147.331 -15.7764 145.164 -15.9643 142.822C-15.9737 142.695 -15.983 142.567 -15.9825 142.442Z" fill="#F7BB66"/>
<path d="M-15.9761 162.808C-15.9637 159.918 -13.8687 157.973 -11.0881 158.381C-1.08895 159.868 13.7317 159.961 27.6102 152.021C34.2075 148.25 55.7134 133.389 55.8535 100.632L55.8538 100.561C55.8601 99.0952 55.6603 64.477 28.8136 36.3854C15.1106 22.0458 0.370768 15.5672 -9.56889 12.6693C-12.5214 11.8099 -14.782 8.67779 -14.6348 5.53884C-14.4879 2.45626 -11.9788 0.667968 -9.02631 1.52737C2.4363 4.88048 19.4191 12.3562 35.3061 28.9768C65.8016 60.891 66.5619 98.9192 66.5438 103.162L66.5434 103.246C66.3814 141.135 41.6825 158.21 34.1197 162.536C18.1896 171.656 1.24215 171.54 -10.1741 169.849C-13.115 169.416 -15.6975 166.488 -15.9515 163.322C-15.9641 163.149 -15.9768 162.977 -15.9761 162.808Z" fill="#85A9A6"/>
</svg>
