<svg width="240" height="245" viewBox="0 0 240 245" fill="none" xmlns="http://www.w3.org/2000/svg">
<path d="M142.287 34.0104C139.414 33.0421 136.584 31.9296 133.677 31.1026C115.112 26.0051 97.233 27.3393 80.2689 36.5582C75.6548 39.1178 71.4553 42.3484 67.8081 46.1438C66.7783 47.1939 66.3539 48.3139 67.375 49.6013C68.3496 50.8088 69.7952 50.9604 71.1746 49.8864C75.4185 46.4797 80.1004 43.6472 85.0995 41.4622C100.73 34.8578 116.771 33.5401 133.211 38.4649C145.221 42.0687 154.813 48.9508 161.257 59.8179C167.461 70.3295 168.144 81.3323 164.213 92.6567C162.467 97.5998 160.016 102.263 156.934 106.504C153.376 105.265 149.937 103.906 146.417 102.854C132.677 98.7678 118.82 98.6537 104.921 101.558C98.678 102.863 92.5037 104.497 86.8671 107.485C79.2196 111.525 74.2081 117.649 73.8835 126.586C73.5885 134.482 77.844 139.903 84.622 143.506C93.1686 148.056 102.288 148.65 111.568 146.97C128.209 143.949 141.902 135.492 153.868 123.996C155.861 122.084 157.701 120.02 159.688 117.937C164.835 121.538 169.235 126.095 172.641 131.354C184.399 149.719 184.419 168.339 173.209 186.595C165.665 198.876 154.189 206.221 140.084 209.518C139.387 209.686 138.681 209.793 137.989 210.011C137.571 210.118 137.179 210.307 136.836 210.567C136.494 210.827 136.208 211.153 135.995 211.526C135.783 211.899 135.647 212.311 135.598 212.738C135.549 213.165 135.586 213.598 135.707 214.012C136.14 215.826 137.461 216.801 139.424 216.453C154.297 213.899 167.473 208.076 177.603 196.607C184.926 188.316 188.736 178.452 189.672 167.501C190.893 153.19 188.135 139.706 180.371 127.324C176.828 121.589 172.179 116.6 166.695 112.649C166.069 112.203 165.485 111.707 164.979 111.324C166.933 107.581 169.009 104.021 170.735 100.301C176.052 88.5813 177.754 76.5298 172.746 64.1737C168.878 54.6754 162.546 47.0822 154.27 41.0301C153.038 40.1219 151.803 39.2126 150.567 38.3023L142.287 34.0104ZM151.62 113.407C151.401 113.674 151.281 113.857 151.127 114.015C138.857 126.876 124.239 135.645 106.578 139.236C97.0312 141.182 89.3356 138.537 83.5423 130.574C80.2465 126.05 80.5423 122.164 84.9608 118.866C87.7363 116.67 90.811 114.874 94.0954 113.529C108.147 108.275 122.793 107.429 137.665 109.486C142.472 110.143 147.169 111.462 151.62 113.407Z" fill="#F28D00"/>
<path d="M126.261 221.591C129.235 215.896 131.852 210.76 134.57 205.678C135.414 204.062 136.655 202.67 137.672 201.152C138.805 199.458 138.586 197.589 137.177 196.552C135.925 195.644 134.556 195.977 133.167 197.53C126.909 204.535 122.067 212.486 117.675 220.728C116.265 223.429 117.118 225.653 119.846 227.038C127.087 230.712 134.64 233.737 142.413 236.075C144.55 236.73 146.698 237.09 148.821 235.959C151.696 234.388 151.911 231.364 149.118 229.612C147.509 228.724 145.804 228.023 144.037 227.523C138.257 225.561 132.447 223.654 126.261 221.591Z" fill="#F28D00"/>
</svg>
