<svg width="119" height="95" viewBox="0 0 119 95" fill="none" xmlns="http://www.w3.org/2000/svg">
<g clip-path="url(#clip0_1747_14968)">
<path d="M54.9681 51.3508L52.7876 31.3046C52.7507 30.9017 52.6327 30.5105 52.4406 30.1544C52.2486 29.7983 51.9865 29.4847 51.6702 29.2325C51.3538 28.9803 50.9898 28.7947 50.5998 28.6869C50.2099 28.579 49.8022 28.5512 49.4012 28.605C49.0002 28.6588 48.6142 28.7931 48.2665 28.9999C47.9188 29.2067 47.6165 29.4817 47.3778 29.8084C47.1391 30.1351 46.969 30.5067 46.8777 30.9008C46.7863 31.2949 46.7755 31.7034 46.8461 32.1018L49.0253 52.1579C49.0675 52.5571 49.1894 52.9438 49.3838 53.295C49.5782 53.6463 49.841 53.955 50.1569 54.2027C50.4727 54.4505 50.8351 54.6324 51.2226 54.7376C51.61 54.8428 52.0146 54.8692 52.4123 54.8151C52.8101 54.7611 53.1931 54.6278 53.5384 54.4231C53.8837 54.2184 54.1844 53.9465 54.4227 53.6234C54.6611 53.3004 54.8321 52.9328 54.9258 52.5424C55.0195 52.152 55.0338 51.7468 54.9681 51.3508Z" fill="#F28D00"/>
<path d="M38.7062 56.205C31.4586 50.4337 23.5963 45.4799 15.2619 41.4334C14.8968 41.2591 14.5002 41.1604 14.096 41.1433C13.6918 41.1261 13.2883 41.191 12.9098 41.3338C12.5313 41.4767 12.1856 41.6946 11.8934 41.9745C11.6013 42.2544 11.3689 42.5905 11.21 42.9626C11.0512 43.3347 10.9692 43.7351 10.9691 44.1396C10.969 44.5442 11.0507 44.9446 11.2093 45.3168C11.3679 45.689 11.6002 46.0252 11.8921 46.3053C12.184 46.5854 12.5296 46.8036 12.908 46.9467C20.7587 50.7816 28.1629 55.47 34.9865 60.9271C38.0168 63.3573 41.7096 58.6113 38.6567 56.1982L38.7062 56.205Z" fill="#F28D00"/>
<path d="M103.479 60.6377C99.6633 60.3512 95.8516 60.1057 92.0352 60.1926C88.4026 60.3166 84.7816 60.6705 81.1938 61.2523C80.7945 61.2945 80.4079 61.4165 80.0566 61.6109C79.7054 61.8052 79.3967 62.0682 79.1489 62.384C78.9011 62.6998 78.7192 63.0622 78.6141 63.4496C78.5089 63.837 78.4825 64.2416 78.5365 64.6394C78.5905 65.0372 78.7238 65.4201 78.9285 65.7655C79.1332 66.1108 79.4052 66.4115 79.7282 66.6499C80.0513 66.8882 80.4189 67.0592 80.8093 67.1529C81.1996 67.2466 81.6048 67.2609 82.0008 67.1952C85.506 66.6375 89.0413 66.2889 92.5879 66.1513L93.7318 66.1251C94.2268 66.1217 93.2976 66.1266 93.7913 66.1332L94.3853 66.1432C95.1915 66.1519 96.0049 66.1817 96.8169 66.2214C98.823 66.3124 100.751 66.4534 102.71 66.5984C103.495 66.6871 104.284 66.4696 104.913 65.9912C105.542 65.5127 105.962 64.8102 106.086 64.0297C106.194 63.2413 105.983 62.4426 105.501 61.8094C105.02 61.1761 104.306 60.7602 103.518 60.653L103.479 60.6377Z" fill="#F28D00"/>
<path d="M71.7712 56.3288C74.9526 49.6212 79.7736 43.8239 85.7887 39.4729C86.3904 38.9807 86.7775 38.2742 86.8686 37.5022C86.9597 36.7303 86.7476 35.9531 86.2769 35.3344C85.8063 34.7158 85.1139 34.3039 84.3456 34.1857C83.5773 34.0674 82.7932 34.252 82.1583 34.7005C75.3258 39.6904 69.858 46.3185 66.2579 53.9749C65.9448 54.7059 65.9348 55.5313 66.2299 56.2697C66.5251 57.008 67.1013 57.5991 67.832 57.9128C68.5662 58.2071 69.3857 58.2066 70.1196 57.9115C70.8535 57.6164 71.4451 57.0494 71.7712 56.3288Z" fill="#F28D00"/>
</g>
<defs>
<clipPath id="clip0_1747_14968">
<rect width="96.78" height="34.39" fill="white" transform="translate(13.8447 23.792) rotate(7.73896)"/>
</clipPath>
</defs>
</svg>
