<svg width="67" height="189" viewBox="0 0 67 189" fill="none" xmlns="http://www.w3.org/2000/svg">
<path d="M-15.9821 142.442C-15.973 140.304 -14.4231 138.865 -12.3661 139.167C-4.96892 140.267 5.99511 140.336 16.2622 134.462C21.1427 131.672 37.0524 120.679 37.156 96.4453L37.1562 96.3931C37.1608 95.3087 37.013 69.6988 17.1524 48.9172C7.01519 38.309 -3.88906 33.5163 -11.2422 31.3725C-13.4264 30.7367 -15.0988 28.4196 -14.9899 26.0975C-14.8812 23.8171 -13.025 22.4941 -10.8408 23.1299C-2.36101 25.6105 10.2025 31.1409 21.9554 43.4365C44.5154 67.046 45.0779 95.1784 45.0644 98.3171L45.0642 98.3797C44.9443 126.409 26.6725 139.041 21.0777 142.241C9.29293 148.988 -3.24442 148.902 -11.6899 147.651C-13.8656 147.331 -15.7761 145.164 -15.964 142.822C-15.9733 142.695 -15.9826 142.567 -15.9821 142.442Z" fill="#FABA6B"/>
<path d="M-15.9759 162.808C-15.9635 159.918 -13.8685 157.973 -11.0879 158.381C-1.08876 159.868 13.7319 159.961 27.6104 152.021C34.2077 148.25 55.7136 133.389 55.8537 100.632L55.854 100.561C55.8603 99.0952 55.6605 64.477 28.8138 36.3854C15.1108 22.0458 0.370951 15.5672 -9.5687 12.6693C-12.5212 11.8099 -14.7818 8.67776 -14.6346 5.5388C-14.4877 2.45623 -11.9786 0.667937 -9.02613 1.52734C2.43649 4.88045 19.4193 12.3562 35.3063 28.9768C65.8018 60.891 66.5621 98.9192 66.544 103.162L66.5436 103.246C66.3816 141.135 41.6827 158.21 34.1199 162.536C18.1897 171.656 1.24233 171.54 -10.1739 169.849C-13.1148 169.416 -15.6973 166.488 -15.9513 163.322C-15.964 163.149 -15.9766 162.977 -15.9759 162.808Z" fill="#64E7BB"/>
</svg>
