<svg width="120" height="284" viewBox="0 0 120 284" fill="none" xmlns="http://www.w3.org/2000/svg">
<path d="M134.843 8.89314C136.724 13.0772 134.997 17.6079 130.738 19.3015C115.413 25.3648 94.0851 37.4027 79.3885 60.2691C72.4001 71.134 51.3071 110.261 72.6355 157.694L72.6814 157.796C73.6359 159.919 96.6747 209.76 153.661 228.29C182.748 237.75 208.157 235.004 224.325 231.027C229.126 229.843 234.429 232.511 236.28 237.166C238.096 241.74 235.671 246.383 230.869 247.567C212.217 252.137 182.934 255.285 149.214 244.324C84.4794 223.268 58.395 168.962 55.6325 162.818L55.5775 162.696C30.9085 107.834 55.1278 62.8856 63.1367 50.4257C80.0018 24.17 104.397 10.4196 121.89 3.48671C126.394 1.69738 132.025 3.80629 134.47 8.17094C134.601 8.40958 134.733 8.64822 134.843 8.89314V8.89314Z" fill="#64E7BB"/>
<path d="M139.129 43.7536C141.578 46.7001 141.2 50.7318 138.152 53.0461C127.175 61.3496 112.703 75.8018 105.986 97.4858C102.79 107.79 94.5601 143.988 122.321 177.39L122.381 177.462C123.623 178.957 153.299 213.915 203.295 216.093C228.815 217.206 248.647 209.318 260.768 202.505C264.367 200.48 269.23 201.442 271.76 204.774C274.243 208.049 273.329 212.327 269.73 214.352C255.742 222.197 232.883 231.274 203.299 229.988C146.504 227.51 113.38 189.639 109.784 185.313L109.713 185.227C77.6034 146.593 87.0487 105.012 90.7092 93.1965C98.4134 68.3006 114.971 51.785 127.498 42.2976C130.723 39.8511 135.725 40.2901 138.668 43.2558C138.827 43.4185 138.986 43.5812 139.129 43.7536V43.7536Z" fill="#64E7BB"/>
</svg>
