<svg width="120" height="284" viewBox="0 0 120 284" fill="none" xmlns="http://www.w3.org/2000/svg">
<path d="M134.843 8.89326C136.724 13.0773 134.997 17.608 130.738 19.3016C115.412 25.3649 94.0849 37.4029 79.3883 60.2693C72.3999 71.1342 51.3069 110.261 72.6353 157.694L72.6812 157.796C73.6357 159.919 96.6745 209.76 153.661 228.29C182.748 237.75 208.157 235.004 224.325 231.027C229.126 229.844 234.428 232.511 236.28 237.166C238.095 241.74 235.67 246.383 230.869 247.567C212.217 252.137 182.934 255.285 149.214 244.324C84.4792 223.268 58.3948 168.962 55.6324 162.819L55.5773 162.696C30.9083 107.834 55.1277 62.8857 63.1366 50.4259C80.0017 24.1702 104.396 10.4197 121.889 3.48682C126.394 1.69749 132.025 3.8064 134.47 8.17107C134.601 8.4097 134.733 8.64835 134.843 8.89326Z" fill="#85A9A6"/>
<path d="M139.129 43.754C141.577 46.7004 141.199 50.7322 138.151 53.0465C127.174 61.35 112.702 75.8022 105.985 97.4862C102.79 107.79 94.5593 143.988 122.32 177.391L122.38 177.463C123.623 178.957 153.298 213.916 203.294 216.093C228.814 217.206 248.646 209.318 260.767 202.506C264.367 200.481 269.229 201.443 271.76 204.775C274.242 208.049 273.328 212.328 269.729 214.353C255.741 222.198 232.882 231.274 203.298 229.989C146.503 227.51 113.379 189.64 109.784 185.314L109.712 185.227C77.6026 146.593 87.0479 105.013 90.7084 93.1968C98.4126 68.301 114.97 51.7854 127.497 42.2979C130.722 39.8515 135.724 40.2905 138.667 43.2562C138.826 43.4189 138.985 43.5815 139.129 43.754Z" fill="#85A9A6"/>
</svg>
