<svg width="179" height="49" viewBox="0 0 179 49" fill="none" xmlns="http://www.w3.org/2000/svg">
<g clip-path="url(#clip0_1747_14969)">
<path d="M82.8171 25.7553C82.0836 26.8545 80.3596 26.9743 79.5764 25.9863C79.4462 25.855 79.3525 25.6901 79.3049 25.5088C79.2574 25.3275 79.2577 25.1363 79.3059 24.9552C79.3542 24.7741 79.4485 24.6096 79.5791 24.4788C79.7097 24.348 79.8719 24.2557 80.0488 24.2114C80.5005 24.0318 80.9481 23.8436 81.3832 23.634C82.038 23.3218 82.5808 23.3389 82.9082 23.7025C83.0844 23.9679 83.1845 24.2793 83.197 24.6008C83.2094 24.9223 83.1338 25.241 82.9787 25.5201C82.9289 25.6014 82.8709 25.6784 82.8171 25.7553Z" fill="#F28D00"/>
<path d="M82.9248 19.6309C82.7927 19.817 82.6228 19.9711 82.4269 20.0823C82.231 20.1935 82.0139 20.2591 81.7908 20.2746C81.5677 20.2901 81.3441 20.2551 81.1355 20.1719C80.927 20.0888 80.7385 19.9596 80.5834 19.7934C80.4869 19.6998 80.4169 19.5808 80.3809 19.4491C80.3449 19.3175 80.3444 19.1783 80.3793 19.0464C80.4143 18.9145 80.4833 18.7949 80.5792 18.7004C80.675 18.606 80.794 18.5403 80.9233 18.5104C81.2506 18.3821 81.5739 18.2409 81.8888 18.0827C82.3613 17.8603 82.7508 17.8688 82.987 18.134C83.1171 18.3245 83.1913 18.5495 83.2009 18.7823C83.2104 19.0151 83.1549 19.2459 83.0409 19.447C83.0036 19.5197 82.9621 19.5539 82.9248 19.6309Z" fill="#F28D00"/>
<path d="M79.8586 15.2768C80.2191 14.4215 79.8586 13.7757 78.9137 13.5447C77.8984 13.2967 76.2822 14.1862 76.0129 15.1656C75.8222 15.867 76.1413 16.4744 76.6428 16.9833C76.8414 17.1902 77.1011 17.3231 77.3809 17.3611C77.6607 17.399 77.9448 17.3399 78.1885 17.1929C78.7824 16.5898 79.3401 15.95 79.8586 15.2768Z" fill="#F28D00"/>
<path d="M80.2066 11.3636C80.0678 11.4476 79.9059 11.4818 79.7463 11.4609C79.5866 11.44 79.4381 11.3652 79.324 11.2481C79.1754 11.1262 79.0626 10.964 78.9982 10.7797C78.9338 10.5954 78.9203 10.3963 78.9593 10.2046C79.1126 9.64431 80.0367 9.13536 80.6169 9.2765C81.1971 9.41763 81.3628 9.78545 81.1556 10.2687C81.081 10.4484 80.9899 10.6237 80.9028 10.7991" fill="#F28D00"/>
<path d="M72.9584 7.89513C72.5813 7.4931 72.7015 6.87295 72.8921 6.34262C73.0639 5.80957 73.4216 5.3615 73.8957 5.08561C74.3699 4.80972 74.9265 4.72574 75.4573 4.85C75.659 4.92719 75.8426 5.04757 75.9961 5.2032C76.1495 5.35884 76.2693 5.54622 76.3476 5.75304C76.4259 5.95985 76.4609 6.18141 76.4503 6.40318C76.4397 6.62494 76.3837 6.84189 76.2861 7.03975C76.0589 7.38525 75.7642 7.67788 75.421 7.89885C75.0777 8.11981 74.6934 8.26422 74.2928 8.32281" fill="#F28D00"/>
<path d="M4.78458 1.00073H6.06095C6.67967 1.00073 7.29232 1.12672 7.86379 1.37147C8.43526 1.61622 8.95432 1.97492 9.39124 2.42704C9.82817 2.87916 10.1744 3.4158 10.41 4.00622C10.6456 4.59665 10.7661 5.22926 10.7645 5.8678V33.4407C10.7666 34.0788 10.8906 34.7101 11.1291 35.2987C11.3677 35.8873 11.7163 36.4216 12.155 36.8712C12.5937 37.3208 13.1139 37.6768 13.6859 37.9189C14.2579 38.161 14.8705 38.2844 15.4887 38.2821H20.7102C21.9581 38.2833 23.1544 38.7956 24.0364 39.7067C24.9183 40.6177 25.4137 41.8528 25.4137 43.1406C25.4137 44.4281 24.9182 45.6628 24.0361 46.5731C23.154 47.4835 21.9577 47.9949 20.7102 47.9949H4.78458C3.53713 47.9949 2.34077 47.4835 1.45869 46.5731C0.576613 45.6628 0.0810711 44.4281 0.0810711 43.1406V5.8678C0.0794357 5.22926 0.199885 4.59665 0.435526 4.00622C0.671167 3.4158 1.01737 2.87916 1.45429 2.42704C1.89122 1.97492 2.41028 1.61622 2.98175 1.37147C3.55321 1.12672 4.16586 1.00073 4.78458 1.00073Z" fill="#33706B"/>
<path d="M74.3341 22.616C74.3009 21.145 74.7218 19.7011 75.5359 18.4931H75.4779C71.6529 18.4931 69.1292 15.726 69.1292 11.7785C69.0978 10.8431 69.2584 9.9114 69.6005 9.04458C69.9426 8.17777 70.4584 7.39542 71.1142 6.74889C67.0116 2.47203 61.243 0 54.4509 0C40.7755 0 31.2441 10.0806 31.2441 24.4936C31.2441 38.9066 40.473 48.9957 54.4509 48.9957C66.8044 48.9957 75.8343 40.7457 77.4422 28.5096C75.482 27.4232 74.3341 25.2934 74.3341 22.616ZM54.4426 39.0306C46.8507 39.0306 42.1762 33.3339 42.1762 24.4294C42.1762 15.6619 46.8507 9.82823 54.4426 9.82823C62.0345 9.82823 66.7712 15.6619 66.7712 24.4294C66.7588 33.3339 62.0843 39.0306 54.4426 39.0306Z" fill="#F28D00"/>
<path d="M127.022 13.0573C126.154 13.7973 125.062 14.1996 123.936 14.1941C122.81 14.1886 121.721 13.7757 120.86 13.0273C118.381 10.9338 115.269 9.80469 112.066 9.83679C104.536 9.83679 99.7416 15.6619 99.7416 24.438C99.7416 33.3339 104.536 39.0349 112.066 39.0349C115.199 39.0529 118.244 37.9598 120.69 35.9385C121.579 35.1753 122.705 34.7667 123.861 34.7871C125.018 34.8075 126.129 35.2555 126.993 36.0497L127.034 36.0882C127.531 36.5507 127.929 37.1151 128.202 37.7453C128.475 38.3755 128.618 39.0576 128.621 39.748C128.624 40.4384 128.487 41.1218 128.22 41.7546C127.952 42.3874 127.56 42.9557 127.068 43.423C123.272 47.0027 118.195 48.9829 112.066 48.9829C97.798 48.9829 88.8096 38.8938 88.8096 24.4808C88.8096 10.0677 98.4031 -0.0170898 112.066 -0.0170898C118.129 -0.0170898 123.296 2.00587 127.175 5.54283C127.686 6.01939 128.092 6.60384 128.365 7.2565C128.638 7.90917 128.772 8.6148 128.757 9.32551C128.743 10.0362 128.58 10.7354 128.281 11.3756C127.981 12.0158 127.552 12.582 127.022 13.0359V13.0573Z" fill="#33706B"/>
<path d="M154.315 1.00077H163.071C163.832 1.00086 164.573 1.25433 165.184 1.72354C165.795 2.19275 166.243 2.85269 166.461 3.60538L177.936 43.3032C178.096 43.8488 178.13 44.4254 178.035 44.9869C177.94 45.5485 177.719 46.0792 177.389 46.5366C177.059 46.9939 176.631 47.3653 176.137 47.6208C175.643 47.8762 175.098 48.0088 174.546 48.0078H170.427C169.645 48.0071 168.885 47.7395 168.266 47.2467C167.647 46.7539 167.203 46.0636 167.004 45.2834L166.08 41.6481C165.882 40.8674 165.44 40.1764 164.821 39.6834C164.202 39.1904 163.443 38.9232 162.661 38.9237H154.149C153.367 38.9232 152.608 39.1904 151.989 39.6834C151.37 40.1764 150.927 40.8674 150.73 41.6481L149.806 45.2834C149.608 46.0637 149.165 46.7543 148.547 47.2472C147.928 47.7401 147.169 48.0076 146.387 48.0078H142.811C142.259 48.0088 141.714 47.8762 141.22 47.6208C140.726 47.3653 140.297 46.9939 139.968 46.5366C139.638 46.0792 139.417 45.5485 139.322 44.9869C139.227 44.4254 139.261 43.8488 139.421 43.3032L150.908 3.60538C151.128 2.84988 151.578 2.1879 152.192 1.71842C152.806 1.24894 153.551 0.997173 154.315 1.00077ZM154.928 29.3221H161.973C162.097 29.32 162.219 29.289 162.33 29.2315C162.441 29.1741 162.539 29.0916 162.615 28.9901C162.691 28.8887 162.744 28.771 162.769 28.6456C162.795 28.5202 162.794 28.3904 162.765 28.2658L158.6 11.7785H158.355L154.132 28.2615C154.103 28.3854 154.1 28.5145 154.125 28.6395C154.15 28.7645 154.202 28.8822 154.276 28.9839C154.351 29.0856 154.447 29.1688 154.557 29.2273C154.667 29.2858 154.788 29.3182 154.911 29.3221H154.928Z" fill="#33706B"/>
</g>
<defs>
<clipPath id="clip0_1747_14969">
<rect width="178" height="49" fill="white" transform="translate(0.0810547)"/>
</clipPath>
</defs>
</svg>
