<svg width="103" height="70" viewBox="0 0 103 70" fill="none" xmlns="http://www.w3.org/2000/svg">
<g clip-path="url(#clip0_603_6867)">
<path d="M45.8829 37.2631L48.9651 17.3356C49.0337 16.9369 49.021 16.5285 48.9277 16.1348C48.8343 15.7411 48.6624 15.3704 48.4221 15.0449C48.1818 14.7195 47.8781 14.4459 47.5294 14.2409C47.1807 14.0358 46.794 13.9033 46.3928 13.8515C45.9916 13.7997 45.584 13.8296 45.1946 13.9394C44.8052 14.0491 44.442 14.2365 44.1269 14.4903C43.8118 14.744 43.5513 15.0589 43.3611 15.416C43.1708 15.773 43.0547 16.1648 43.0198 16.5679L39.9337 36.5046C39.8712 36.9012 39.8889 37.3062 39.9857 37.6958C40.0826 38.0854 40.2566 38.4516 40.4976 38.7727C40.7385 39.0938 41.0415 39.3633 41.3885 39.5651C41.7355 39.767 42.1194 39.8972 42.5177 39.948C42.9159 39.9987 43.3202 39.9691 43.7068 39.8607C44.0933 39.7524 44.4542 39.5675 44.768 39.3172C45.0818 39.0668 45.3422 38.756 45.5337 38.4032C45.7252 38.0503 45.844 37.6627 45.8829 37.2631Z" fill="#F8961E"/>
<path d="M28.9181 37.7432C23.4111 30.2927 17.0988 23.4728 10.0957 17.4071C9.78818 17.1442 9.43065 16.9462 9.04464 16.8251C8.65864 16.7039 8.25215 16.6621 7.84956 16.7021C7.44697 16.7422 7.0566 16.8632 6.70199 17.0579C6.34739 17.2527 6.03588 17.5172 5.78613 17.8355C5.53639 18.1538 5.35359 18.5193 5.24875 18.91C5.14392 19.3008 5.11921 19.7087 5.1761 20.1093C5.23299 20.5098 5.37029 20.8947 5.57978 21.2409C5.78928 21.587 6.06659 21.8871 6.39509 22.1233C12.9858 27.8594 18.9242 34.3045 24.1029 41.3417C26.401 44.4734 31.1962 40.8448 28.872 37.7239L28.9181 37.7432Z" fill="#F8961E"/>
<path d="M90.3375 58.7896C86.7255 57.5251 83.1073 56.3014 79.3984 55.3976C75.8575 54.5772 72.2682 53.9819 68.6521 53.6152C68.2555 53.5527 67.8505 53.5704 67.4609 53.6672C67.0713 53.7641 66.7051 53.9381 66.384 54.1791C66.0629 54.42 65.7935 54.723 65.5916 55.07C65.3897 55.417 65.2595 55.8009 65.2087 56.1992C65.1579 56.5974 65.1876 57.0018 65.296 57.3883C65.4043 57.7749 65.5891 58.1357 65.8395 58.4495C66.0899 58.7633 66.4007 59.0237 66.7535 59.2152C67.1063 59.4067 67.494 59.5255 67.8935 59.5644C71.4236 59.933 74.9286 60.5113 78.39 61.2963L79.5017 61.567C79.9807 61.6919 79.082 61.4562 79.5571 61.5902L80.1282 61.7537C80.9047 61.9707 81.6827 62.21 82.4568 62.4586C84.3709 63.0656 86.1973 63.701 88.0513 64.3479C88.7869 64.6368 89.6055 64.631 90.3369 64.3317C91.0682 64.0323 91.6559 63.4624 91.9777 62.7407C92.2853 62.0069 92.2888 61.1809 91.9873 60.4446C91.6859 59.7082 91.1043 59.1218 90.3705 58.8142L90.3375 58.7896Z" fill="#F8961E"/>
<path d="M60.8243 46.4204C65.6333 40.7648 71.7905 36.4128 78.7267 33.7668C79.4353 33.4472 79.9921 32.8649 80.2799 32.1428C80.5676 31.4207 80.5639 30.6152 80.2695 29.8958C79.975 29.1764 79.4128 28.5994 78.7013 28.2863C77.9898 27.9732 77.1845 27.9486 76.4552 28.2175C68.5641 31.269 61.5671 36.256 56.1081 42.7198C55.6165 43.3448 55.3931 44.1395 55.4871 44.9291C55.5811 45.7187 55.9847 46.4387 56.6093 46.9309C57.2424 47.4052 58.034 47.6168 58.8193 47.5217C59.6045 47.4266 60.3228 47.0321 60.8243 46.4204Z" fill="#F8961E"/>
</g>
<defs>
<clipPath id="clip0_603_6867">
<rect width="96.78" height="34.39" fill="white" transform="translate(13.293) rotate(22.739)"/>
</clipPath>
</defs>
</svg>
