<svg width="64" height="156" viewBox="0 0 64 156" fill="none" xmlns="http://www.w3.org/2000/svg">
<path d="M84.8456 25.0955C84.8781 26.8455 83.574 28.3556 81.8014 28.5508C75.4267 29.2415 66.0077 31.5429 57.2996 38.5535C53.1601 41.884 39.702 54.2945 40.0708 74.1334L40.0716 74.1761C40.0881 75.0639 40.6988 95.9744 58.151 108.698C67.059 115.194 76.5159 116.768 82.8725 116.941C84.7606 116.991 86.2409 118.526 86.1912 120.448C86.1409 122.336 84.5716 123.817 82.6834 123.767C75.3527 123.562 64.4566 121.74 54.129 114.213C34.3047 99.7567 33.2901 76.8726 33.2423 74.3031L33.2414 74.2519C32.8148 51.3056 48.271 37.0476 53.0163 33.2276C63.0115 25.1769 73.7823 22.5514 81.0603 21.7586C82.9352 21.5529 84.6171 22.9136 84.8228 24.7885C84.8332 24.8908 84.8437 24.9931 84.8456 25.0955Z" fill="#5DB1AA"/>
<path d="M80.5822 6.62392C80.6302 9.2045 78.7072 11.4313 76.0933 11.7192C66.693 12.7376 52.8036 16.1314 39.9626 26.4693C33.8584 31.3805 14.0128 49.6811 14.5567 78.936L14.5579 78.9989C14.5822 80.3081 15.4828 111.143 41.2181 129.906C54.3538 139.484 68.2991 141.806 77.6727 142.06C80.457 142.134 82.6398 144.398 82.5665 147.233C82.4924 150.017 80.1782 152.201 77.3939 152.126C66.5839 151.824 50.5163 149.138 35.2871 138.038C6.05402 116.72 4.5578 82.9752 4.48736 79.1861L4.48595 79.1106C3.85691 45.2737 26.6488 24.2487 33.6463 18.6156C48.3854 6.74396 64.2682 2.87243 75.0004 1.70329C77.7651 1.40005 80.2454 3.40651 80.5486 6.17122C80.564 6.32204 80.5794 6.47287 80.5822 6.62392Z" fill="#5DB1AA"/>
</svg>
