<svg width="484" height="235" viewBox="0 0 484 235" fill="none" xmlns="http://www.w3.org/2000/svg">
<g clip-path="url(#clip0_603_8943)">
<path d="M235.411 125.365C239.033 122.561 240.217 117.871 238.133 113.981C238.79 113.502 239.346 112.913 239.723 112.176C240.987 109.711 239.356 107.266 237.55 105.616L238.268 103.252C240.178 96.959 238.069 90.1408 232.939 86.0152L195.322 55.7778C192.843 56.325 190.261 56.4248 187.752 56.0803C184.718 55.6634 181.629 54.5835 179.277 52.5742C177.201 50.7995 175.925 48.2879 176.166 45.5244C176.292 44.071 176.787 42.7103 177.497 41.4494L145.302 15.5693C141.515 12.525 136.554 11.3437 131.796 12.3527L41.5995 31.4813C33.3654 33.2271 27.8547 40.9848 28.9255 49.3128C26.62 50.6562 24.9006 52.7812 24.68 55.7054C24.5306 57.6915 25.198 59.6385 26.2384 61.3307C26.8289 62.292 27.92 63.036 28.438 64.0016C28.705 64.4995 28.8921 64.6993 29.0213 64.7572C28.9415 65.0004 28.8457 65.4101 28.7441 66.0774C28.0303 70.7763 26.1034 73.9581 27.2119 79.003C28.2291 83.6368 30.6913 87.554 34.2868 90.5954L34.709 93.8453C34.3027 93.9987 33.9023 94.1652 33.5207 94.3722C32.5935 94.8745 31.8027 95.4695 31.2412 96.3742C31.0628 96.6623 30.9061 96.8678 30.8233 97.1805C30.7174 97.5858 30.6072 98.0925 30.7058 98.5166C30.7987 99.2057 31.1237 99.7645 31.6794 100.192C32.1277 100.561 32.6312 100.813 33.1768 100.976C31.4487 102.427 30.3126 104.433 30.4127 106.994C30.5752 111.134 34.2287 113.85 37.5485 115.721L38.7223 124.763C37.8575 125.387 37.1335 126.19 36.6721 127.221C36.0308 128.65 35.9597 130.155 36.6155 131.613C37.3163 133.169 38.7658 134.168 40.3488 134.699C42.0856 139.775 46.273 143.743 51.6169 145.112L198.001 182.631C206.391 184.78 214.988 179.953 217.498 171.683L220.198 162.787C224.147 161.115 227.386 157.868 228.187 153.715C228.808 150.496 227.981 147.14 225.561 145.119L231.087 126.91C232.696 126.713 234.279 126.241 235.41 125.365H235.411Z" fill="#34706B"/>
<path d="M232.94 86.0152L195.323 55.7778C192.845 56.325 190.262 56.4248 187.752 56.0803C184.718 55.6634 181.629 54.5835 179.277 52.5742C177.201 50.7995 175.925 48.2879 176.166 45.5244C176.292 44.071 176.787 42.7103 177.498 41.4494L145.302 15.5693C141.513 12.525 136.554 11.3437 131.796 12.3527L41.5996 31.4813C37.6516 32.3194 34.3406 34.5473 32.0698 37.5496C46.3718 41.7216 60.3763 46.8504 74.2358 52.2977C89.2865 58.2141 104.188 64.5024 119.241 70.4144C134.244 76.3062 149.415 81.8389 164.95 86.1759C172.609 88.314 180.351 90.1582 188.171 91.6044C195.761 93.0071 203.421 93.8554 211.072 94.8398C217.656 95.6866 224.325 96.4307 230.967 95.8618C233.516 95.6432 236.015 95.2031 238.441 94.5387C237.588 91.2512 235.71 88.2402 232.942 86.0137L232.94 86.0152Z" fill="#5D8D89"/>
<path d="M164.35 104.393C162.713 114.214 151.062 123.744 139.337 117.873C130.845 113.62 124.741 95.151 133.513 88.3314C138.152 84.7254 146.604 86.6421 151.723 88.1302C160.974 90.8184 165.486 97.5743 164.35 104.393Z" fill="#34706B"/>
<g style="mix-blend-mode:multiply" opacity="0.22">
<path d="M138.852 92.5495C145.355 94.8338 150.113 100.548 152.992 106.601C154.483 109.738 155.587 113.182 156.11 116.695C160.441 113.789 163.56 109.127 164.35 104.392C165.486 97.5742 160.973 90.8168 151.722 88.13C146.602 86.6433 138.151 84.7267 133.513 88.3312C132.326 89.2534 131.419 90.3955 130.746 91.681C133.468 91.3697 136.221 91.626 138.852 92.5495Z" fill="#34706B"/>
</g>
<path d="M91.2293 95.5437C92.3765 89.2145 87.809 83.0918 81.0275 81.8683C74.246 80.6449 67.8185 84.7839 66.6713 91.1131C65.5242 97.4423 70.0917 103.565 76.8732 104.788C83.6547 106.012 90.0822 101.873 91.2293 95.5437Z" fill="#34706B"/>
<g style="mix-blend-mode:multiply" opacity="0.38">
<path d="M74.226 86.1846C79.1287 86.8548 82.8751 90.8198 85.4868 94.7269C86.7433 96.6073 87.8431 98.6137 88.7935 100.69C90.0123 99.2448 90.8756 97.4976 91.2296 95.5404C92.3759 89.2115 87.8083 83.0882 81.0266 81.865C75.8409 80.9298 70.8714 83.1359 68.3018 87.0531C70.1706 86.283 72.1758 85.9037 74.226 86.1846Z" fill="#34706B"/>
</g>
<path d="M118.556 143.54C122.014 140.09 122.014 134.496 118.556 131.046C115.098 127.596 109.491 127.596 106.033 131.046C102.575 134.496 102.575 140.09 106.033 143.54C109.491 146.99 115.098 146.99 118.556 143.54Z" fill="#34706B"/>
<path d="M222.239 122.031C223.109 117.23 220.8 112.794 217.081 112.123C213.362 111.452 209.642 114.8 208.772 119.602C207.902 124.403 210.211 128.839 213.93 129.51C217.649 130.181 221.369 126.833 222.239 122.031Z" fill="#34706B"/>
<path d="M178.639 159.469C179.47 154.885 176.597 150.53 172.222 149.74C167.847 148.951 163.627 152.027 162.796 156.61C161.965 161.194 164.839 165.549 169.213 166.339C173.588 167.128 177.808 164.052 178.639 159.469Z" fill="#34706B"/>
<g style="mix-blend-mode:multiply" opacity="0.38">
<path d="M108.029 132.726C113.261 133.307 117.609 136.514 120.428 140.775C120.686 140.172 120.888 139.537 121.01 138.865C121.88 134.064 118.684 129.467 113.871 128.599C110.154 127.929 106.568 129.683 104.723 132.726C105.817 132.607 106.925 132.603 108.028 132.726H108.029Z" fill="#34706B"/>
</g>
<g style="mix-blend-mode:multiply" opacity="0.38">
<path d="M213.173 116.603C216.719 118.863 219.007 122.428 220.456 126.325C221.304 125.127 221.938 123.664 222.235 122.026C223.106 117.224 220.796 112.787 217.077 112.117C214.623 111.674 212.174 112.988 210.539 115.307C211.458 115.648 212.344 116.073 213.174 116.603H213.173Z" fill="#34706B"/>
</g>
<g style="mix-blend-mode:multiply" opacity="0.38">
<path d="M166.686 152.024C170.032 152.859 172.442 155.581 173.906 158.574C174.817 160.437 175.418 162.49 175.67 164.575C177.16 163.334 178.256 161.559 178.636 159.462C179.466 154.879 176.593 150.523 172.217 149.734C169.675 149.275 167.191 150.128 165.387 151.816C165.822 151.853 166.255 151.917 166.686 152.024Z" fill="#34706B"/>
</g>
<path d="M86.5074 53.8806C87.4964 48.4238 82.623 42.9764 75.6222 41.7134C68.6215 40.4504 62.1446 43.8501 61.1555 49.3068C60.1665 54.7635 65.0399 60.211 72.0407 61.474C79.0414 62.737 85.5184 59.3373 86.5074 53.8806Z" fill="#34706B"/>
<g style="mix-blend-mode:multiply" opacity="0.63">
<path d="M82.2809 55.7646C78.4345 54.7354 74.5416 53.8639 70.7705 52.5727C67.5088 51.4566 64.2326 49.9858 61.6659 47.6407C61.4424 48.172 61.2625 48.7235 61.1566 49.3054C60.1685 54.7614 65.0408 60.2087 72.0416 61.471C77.7511 62.5003 83.108 60.4288 85.428 56.6694C84.3862 56.3422 83.3358 56.0454 82.2809 55.7632V55.7646Z" fill="#34706B"/>
</g>
<g style="mix-blend-mode:overlay">
<path d="M142.496 113.407C143.674 112.255 143.517 110.19 142.146 108.794C140.775 107.398 138.708 107.199 137.53 108.351C136.352 109.503 136.509 111.568 137.88 112.964C139.252 114.36 141.318 114.558 142.496 113.407Z" fill="#5D8D89"/>
</g>
<g style="mix-blend-mode:overlay">
<path d="M69.3007 58.3617C68.7392 58.9118 67.7525 58.8163 67.0982 58.1504C66.4438 57.4845 66.3683 56.4986 66.9313 55.95C67.4943 55.4014 68.4795 55.4955 69.1338 56.1614C69.7882 56.8273 69.8637 57.8131 69.3007 58.3617Z" fill="#5D8D89"/>
</g>
<g style="mix-blend-mode:overlay">
<path d="M77.3957 101.025C77.9578 100.476 77.8828 99.49 77.2282 98.8237C76.5737 98.1573 75.5875 98.0625 75.0255 98.612C74.4634 99.1615 74.5384 100.147 75.1929 100.814C75.8475 101.48 76.8337 101.575 77.3957 101.025Z" fill="#5D8D89"/>
</g>
<g style="mix-blend-mode:overlay">
<path d="M109.83 140.678C109.269 141.228 108.282 141.132 107.628 140.467C106.974 139.801 106.898 138.815 107.461 138.266C108.023 137.716 109.009 137.812 109.664 138.478C110.318 139.143 110.393 140.129 109.83 140.678Z" fill="#5D8D89"/>
</g>
<g style="mix-blend-mode:overlay">
<path d="M169.988 163.976C169.427 164.526 168.44 164.43 167.786 163.764C167.131 163.098 167.056 162.112 167.619 161.564C168.18 161.014 169.167 161.109 169.821 161.775C170.476 162.441 170.551 163.427 169.988 163.976Z" fill="#5D8D89"/>
</g>
<g style="mix-blend-mode:overlay">
<path d="M216.381 125.785C216.943 125.236 216.868 124.25 216.213 123.584C215.559 122.918 214.572 122.823 214.01 123.372C213.448 123.922 213.523 124.907 214.178 125.574C214.832 126.24 215.819 126.335 216.381 125.785Z" fill="#5D8D89"/>
</g>
<path d="M155.136 51.5839C154.016 57.768 140.996 57.784 129.94 55.7906C118.884 53.7973 110.828 47.1658 111.948 40.9817C113.068 34.7976 122.941 31.4015 133.997 33.3948C145.053 35.3896 156.254 45.3998 155.134 51.5839H155.136Z" fill="#34706B"/>
<g style="mix-blend-mode:multiply" opacity="0.2">
<path d="M131.912 54.7628C129.968 52.0109 129.116 48.7017 129.553 45.3592C130.058 41.4869 132.485 37.9895 135.942 36.1496C137.049 35.5604 138.22 35.1696 139.408 34.9799C137.638 34.2721 135.817 33.7234 133.999 33.3963C122.943 31.4015 113.07 34.799 111.95 40.9831C110.83 47.1673 118.884 53.7973 129.942 55.792C131.001 55.9831 132.078 56.1554 133.16 56.306C132.718 55.8152 132.295 55.3071 131.912 54.7657V54.7628Z" fill="#34706B"/>
</g>
<g style="mix-blend-mode:multiply" opacity="0.22">
<path d="M132.416 223.023C170.89 223.023 202.08 217.365 202.08 210.386C202.08 203.406 170.89 197.748 132.416 197.748C93.9412 197.748 62.7515 203.406 62.7515 210.386C62.7515 217.365 93.9412 223.023 132.416 223.023Z" fill="#34706B"/>
</g>
</g>
<g clip-path="url(#clip1_603_8943)">
<path d="M366.026 59.276C367.541 58.1067 368.036 56.1507 367.165 54.5286C367.44 54.3288 367.672 54.0831 367.83 53.7759C368.358 52.7478 367.676 51.7282 366.921 51.04L367.221 50.0541C368.02 47.4299 367.138 44.5866 364.992 42.8661L349.26 30.2564C348.224 30.4846 347.144 30.5262 346.095 30.3825C344.826 30.2087 343.534 29.7583 342.55 28.9204C341.682 28.1803 341.148 27.1329 341.249 25.9805C341.302 25.3744 341.509 24.8069 341.806 24.2811L328.341 13.4885C326.757 12.2189 324.683 11.7263 322.693 12.1471L284.971 20.1242C281.528 20.8522 279.223 24.0873 279.671 27.5603C278.707 28.1205 277.988 29.0067 277.895 30.2262C277.833 31.0544 278.112 31.8664 278.547 32.5721C278.794 32.9729 279.25 33.2832 279.467 33.6859C279.579 33.8936 279.657 33.9769 279.711 34.001C279.678 34.1024 279.638 34.2733 279.595 34.5516C279.297 36.5111 278.491 37.838 278.954 39.9419C279.38 41.8742 280.409 43.5078 281.913 44.7761L282.09 46.1314C281.92 46.1954 281.752 46.2648 281.593 46.3512C281.205 46.5606 280.874 46.8087 280.639 47.1861C280.565 47.3062 280.499 47.3919 280.465 47.5223C280.42 47.6913 280.374 47.9026 280.416 48.0795C280.454 48.3669 280.59 48.5999 280.823 48.778C281.01 48.9319 281.221 49.0369 281.449 49.1052C280.726 49.71 280.251 50.5468 280.293 51.6147C280.361 53.3412 281.889 54.4737 283.277 55.2543L283.768 59.0249C283.406 59.2851 283.104 59.6201 282.911 60.0499C282.642 60.6458 282.613 61.2736 282.887 61.8815C283.18 62.5305 283.786 62.947 284.448 63.1686C285.175 65.2851 286.926 66.9398 289.161 67.5108L350.381 83.1571C353.89 84.0536 357.485 82.0403 358.535 78.5914L359.664 74.8818C361.316 74.1846 362.67 72.8305 363.005 71.0985C363.265 69.7559 362.919 68.3566 361.907 67.5139L364.218 59.9201C364.891 59.838 365.553 59.6412 366.026 59.276H366.026Z" fill="#34706B"/>
<path d="M364.992 42.8661L349.26 30.2564C348.224 30.4846 347.144 30.5262 346.094 30.3825C344.825 30.2087 343.533 29.7583 342.55 28.9204C341.681 28.1803 341.148 27.1329 341.249 25.9805C341.301 25.3744 341.508 24.8069 341.806 24.2811L328.341 13.4885C326.756 12.2189 324.682 11.7263 322.692 12.1471L284.971 20.1242C283.32 20.4737 281.935 21.4028 280.985 22.6548C286.967 24.3946 292.824 26.5335 298.62 28.8051C304.914 31.2724 311.146 33.8948 317.442 36.3602C323.716 38.8172 330.061 41.1245 336.558 42.9331C339.761 43.8247 342.999 44.5938 346.269 45.1969C349.444 45.7819 352.647 46.1356 355.847 46.5461C358.6 46.8993 361.389 47.2096 364.167 46.9723C365.233 46.8812 366.278 46.6977 367.293 46.4206C366.936 45.0496 366.151 43.794 364.993 42.8655L364.992 42.8661Z" fill="#5D8D89"/>
<path d="M336.308 50.5297C335.623 54.6257 330.75 58.5997 325.847 56.1512C322.295 54.3776 319.742 46.6758 323.411 43.8318C325.351 42.3281 328.886 43.1273 331.027 43.7479C334.896 44.869 336.783 47.6863 336.308 50.5297Z" fill="#34706B"/>
<g style="mix-blend-mode:multiply" opacity="0.22">
<path d="M325.644 45.591C328.363 46.5436 330.353 48.9263 331.557 51.4509C332.181 52.7591 332.643 54.1953 332.861 55.6604C334.672 54.4482 335.977 52.5044 336.307 50.5297C336.782 47.6864 334.895 44.8684 331.026 43.7479C328.885 43.128 325.351 42.3287 323.411 43.8318C322.914 44.2164 322.535 44.6927 322.253 45.2288C323.392 45.099 324.544 45.2058 325.644 45.591Z" fill="#34706B"/>
</g>
<path d="M305.727 46.8397C306.206 44.2002 304.296 41.6469 301.46 41.1367C298.624 40.6265 295.936 42.3526 295.456 44.992C294.976 47.6315 296.887 50.1848 299.723 50.695C302.559 51.2052 305.247 49.4791 305.727 46.8397Z" fill="#34706B"/>
<g style="mix-blend-mode:multiply" opacity="0.38">
<path d="M298.615 42.9368C300.666 43.2163 302.232 44.8698 303.325 46.4991C303.85 47.2833 304.31 48.12 304.708 48.9857C305.217 48.3832 305.578 47.6545 305.726 46.8384C306.206 44.1991 304.296 41.6455 301.459 41.1354C299.291 40.7454 297.212 41.6654 296.138 43.299C296.919 42.9778 297.758 42.8197 298.615 42.9368Z" fill="#34706B"/>
</g>
<path d="M317.156 66.8552C318.602 65.4164 318.602 63.0836 317.156 61.6448C315.71 60.206 313.365 60.206 311.918 61.6448C310.472 63.0836 310.472 65.4164 311.918 66.8552C313.365 68.294 315.71 68.294 317.156 66.8552Z" fill="#34706B"/>
<path d="M360.518 57.8854C360.882 55.8831 359.916 54.0331 358.361 53.7533C356.806 53.4735 355.25 54.8699 354.886 56.8722C354.522 58.8745 355.488 60.7245 357.043 61.0042C358.598 61.284 360.154 59.8877 360.518 57.8854Z" fill="#34706B"/>
<path d="M342.283 73.4981C342.631 71.5866 341.429 69.7703 339.599 69.4411C337.77 69.112 336.005 70.3947 335.657 72.3061C335.31 74.2175 336.512 76.0339 338.341 76.363C340.171 76.6922 341.936 75.4095 342.283 73.4981Z" fill="#34706B"/>
<g style="mix-blend-mode:multiply" opacity="0.38">
<path d="M312.754 62.346C314.942 62.5881 316.76 63.9258 317.939 65.7025C318.047 65.4513 318.132 65.1863 318.183 64.9062C318.547 62.9038 317.21 60.9871 315.197 60.6249C313.642 60.3454 312.143 61.077 311.371 62.346C311.829 62.2965 312.292 62.2947 312.753 62.346H312.754Z" fill="#34706B"/>
</g>
<g style="mix-blend-mode:multiply" opacity="0.38">
<path d="M356.726 55.6215C358.209 56.5639 359.166 58.0507 359.772 59.6758C360.126 59.176 360.392 58.5663 360.516 57.8829C360.88 55.8805 359.914 54.0302 358.359 53.7507C357.333 53.566 356.308 54.1141 355.625 55.0812C356.009 55.2231 356.379 55.4006 356.726 55.6215H356.726Z" fill="#34706B"/>
</g>
<g style="mix-blend-mode:multiply" opacity="0.38">
<path d="M337.284 70.3934C338.684 70.7417 339.692 71.8766 340.304 73.125C340.685 73.902 340.936 74.758 341.042 75.6273C341.665 75.1099 342.123 74.3698 342.282 73.4951C342.629 71.5838 341.428 69.7673 339.597 69.4383C338.534 69.247 337.495 69.6025 336.741 70.3064C336.923 70.3221 337.104 70.3487 337.284 70.3934Z" fill="#34706B"/>
</g>
<path d="M303.753 29.4652C304.166 27.1896 302.128 24.9179 299.2 24.3911C296.273 23.8644 293.564 25.2822 293.15 27.5578C292.737 29.8334 294.775 32.1051 297.703 32.6318C300.63 33.1585 303.339 31.7407 303.753 29.4652Z" fill="#34706B"/>
<g style="mix-blend-mode:multiply" opacity="0.63">
<path d="M301.984 30.2508C300.376 29.8216 298.748 29.4581 297.171 28.9197C295.807 28.4542 294.436 27.8409 293.363 26.8629C293.269 27.0845 293.194 27.3145 293.15 27.5571C292.737 29.8324 294.774 32.1041 297.702 32.6305C300.09 33.0597 302.33 32.1958 303.301 30.6281C302.865 30.4917 302.426 30.3679 301.984 30.2502V30.2508Z" fill="#34706B"/>
</g>
<g style="mix-blend-mode:overlay">
<path d="M327.168 54.2888C327.661 53.8086 327.595 52.9473 327.022 52.365C326.448 51.7828 325.584 51.7002 325.091 52.1804C324.599 52.6606 324.664 53.5219 325.238 54.1042C325.811 54.6864 326.675 54.769 327.168 54.2888Z" fill="#5D8D89"/>
</g>
<g style="mix-blend-mode:overlay">
<path d="M296.556 31.3336C296.321 31.563 295.909 31.5232 295.635 31.2455C295.361 30.9678 295.33 30.5567 295.565 30.3279C295.801 30.0991 296.213 30.1383 296.486 30.416C296.76 30.6937 296.791 31.1048 296.556 31.3336Z" fill="#5D8D89"/>
</g>
<g style="mix-blend-mode:overlay">
<path d="M299.942 49.1252C300.177 48.8961 300.145 48.485 299.872 48.2071C299.598 47.9293 299.186 47.8897 298.95 48.1189C298.715 48.348 298.747 48.7591 299.021 49.037C299.294 49.3149 299.707 49.3544 299.942 49.1252Z" fill="#5D8D89"/>
</g>
<g style="mix-blend-mode:overlay">
<path d="M313.506 65.6618C313.271 65.8912 312.859 65.8513 312.585 65.5736C312.311 65.2959 312.28 64.8848 312.515 64.656C312.75 64.4266 313.163 64.4665 313.436 64.7442C313.71 65.0219 313.742 65.433 313.506 65.6618Z" fill="#5D8D89"/>
</g>
<g style="mix-blend-mode:overlay">
<path d="M338.665 75.3772C338.43 75.6066 338.017 75.5668 337.744 75.2891C337.47 75.0114 337.439 74.6003 337.674 74.3715C337.909 74.1421 338.321 74.1819 338.595 74.4596C338.869 74.7373 338.9 75.1484 338.665 75.3772Z" fill="#5D8D89"/>
</g>
<g style="mix-blend-mode:overlay">
<path d="M358.068 59.4514C358.303 59.2223 358.271 58.8112 357.998 58.5333C357.724 58.2555 357.312 58.2159 357.076 58.4451C356.841 58.6742 356.873 59.0853 357.147 59.3632C357.42 59.6411 357.833 59.6806 358.068 59.4514Z" fill="#5D8D89"/>
</g>
<path d="M332.454 28.5074C331.986 31.0863 326.541 31.093 321.917 30.2617C317.293 29.4304 313.924 26.6649 314.393 24.086C314.861 21.5071 318.99 20.0908 323.614 20.9221C328.238 21.754 332.922 25.9284 332.454 28.5074H332.454Z" fill="#34706B"/>
<g style="mix-blend-mode:multiply" opacity="0.2">
<path d="M322.742 29.8331C321.928 28.6855 321.572 27.3055 321.755 25.9116C321.966 24.2967 322.981 22.8382 324.427 22.071C324.89 21.8253 325.379 21.6623 325.876 21.5832C325.136 21.288 324.374 21.0592 323.614 20.9228C318.99 20.0909 314.862 21.5077 314.393 24.0867C313.925 26.6656 317.293 29.4305 321.918 30.2623C322.36 30.342 322.811 30.4139 323.263 30.4766C323.078 30.272 322.902 30.0601 322.742 29.8343V29.8331Z" fill="#34706B"/>
</g>
<g style="mix-blend-mode:multiply" opacity="0.22">
<path d="M322.952 100.196C339.042 100.196 352.086 97.8365 352.086 94.9258C352.086 92.0152 339.042 89.6557 322.952 89.6557C306.861 89.6557 293.817 92.0152 293.817 94.9258C293.817 97.8365 306.861 100.196 322.952 100.196Z" fill="#34706B"/>
</g>
</g>
<path d="M476.14 186.276C477.654 185.107 478.149 183.151 477.278 181.529C477.553 181.329 477.785 181.083 477.943 180.776C478.472 179.748 477.79 178.728 477.034 178.04L477.334 177.054C478.133 174.43 477.251 171.587 475.106 169.866L459.374 157.256C458.337 157.485 457.257 157.526 456.208 157.383C454.939 157.209 453.647 156.758 452.663 155.92C451.795 155.18 451.262 154.133 451.362 152.98C451.415 152.374 451.622 151.807 451.919 151.281L438.454 140.488C436.871 139.219 434.796 138.726 432.806 139.147L395.085 147.124C391.641 147.852 389.336 151.087 389.784 154.56C388.82 155.121 388.101 156.007 388.009 157.226C387.946 158.054 388.225 158.866 388.66 159.572C388.907 159.973 389.364 160.283 389.58 160.686C389.692 160.894 389.77 160.977 389.824 161.001C389.791 161.102 389.751 161.273 389.708 161.552C389.41 163.511 388.604 164.838 389.068 166.942C389.493 168.874 390.523 170.508 392.026 171.776L392.203 173.131C392.033 173.195 391.866 173.265 391.706 173.351C391.318 173.561 390.988 173.809 390.753 174.186C390.678 174.306 390.613 174.392 390.578 174.522C390.534 174.691 390.488 174.903 390.529 175.079C390.568 175.367 390.704 175.6 390.936 175.778C391.123 175.932 391.334 176.037 391.562 176.105C390.839 176.71 390.364 177.547 390.406 178.615C390.474 180.341 392.002 181.474 393.39 182.254L393.881 186.025C393.52 186.285 393.217 186.62 393.024 187.05C392.756 187.646 392.726 188.274 393 188.882C393.293 189.53 393.9 189.947 394.562 190.169C395.288 192.285 397.039 193.94 399.274 194.511L460.494 210.157C464.003 211.054 467.598 209.04 468.648 205.591L469.777 201.882C471.429 201.185 472.783 199.83 473.118 198.099C473.378 196.756 473.032 195.357 472.02 194.514L474.331 186.92C475.004 186.838 475.666 186.641 476.139 186.276H476.14Z" fill="#34706B"/>
<path d="M475.106 169.866L459.374 157.256C458.338 157.484 457.258 157.526 456.208 157.382C454.939 157.209 453.647 156.758 452.663 155.92C451.795 155.18 451.262 154.133 451.362 152.98C451.415 152.374 451.622 151.807 451.919 151.281L438.454 140.488C436.87 139.219 434.796 138.726 432.806 139.147L395.085 147.124C393.434 147.474 392.049 148.403 391.099 149.655C397.08 151.395 402.937 153.533 408.734 155.805C415.028 158.272 421.26 160.895 427.556 163.36C433.83 165.817 440.175 168.124 446.672 169.933C449.875 170.825 453.112 171.594 456.383 172.197C459.557 172.782 462.761 173.136 465.96 173.546C468.714 173.899 471.503 174.21 474.281 173.972C475.347 173.881 476.392 173.698 477.407 173.421C477.05 172.05 476.265 170.794 475.107 169.865L475.106 169.866Z" fill="#5D8D89"/>
<path d="M446.421 177.53C445.737 181.626 440.864 185.6 435.961 183.151C432.409 181.378 429.856 173.676 433.525 170.832C435.465 169.328 439 170.127 441.14 170.748C445.009 171.869 446.897 174.686 446.421 177.53Z" fill="#34706B"/>
<g style="mix-blend-mode:multiply" opacity="0.22">
<path d="M435.757 172.591C438.477 173.544 440.467 175.926 441.671 178.451C442.295 179.759 442.756 181.195 442.975 182.66C444.786 181.448 446.091 179.504 446.421 177.53C446.896 174.686 445.009 171.868 441.14 170.748C438.998 170.128 435.464 169.329 433.524 170.832C433.028 171.216 432.649 171.693 432.367 172.229C433.506 172.099 434.657 172.206 435.757 172.591Z" fill="#34706B"/>
</g>
<path d="M415.84 173.84C416.32 171.2 414.41 168.647 411.574 168.137C408.738 167.626 406.05 169.353 405.57 171.992C405.09 174.631 407 177.185 409.836 177.695C412.673 178.205 415.361 176.479 415.84 173.84Z" fill="#34706B"/>
<g style="mix-blend-mode:multiply" opacity="0.38">
<path d="M408.729 169.937C410.779 170.216 412.346 171.87 413.438 173.499C413.964 174.283 414.424 175.12 414.821 175.986C415.331 175.383 415.692 174.655 415.84 173.838C416.32 171.199 414.409 168.645 411.573 168.135C409.404 167.745 407.326 168.665 406.251 170.299C407.033 169.978 407.872 169.82 408.729 169.937Z" fill="#34706B"/>
</g>
<path d="M427.269 193.855C428.715 192.416 428.715 190.084 427.269 188.645C425.823 187.206 423.478 187.206 422.032 188.645C420.585 190.084 420.586 192.416 422.032 193.855C423.478 195.294 425.823 195.294 427.269 193.855Z" fill="#34706B"/>
<path d="M470.631 184.885C470.995 182.883 470.03 181.033 468.474 180.753C466.919 180.473 465.363 181.87 464.999 183.872C464.635 185.874 465.601 187.724 467.156 188.004C468.712 188.284 470.267 186.888 470.631 184.885Z" fill="#34706B"/>
<path d="M452.397 200.498C452.744 198.587 451.543 196.77 449.713 196.441C447.883 196.112 446.119 197.395 445.771 199.306C445.424 201.217 446.625 203.034 448.455 203.363C450.285 203.692 452.049 202.409 452.397 200.498Z" fill="#34706B"/>
<g style="mix-blend-mode:multiply" opacity="0.38">
<path d="M422.867 189.346C425.055 189.588 426.873 190.926 428.052 192.702C428.16 192.451 428.245 192.186 428.296 191.906C428.66 189.904 427.323 187.987 425.31 187.625C423.756 187.345 422.256 188.077 421.484 189.346C421.942 189.296 422.406 189.295 422.867 189.346H422.867Z" fill="#34706B"/>
</g>
<g style="mix-blend-mode:multiply" opacity="0.38">
<path d="M466.84 182.621C468.323 183.564 469.28 185.051 469.886 186.676C470.24 186.176 470.505 185.566 470.63 184.883C470.994 182.88 470.028 181.03 468.473 180.751C467.446 180.566 466.422 181.114 465.738 182.081C466.122 182.223 466.493 182.4 466.84 182.621H466.84Z" fill="#34706B"/>
</g>
<g style="mix-blend-mode:multiply" opacity="0.38">
<path d="M447.398 197.393C448.797 197.742 449.805 198.877 450.417 200.125C450.798 200.902 451.049 201.758 451.155 202.627C451.778 202.11 452.236 201.37 452.395 200.495C452.742 198.584 451.541 196.767 449.711 196.438C448.648 196.247 447.609 196.602 446.854 197.306C447.037 197.322 447.217 197.349 447.398 197.393Z" fill="#34706B"/>
</g>
<path d="M413.867 156.465C414.28 154.19 412.242 151.918 409.314 151.391C406.386 150.864 403.678 152.282 403.264 154.558C402.85 156.833 404.889 159.105 407.816 159.632C410.744 160.158 413.453 158.741 413.867 156.465Z" fill="#34706B"/>
<g style="mix-blend-mode:multiply" opacity="0.63">
<path d="M412.098 157.251C410.49 156.822 408.861 156.458 407.284 155.92C405.92 155.454 404.55 154.841 403.477 153.863C403.383 154.084 403.308 154.314 403.264 154.557C402.85 156.832 404.888 159.104 407.816 159.63C410.204 160.06 412.444 159.196 413.414 157.628C412.979 157.492 412.539 157.368 412.098 157.25V157.251Z" fill="#34706B"/>
</g>
<g style="mix-blend-mode:overlay">
<path d="M437.282 181.289C437.774 180.809 437.709 179.947 437.135 179.365C436.562 178.783 435.698 178.7 435.205 179.18C434.712 179.661 434.778 180.522 435.351 181.104C435.925 181.686 436.789 181.769 437.282 181.289Z" fill="#5D8D89"/>
</g>
<g style="mix-blend-mode:overlay">
<path d="M406.67 158.334C406.435 158.563 406.022 158.523 405.749 158.245C405.475 157.968 405.443 157.557 405.679 157.328C405.914 157.099 406.326 157.138 406.6 157.416C406.874 157.694 406.905 158.105 406.67 158.334Z" fill="#5D8D89"/>
</g>
<g style="mix-blend-mode:overlay">
<path d="M410.056 176.125C410.291 175.896 410.259 175.485 409.986 175.207C409.712 174.929 409.299 174.89 409.064 175.119C408.829 175.348 408.861 175.759 409.134 176.037C409.408 176.315 409.82 176.354 410.056 176.125Z" fill="#5D8D89"/>
</g>
<g style="mix-blend-mode:overlay">
<path d="M423.62 192.662C423.385 192.891 422.973 192.851 422.699 192.574C422.425 192.296 422.394 191.885 422.629 191.656C422.864 191.427 423.277 191.466 423.55 191.744C423.824 192.022 423.855 192.433 423.62 192.662Z" fill="#5D8D89"/>
</g>
<g style="mix-blend-mode:overlay">
<path d="M448.779 202.377C448.544 202.607 448.131 202.567 447.858 202.289C447.584 202.011 447.552 201.6 447.788 201.371C448.023 201.142 448.435 201.182 448.709 201.46C448.983 201.737 449.014 202.148 448.779 202.377Z" fill="#5D8D89"/>
</g>
<g style="mix-blend-mode:overlay">
<path d="M468.181 186.451C468.416 186.222 468.385 185.811 468.111 185.533C467.837 185.255 467.425 185.216 467.19 185.445C466.955 185.674 466.986 186.085 467.26 186.363C467.534 186.641 467.946 186.681 468.181 186.451Z" fill="#5D8D89"/>
</g>
<path d="M442.568 155.507C442.099 158.086 436.654 158.093 432.03 157.262C427.406 156.43 424.037 153.665 424.506 151.086C424.974 148.507 429.103 147.091 433.727 147.922C438.351 148.754 443.035 152.928 442.567 155.507H442.568Z" fill="#34706B"/>
<g style="mix-blend-mode:multiply" opacity="0.2">
<path d="M432.855 156.833C432.042 155.685 431.686 154.305 431.869 152.912C432.08 151.297 433.095 149.838 434.54 149.071C435.003 148.825 435.493 148.662 435.99 148.583C435.25 148.288 434.488 148.059 433.728 147.923C429.104 147.091 424.975 148.508 424.507 151.087C424.038 153.666 427.407 156.43 432.031 157.262C432.474 157.342 432.925 157.414 433.377 157.477C433.192 157.272 433.016 157.06 432.855 156.834V156.833Z" fill="#34706B"/>
</g>
<g style="mix-blend-mode:multiply" opacity="0.22">
<path d="M433.065 227.196C449.155 227.196 462.199 224.836 462.199 221.926C462.199 219.015 449.155 216.656 433.065 216.656C416.974 216.656 403.93 219.015 403.93 221.926C403.93 224.836 416.974 227.196 433.065 227.196Z" fill="#34706B"/>
</g>
<defs>
<clipPath id="clip0_603_8943">
<rect width="240" height="235" fill="white"/>
</clipPath>
<clipPath id="clip1_603_8943">
<rect width="101.001" height="99" fill="white" transform="translate(281)"/>
</clipPath>
</defs>
</svg>
