<svg width="99" height="268" viewBox="0 0 99 268" fill="none" xmlns="http://www.w3.org/2000/svg">
<path d="M116.88 10.0489C117.669 14.6187 114.88 18.4323 110.342 18.769C94.0175 19.9501 70.4125 25.0379 50.5536 42.4835C41.1125 50.7711 11.055 81.8448 19.9972 133.651L20.0164 133.762C20.4166 136.08 30.4199 190.706 80.9917 225.61C106.805 243.427 132.068 248.458 148.692 249.527C153.63 249.842 158.103 253.992 158.747 259.004C159.376 263.926 155.884 267.637 150.947 267.322C131.772 266.072 102.661 260.258 72.7352 239.608C15.2888 199.953 3.43948 140.138 2.28131 133.428L2.25822 133.294C-8.08452 73.3742 26.4335 37.674 37.2552 28.1682C60.0481 8.13377 87.0433 2.33222 105.679 0.972475C110.479 0.618541 115.407 4.3331 116.697 9.24562C116.766 9.51353 116.834 9.78145 116.88 10.0489Z" fill="#5DB1AA"/>
</svg>
