<svg width="31" height="37" viewBox="0 0 31 37" fill="none" xmlns="http://www.w3.org/2000/svg">
<path d="M2.6913 0.890929C2.63106 0.341939 2.13718 -0.0542724 1.58819 0.00596608C1.0392 0.0662045 0.642993 0.560082 0.703232 1.10907L2.6913 0.890929ZM8.81404 22.9062L9.57112 22.2529L8.81404 22.9062ZM30.5632 28.986C30.932 28.5749 30.8978 27.9427 30.4867 27.5738L23.7878 21.5634C23.3767 21.1946 22.7445 21.2289 22.3757 21.6399C22.0068 22.051 22.0411 22.6832 22.4522 23.0521L28.4067 28.3946L23.0642 34.3492C22.6953 34.7603 22.7296 35.3925 23.1407 35.7614C23.5518 36.1302 24.184 36.0959 24.5528 35.6849L30.5632 28.986ZM1.69727 1C0.703232 1.10907 0.703254 1.10928 0.703283 1.10954C0.703302 1.10971 0.703337 1.11003 0.703374 1.11037C0.703448 1.11104 0.703548 1.11194 0.703675 1.11309C0.703929 1.11538 0.704289 1.11861 0.704756 1.12278C0.705691 1.13111 0.707054 1.14318 0.708853 1.15889C0.712452 1.19031 0.717797 1.23629 0.724948 1.29606C0.739249 1.4156 0.760778 1.59035 0.790019 1.81418C0.848493 2.26177 0.937857 2.90601 1.062 3.69781C1.31012 5.28032 1.698 7.45769 2.25734 9.83559C3.36164 14.5303 5.18177 20.2277 8.05695 23.5595L9.57112 22.2529C7.04662 19.3274 5.30837 14.0718 4.2042 9.37764C3.65931 7.06115 3.28044 4.93522 3.03786 3.38802C2.91666 2.61496 2.82969 1.98774 2.77317 1.55509C2.74491 1.3388 2.72428 1.17123 2.71079 1.05849C2.70404 1.00211 2.69909 0.959457 2.69586 0.931274C2.69424 0.917183 2.69306 0.906712 2.69231 0.899955C2.69193 0.896577 2.69165 0.894128 2.69149 0.89262C2.6914 0.891865 2.69135 0.891346 2.69131 0.891064C2.6913 0.890923 2.6913 0.890889 2.69129 0.890818C2.69129 0.890844 2.6913 0.890929 1.69727 1ZM8.05695 23.5595C9.56311 25.3049 11.7288 26.5015 14.0351 27.3324C16.351 28.1668 18.8866 28.6602 21.2176 28.951C23.5529 29.2423 25.7113 29.3336 27.2842 29.3524C28.0717 29.3618 28.7147 29.3531 29.1627 29.3419C29.3868 29.3364 29.5622 29.3302 29.6826 29.3253C29.7429 29.3229 29.7894 29.3208 29.8213 29.3193C29.8373 29.3185 29.8497 29.3179 29.8583 29.3174C29.8627 29.3172 29.866 29.317 29.8685 29.3169C29.8697 29.3169 29.8707 29.3168 29.8714 29.3168C29.8718 29.3167 29.8722 29.3167 29.8724 29.3167C29.8727 29.3167 29.873 29.3167 29.8189 28.3181C29.7648 27.3196 29.7649 27.3196 29.765 27.3196C29.765 27.3196 29.765 27.3196 29.7649 27.3196C29.7647 27.3196 29.7643 27.3196 29.7636 27.3197C29.7622 27.3197 29.76 27.3199 29.7568 27.32C29.7504 27.3204 29.7403 27.3209 29.7266 27.3215C29.6992 27.3228 29.6574 27.3247 29.602 27.3269C29.4912 27.3314 29.3261 27.3372 29.1129 27.3426C28.6864 27.3532 28.0681 27.3616 27.3082 27.3525C25.7865 27.3343 23.7061 27.2459 21.4651 26.9664C19.2199 26.6863 16.8417 26.2178 14.713 25.4508C12.5746 24.6804 10.7648 23.6362 9.57112 22.2529L8.05695 23.5595Z" fill="#264F4C"/>
</svg>
