<svg width="36" height="47" viewBox="0 0 36 47" fill="none" xmlns="http://www.w3.org/2000/svg">
<rect width="36" height="47" rx="7" fill="#36706B"/>
<path d="M22 30V32C22 32.5304 21.7893 33.0391 21.4142 33.4142C21.0391 33.7893 20.5304 34 20 34H12C11.4696 34 10.9609 33.7893 10.5858 33.4142C10.2107 33.0391 10 32.5304 10 32V21C10 20.4696 10.2107 19.9609 10.5858 19.5858C10.9609 19.2107 11.4696 19 12 19H14M14 16V28C14 28.5304 14.2107 29.0391 14.5858 29.4142C14.9609 29.7893 15.4696 30 16 30H24C24.5304 30 25.0391 29.7893 25.4142 29.4142C25.7893 29.0391 26 28.5304 26 28V19.242C26 18.9756 25.9467 18.7118 25.8433 18.4662C25.7399 18.2207 25.5885 17.9982 25.398 17.812L22.083 14.57C21.7094 14.2047 21.2076 14.0001 20.685 14H16C15.4696 14 14.9609 14.2107 14.5858 14.5858C14.2107 14.9609 14 15.4696 14 16Z" stroke="#CBE6E4" stroke-linecap="round" stroke-linejoin="round"/>
</svg>
