<svg width="192" height="83" viewBox="0 0 192 83" fill="none" xmlns="http://www.w3.org/2000/svg">
<path d="M26.2948 2.49869C29.223 2.59608 31.1866 4.56908 30.7622 7.09858C29.2172 16.1944 29.0677 29.739 37.0613 42.6617C40.8577 48.8046 55.836 68.9056 89.0317 70.0097L89.1031 70.0121C90.5887 70.0615 125.671 70.9103 154.24 47.2072C168.824 35.1087 175.445 21.8282 178.419 12.8289C179.301 10.1556 182.484 8.18259 185.664 8.41066C188.787 8.63683 190.59 10.9836 189.708 13.6568C186.267 24.0347 178.627 39.3357 161.724 53.3626C129.267 80.2872 90.7266 79.8491 86.4272 79.7061L86.3415 79.7033C47.9464 78.4263 30.7361 55.3406 26.3806 48.2986C17.199 33.4654 17.3804 17.9774 19.1371 7.5924C19.5873 4.91703 22.5645 2.64365 25.7739 2.50582C25.9486 2.4994 26.1234 2.49298 26.2948 2.49869Z" fill="#85A9A6"/>
<path d="M43.6671 0.149594C45.9688 0.226146 47.5123 1.77699 47.1787 3.76525C45.9643 10.9148 45.8467 21.5614 52.13 31.719C55.1141 36.5475 66.8875 52.3476 92.9804 53.2154L93.0366 53.2173C94.2042 53.2561 121.78 53.9234 144.237 35.2919C155.7 25.7821 160.904 15.3432 163.242 8.26947C163.935 6.16821 166.437 4.61733 168.937 4.7966C171.392 4.97437 172.809 6.819 172.115 8.92025C169.41 17.0776 163.405 29.1047 150.119 40.1303C124.606 61.2939 94.3127 60.9496 90.9332 60.8372L90.8658 60.8349C60.686 59.8312 47.1582 41.685 43.7346 36.1498C36.5175 24.4904 36.6602 12.3164 38.041 4.15342C38.3949 2.05049 40.7351 0.263538 43.2577 0.155192C43.3951 0.150149 43.5324 0.145113 43.6671 0.149594Z" fill="#F28D00"/>
</svg>
