<svg width="100" height="280" viewBox="0 0 100 280" fill="none" xmlns="http://www.w3.org/2000/svg">
<path d="M123.467 41.6756C123.31 45.9055 120.269 48.6483 116.378 47.9104C102.387 45.2295 81.5469 44.3482 61.6436 55.2737C52.1825 60.4623 21.2171 81.1363 19.4357 129.088L19.4318 129.191C19.3521 131.337 17.9587 182.03 54.3581 224.51C72.9369 246.194 93.3542 256.421 107.194 261.164C111.304 262.571 114.332 267.27 113.974 271.858C113.618 276.364 110.002 278.856 105.892 277.449C89.9323 271.963 66.4086 260.163 44.8685 235.029C3.52219 186.77 4.29211 131.056 4.52284 124.846L4.52744 124.722C6.58786 69.2593 42.1512 45.5039 52.9971 39.551C75.8429 27.0012 99.6727 28.024 115.647 31.0744C119.762 31.8569 123.253 36.274 123.457 40.922C123.466 41.175 123.476 41.428 123.467 41.6756Z" fill="#F7BB66"/>
<path d="M132.718 72.7204C132.602 75.8496 130.352 77.8786 127.474 77.3328C117.124 75.3495 101.707 74.6975 86.9826 82.78C79.9835 86.6185 57.0759 101.913 55.758 137.387L55.7552 137.463C55.6962 139.05 54.6653 176.552 81.5929 207.978C95.3372 224.019 110.441 231.585 120.68 235.094C123.721 236.134 125.961 239.611 125.695 243.005C125.432 246.338 122.758 248.182 119.716 247.141C107.91 243.082 90.5077 234.353 74.5727 215.76C43.9855 180.058 44.5551 138.842 44.7258 134.248L44.7292 134.156C46.2535 93.1262 72.5625 75.5525 80.5861 71.1486C97.487 61.8645 115.116 62.6212 126.933 64.8779C129.978 65.4567 132.56 68.7244 132.711 72.1629C132.718 72.3501 132.725 72.5373 132.718 72.7204Z" fill="#85A9A6"/>
</svg>
