<svg width="126" height="10" viewBox="0 0 126 10" fill="none" xmlns="http://www.w3.org/2000/svg">
<path d="M63.4453 5.16551L63.2255 5.21572H63C45.627 5.21572 29.9146 5.59498 18.5598 6.20636C14.9362 6.40147 11.7712 6.61947 9.14542 6.85462C9.71285 6.90877 10.3128 6.96163 10.9462 7.01301C18.4315 7.62025 30.2835 8 47.6645 8C65.0374 8 84.5943 7.62076 99.7994 7.00809C107.406 6.70158 113.9 6.33759 118.478 5.93589C118.951 5.89437 119.402 5.85262 119.83 5.8107C116.865 4.87485 112.706 3.8761 107.581 3.13579C96.4943 1.53431 80.9951 1.15722 63.4453 5.16551Z" stroke="#F8961E" stroke-width="4"/>
</svg>
