<svg width="96" height="249" viewBox="0 0 96 249" fill="none" xmlns="http://www.w3.org/2000/svg">
<path d="M119.467 12.6756C119.31 16.9055 116.269 19.6483 112.378 18.9104C98.3867 16.2295 77.5469 15.3482 57.6436 26.2737C48.1825 31.4623 17.2171 52.1363 15.4357 100.088L15.4318 100.191C15.3521 102.337 13.9587 153.03 50.3581 195.51C68.9369 217.194 89.3542 227.421 103.194 232.164C107.304 233.571 110.332 238.27 109.974 242.858C109.618 247.364 106.002 249.856 101.892 248.449C85.9323 242.963 62.4086 231.163 40.8685 206.029C-0.477814 157.77 0.292111 102.056 0.522836 95.8456L0.527435 95.7218C2.58786 40.2593 38.1512 16.5039 48.9971 10.5509C71.8429 -1.99883 95.6728 -0.975973 111.647 2.07445C115.762 2.85689 119.253 7.274 119.457 11.922C119.466 12.175 119.476 12.428 119.467 12.6756Z" fill="#FABA6B"/>
</svg>
