<svg width="56" height="185" viewBox="0 0 56 185" fill="none" xmlns="http://www.w3.org/2000/svg">
<path d="M88.7181 9.72044C88.6018 12.8496 86.3524 14.8786 83.474 14.3328C73.1236 12.3495 57.7067 11.6975 42.9826 19.78C35.9835 23.6185 13.0759 38.9126 11.758 74.3866L11.7552 74.4629C11.6962 76.0504 10.6654 113.552 37.5929 144.978C51.3372 161.019 66.4415 168.585 76.6795 172.094C79.7207 173.134 81.9607 176.611 81.6952 180.005C81.432 183.338 78.7575 185.182 75.7163 184.141C63.91 180.082 46.5077 171.353 30.5727 152.76C-0.014474 117.058 0.555102 75.8425 0.725787 71.2479L0.72919 71.1564C2.25345 30.1262 28.5625 12.5525 36.5861 8.14863C53.487 -1.13545 71.1158 -0.37876 82.9333 1.87788C85.9778 2.45672 88.56 5.72441 88.7109 9.1629C88.7179 9.35009 88.7249 9.53727 88.7181 9.72044Z" fill="#64E7BB"/>
</svg>
