<svg width="62" height="66" viewBox="0 0 62 66" fill="none" xmlns="http://www.w3.org/2000/svg">
<path d="M57.8539 30.5044C57.8095 28.5494 58.371 26.6304 59.457 25.025H59.3796C54.2771 25.025 50.9105 21.3475 50.9105 16.1011C50.8686 14.8579 51.0828 13.6197 51.5392 12.4677C51.9955 11.3157 52.6837 10.2759 53.5585 9.41667C48.0856 3.73264 40.3904 0.447266 31.3298 0.447266C13.0868 0.447266 0.37207 13.8445 0.37207 32.9997C0.37207 52.1549 12.6833 65.5635 31.3298 65.5635C47.8092 65.5635 59.855 54.5991 62 38.337C59.3852 36.8933 57.8539 34.0626 57.8539 30.5044ZM31.3187 52.3198C21.1911 52.3198 14.9554 44.7486 14.9554 32.9145C14.9554 21.2622 21.1911 13.5092 31.3187 13.5092C41.4463 13.5092 47.765 21.2622 47.765 32.9145C47.7484 44.7486 41.5126 52.3198 31.3187 52.3198Z" fill="#F28D00"/>
</svg>
