<svg width="74" height="234" viewBox="0 0 74 234" fill="none" xmlns="http://www.w3.org/2000/svg">
<path d="M-35.4392 225.448C-35.0925 221.448 -32.2815 218.233 -28.8938 218.102C-16.7133 217.658 1.58265 214.078 19.6364 199.625C28.218 192.758 56.4872 166.824 60.4183 121.478L60.4267 121.381C60.6027 119.352 64.3275 71.5176 34.389 39.3768C19.1081 22.9699 1.64461 17.6958 -10.3004 16.1737C-13.8488 15.7235 -16.2818 11.9567 -15.7399 7.57806C-15.2047 3.27749 -11.9004 0.176312 -8.352 0.626501C5.422 2.39724 25.5416 8.48964 43.2585 27.5052C77.2654 64.0207 73.8419 116.431 73.3327 122.304L73.3226 122.421C68.7757 174.869 36.3085 204.665 26.4706 212.541C5.74727 229.14 -15.173 233.219 -29.0804 233.736C-32.6634 233.872 -35.5173 230.468 -35.4679 226.152C-35.4637 225.917 -35.4595 225.682 -35.4392 225.448Z" fill="#FABA6B"/>
</svg>
