<svg width="90" height="7" viewBox="0 0 90 7" fill="none" xmlns="http://www.w3.org/2000/svg">
<path d="M2 3.7112C7.21456 3.98556 12.4202 4.03671 17.6594 4.10335C28.3616 4.23947 39.0607 4.33995 49.7657 4.40043C61.3709 4.46601 72.9764 4.55079 84.5823 4.5668C86.2193 4.56906 87.8563 4.5668 89.4933 4.5668C89.6516 4.5668 90.1264 4.5668 89.9681 4.5668C88.8758 4.5668 88.7656 4.56464 87.2115 4.59057C68.2636 4.90667 49.2623 5.29172 30.3189 4.66187C27.7147 4.57528 25.659 4.49122 23.1494 4.31725C22.5369 4.27479 20.8236 4.27561 21.3426 4.10335C22.1049 3.85032 23.1565 4.04579 24.0644 4.04987C27.9409 4.06732 31.8114 4.16063 35.6815 4.26972C46.1303 4.56423 56.5621 4.5668 67.0235 4.5668C75.6148 4.5668 49.8221 4.46557 41.2527 4.7807C38.8485 4.86911 36.4607 4.9946 34.0484 4.9946C31.652 4.9946 38.7827 4.60903 41.16 4.45391C51.2039 3.79851 61.291 3.42081 71.3553 2.87342C75.5598 2.64474 79.7427 2.26403 83.9337 2" stroke="#F8961E" stroke-width="3" stroke-linecap="round"/>
</svg>
