<svg width="66" height="304" viewBox="0 0 66 304" fill="none" xmlns="http://www.w3.org/2000/svg">
<path d="M124.99 10.3079C125.157 15.5043 122.036 20.0693 117.7 20.7568C102.106 23.1952 79.1289 30.6033 58.1309 51.9568C48.149 62.1014 15.7759 99.7836 17.6738 158.693L17.6779 158.82C17.7628 161.456 20.3075 223.534 63.7315 260.272C85.896 279.025 109.16 283.129 124.753 283.255C129.384 283.29 133.09 287.76 133.065 293.474C133.036 299.085 129.263 303.58 124.631 303.545C106.648 303.38 79.8437 298.631 54.147 276.896C4.82083 235.158 1.18708 167.241 0.941271 159.612L0.936371 159.459C-1.25875 91.323 35.9203 48.0314 47.3628 36.3961C71.4645 11.8748 97.7391 3.42215 115.543 0.625341C120.129 -0.0993121 124.321 3.8405 124.919 9.39734C124.949 9.70055 124.98 10.0038 124.99 10.3079Z" fill="#FABA6B"/>
</svg>
